M48
; DRILL file {KiCad 8.0.3} date 2024-08-19T01:24:24-0400
; FORMAT={-:-/ absolute / metric / decimal}
; #@! TF.CreationDate,2024-08-19T01:24:24-04:00
; #@! TF.GenerationSoftware,Kicad,Pcbnew,8.0.3
; #@! TF.FileFunction,Plated,1,2,PTH
FMAT,2
METRIC
; #@! TA.AperFunction,Plated,PTH,ComponentDrill
T1C0.660
; #@! TA.AperFunction,Plated,PTH,ComponentDrill
T2C0.700
; #@! TA.AperFunction,Plated,PTH,ComponentDrill
T3C0.800
; #@! TA.AperFunction,Plated,PTH,ComponentDrill
T4C0.900
; #@! TA.AperFunction,Plated,PTH,ComponentDrill
T5C1.000
; #@! TA.AperFunction,Plated,PTH,ComponentDrill
T6C1.100
; #@! TA.AperFunction,Plated,PTH,ComponentDrill
T7C1.143
; #@! TA.AperFunction,Plated,PTH,ComponentDrill
T8C1.200
; #@! TA.AperFunction,Plated,PTH,ComponentDrill
T9C1.270
; #@! TA.AperFunction,Plated,PTH,ComponentDrill
T10C1.524
; #@! TA.AperFunction,Plated,PTH,ComponentDrill
T11C2.540
; #@! TA.AperFunction,Plated,PTH,ComponentDrill
T12C3.353
; #@! TA.AperFunction,Plated,PTH,ComponentDrill
T13C4.064
%
G90
G05
T1
X105.33Y-87.63
X105.33Y-88.9
X105.33Y-90.17
X105.33Y-91.44
X105.33Y-92.71
X106.6Y-87.63
X106.6Y-88.9
X106.6Y-90.17
X106.6Y-91.44
X106.6Y-92.71
T2
X105.41Y-117.475
X105.41Y-125.095
X109.22Y-120.015
X109.22Y-127.635
X132.715Y-106.045
X132.715Y-113.665
X149.86Y-127.635
X149.86Y-135.255
T3
X105.49Y-100.33
X106.045Y-70.485
X110.49Y-100.33
X112.075Y-78.105
X112.075Y-80.645
X112.075Y-83.185
X112.075Y-85.725
X112.075Y-88.265
X112.075Y-90.805
X112.075Y-93.345
X112.075Y-95.885
X116.205Y-70.485
X119.38Y-66.675
X119.695Y-78.105
X119.695Y-80.645
X119.695Y-83.185
X119.695Y-85.725
X119.695Y-88.265
X119.695Y-90.805
X119.695Y-93.345
X119.695Y-95.885
X121.285Y-102.235
X121.285Y-112.395
X121.92Y-69.85
X121.92Y-116.205
X121.92Y-120.65
X125.095Y-78.105
X125.095Y-80.645
X125.095Y-83.185
X125.095Y-85.725
X125.095Y-88.265
X125.095Y-90.805
X125.095Y-93.345
X125.095Y-95.885
X125.77Y-109.855
X128.27Y-109.855
X129.54Y-116.205
X132.08Y-66.675
X132.08Y-69.85
X132.08Y-120.65
X132.08Y-124.46
X132.08Y-134.62
X132.715Y-78.105
X132.715Y-80.645
X132.715Y-83.185
X132.715Y-85.725
X132.715Y-88.265
X132.715Y-90.805
X132.715Y-93.345
X132.715Y-95.885
X135.795Y-109.855
X135.89Y-69.215
X135.89Y-74.215
X136.525Y-78.105
X136.525Y-88.265
X136.535Y-118.795
X136.535Y-121.335
X136.535Y-123.875
X136.535Y-126.415
X137.795Y-109.855
X138.47Y-137.16
X139.7Y-70.485
X139.71Y-83.195
X139.71Y-85.735
X139.71Y-88.275
X139.71Y-90.815
X139.72Y-97.155
X139.78Y-93.98
X142.22Y-97.155
X142.28Y-80.01
X143.19Y-141.605
X143.47Y-137.16
X144.155Y-118.795
X144.155Y-121.335
X144.155Y-123.875
X144.155Y-126.415
X144.78Y-76.835
X144.78Y-93.98
X145.19Y-141.605
X147.28Y-76.835
X147.28Y-80.01
X147.33Y-83.195
X147.33Y-85.735
X147.33Y-88.275
X147.33Y-90.815
X147.955Y-118.785
X147.955Y-123.785
X149.86Y-70.485
T4
X111.755Y-64.77
X114.295Y-64.77
X123.19Y-128.27
X125.73Y-128.27
X140.33Y-64.77
X142.87Y-64.77
T5
X149.835Y-146.05
X149.835Y-148.59
X149.835Y-151.13
X149.835Y-153.67
X149.835Y-156.21
X149.835Y-158.75
T6
X138.43Y-133.35
X140.97Y-133.35
X143.51Y-133.35
X146.05Y-105.41
X146.05Y-107.95
X146.05Y-110.49
X148.59Y-105.41
X148.59Y-107.95
X148.59Y-110.49
T7
X114.3Y-113.467
X114.3Y-116.207
X114.3Y-118.947
X114.3Y-121.687
X116.84Y-112.097
X116.84Y-114.837
X116.84Y-117.577
X116.84Y-120.317
X116.84Y-123.057
T8
X103.07Y-138.43
X119.38Y-74.295
X125.73Y-74.295
X128.07Y-138.43
X132.08Y-62.865
X132.08Y-142.24
X132.08Y-156.21
X138.43Y-156.21
X144.78Y-156.21
X149.86Y-140.97
X151.13Y-83.185
X151.13Y-90.17
T9
X134.62Y-147.041
X142.24Y-150.495
T10
X107.95Y-146.05
X113.03Y-146.05
X118.11Y-146.05
X123.19Y-146.05
T11
X105.41Y-148.59
X125.73Y-148.59
T12
X115.57Y-105.082
X115.57Y-130.072
T13
X110.49Y-156.21
X120.65Y-156.21
M30
