G04 #@! TF.GenerationSoftware,KiCad,Pcbnew,8.0.3*
G04 #@! TF.CreationDate,2024-08-19T01:24:21-04:00*
G04 #@! TF.ProjectId,smoke-detector-interface,736d6f6b-652d-4646-9574-6563746f722d,rev?*
G04 #@! TF.SameCoordinates,Original*
G04 #@! TF.FileFunction,Legend,Top*
G04 #@! TF.FilePolarity,Positive*
%FSLAX46Y46*%
G04 Gerber Fmt 4.6, Leading zero omitted, Abs format (unit mm)*
G04 Created by KiCad (PCBNEW 8.0.3) date 2024-08-19 01:24:21*
%MOMM*%
%LPD*%
G01*
G04 APERTURE LIST*
G04 Aperture macros list*
%AMRoundRect*
0 Rectangle with rounded corners*
0 $1 Rounding radius*
0 $2 $3 $4 $5 $6 $7 $8 $9 X,Y pos of 4 corners*
0 Add a 4 corners polygon primitive as box body*
4,1,4,$2,$3,$4,$5,$6,$7,$8,$9,$2,$3,0*
0 Add four circle primitives for the rounded corners*
1,1,$1+$1,$2,$3*
1,1,$1+$1,$4,$5*
1,1,$1+$1,$6,$7*
1,1,$1+$1,$8,$9*
0 Add four rect primitives between the rounded corners*
20,1,$1+$1,$2,$3,$4,$5,0*
20,1,$1+$1,$4,$5,$6,$7,0*
20,1,$1+$1,$6,$7,$8,$9,0*
20,1,$1+$1,$8,$9,$2,$3,0*%
G04 Aperture macros list end*
%ADD10C,0.200000*%
%ADD11C,0.300000*%
%ADD12C,0.150000*%
%ADD13C,0.254000*%
%ADD14C,0.120000*%
%ADD15C,0.152400*%
%ADD16C,0.508000*%
%ADD17C,0.010000*%
%ADD18RoundRect,0.038000X-1.250000X-1.250000X1.250000X-1.250000X1.250000X1.250000X-1.250000X1.250000X0*%
%ADD19C,3.860600*%
%ADD20C,2.076000*%
%ADD21C,1.676000*%
%ADD22C,1.727000*%
%ADD23C,3.936800*%
%ADD24RoundRect,0.038000X0.900000X0.900000X-0.900000X0.900000X-0.900000X-0.900000X0.900000X-0.900000X0*%
%ADD25C,1.876000*%
%ADD26RoundRect,0.038000X-0.900000X-0.900000X0.900000X-0.900000X0.900000X0.900000X-0.900000X0.900000X0*%
%ADD27RoundRect,0.038000X-0.800000X-0.800000X0.800000X-0.800000X0.800000X0.800000X-0.800000X0.800000X0*%
%ADD28O,1.676000X1.676000*%
%ADD29C,1.476000*%
%ADD30O,1.476000X1.476000*%
%ADD31RoundRect,0.038000X0.800000X0.800000X-0.800000X0.800000X-0.800000X-0.800000X0.800000X-0.800000X0*%
%ADD32RoundRect,0.038000X-1.200000X-1.200000X1.200000X-1.200000X1.200000X1.200000X-1.200000X1.200000X0*%
%ADD33O,2.476000X2.476000*%
%ADD34C,1.854000*%
%ADD35C,3.276000*%
%ADD36RoundRect,0.038000X-0.952500X-1.000000X0.952500X-1.000000X0.952500X1.000000X-0.952500X1.000000X0*%
%ADD37O,1.981000X2.076000*%
%ADD38C,2.362000*%
%ADD39C,2.870000*%
%ADD40C,4.648000*%
%ADD41C,0.990400*%
%ADD42RoundRect,0.038000X-0.850000X-0.850000X0.850000X-0.850000X0.850000X0.850000X-0.850000X0.850000X0*%
%ADD43O,1.776000X1.776000*%
G04 APERTURE END LIST*
D10*
X151491695Y-154097231D02*
X151491695Y-153640088D01*
X152291695Y-153868660D02*
X151491695Y-153868660D01*
X151491695Y-153449612D02*
X152291695Y-152916278D01*
X151491695Y-152916278D02*
X152291695Y-153449612D01*
X152291695Y-151544849D02*
X151910742Y-151811516D01*
X152291695Y-152001992D02*
X151491695Y-152001992D01*
X151491695Y-152001992D02*
X151491695Y-151697230D01*
X151491695Y-151697230D02*
X151529790Y-151621040D01*
X151529790Y-151621040D02*
X151567885Y-151582945D01*
X151567885Y-151582945D02*
X151644076Y-151544849D01*
X151644076Y-151544849D02*
X151758361Y-151544849D01*
X151758361Y-151544849D02*
X151834552Y-151582945D01*
X151834552Y-151582945D02*
X151872647Y-151621040D01*
X151872647Y-151621040D02*
X151910742Y-151697230D01*
X151910742Y-151697230D02*
X151910742Y-152001992D01*
X151491695Y-151278183D02*
X152291695Y-150744849D01*
X151491695Y-150744849D02*
X152291695Y-151278183D01*
X151529790Y-149411516D02*
X151491695Y-149487706D01*
X151491695Y-149487706D02*
X151491695Y-149601992D01*
X151491695Y-149601992D02*
X151529790Y-149716278D01*
X151529790Y-149716278D02*
X151605980Y-149792468D01*
X151605980Y-149792468D02*
X151682171Y-149830563D01*
X151682171Y-149830563D02*
X151834552Y-149868659D01*
X151834552Y-149868659D02*
X151948838Y-149868659D01*
X151948838Y-149868659D02*
X152101219Y-149830563D01*
X152101219Y-149830563D02*
X152177409Y-149792468D01*
X152177409Y-149792468D02*
X152253600Y-149716278D01*
X152253600Y-149716278D02*
X152291695Y-149601992D01*
X152291695Y-149601992D02*
X152291695Y-149525801D01*
X152291695Y-149525801D02*
X152253600Y-149411516D01*
X152253600Y-149411516D02*
X152215504Y-149373420D01*
X152215504Y-149373420D02*
X151948838Y-149373420D01*
X151948838Y-149373420D02*
X151948838Y-149525801D01*
X152291695Y-149030563D02*
X151491695Y-149030563D01*
X151491695Y-149030563D02*
X152291695Y-148573420D01*
X152291695Y-148573420D02*
X151491695Y-148573420D01*
X152291695Y-148192468D02*
X151491695Y-148192468D01*
X151491695Y-148192468D02*
X151491695Y-148001992D01*
X151491695Y-148001992D02*
X151529790Y-147887706D01*
X151529790Y-147887706D02*
X151605980Y-147811516D01*
X151605980Y-147811516D02*
X151682171Y-147773421D01*
X151682171Y-147773421D02*
X151834552Y-147735325D01*
X151834552Y-147735325D02*
X151948838Y-147735325D01*
X151948838Y-147735325D02*
X152101219Y-147773421D01*
X152101219Y-147773421D02*
X152177409Y-147811516D01*
X152177409Y-147811516D02*
X152253600Y-147887706D01*
X152253600Y-147887706D02*
X152291695Y-148001992D01*
X152291695Y-148001992D02*
X152291695Y-148192468D01*
X152596457Y-146554373D02*
X152558361Y-146592468D01*
X152558361Y-146592468D02*
X152444076Y-146668659D01*
X152444076Y-146668659D02*
X152367885Y-146706754D01*
X152367885Y-146706754D02*
X152253600Y-146744849D01*
X152253600Y-146744849D02*
X152063123Y-146782944D01*
X152063123Y-146782944D02*
X151910742Y-146782944D01*
X151910742Y-146782944D02*
X151720266Y-146744849D01*
X151720266Y-146744849D02*
X151605980Y-146706754D01*
X151605980Y-146706754D02*
X151529790Y-146668659D01*
X151529790Y-146668659D02*
X151415504Y-146592468D01*
X151415504Y-146592468D02*
X151377409Y-146554373D01*
X152291695Y-146249611D02*
X151491695Y-146249611D01*
X151491695Y-146249611D02*
X151491695Y-145944849D01*
X151491695Y-145944849D02*
X151529790Y-145868659D01*
X151529790Y-145868659D02*
X151567885Y-145830564D01*
X151567885Y-145830564D02*
X151644076Y-145792468D01*
X151644076Y-145792468D02*
X151758361Y-145792468D01*
X151758361Y-145792468D02*
X151834552Y-145830564D01*
X151834552Y-145830564D02*
X151872647Y-145868659D01*
X151872647Y-145868659D02*
X151910742Y-145944849D01*
X151910742Y-145944849D02*
X151910742Y-146249611D01*
X151491695Y-145297230D02*
X151491695Y-145144849D01*
X151491695Y-145144849D02*
X151529790Y-145068659D01*
X151529790Y-145068659D02*
X151605980Y-144992468D01*
X151605980Y-144992468D02*
X151758361Y-144954373D01*
X151758361Y-144954373D02*
X152025028Y-144954373D01*
X152025028Y-144954373D02*
X152177409Y-144992468D01*
X152177409Y-144992468D02*
X152253600Y-145068659D01*
X152253600Y-145068659D02*
X152291695Y-145144849D01*
X152291695Y-145144849D02*
X152291695Y-145297230D01*
X152291695Y-145297230D02*
X152253600Y-145373421D01*
X152253600Y-145373421D02*
X152177409Y-145449611D01*
X152177409Y-145449611D02*
X152025028Y-145487707D01*
X152025028Y-145487707D02*
X151758361Y-145487707D01*
X151758361Y-145487707D02*
X151605980Y-145449611D01*
X151605980Y-145449611D02*
X151529790Y-145373421D01*
X151529790Y-145373421D02*
X151491695Y-145297230D01*
X152291695Y-144230564D02*
X152291695Y-144611516D01*
X152291695Y-144611516D02*
X151491695Y-144611516D01*
X151491695Y-143963897D02*
X152139314Y-143963897D01*
X152139314Y-143963897D02*
X152215504Y-143925802D01*
X152215504Y-143925802D02*
X152253600Y-143887707D01*
X152253600Y-143887707D02*
X152291695Y-143811516D01*
X152291695Y-143811516D02*
X152291695Y-143659135D01*
X152291695Y-143659135D02*
X152253600Y-143582945D01*
X152253600Y-143582945D02*
X152215504Y-143544850D01*
X152215504Y-143544850D02*
X152139314Y-143506754D01*
X152139314Y-143506754D02*
X151491695Y-143506754D01*
X152291695Y-142744850D02*
X152291695Y-143125802D01*
X152291695Y-143125802D02*
X151491695Y-143125802D01*
X151491695Y-142478183D02*
X152139314Y-142478183D01*
X152139314Y-142478183D02*
X152215504Y-142440088D01*
X152215504Y-142440088D02*
X152253600Y-142401993D01*
X152253600Y-142401993D02*
X152291695Y-142325802D01*
X152291695Y-142325802D02*
X152291695Y-142173421D01*
X152291695Y-142173421D02*
X152253600Y-142097231D01*
X152253600Y-142097231D02*
X152215504Y-142059136D01*
X152215504Y-142059136D02*
X152139314Y-142021040D01*
X152139314Y-142021040D02*
X151491695Y-142021040D01*
X152596457Y-141716279D02*
X152558361Y-141678184D01*
X152558361Y-141678184D02*
X152444076Y-141601993D01*
X152444076Y-141601993D02*
X152367885Y-141563898D01*
X152367885Y-141563898D02*
X152253600Y-141525803D01*
X152253600Y-141525803D02*
X152063123Y-141487707D01*
X152063123Y-141487707D02*
X151910742Y-141487707D01*
X151910742Y-141487707D02*
X151720266Y-141525803D01*
X151720266Y-141525803D02*
X151605980Y-141563898D01*
X151605980Y-141563898D02*
X151529790Y-141601993D01*
X151529790Y-141601993D02*
X151415504Y-141678184D01*
X151415504Y-141678184D02*
X151377409Y-141716279D01*
X100330000Y-59610000D02*
X148590000Y-59610000D01*
X148590000Y-97710000D01*
X100330000Y-97710000D01*
X100330000Y-59610000D01*
X107540149Y-57578742D02*
X107497292Y-57621600D01*
X107497292Y-57621600D02*
X107368720Y-57664457D01*
X107368720Y-57664457D02*
X107283006Y-57664457D01*
X107283006Y-57664457D02*
X107154435Y-57621600D01*
X107154435Y-57621600D02*
X107068720Y-57535885D01*
X107068720Y-57535885D02*
X107025863Y-57450171D01*
X107025863Y-57450171D02*
X106983006Y-57278742D01*
X106983006Y-57278742D02*
X106983006Y-57150171D01*
X106983006Y-57150171D02*
X107025863Y-56978742D01*
X107025863Y-56978742D02*
X107068720Y-56893028D01*
X107068720Y-56893028D02*
X107154435Y-56807314D01*
X107154435Y-56807314D02*
X107283006Y-56764457D01*
X107283006Y-56764457D02*
X107368720Y-56764457D01*
X107368720Y-56764457D02*
X107497292Y-56807314D01*
X107497292Y-56807314D02*
X107540149Y-56850171D01*
X108054435Y-57664457D02*
X107968720Y-57621600D01*
X107968720Y-57621600D02*
X107925863Y-57578742D01*
X107925863Y-57578742D02*
X107883006Y-57493028D01*
X107883006Y-57493028D02*
X107883006Y-57235885D01*
X107883006Y-57235885D02*
X107925863Y-57150171D01*
X107925863Y-57150171D02*
X107968720Y-57107314D01*
X107968720Y-57107314D02*
X108054435Y-57064457D01*
X108054435Y-57064457D02*
X108183006Y-57064457D01*
X108183006Y-57064457D02*
X108268720Y-57107314D01*
X108268720Y-57107314D02*
X108311578Y-57150171D01*
X108311578Y-57150171D02*
X108354435Y-57235885D01*
X108354435Y-57235885D02*
X108354435Y-57493028D01*
X108354435Y-57493028D02*
X108311578Y-57578742D01*
X108311578Y-57578742D02*
X108268720Y-57621600D01*
X108268720Y-57621600D02*
X108183006Y-57664457D01*
X108183006Y-57664457D02*
X108054435Y-57664457D01*
X108740149Y-57064457D02*
X108740149Y-57964457D01*
X108740149Y-57107314D02*
X108825864Y-57064457D01*
X108825864Y-57064457D02*
X108997292Y-57064457D01*
X108997292Y-57064457D02*
X109083006Y-57107314D01*
X109083006Y-57107314D02*
X109125864Y-57150171D01*
X109125864Y-57150171D02*
X109168721Y-57235885D01*
X109168721Y-57235885D02*
X109168721Y-57493028D01*
X109168721Y-57493028D02*
X109125864Y-57578742D01*
X109125864Y-57578742D02*
X109083006Y-57621600D01*
X109083006Y-57621600D02*
X108997292Y-57664457D01*
X108997292Y-57664457D02*
X108825864Y-57664457D01*
X108825864Y-57664457D02*
X108740149Y-57621600D01*
X109468721Y-57064457D02*
X109683007Y-57664457D01*
X109897292Y-57064457D02*
X109683007Y-57664457D01*
X109683007Y-57664457D02*
X109597292Y-57878742D01*
X109597292Y-57878742D02*
X109554435Y-57921600D01*
X109554435Y-57921600D02*
X109468721Y-57964457D01*
X110240149Y-57664457D02*
X110240149Y-57064457D01*
X110240149Y-57235885D02*
X110283006Y-57150171D01*
X110283006Y-57150171D02*
X110325864Y-57107314D01*
X110325864Y-57107314D02*
X110411578Y-57064457D01*
X110411578Y-57064457D02*
X110497292Y-57064457D01*
X110797292Y-57664457D02*
X110797292Y-57064457D01*
X110797292Y-56764457D02*
X110754435Y-56807314D01*
X110754435Y-56807314D02*
X110797292Y-56850171D01*
X110797292Y-56850171D02*
X110840149Y-56807314D01*
X110840149Y-56807314D02*
X110797292Y-56764457D01*
X110797292Y-56764457D02*
X110797292Y-56850171D01*
X111611578Y-57064457D02*
X111611578Y-57793028D01*
X111611578Y-57793028D02*
X111568720Y-57878742D01*
X111568720Y-57878742D02*
X111525863Y-57921600D01*
X111525863Y-57921600D02*
X111440149Y-57964457D01*
X111440149Y-57964457D02*
X111311578Y-57964457D01*
X111311578Y-57964457D02*
X111225863Y-57921600D01*
X111611578Y-57621600D02*
X111525863Y-57664457D01*
X111525863Y-57664457D02*
X111354435Y-57664457D01*
X111354435Y-57664457D02*
X111268720Y-57621600D01*
X111268720Y-57621600D02*
X111225863Y-57578742D01*
X111225863Y-57578742D02*
X111183006Y-57493028D01*
X111183006Y-57493028D02*
X111183006Y-57235885D01*
X111183006Y-57235885D02*
X111225863Y-57150171D01*
X111225863Y-57150171D02*
X111268720Y-57107314D01*
X111268720Y-57107314D02*
X111354435Y-57064457D01*
X111354435Y-57064457D02*
X111525863Y-57064457D01*
X111525863Y-57064457D02*
X111611578Y-57107314D01*
X112040149Y-57664457D02*
X112040149Y-56764457D01*
X112425864Y-57664457D02*
X112425864Y-57193028D01*
X112425864Y-57193028D02*
X112383006Y-57107314D01*
X112383006Y-57107314D02*
X112297292Y-57064457D01*
X112297292Y-57064457D02*
X112168721Y-57064457D01*
X112168721Y-57064457D02*
X112083006Y-57107314D01*
X112083006Y-57107314D02*
X112040149Y-57150171D01*
X112725864Y-57064457D02*
X113068721Y-57064457D01*
X112854435Y-56764457D02*
X112854435Y-57535885D01*
X112854435Y-57535885D02*
X112897292Y-57621600D01*
X112897292Y-57621600D02*
X112983007Y-57664457D01*
X112983007Y-57664457D02*
X113068721Y-57664457D01*
X114311578Y-58007314D02*
X114268721Y-57964457D01*
X114268721Y-57964457D02*
X114183007Y-57835885D01*
X114183007Y-57835885D02*
X114140150Y-57750171D01*
X114140150Y-57750171D02*
X114097292Y-57621600D01*
X114097292Y-57621600D02*
X114054435Y-57407314D01*
X114054435Y-57407314D02*
X114054435Y-57235885D01*
X114054435Y-57235885D02*
X114097292Y-57021600D01*
X114097292Y-57021600D02*
X114140150Y-56893028D01*
X114140150Y-56893028D02*
X114183007Y-56807314D01*
X114183007Y-56807314D02*
X114268721Y-56678742D01*
X114268721Y-56678742D02*
X114311578Y-56635885D01*
X115168721Y-57578742D02*
X115125864Y-57621600D01*
X115125864Y-57621600D02*
X114997292Y-57664457D01*
X114997292Y-57664457D02*
X114911578Y-57664457D01*
X114911578Y-57664457D02*
X114783007Y-57621600D01*
X114783007Y-57621600D02*
X114697292Y-57535885D01*
X114697292Y-57535885D02*
X114654435Y-57450171D01*
X114654435Y-57450171D02*
X114611578Y-57278742D01*
X114611578Y-57278742D02*
X114611578Y-57150171D01*
X114611578Y-57150171D02*
X114654435Y-56978742D01*
X114654435Y-56978742D02*
X114697292Y-56893028D01*
X114697292Y-56893028D02*
X114783007Y-56807314D01*
X114783007Y-56807314D02*
X114911578Y-56764457D01*
X114911578Y-56764457D02*
X114997292Y-56764457D01*
X114997292Y-56764457D02*
X115125864Y-56807314D01*
X115125864Y-56807314D02*
X115168721Y-56850171D01*
X115468721Y-58007314D02*
X115511578Y-57964457D01*
X115511578Y-57964457D02*
X115597292Y-57835885D01*
X115597292Y-57835885D02*
X115640150Y-57750171D01*
X115640150Y-57750171D02*
X115683007Y-57621600D01*
X115683007Y-57621600D02*
X115725864Y-57407314D01*
X115725864Y-57407314D02*
X115725864Y-57235885D01*
X115725864Y-57235885D02*
X115683007Y-57021600D01*
X115683007Y-57021600D02*
X115640150Y-56893028D01*
X115640150Y-56893028D02*
X115597292Y-56807314D01*
X115597292Y-56807314D02*
X115511578Y-56678742D01*
X115511578Y-56678742D02*
X115468721Y-56635885D01*
X116797292Y-56850171D02*
X116840149Y-56807314D01*
X116840149Y-56807314D02*
X116925864Y-56764457D01*
X116925864Y-56764457D02*
X117140149Y-56764457D01*
X117140149Y-56764457D02*
X117225864Y-56807314D01*
X117225864Y-56807314D02*
X117268721Y-56850171D01*
X117268721Y-56850171D02*
X117311578Y-56935885D01*
X117311578Y-56935885D02*
X117311578Y-57021600D01*
X117311578Y-57021600D02*
X117268721Y-57150171D01*
X117268721Y-57150171D02*
X116754435Y-57664457D01*
X116754435Y-57664457D02*
X117311578Y-57664457D01*
X117868721Y-56764457D02*
X117954435Y-56764457D01*
X117954435Y-56764457D02*
X118040149Y-56807314D01*
X118040149Y-56807314D02*
X118083007Y-56850171D01*
X118083007Y-56850171D02*
X118125864Y-56935885D01*
X118125864Y-56935885D02*
X118168721Y-57107314D01*
X118168721Y-57107314D02*
X118168721Y-57321600D01*
X118168721Y-57321600D02*
X118125864Y-57493028D01*
X118125864Y-57493028D02*
X118083007Y-57578742D01*
X118083007Y-57578742D02*
X118040149Y-57621600D01*
X118040149Y-57621600D02*
X117954435Y-57664457D01*
X117954435Y-57664457D02*
X117868721Y-57664457D01*
X117868721Y-57664457D02*
X117783007Y-57621600D01*
X117783007Y-57621600D02*
X117740149Y-57578742D01*
X117740149Y-57578742D02*
X117697292Y-57493028D01*
X117697292Y-57493028D02*
X117654435Y-57321600D01*
X117654435Y-57321600D02*
X117654435Y-57107314D01*
X117654435Y-57107314D02*
X117697292Y-56935885D01*
X117697292Y-56935885D02*
X117740149Y-56850171D01*
X117740149Y-56850171D02*
X117783007Y-56807314D01*
X117783007Y-56807314D02*
X117868721Y-56764457D01*
X118511578Y-56850171D02*
X118554435Y-56807314D01*
X118554435Y-56807314D02*
X118640150Y-56764457D01*
X118640150Y-56764457D02*
X118854435Y-56764457D01*
X118854435Y-56764457D02*
X118940150Y-56807314D01*
X118940150Y-56807314D02*
X118983007Y-56850171D01*
X118983007Y-56850171D02*
X119025864Y-56935885D01*
X119025864Y-56935885D02*
X119025864Y-57021600D01*
X119025864Y-57021600D02*
X118983007Y-57150171D01*
X118983007Y-57150171D02*
X118468721Y-57664457D01*
X118468721Y-57664457D02*
X119025864Y-57664457D01*
X119797293Y-57064457D02*
X119797293Y-57664457D01*
X119583007Y-56721600D02*
X119368721Y-57364457D01*
X119368721Y-57364457D02*
X119925864Y-57364457D01*
X120825864Y-56764457D02*
X121340150Y-56764457D01*
X121083007Y-57664457D02*
X121083007Y-56764457D01*
X121768721Y-57664457D02*
X121683006Y-57621600D01*
X121683006Y-57621600D02*
X121640149Y-57578742D01*
X121640149Y-57578742D02*
X121597292Y-57493028D01*
X121597292Y-57493028D02*
X121597292Y-57235885D01*
X121597292Y-57235885D02*
X121640149Y-57150171D01*
X121640149Y-57150171D02*
X121683006Y-57107314D01*
X121683006Y-57107314D02*
X121768721Y-57064457D01*
X121768721Y-57064457D02*
X121897292Y-57064457D01*
X121897292Y-57064457D02*
X121983006Y-57107314D01*
X121983006Y-57107314D02*
X122025864Y-57150171D01*
X122025864Y-57150171D02*
X122068721Y-57235885D01*
X122068721Y-57235885D02*
X122068721Y-57493028D01*
X122068721Y-57493028D02*
X122025864Y-57578742D01*
X122025864Y-57578742D02*
X121983006Y-57621600D01*
X121983006Y-57621600D02*
X121897292Y-57664457D01*
X121897292Y-57664457D02*
X121768721Y-57664457D01*
X122454435Y-57664457D02*
X122454435Y-56764457D01*
X122454435Y-57107314D02*
X122540150Y-57064457D01*
X122540150Y-57064457D02*
X122711578Y-57064457D01*
X122711578Y-57064457D02*
X122797292Y-57107314D01*
X122797292Y-57107314D02*
X122840150Y-57150171D01*
X122840150Y-57150171D02*
X122883007Y-57235885D01*
X122883007Y-57235885D02*
X122883007Y-57493028D01*
X122883007Y-57493028D02*
X122840150Y-57578742D01*
X122840150Y-57578742D02*
X122797292Y-57621600D01*
X122797292Y-57621600D02*
X122711578Y-57664457D01*
X122711578Y-57664457D02*
X122540150Y-57664457D01*
X122540150Y-57664457D02*
X122454435Y-57621600D01*
X123183007Y-57064457D02*
X123397293Y-57664457D01*
X123611578Y-57064457D02*
X123397293Y-57664457D01*
X123397293Y-57664457D02*
X123311578Y-57878742D01*
X123311578Y-57878742D02*
X123268721Y-57921600D01*
X123268721Y-57921600D02*
X123183007Y-57964457D01*
X124511578Y-56764457D02*
X125025864Y-56764457D01*
X124768721Y-57664457D02*
X124768721Y-56764457D01*
X125325863Y-57664457D02*
X125325863Y-56764457D01*
X125711578Y-57664457D02*
X125711578Y-57193028D01*
X125711578Y-57193028D02*
X125668720Y-57107314D01*
X125668720Y-57107314D02*
X125583006Y-57064457D01*
X125583006Y-57064457D02*
X125454435Y-57064457D01*
X125454435Y-57064457D02*
X125368720Y-57107314D01*
X125368720Y-57107314D02*
X125325863Y-57150171D01*
X126525864Y-57664457D02*
X126525864Y-57193028D01*
X126525864Y-57193028D02*
X126483006Y-57107314D01*
X126483006Y-57107314D02*
X126397292Y-57064457D01*
X126397292Y-57064457D02*
X126225864Y-57064457D01*
X126225864Y-57064457D02*
X126140149Y-57107314D01*
X126525864Y-57621600D02*
X126440149Y-57664457D01*
X126440149Y-57664457D02*
X126225864Y-57664457D01*
X126225864Y-57664457D02*
X126140149Y-57621600D01*
X126140149Y-57621600D02*
X126097292Y-57535885D01*
X126097292Y-57535885D02*
X126097292Y-57450171D01*
X126097292Y-57450171D02*
X126140149Y-57364457D01*
X126140149Y-57364457D02*
X126225864Y-57321600D01*
X126225864Y-57321600D02*
X126440149Y-57321600D01*
X126440149Y-57321600D02*
X126525864Y-57278742D01*
X126954435Y-57664457D02*
X126954435Y-57064457D01*
X126954435Y-56764457D02*
X126911578Y-56807314D01*
X126911578Y-56807314D02*
X126954435Y-56850171D01*
X126954435Y-56850171D02*
X126997292Y-56807314D01*
X126997292Y-56807314D02*
X126954435Y-56764457D01*
X126954435Y-56764457D02*
X126954435Y-56850171D01*
X127383006Y-57064457D02*
X127383006Y-57664457D01*
X127383006Y-57150171D02*
X127425863Y-57107314D01*
X127425863Y-57107314D02*
X127511578Y-57064457D01*
X127511578Y-57064457D02*
X127640149Y-57064457D01*
X127640149Y-57064457D02*
X127725863Y-57107314D01*
X127725863Y-57107314D02*
X127768721Y-57193028D01*
X127768721Y-57193028D02*
X127768721Y-57664457D01*
X129568721Y-57064457D02*
X128883006Y-57321600D01*
X128883006Y-57321600D02*
X129568721Y-57578742D01*
X129868721Y-57064457D02*
X130211578Y-57064457D01*
X129997292Y-56764457D02*
X129997292Y-57535885D01*
X129997292Y-57535885D02*
X130040149Y-57621600D01*
X130040149Y-57621600D02*
X130125864Y-57664457D01*
X130125864Y-57664457D02*
X130211578Y-57664457D01*
X130640150Y-57664457D02*
X130554435Y-57621600D01*
X130554435Y-57621600D02*
X130511578Y-57578742D01*
X130511578Y-57578742D02*
X130468721Y-57493028D01*
X130468721Y-57493028D02*
X130468721Y-57235885D01*
X130468721Y-57235885D02*
X130511578Y-57150171D01*
X130511578Y-57150171D02*
X130554435Y-57107314D01*
X130554435Y-57107314D02*
X130640150Y-57064457D01*
X130640150Y-57064457D02*
X130768721Y-57064457D01*
X130768721Y-57064457D02*
X130854435Y-57107314D01*
X130854435Y-57107314D02*
X130897293Y-57150171D01*
X130897293Y-57150171D02*
X130940150Y-57235885D01*
X130940150Y-57235885D02*
X130940150Y-57493028D01*
X130940150Y-57493028D02*
X130897293Y-57578742D01*
X130897293Y-57578742D02*
X130854435Y-57621600D01*
X130854435Y-57621600D02*
X130768721Y-57664457D01*
X130768721Y-57664457D02*
X130640150Y-57664457D01*
X131325864Y-57664457D02*
X131325864Y-56764457D01*
X131325864Y-57107314D02*
X131411579Y-57064457D01*
X131411579Y-57064457D02*
X131583007Y-57064457D01*
X131583007Y-57064457D02*
X131668721Y-57107314D01*
X131668721Y-57107314D02*
X131711579Y-57150171D01*
X131711579Y-57150171D02*
X131754436Y-57235885D01*
X131754436Y-57235885D02*
X131754436Y-57493028D01*
X131754436Y-57493028D02*
X131711579Y-57578742D01*
X131711579Y-57578742D02*
X131668721Y-57621600D01*
X131668721Y-57621600D02*
X131583007Y-57664457D01*
X131583007Y-57664457D02*
X131411579Y-57664457D01*
X131411579Y-57664457D02*
X131325864Y-57621600D01*
X132054436Y-57064457D02*
X132268722Y-57664457D01*
X132483007Y-57064457D02*
X132268722Y-57664457D01*
X132268722Y-57664457D02*
X132183007Y-57878742D01*
X132183007Y-57878742D02*
X132140150Y-57921600D01*
X132140150Y-57921600D02*
X132054436Y-57964457D01*
X133383007Y-57235885D02*
X133340150Y-57193028D01*
X133340150Y-57193028D02*
X133254436Y-57150171D01*
X133254436Y-57150171D02*
X133168721Y-57150171D01*
X133168721Y-57150171D02*
X133083007Y-57193028D01*
X133083007Y-57193028D02*
X133040150Y-57235885D01*
X133040150Y-57235885D02*
X132997293Y-57321600D01*
X132997293Y-57321600D02*
X132997293Y-57407314D01*
X132997293Y-57407314D02*
X133040150Y-57493028D01*
X133040150Y-57493028D02*
X133083007Y-57535885D01*
X133083007Y-57535885D02*
X133168721Y-57578742D01*
X133168721Y-57578742D02*
X133254436Y-57578742D01*
X133254436Y-57578742D02*
X133340150Y-57535885D01*
X133340150Y-57535885D02*
X133383007Y-57493028D01*
X133383007Y-57150171D02*
X133383007Y-57493028D01*
X133383007Y-57493028D02*
X133425864Y-57535885D01*
X133425864Y-57535885D02*
X133468721Y-57535885D01*
X133468721Y-57535885D02*
X133554436Y-57493028D01*
X133554436Y-57493028D02*
X133597293Y-57407314D01*
X133597293Y-57407314D02*
X133597293Y-57193028D01*
X133597293Y-57193028D02*
X133511579Y-57064457D01*
X133511579Y-57064457D02*
X133383007Y-56978742D01*
X133383007Y-56978742D02*
X133211579Y-56935885D01*
X133211579Y-56935885D02*
X133040150Y-56978742D01*
X133040150Y-56978742D02*
X132911579Y-57064457D01*
X132911579Y-57064457D02*
X132825864Y-57193028D01*
X132825864Y-57193028D02*
X132783007Y-57364457D01*
X132783007Y-57364457D02*
X132825864Y-57535885D01*
X132825864Y-57535885D02*
X132911579Y-57664457D01*
X132911579Y-57664457D02*
X133040150Y-57750171D01*
X133040150Y-57750171D02*
X133211579Y-57793028D01*
X133211579Y-57793028D02*
X133383007Y-57750171D01*
X133383007Y-57750171D02*
X133511579Y-57664457D01*
X133854436Y-57064457D02*
X134197293Y-57064457D01*
X133983007Y-56764457D02*
X133983007Y-57535885D01*
X133983007Y-57535885D02*
X134025864Y-57621600D01*
X134025864Y-57621600D02*
X134111579Y-57664457D01*
X134111579Y-57664457D02*
X134197293Y-57664457D01*
X134840150Y-57621600D02*
X134754436Y-57664457D01*
X134754436Y-57664457D02*
X134583008Y-57664457D01*
X134583008Y-57664457D02*
X134497293Y-57621600D01*
X134497293Y-57621600D02*
X134454436Y-57535885D01*
X134454436Y-57535885D02*
X134454436Y-57193028D01*
X134454436Y-57193028D02*
X134497293Y-57107314D01*
X134497293Y-57107314D02*
X134583008Y-57064457D01*
X134583008Y-57064457D02*
X134754436Y-57064457D01*
X134754436Y-57064457D02*
X134840150Y-57107314D01*
X134840150Y-57107314D02*
X134883008Y-57193028D01*
X134883008Y-57193028D02*
X134883008Y-57278742D01*
X134883008Y-57278742D02*
X134454436Y-57364457D01*
X135397294Y-57664457D02*
X135311579Y-57621600D01*
X135311579Y-57621600D02*
X135268722Y-57535885D01*
X135268722Y-57535885D02*
X135268722Y-56764457D01*
X136083008Y-57621600D02*
X135997294Y-57664457D01*
X135997294Y-57664457D02*
X135825866Y-57664457D01*
X135825866Y-57664457D02*
X135740151Y-57621600D01*
X135740151Y-57621600D02*
X135697294Y-57535885D01*
X135697294Y-57535885D02*
X135697294Y-57193028D01*
X135697294Y-57193028D02*
X135740151Y-57107314D01*
X135740151Y-57107314D02*
X135825866Y-57064457D01*
X135825866Y-57064457D02*
X135997294Y-57064457D01*
X135997294Y-57064457D02*
X136083008Y-57107314D01*
X136083008Y-57107314D02*
X136125866Y-57193028D01*
X136125866Y-57193028D02*
X136125866Y-57278742D01*
X136125866Y-57278742D02*
X135697294Y-57364457D01*
X136897295Y-57064457D02*
X136897295Y-57793028D01*
X136897295Y-57793028D02*
X136854437Y-57878742D01*
X136854437Y-57878742D02*
X136811580Y-57921600D01*
X136811580Y-57921600D02*
X136725866Y-57964457D01*
X136725866Y-57964457D02*
X136597295Y-57964457D01*
X136597295Y-57964457D02*
X136511580Y-57921600D01*
X136897295Y-57621600D02*
X136811580Y-57664457D01*
X136811580Y-57664457D02*
X136640152Y-57664457D01*
X136640152Y-57664457D02*
X136554437Y-57621600D01*
X136554437Y-57621600D02*
X136511580Y-57578742D01*
X136511580Y-57578742D02*
X136468723Y-57493028D01*
X136468723Y-57493028D02*
X136468723Y-57235885D01*
X136468723Y-57235885D02*
X136511580Y-57150171D01*
X136511580Y-57150171D02*
X136554437Y-57107314D01*
X136554437Y-57107314D02*
X136640152Y-57064457D01*
X136640152Y-57064457D02*
X136811580Y-57064457D01*
X136811580Y-57064457D02*
X136897295Y-57107314D01*
X137325866Y-57664457D02*
X137325866Y-57064457D01*
X137325866Y-57235885D02*
X137368723Y-57150171D01*
X137368723Y-57150171D02*
X137411581Y-57107314D01*
X137411581Y-57107314D02*
X137497295Y-57064457D01*
X137497295Y-57064457D02*
X137583009Y-57064457D01*
X138268724Y-57664457D02*
X138268724Y-57193028D01*
X138268724Y-57193028D02*
X138225866Y-57107314D01*
X138225866Y-57107314D02*
X138140152Y-57064457D01*
X138140152Y-57064457D02*
X137968724Y-57064457D01*
X137968724Y-57064457D02*
X137883009Y-57107314D01*
X138268724Y-57621600D02*
X138183009Y-57664457D01*
X138183009Y-57664457D02*
X137968724Y-57664457D01*
X137968724Y-57664457D02*
X137883009Y-57621600D01*
X137883009Y-57621600D02*
X137840152Y-57535885D01*
X137840152Y-57535885D02*
X137840152Y-57450171D01*
X137840152Y-57450171D02*
X137883009Y-57364457D01*
X137883009Y-57364457D02*
X137968724Y-57321600D01*
X137968724Y-57321600D02*
X138183009Y-57321600D01*
X138183009Y-57321600D02*
X138268724Y-57278742D01*
X138697295Y-57064457D02*
X138697295Y-57964457D01*
X138697295Y-57107314D02*
X138783010Y-57064457D01*
X138783010Y-57064457D02*
X138954438Y-57064457D01*
X138954438Y-57064457D02*
X139040152Y-57107314D01*
X139040152Y-57107314D02*
X139083010Y-57150171D01*
X139083010Y-57150171D02*
X139125867Y-57235885D01*
X139125867Y-57235885D02*
X139125867Y-57493028D01*
X139125867Y-57493028D02*
X139083010Y-57578742D01*
X139083010Y-57578742D02*
X139040152Y-57621600D01*
X139040152Y-57621600D02*
X138954438Y-57664457D01*
X138954438Y-57664457D02*
X138783010Y-57664457D01*
X138783010Y-57664457D02*
X138697295Y-57621600D01*
X139511581Y-57664457D02*
X139511581Y-56764457D01*
X139897296Y-57664457D02*
X139897296Y-57193028D01*
X139897296Y-57193028D02*
X139854438Y-57107314D01*
X139854438Y-57107314D02*
X139768724Y-57064457D01*
X139768724Y-57064457D02*
X139640153Y-57064457D01*
X139640153Y-57064457D02*
X139554438Y-57107314D01*
X139554438Y-57107314D02*
X139511581Y-57150171D01*
X140325867Y-57664457D02*
X140325867Y-57064457D01*
X140325867Y-56764457D02*
X140283010Y-56807314D01*
X140283010Y-56807314D02*
X140325867Y-56850171D01*
X140325867Y-56850171D02*
X140368724Y-56807314D01*
X140368724Y-56807314D02*
X140325867Y-56764457D01*
X140325867Y-56764457D02*
X140325867Y-56850171D01*
X141140153Y-57621600D02*
X141054438Y-57664457D01*
X141054438Y-57664457D02*
X140883010Y-57664457D01*
X140883010Y-57664457D02*
X140797295Y-57621600D01*
X140797295Y-57621600D02*
X140754438Y-57578742D01*
X140754438Y-57578742D02*
X140711581Y-57493028D01*
X140711581Y-57493028D02*
X140711581Y-57235885D01*
X140711581Y-57235885D02*
X140754438Y-57150171D01*
X140754438Y-57150171D02*
X140797295Y-57107314D01*
X140797295Y-57107314D02*
X140883010Y-57064457D01*
X140883010Y-57064457D02*
X141054438Y-57064457D01*
X141054438Y-57064457D02*
X141140153Y-57107314D01*
X141483010Y-57621600D02*
X141568724Y-57664457D01*
X141568724Y-57664457D02*
X141740153Y-57664457D01*
X141740153Y-57664457D02*
X141825867Y-57621600D01*
X141825867Y-57621600D02*
X141868724Y-57535885D01*
X141868724Y-57535885D02*
X141868724Y-57493028D01*
X141868724Y-57493028D02*
X141825867Y-57407314D01*
X141825867Y-57407314D02*
X141740153Y-57364457D01*
X141740153Y-57364457D02*
X141611582Y-57364457D01*
X141611582Y-57364457D02*
X141525867Y-57321600D01*
X141525867Y-57321600D02*
X141483010Y-57235885D01*
X141483010Y-57235885D02*
X141483010Y-57193028D01*
X141483010Y-57193028D02*
X141525867Y-57107314D01*
X141525867Y-57107314D02*
X141611582Y-57064457D01*
X141611582Y-57064457D02*
X141740153Y-57064457D01*
X141740153Y-57064457D02*
X141825867Y-57107314D01*
X142254438Y-57578742D02*
X142297295Y-57621600D01*
X142297295Y-57621600D02*
X142254438Y-57664457D01*
X142254438Y-57664457D02*
X142211581Y-57621600D01*
X142211581Y-57621600D02*
X142254438Y-57578742D01*
X142254438Y-57578742D02*
X142254438Y-57664457D01*
X142683009Y-57064457D02*
X142683009Y-57664457D01*
X142683009Y-57150171D02*
X142725866Y-57107314D01*
X142725866Y-57107314D02*
X142811581Y-57064457D01*
X142811581Y-57064457D02*
X142940152Y-57064457D01*
X142940152Y-57064457D02*
X143025866Y-57107314D01*
X143025866Y-57107314D02*
X143068724Y-57193028D01*
X143068724Y-57193028D02*
X143068724Y-57664457D01*
X143840152Y-57621600D02*
X143754438Y-57664457D01*
X143754438Y-57664457D02*
X143583010Y-57664457D01*
X143583010Y-57664457D02*
X143497295Y-57621600D01*
X143497295Y-57621600D02*
X143454438Y-57535885D01*
X143454438Y-57535885D02*
X143454438Y-57193028D01*
X143454438Y-57193028D02*
X143497295Y-57107314D01*
X143497295Y-57107314D02*
X143583010Y-57064457D01*
X143583010Y-57064457D02*
X143754438Y-57064457D01*
X143754438Y-57064457D02*
X143840152Y-57107314D01*
X143840152Y-57107314D02*
X143883010Y-57193028D01*
X143883010Y-57193028D02*
X143883010Y-57278742D01*
X143883010Y-57278742D02*
X143454438Y-57364457D01*
X144140153Y-57064457D02*
X144483010Y-57064457D01*
X144268724Y-56764457D02*
X144268724Y-57535885D01*
X144268724Y-57535885D02*
X144311581Y-57621600D01*
X144311581Y-57621600D02*
X144397296Y-57664457D01*
X144397296Y-57664457D02*
X144483010Y-57664457D01*
X144783010Y-57064457D02*
X145468725Y-57321600D01*
X145468725Y-57321600D02*
X144783010Y-57578742D01*
D11*
X102273558Y-62464161D02*
X103464034Y-62464161D01*
X102035463Y-63178447D02*
X102868796Y-60678447D01*
X102868796Y-60678447D02*
X103702129Y-63178447D01*
X104535463Y-63178447D02*
X104535463Y-61511780D01*
X104535463Y-61749876D02*
X104654510Y-61630828D01*
X104654510Y-61630828D02*
X104892605Y-61511780D01*
X104892605Y-61511780D02*
X105249748Y-61511780D01*
X105249748Y-61511780D02*
X105487844Y-61630828D01*
X105487844Y-61630828D02*
X105606891Y-61868923D01*
X105606891Y-61868923D02*
X105606891Y-63178447D01*
X105606891Y-61868923D02*
X105725939Y-61630828D01*
X105725939Y-61630828D02*
X105964034Y-61511780D01*
X105964034Y-61511780D02*
X106321177Y-61511780D01*
X106321177Y-61511780D02*
X106559272Y-61630828D01*
X106559272Y-61630828D02*
X106678320Y-61868923D01*
X106678320Y-61868923D02*
X106678320Y-63178447D01*
X107868796Y-61511780D02*
X107868796Y-64011780D01*
X107868796Y-61630828D02*
X108106891Y-61511780D01*
X108106891Y-61511780D02*
X108583081Y-61511780D01*
X108583081Y-61511780D02*
X108821177Y-61630828D01*
X108821177Y-61630828D02*
X108940224Y-61749876D01*
X108940224Y-61749876D02*
X109059272Y-61987971D01*
X109059272Y-61987971D02*
X109059272Y-62702257D01*
X109059272Y-62702257D02*
X108940224Y-62940352D01*
X108940224Y-62940352D02*
X108821177Y-63059400D01*
X108821177Y-63059400D02*
X108583081Y-63178447D01*
X108583081Y-63178447D02*
X108106891Y-63178447D01*
X108106891Y-63178447D02*
X107868796Y-63059400D01*
X110130701Y-63178447D02*
X110130701Y-60678447D01*
X111202129Y-63178447D02*
X111202129Y-61868923D01*
X111202129Y-61868923D02*
X111083082Y-61630828D01*
X111083082Y-61630828D02*
X110844986Y-61511780D01*
X110844986Y-61511780D02*
X110487843Y-61511780D01*
X110487843Y-61511780D02*
X110249748Y-61630828D01*
X110249748Y-61630828D02*
X110130701Y-61749876D01*
X113344987Y-63059400D02*
X113106891Y-63178447D01*
X113106891Y-63178447D02*
X112630701Y-63178447D01*
X112630701Y-63178447D02*
X112392606Y-63059400D01*
X112392606Y-63059400D02*
X112273558Y-62821304D01*
X112273558Y-62821304D02*
X112273558Y-61868923D01*
X112273558Y-61868923D02*
X112392606Y-61630828D01*
X112392606Y-61630828D02*
X112630701Y-61511780D01*
X112630701Y-61511780D02*
X113106891Y-61511780D01*
X113106891Y-61511780D02*
X113344987Y-61630828D01*
X113344987Y-61630828D02*
X113464034Y-61868923D01*
X113464034Y-61868923D02*
X113464034Y-62107019D01*
X113464034Y-62107019D02*
X112273558Y-62345114D01*
X114535463Y-61511780D02*
X114535463Y-63178447D01*
X114535463Y-61749876D02*
X114654510Y-61630828D01*
X114654510Y-61630828D02*
X114892605Y-61511780D01*
X114892605Y-61511780D02*
X115249748Y-61511780D01*
X115249748Y-61511780D02*
X115487844Y-61630828D01*
X115487844Y-61630828D02*
X115606891Y-61868923D01*
X115606891Y-61868923D02*
X115606891Y-63178447D01*
X117154510Y-63178447D02*
X116916415Y-63059400D01*
X116916415Y-63059400D02*
X116797368Y-62940352D01*
X116797368Y-62940352D02*
X116678320Y-62702257D01*
X116678320Y-62702257D02*
X116678320Y-61987971D01*
X116678320Y-61987971D02*
X116797368Y-61749876D01*
X116797368Y-61749876D02*
X116916415Y-61630828D01*
X116916415Y-61630828D02*
X117154510Y-61511780D01*
X117154510Y-61511780D02*
X117511653Y-61511780D01*
X117511653Y-61511780D02*
X117749749Y-61630828D01*
X117749749Y-61630828D02*
X117868796Y-61749876D01*
X117868796Y-61749876D02*
X117987844Y-61987971D01*
X117987844Y-61987971D02*
X117987844Y-62702257D01*
X117987844Y-62702257D02*
X117868796Y-62940352D01*
X117868796Y-62940352D02*
X117749749Y-63059400D01*
X117749749Y-63059400D02*
X117511653Y-63178447D01*
X117511653Y-63178447D02*
X117154510Y-63178447D01*
X119416415Y-63178447D02*
X119178320Y-63059400D01*
X119178320Y-63059400D02*
X119059273Y-62821304D01*
X119059273Y-62821304D02*
X119059273Y-60678447D01*
D10*
X99648720Y-130264692D02*
X99382054Y-130264692D01*
X99382054Y-130683740D02*
X99382054Y-129883740D01*
X99382054Y-129883740D02*
X99763006Y-129883740D01*
X100067768Y-130683740D02*
X100067768Y-129883740D01*
X100334434Y-129883740D02*
X100791577Y-129883740D01*
X100563005Y-130683740D02*
X100563005Y-129883740D01*
X101896339Y-129883740D02*
X101896339Y-130455168D01*
X101896339Y-130455168D02*
X101858244Y-130569454D01*
X101858244Y-130569454D02*
X101782053Y-130645645D01*
X101782053Y-130645645D02*
X101667768Y-130683740D01*
X101667768Y-130683740D02*
X101591577Y-130683740D01*
X102277292Y-130683740D02*
X102277292Y-129883740D01*
X102277292Y-129883740D02*
X102582054Y-129883740D01*
X102582054Y-129883740D02*
X102658244Y-129921835D01*
X102658244Y-129921835D02*
X102696339Y-129959930D01*
X102696339Y-129959930D02*
X102734435Y-130036121D01*
X102734435Y-130036121D02*
X102734435Y-130150406D01*
X102734435Y-130150406D02*
X102696339Y-130226597D01*
X102696339Y-130226597D02*
X102658244Y-130264692D01*
X102658244Y-130264692D02*
X102582054Y-130302787D01*
X102582054Y-130302787D02*
X102277292Y-130302787D01*
X103001101Y-129883740D02*
X103496339Y-129883740D01*
X103496339Y-129883740D02*
X103229673Y-130188502D01*
X103229673Y-130188502D02*
X103343958Y-130188502D01*
X103343958Y-130188502D02*
X103420149Y-130226597D01*
X103420149Y-130226597D02*
X103458244Y-130264692D01*
X103458244Y-130264692D02*
X103496339Y-130340883D01*
X103496339Y-130340883D02*
X103496339Y-130531359D01*
X103496339Y-130531359D02*
X103458244Y-130607549D01*
X103458244Y-130607549D02*
X103420149Y-130645645D01*
X103420149Y-130645645D02*
X103343958Y-130683740D01*
X103343958Y-130683740D02*
X103115387Y-130683740D01*
X103115387Y-130683740D02*
X103039196Y-130645645D01*
X103039196Y-130645645D02*
X103001101Y-130607549D01*
X104715387Y-130264692D02*
X104448721Y-130264692D01*
X104448721Y-130683740D02*
X104448721Y-129883740D01*
X104448721Y-129883740D02*
X104829673Y-129883740D01*
X105286816Y-129883740D02*
X105439197Y-129883740D01*
X105439197Y-129883740D02*
X105515387Y-129921835D01*
X105515387Y-129921835D02*
X105591578Y-129998025D01*
X105591578Y-129998025D02*
X105629673Y-130150406D01*
X105629673Y-130150406D02*
X105629673Y-130417073D01*
X105629673Y-130417073D02*
X105591578Y-130569454D01*
X105591578Y-130569454D02*
X105515387Y-130645645D01*
X105515387Y-130645645D02*
X105439197Y-130683740D01*
X105439197Y-130683740D02*
X105286816Y-130683740D01*
X105286816Y-130683740D02*
X105210625Y-130645645D01*
X105210625Y-130645645D02*
X105134435Y-130569454D01*
X105134435Y-130569454D02*
X105096339Y-130417073D01*
X105096339Y-130417073D02*
X105096339Y-130150406D01*
X105096339Y-130150406D02*
X105134435Y-129998025D01*
X105134435Y-129998025D02*
X105210625Y-129921835D01*
X105210625Y-129921835D02*
X105286816Y-129883740D01*
X106429673Y-130683740D02*
X106163006Y-130302787D01*
X105972530Y-130683740D02*
X105972530Y-129883740D01*
X105972530Y-129883740D02*
X106277292Y-129883740D01*
X106277292Y-129883740D02*
X106353482Y-129921835D01*
X106353482Y-129921835D02*
X106391577Y-129959930D01*
X106391577Y-129959930D02*
X106429673Y-130036121D01*
X106429673Y-130036121D02*
X106429673Y-130150406D01*
X106429673Y-130150406D02*
X106391577Y-130226597D01*
X106391577Y-130226597D02*
X106353482Y-130264692D01*
X106353482Y-130264692D02*
X106277292Y-130302787D01*
X106277292Y-130302787D02*
X105972530Y-130302787D01*
X107382054Y-130683740D02*
X107382054Y-129883740D01*
X107382054Y-129883740D02*
X107572530Y-129883740D01*
X107572530Y-129883740D02*
X107686816Y-129921835D01*
X107686816Y-129921835D02*
X107763006Y-129998025D01*
X107763006Y-129998025D02*
X107801101Y-130074216D01*
X107801101Y-130074216D02*
X107839197Y-130226597D01*
X107839197Y-130226597D02*
X107839197Y-130340883D01*
X107839197Y-130340883D02*
X107801101Y-130493264D01*
X107801101Y-130493264D02*
X107763006Y-130569454D01*
X107763006Y-130569454D02*
X107686816Y-130645645D01*
X107686816Y-130645645D02*
X107572530Y-130683740D01*
X107572530Y-130683740D02*
X107382054Y-130683740D01*
X108182054Y-130264692D02*
X108448720Y-130264692D01*
X108563006Y-130683740D02*
X108182054Y-130683740D01*
X108182054Y-130683740D02*
X108182054Y-129883740D01*
X108182054Y-129883740D02*
X108563006Y-129883740D01*
X108943959Y-130683740D02*
X109096340Y-130683740D01*
X109096340Y-130683740D02*
X109172530Y-130645645D01*
X109172530Y-130645645D02*
X109210626Y-130607549D01*
X109210626Y-130607549D02*
X109286816Y-130493264D01*
X109286816Y-130493264D02*
X109324911Y-130340883D01*
X109324911Y-130340883D02*
X109324911Y-130036121D01*
X109324911Y-130036121D02*
X109286816Y-129959930D01*
X109286816Y-129959930D02*
X109248721Y-129921835D01*
X109248721Y-129921835D02*
X109172530Y-129883740D01*
X109172530Y-129883740D02*
X109020149Y-129883740D01*
X109020149Y-129883740D02*
X108943959Y-129921835D01*
X108943959Y-129921835D02*
X108905864Y-129959930D01*
X108905864Y-129959930D02*
X108867768Y-130036121D01*
X108867768Y-130036121D02*
X108867768Y-130226597D01*
X108867768Y-130226597D02*
X108905864Y-130302787D01*
X108905864Y-130302787D02*
X108943959Y-130340883D01*
X108943959Y-130340883D02*
X109020149Y-130378978D01*
X109020149Y-130378978D02*
X109172530Y-130378978D01*
X109172530Y-130378978D02*
X109248721Y-130340883D01*
X109248721Y-130340883D02*
X109286816Y-130302787D01*
X109286816Y-130302787D02*
X109324911Y-130226597D01*
X110277293Y-130683740D02*
X110277293Y-129883740D01*
X110277293Y-129883740D02*
X110582055Y-129883740D01*
X110582055Y-129883740D02*
X110658245Y-129921835D01*
X110658245Y-129921835D02*
X110696340Y-129959930D01*
X110696340Y-129959930D02*
X110734436Y-130036121D01*
X110734436Y-130036121D02*
X110734436Y-130150406D01*
X110734436Y-130150406D02*
X110696340Y-130226597D01*
X110696340Y-130226597D02*
X110658245Y-130264692D01*
X110658245Y-130264692D02*
X110582055Y-130302787D01*
X110582055Y-130302787D02*
X110277293Y-130302787D01*
X111077293Y-130683740D02*
X111077293Y-129883740D01*
X111458245Y-130683740D02*
X111458245Y-129883740D01*
X111458245Y-129883740D02*
X111915388Y-130683740D01*
X111915388Y-130683740D02*
X111915388Y-129883740D01*
X112258244Y-129959930D02*
X112296340Y-129921835D01*
X112296340Y-129921835D02*
X112372530Y-129883740D01*
X112372530Y-129883740D02*
X112563006Y-129883740D01*
X112563006Y-129883740D02*
X112639197Y-129921835D01*
X112639197Y-129921835D02*
X112677292Y-129959930D01*
X112677292Y-129959930D02*
X112715387Y-130036121D01*
X112715387Y-130036121D02*
X112715387Y-130112311D01*
X112715387Y-130112311D02*
X112677292Y-130226597D01*
X112677292Y-130226597D02*
X112220149Y-130683740D01*
X112220149Y-130683740D02*
X112715387Y-130683740D01*
X99648720Y-131552647D02*
X99382054Y-131552647D01*
X99382054Y-131971695D02*
X99382054Y-131171695D01*
X99382054Y-131171695D02*
X99763006Y-131171695D01*
X100067768Y-131971695D02*
X100067768Y-131171695D01*
X100334434Y-131171695D02*
X100791577Y-131171695D01*
X100563005Y-131971695D02*
X100563005Y-131171695D01*
X101896339Y-131171695D02*
X101896339Y-131743123D01*
X101896339Y-131743123D02*
X101858244Y-131857409D01*
X101858244Y-131857409D02*
X101782053Y-131933600D01*
X101782053Y-131933600D02*
X101667768Y-131971695D01*
X101667768Y-131971695D02*
X101591577Y-131971695D01*
X102277292Y-131971695D02*
X102277292Y-131171695D01*
X102277292Y-131171695D02*
X102582054Y-131171695D01*
X102582054Y-131171695D02*
X102658244Y-131209790D01*
X102658244Y-131209790D02*
X102696339Y-131247885D01*
X102696339Y-131247885D02*
X102734435Y-131324076D01*
X102734435Y-131324076D02*
X102734435Y-131438361D01*
X102734435Y-131438361D02*
X102696339Y-131514552D01*
X102696339Y-131514552D02*
X102658244Y-131552647D01*
X102658244Y-131552647D02*
X102582054Y-131590742D01*
X102582054Y-131590742D02*
X102277292Y-131590742D01*
X103420149Y-131438361D02*
X103420149Y-131971695D01*
X103229673Y-131133600D02*
X103039196Y-131705028D01*
X103039196Y-131705028D02*
X103534435Y-131705028D01*
X104715387Y-131552647D02*
X104448721Y-131552647D01*
X104448721Y-131971695D02*
X104448721Y-131171695D01*
X104448721Y-131171695D02*
X104829673Y-131171695D01*
X105286816Y-131171695D02*
X105439197Y-131171695D01*
X105439197Y-131171695D02*
X105515387Y-131209790D01*
X105515387Y-131209790D02*
X105591578Y-131285980D01*
X105591578Y-131285980D02*
X105629673Y-131438361D01*
X105629673Y-131438361D02*
X105629673Y-131705028D01*
X105629673Y-131705028D02*
X105591578Y-131857409D01*
X105591578Y-131857409D02*
X105515387Y-131933600D01*
X105515387Y-131933600D02*
X105439197Y-131971695D01*
X105439197Y-131971695D02*
X105286816Y-131971695D01*
X105286816Y-131971695D02*
X105210625Y-131933600D01*
X105210625Y-131933600D02*
X105134435Y-131857409D01*
X105134435Y-131857409D02*
X105096339Y-131705028D01*
X105096339Y-131705028D02*
X105096339Y-131438361D01*
X105096339Y-131438361D02*
X105134435Y-131285980D01*
X105134435Y-131285980D02*
X105210625Y-131209790D01*
X105210625Y-131209790D02*
X105286816Y-131171695D01*
X106429673Y-131971695D02*
X106163006Y-131590742D01*
X105972530Y-131971695D02*
X105972530Y-131171695D01*
X105972530Y-131171695D02*
X106277292Y-131171695D01*
X106277292Y-131171695D02*
X106353482Y-131209790D01*
X106353482Y-131209790D02*
X106391577Y-131247885D01*
X106391577Y-131247885D02*
X106429673Y-131324076D01*
X106429673Y-131324076D02*
X106429673Y-131438361D01*
X106429673Y-131438361D02*
X106391577Y-131514552D01*
X106391577Y-131514552D02*
X106353482Y-131552647D01*
X106353482Y-131552647D02*
X106277292Y-131590742D01*
X106277292Y-131590742D02*
X105972530Y-131590742D01*
X107382054Y-131971695D02*
X107382054Y-131171695D01*
X107382054Y-131171695D02*
X107572530Y-131171695D01*
X107572530Y-131171695D02*
X107686816Y-131209790D01*
X107686816Y-131209790D02*
X107763006Y-131285980D01*
X107763006Y-131285980D02*
X107801101Y-131362171D01*
X107801101Y-131362171D02*
X107839197Y-131514552D01*
X107839197Y-131514552D02*
X107839197Y-131628838D01*
X107839197Y-131628838D02*
X107801101Y-131781219D01*
X107801101Y-131781219D02*
X107763006Y-131857409D01*
X107763006Y-131857409D02*
X107686816Y-131933600D01*
X107686816Y-131933600D02*
X107572530Y-131971695D01*
X107572530Y-131971695D02*
X107382054Y-131971695D01*
X108182054Y-131552647D02*
X108448720Y-131552647D01*
X108563006Y-131971695D02*
X108182054Y-131971695D01*
X108182054Y-131971695D02*
X108182054Y-131171695D01*
X108182054Y-131171695D02*
X108563006Y-131171695D01*
X108943959Y-131971695D02*
X109096340Y-131971695D01*
X109096340Y-131971695D02*
X109172530Y-131933600D01*
X109172530Y-131933600D02*
X109210626Y-131895504D01*
X109210626Y-131895504D02*
X109286816Y-131781219D01*
X109286816Y-131781219D02*
X109324911Y-131628838D01*
X109324911Y-131628838D02*
X109324911Y-131324076D01*
X109324911Y-131324076D02*
X109286816Y-131247885D01*
X109286816Y-131247885D02*
X109248721Y-131209790D01*
X109248721Y-131209790D02*
X109172530Y-131171695D01*
X109172530Y-131171695D02*
X109020149Y-131171695D01*
X109020149Y-131171695D02*
X108943959Y-131209790D01*
X108943959Y-131209790D02*
X108905864Y-131247885D01*
X108905864Y-131247885D02*
X108867768Y-131324076D01*
X108867768Y-131324076D02*
X108867768Y-131514552D01*
X108867768Y-131514552D02*
X108905864Y-131590742D01*
X108905864Y-131590742D02*
X108943959Y-131628838D01*
X108943959Y-131628838D02*
X109020149Y-131666933D01*
X109020149Y-131666933D02*
X109172530Y-131666933D01*
X109172530Y-131666933D02*
X109248721Y-131628838D01*
X109248721Y-131628838D02*
X109286816Y-131590742D01*
X109286816Y-131590742D02*
X109324911Y-131514552D01*
X110277293Y-131971695D02*
X110277293Y-131171695D01*
X110277293Y-131171695D02*
X110582055Y-131171695D01*
X110582055Y-131171695D02*
X110658245Y-131209790D01*
X110658245Y-131209790D02*
X110696340Y-131247885D01*
X110696340Y-131247885D02*
X110734436Y-131324076D01*
X110734436Y-131324076D02*
X110734436Y-131438361D01*
X110734436Y-131438361D02*
X110696340Y-131514552D01*
X110696340Y-131514552D02*
X110658245Y-131552647D01*
X110658245Y-131552647D02*
X110582055Y-131590742D01*
X110582055Y-131590742D02*
X110277293Y-131590742D01*
X111077293Y-131971695D02*
X111077293Y-131171695D01*
X111458245Y-131971695D02*
X111458245Y-131171695D01*
X111458245Y-131171695D02*
X111915388Y-131971695D01*
X111915388Y-131971695D02*
X111915388Y-131171695D01*
X112220149Y-131171695D02*
X112715387Y-131171695D01*
X112715387Y-131171695D02*
X112448721Y-131476457D01*
X112448721Y-131476457D02*
X112563006Y-131476457D01*
X112563006Y-131476457D02*
X112639197Y-131514552D01*
X112639197Y-131514552D02*
X112677292Y-131552647D01*
X112677292Y-131552647D02*
X112715387Y-131628838D01*
X112715387Y-131628838D02*
X112715387Y-131819314D01*
X112715387Y-131819314D02*
X112677292Y-131895504D01*
X112677292Y-131895504D02*
X112639197Y-131933600D01*
X112639197Y-131933600D02*
X112563006Y-131971695D01*
X112563006Y-131971695D02*
X112334435Y-131971695D01*
X112334435Y-131971695D02*
X112258244Y-131933600D01*
X112258244Y-131933600D02*
X112220149Y-131895504D01*
D11*
G36*
X98985781Y-108674233D02*
G01*
X99321737Y-108553699D01*
X99390219Y-108735271D01*
X99485387Y-108879277D01*
X99630148Y-108999803D01*
X99811232Y-109069197D01*
X99995359Y-109087980D01*
X100174797Y-109072954D01*
X100348285Y-109017438D01*
X100410816Y-108981124D01*
X100528785Y-108854606D01*
X100568108Y-108690475D01*
X100532160Y-108515660D01*
X100440736Y-108413504D01*
X100280525Y-108343473D01*
X100106383Y-108297458D01*
X99931245Y-108263050D01*
X99744915Y-108222471D01*
X99546938Y-108151988D01*
X99387781Y-108059549D01*
X99248033Y-107919641D01*
X99164184Y-107748116D01*
X99136235Y-107544976D01*
X99154627Y-107374717D01*
X99218207Y-107211393D01*
X99327200Y-107075285D01*
X99368754Y-107039760D01*
X99527803Y-106942838D01*
X99693502Y-106886300D01*
X99880569Y-106858839D01*
X99970568Y-106855967D01*
X100148601Y-106869741D01*
X100315113Y-106911065D01*
X100484970Y-106988339D01*
X100499720Y-106997017D01*
X100648797Y-107110776D01*
X100761530Y-107244346D01*
X100852558Y-107406634D01*
X100860467Y-107424442D01*
X100571528Y-107611654D01*
X100463460Y-107449439D01*
X100342712Y-107327066D01*
X100189186Y-107235998D01*
X100019098Y-107196969D01*
X99973988Y-107195342D01*
X99793593Y-107215628D01*
X99635467Y-107287666D01*
X99527475Y-107427381D01*
X99509804Y-107535573D01*
X99548406Y-107702256D01*
X99646580Y-107804850D01*
X99810437Y-107878434D01*
X99981574Y-107928590D01*
X100150942Y-107967272D01*
X100320865Y-108005729D01*
X100488816Y-108059598D01*
X100644297Y-108132846D01*
X100752756Y-108209194D01*
X100867880Y-108352569D01*
X100926734Y-108520746D01*
X100941678Y-108684491D01*
X100921189Y-108861468D01*
X100850363Y-109034475D01*
X100743366Y-109168911D01*
X100682658Y-109222192D01*
X100524052Y-109321368D01*
X100360589Y-109382276D01*
X100175968Y-109417538D01*
X99997069Y-109427356D01*
X99807025Y-109415334D01*
X99634398Y-109379270D01*
X99461013Y-109309960D01*
X99341399Y-109235014D01*
X99208894Y-109112893D01*
X99101814Y-108962912D01*
X99027976Y-108806207D01*
X98985781Y-108674233D01*
G37*
G36*
X102206856Y-109400001D02*
G01*
X101655478Y-106883322D01*
X102021353Y-106883322D01*
X102385519Y-108816993D01*
X102835170Y-107186794D01*
X103180530Y-107186794D01*
X103630181Y-108816993D01*
X103994347Y-106883322D01*
X104360223Y-106883322D01*
X103808845Y-109400001D01*
X103472034Y-109400001D01*
X103007850Y-107694575D01*
X102542812Y-109400001D01*
X102206856Y-109400001D01*
G37*
G36*
X106241677Y-106867087D02*
G01*
X106432468Y-106908168D01*
X106606488Y-106979520D01*
X106763736Y-107081141D01*
X106865788Y-107172261D01*
X106987699Y-107319599D01*
X107079668Y-107484853D01*
X107141693Y-107668024D01*
X107171025Y-107839287D01*
X107178663Y-107992063D01*
X107178663Y-108152774D01*
X105309106Y-108152774D01*
X105318883Y-108324591D01*
X105353998Y-108503922D01*
X105414653Y-108665088D01*
X105513415Y-108824686D01*
X105639977Y-108951962D01*
X105788854Y-109037584D01*
X105960045Y-109081552D01*
X106064794Y-109087980D01*
X106238875Y-109074041D01*
X106413092Y-109021623D01*
X106503332Y-108970011D01*
X106635788Y-108844533D01*
X106741033Y-108692078D01*
X106813642Y-108554554D01*
X107134211Y-108710137D01*
X107049033Y-108869547D01*
X106943673Y-109025383D01*
X106829764Y-109153117D01*
X106691399Y-109263225D01*
X106538841Y-109342565D01*
X106367754Y-109395940D01*
X106178141Y-109423349D01*
X106064794Y-109427356D01*
X105883782Y-109414553D01*
X105715814Y-109376145D01*
X105536337Y-109298973D01*
X105374612Y-109186949D01*
X105250122Y-109063190D01*
X105143212Y-108919835D01*
X105058422Y-108762897D01*
X104995750Y-108592374D01*
X104955198Y-108408268D01*
X104936766Y-108210577D01*
X104935537Y-108141661D01*
X104946596Y-107939443D01*
X104968766Y-107813399D01*
X105334752Y-107813399D01*
X106805094Y-107813399D01*
X106760263Y-107635608D01*
X106678663Y-107483070D01*
X106572575Y-107366312D01*
X106424922Y-107268973D01*
X106248783Y-107212039D01*
X106063939Y-107195342D01*
X105878838Y-107216454D01*
X105714950Y-107279789D01*
X105584368Y-107374006D01*
X105467322Y-107506149D01*
X105383004Y-107658090D01*
X105334752Y-107813399D01*
X104968766Y-107813399D01*
X104979775Y-107750808D01*
X105035073Y-107575757D01*
X105112491Y-107414291D01*
X105212027Y-107266409D01*
X105250122Y-107220133D01*
X105374612Y-107096374D01*
X105536337Y-106984350D01*
X105715814Y-106907178D01*
X105883782Y-106868770D01*
X106064794Y-106855967D01*
X106241677Y-106867087D01*
G37*
G36*
X109278105Y-106867087D02*
G01*
X109468896Y-106908168D01*
X109642915Y-106979520D01*
X109800163Y-107081141D01*
X109902215Y-107172261D01*
X110024126Y-107319599D01*
X110116095Y-107484853D01*
X110178120Y-107668024D01*
X110207452Y-107839287D01*
X110215090Y-107992063D01*
X110215090Y-108152774D01*
X108345533Y-108152774D01*
X108355310Y-108324591D01*
X108390425Y-108503922D01*
X108451080Y-108665088D01*
X108549842Y-108824686D01*
X108676405Y-108951962D01*
X108825281Y-109037584D01*
X108996472Y-109081552D01*
X109101221Y-109087980D01*
X109275302Y-109074041D01*
X109449519Y-109021623D01*
X109539759Y-108970011D01*
X109672215Y-108844533D01*
X109777460Y-108692078D01*
X109850069Y-108554554D01*
X110170638Y-108710137D01*
X110085460Y-108869547D01*
X109980100Y-109025383D01*
X109866191Y-109153117D01*
X109727826Y-109263225D01*
X109575268Y-109342565D01*
X109404182Y-109395940D01*
X109214568Y-109423349D01*
X109101221Y-109427356D01*
X108920210Y-109414553D01*
X108752242Y-109376145D01*
X108572764Y-109298973D01*
X108411040Y-109186949D01*
X108286549Y-109063190D01*
X108179639Y-108919835D01*
X108094849Y-108762897D01*
X108032177Y-108592374D01*
X107991625Y-108408268D01*
X107973193Y-108210577D01*
X107971964Y-108141661D01*
X107983024Y-107939443D01*
X108005193Y-107813399D01*
X108371179Y-107813399D01*
X109841521Y-107813399D01*
X109796690Y-107635608D01*
X109715090Y-107483070D01*
X109609002Y-107366312D01*
X109461349Y-107268973D01*
X109285210Y-107212039D01*
X109100366Y-107195342D01*
X108915265Y-107216454D01*
X108751377Y-107279789D01*
X108620795Y-107374006D01*
X108503749Y-107506149D01*
X108419431Y-107658090D01*
X108371179Y-107813399D01*
X108005193Y-107813399D01*
X108016202Y-107750808D01*
X108071501Y-107575757D01*
X108148918Y-107414291D01*
X108248454Y-107266409D01*
X108286549Y-107220133D01*
X108411040Y-107096374D01*
X108572764Y-106984350D01*
X108752242Y-106907178D01*
X108920210Y-106868770D01*
X109101221Y-106855967D01*
X109278105Y-106867087D01*
G37*
G36*
X111619609Y-108477617D02*
G01*
X111619609Y-107222698D01*
X111063101Y-107222698D01*
X111063101Y-106883322D01*
X111619609Y-106883322D01*
X111619609Y-106084892D01*
X111993178Y-105859212D01*
X111993178Y-106883322D01*
X112813834Y-106883322D01*
X112813834Y-107222698D01*
X111993178Y-107222698D01*
X111993178Y-108518650D01*
X112010759Y-108712133D01*
X112075712Y-108887269D01*
X112208548Y-109020706D01*
X112376057Y-109079084D01*
X112493265Y-109087980D01*
X112670460Y-109067965D01*
X112787334Y-109024721D01*
X112928018Y-108922285D01*
X113048948Y-108796416D01*
X113068579Y-108773395D01*
X113204501Y-109086271D01*
X113069762Y-109219174D01*
X112921362Y-109319434D01*
X112759298Y-109387052D01*
X112583572Y-109422026D01*
X112477023Y-109427356D01*
X112292215Y-109412610D01*
X112126748Y-109368371D01*
X111963717Y-109283350D01*
X111853838Y-109191417D01*
X111740612Y-109039220D01*
X111671075Y-108872030D01*
X111634248Y-108701107D01*
X111619837Y-108507196D01*
X111619609Y-108477617D01*
G37*
G36*
X98985781Y-114554233D02*
G01*
X99321737Y-114433699D01*
X99390219Y-114615271D01*
X99485387Y-114759277D01*
X99630148Y-114879803D01*
X99811232Y-114949197D01*
X99995359Y-114967980D01*
X100174797Y-114952954D01*
X100348285Y-114897438D01*
X100410816Y-114861124D01*
X100528785Y-114734606D01*
X100568108Y-114570475D01*
X100532160Y-114395660D01*
X100440736Y-114293504D01*
X100280525Y-114223473D01*
X100106383Y-114177458D01*
X99931245Y-114143050D01*
X99744915Y-114102471D01*
X99546938Y-114031988D01*
X99387781Y-113939549D01*
X99248033Y-113799641D01*
X99164184Y-113628116D01*
X99136235Y-113424976D01*
X99154627Y-113254717D01*
X99218207Y-113091393D01*
X99327200Y-112955285D01*
X99368754Y-112919760D01*
X99527803Y-112822838D01*
X99693502Y-112766300D01*
X99880569Y-112738839D01*
X99970568Y-112735967D01*
X100148601Y-112749741D01*
X100315113Y-112791065D01*
X100484970Y-112868339D01*
X100499720Y-112877017D01*
X100648797Y-112990776D01*
X100761530Y-113124346D01*
X100852558Y-113286634D01*
X100860467Y-113304442D01*
X100571528Y-113491654D01*
X100463460Y-113329439D01*
X100342712Y-113207066D01*
X100189186Y-113115998D01*
X100019098Y-113076969D01*
X99973988Y-113075342D01*
X99793593Y-113095628D01*
X99635467Y-113167666D01*
X99527475Y-113307381D01*
X99509804Y-113415573D01*
X99548406Y-113582256D01*
X99646580Y-113684850D01*
X99810437Y-113758434D01*
X99981574Y-113808590D01*
X100150942Y-113847272D01*
X100320865Y-113885729D01*
X100488816Y-113939598D01*
X100644297Y-114012846D01*
X100752756Y-114089194D01*
X100867880Y-114232569D01*
X100926734Y-114400746D01*
X100941678Y-114564491D01*
X100921189Y-114741468D01*
X100850363Y-114914475D01*
X100743366Y-115048911D01*
X100682658Y-115102192D01*
X100524052Y-115201368D01*
X100360589Y-115262276D01*
X100175968Y-115297538D01*
X99997069Y-115307356D01*
X99807025Y-115295334D01*
X99634398Y-115259270D01*
X99461013Y-115189960D01*
X99341399Y-115115014D01*
X99208894Y-114992893D01*
X99101814Y-114842912D01*
X99027976Y-114686207D01*
X98985781Y-114554233D01*
G37*
G36*
X102008531Y-114473022D02*
G01*
X102008531Y-112763322D01*
X102382100Y-112763322D01*
X102382100Y-114431989D01*
X102398509Y-114614143D01*
X102459132Y-114779023D01*
X102583112Y-114904645D01*
X102765435Y-114963269D01*
X102848848Y-114967980D01*
X103021745Y-114943975D01*
X103177872Y-114871960D01*
X103317229Y-114751934D01*
X103387404Y-114664509D01*
X103482399Y-114500324D01*
X103543255Y-114336940D01*
X103583331Y-114155148D01*
X103601143Y-113984676D01*
X103604535Y-113863514D01*
X103604535Y-112763322D01*
X103978105Y-112763322D01*
X103978105Y-115280001D01*
X103604535Y-115280001D01*
X103604535Y-114841462D01*
X103503767Y-114980028D01*
X103371292Y-115096715D01*
X103289096Y-115154338D01*
X103125299Y-115241456D01*
X102953624Y-115292413D01*
X102790718Y-115307356D01*
X102619000Y-115293464D01*
X102448553Y-115244628D01*
X102287400Y-115149125D01*
X102217969Y-115085095D01*
X102116727Y-114946819D01*
X102048618Y-114782037D01*
X102015894Y-114613311D01*
X102008531Y-114473022D01*
G37*
G36*
X107069242Y-112906082D02*
G01*
X106717044Y-113100133D01*
X106824117Y-113246987D01*
X106886745Y-113414851D01*
X106905111Y-113585688D01*
X106889564Y-113758528D01*
X106834904Y-113932920D01*
X106740890Y-114086079D01*
X106656350Y-114176389D01*
X106507436Y-114286722D01*
X106339588Y-114360947D01*
X106152806Y-114399062D01*
X106040858Y-114404634D01*
X105864049Y-114390088D01*
X105692825Y-114341041D01*
X105579239Y-114281536D01*
X105445051Y-114400370D01*
X105418527Y-114519184D01*
X105495007Y-114677267D01*
X105672842Y-114721586D01*
X105689515Y-114721783D01*
X106314410Y-114721783D01*
X106500553Y-114735510D01*
X106679303Y-114782961D01*
X106841795Y-114874304D01*
X106867498Y-114895318D01*
X106982358Y-115033127D01*
X107049541Y-115209118D01*
X107069045Y-115381511D01*
X107069242Y-115402244D01*
X107055948Y-115586087D01*
X107008197Y-115770147D01*
X106925717Y-115926424D01*
X106808509Y-116054919D01*
X106791416Y-116069027D01*
X106640054Y-116166640D01*
X106462940Y-116236364D01*
X106286840Y-116274494D01*
X106091024Y-116291271D01*
X106031454Y-116292143D01*
X105859429Y-116284269D01*
X105676054Y-116255179D01*
X105511332Y-116204654D01*
X105345918Y-116120665D01*
X105272348Y-116068172D01*
X105148929Y-115945822D01*
X105052232Y-115782377D01*
X105003746Y-115614158D01*
X104991017Y-115458664D01*
X105363817Y-115458664D01*
X105391751Y-115630797D01*
X105484315Y-115778619D01*
X105533077Y-115821975D01*
X105696984Y-115906658D01*
X105876887Y-115944593D01*
X106031454Y-115952767D01*
X106216833Y-115939327D01*
X106387388Y-115893495D01*
X106522993Y-115815137D01*
X106641036Y-115677202D01*
X106692975Y-115504252D01*
X106695673Y-115448406D01*
X106668585Y-115278985D01*
X106558540Y-115135280D01*
X106387123Y-115070613D01*
X106262264Y-115061159D01*
X105778419Y-115061159D01*
X105604030Y-115053465D01*
X105554448Y-115047481D01*
X105431022Y-115176377D01*
X105372939Y-115341691D01*
X105363817Y-115458664D01*
X104991017Y-115458664D01*
X104990247Y-115449261D01*
X105009722Y-115269347D01*
X105077041Y-115100848D01*
X105192446Y-114965407D01*
X105236444Y-114931222D01*
X105112464Y-114812918D01*
X105054121Y-114645360D01*
X105044958Y-114521749D01*
X105078409Y-114349683D01*
X105139846Y-114243067D01*
X105261377Y-114119760D01*
X105353558Y-114065259D01*
X105245512Y-113917018D01*
X105182315Y-113740292D01*
X105165320Y-113570301D01*
X105537351Y-113570301D01*
X105564349Y-113749422D01*
X105653194Y-113903933D01*
X105678401Y-113930192D01*
X105826790Y-114027139D01*
X105994434Y-114064072D01*
X106034019Y-114065259D01*
X106208278Y-114039406D01*
X106363391Y-113954330D01*
X106390491Y-113930192D01*
X106491734Y-113783420D01*
X106530302Y-113611521D01*
X106531542Y-113570301D01*
X106504544Y-113391343D01*
X106415699Y-113237370D01*
X106390491Y-113211264D01*
X106241915Y-113113703D01*
X106073757Y-113076537D01*
X106034019Y-113075342D01*
X105860344Y-113101359D01*
X105705495Y-113186973D01*
X105678401Y-113211264D01*
X105577159Y-113357423D01*
X105538591Y-113529087D01*
X105537351Y-113570301D01*
X105165320Y-113570301D01*
X105163782Y-113554913D01*
X105179276Y-113381753D01*
X105233748Y-113207256D01*
X105327439Y-113054262D01*
X105411688Y-112964212D01*
X105560948Y-112853879D01*
X105728871Y-112779655D01*
X105915457Y-112741539D01*
X106027180Y-112735967D01*
X106209612Y-112755295D01*
X106379065Y-112813281D01*
X106452896Y-112853081D01*
X106916224Y-112587223D01*
X107069242Y-112906082D01*
G37*
G36*
X109289212Y-112747380D02*
G01*
X109473953Y-112788372D01*
X109637002Y-112859178D01*
X109778360Y-112959797D01*
X109794504Y-112974470D01*
X109906703Y-113104835D01*
X109986845Y-113257425D01*
X110034931Y-113432242D01*
X110050709Y-113603439D01*
X110050959Y-113629285D01*
X110050959Y-115280001D01*
X109759455Y-115280001D01*
X109692777Y-114937206D01*
X109581005Y-115069494D01*
X109436373Y-115169110D01*
X109396144Y-115191096D01*
X109237040Y-115257287D01*
X109062986Y-115296002D01*
X108891782Y-115307356D01*
X108716057Y-115294960D01*
X108540719Y-115251383D01*
X108373656Y-115166165D01*
X108301081Y-115109031D01*
X108185226Y-114966845D01*
X108117643Y-114808614D01*
X108084817Y-114621713D01*
X108081385Y-114529442D01*
X108454954Y-114529442D01*
X108482002Y-114704515D01*
X108578053Y-114853430D01*
X108725942Y-114939343D01*
X108896017Y-114967533D01*
X108923412Y-114967980D01*
X109096402Y-114946275D01*
X109259542Y-114881160D01*
X109412830Y-114772634D01*
X109442306Y-114745719D01*
X109555945Y-114604326D01*
X109632393Y-114431151D01*
X109669125Y-114250537D01*
X109677390Y-114098598D01*
X109677390Y-114032774D01*
X109165334Y-114032774D01*
X108981641Y-114043120D01*
X108809102Y-114078884D01*
X108645912Y-114155520D01*
X108634473Y-114163566D01*
X108511755Y-114297551D01*
X108457759Y-114472114D01*
X108454954Y-114529442D01*
X108081385Y-114529442D01*
X108099390Y-114336620D01*
X108153406Y-114168482D01*
X108257217Y-114008831D01*
X108369469Y-113906257D01*
X108529326Y-113813131D01*
X108694446Y-113753473D01*
X108883127Y-113714186D01*
X109063607Y-113696725D01*
X109193545Y-113693399D01*
X109677390Y-113693399D01*
X109677390Y-113617317D01*
X109655631Y-113434513D01*
X109582951Y-113278257D01*
X109522662Y-113212118D01*
X109366425Y-113118619D01*
X109198126Y-113080151D01*
X109102076Y-113075342D01*
X108914580Y-113097309D01*
X108738468Y-113176209D01*
X108603068Y-113312491D01*
X108517989Y-113478808D01*
X108499406Y-113534397D01*
X108169434Y-113446347D01*
X108224221Y-113268792D01*
X108308761Y-113115040D01*
X108423054Y-112985089D01*
X108499406Y-112923179D01*
X108652408Y-112832681D01*
X108820015Y-112771801D01*
X109002228Y-112740538D01*
X109109769Y-112735967D01*
X109289212Y-112747380D01*
G37*
G36*
X111063101Y-115280001D02*
G01*
X111063101Y-112763322D01*
X111436671Y-112763322D01*
X111436671Y-113205280D01*
X111537393Y-113061361D01*
X111674516Y-112943472D01*
X111760659Y-112886421D01*
X111920509Y-112807080D01*
X112093383Y-112757125D01*
X112279279Y-112736555D01*
X112318021Y-112735967D01*
X112498020Y-112749591D01*
X112676124Y-112797489D01*
X112828397Y-112879872D01*
X112915561Y-112953954D01*
X113020522Y-113089690D01*
X113091133Y-113251662D01*
X113127392Y-113439871D01*
X113132693Y-113555768D01*
X112759124Y-113555768D01*
X112738102Y-113380900D01*
X112661604Y-113227866D01*
X112631751Y-113195876D01*
X112476810Y-113105476D01*
X112294603Y-113075813D01*
X112265020Y-113075342D01*
X112094638Y-113095538D01*
X111920712Y-113166539D01*
X111781892Y-113272567D01*
X111672609Y-113398476D01*
X111580676Y-113552323D01*
X111511323Y-113731123D01*
X111469850Y-113904240D01*
X111444966Y-114095689D01*
X111436901Y-114269235D01*
X111436671Y-114305472D01*
X111436671Y-115280001D01*
X111063101Y-115280001D01*
G37*
G36*
X101105809Y-121160001D02*
G01*
X100732240Y-121160001D01*
X100732240Y-120889868D01*
X100589554Y-121002873D01*
X100449284Y-121077935D01*
X100281426Y-121144613D01*
X100106115Y-121180517D01*
X99985101Y-121187356D01*
X99796757Y-121174553D01*
X99624100Y-121136145D01*
X99442496Y-121058973D01*
X99282244Y-120946949D01*
X99161880Y-120823190D01*
X99060200Y-120679575D01*
X98979557Y-120522496D01*
X98919951Y-120351954D01*
X98881383Y-120167947D01*
X98863851Y-119970477D01*
X98862683Y-119901661D01*
X99236252Y-119901661D01*
X99245906Y-120080934D01*
X99280581Y-120265983D01*
X99340474Y-120429873D01*
X99437997Y-120588961D01*
X99564469Y-120714170D01*
X99715960Y-120798402D01*
X99892471Y-120841657D01*
X100001343Y-120847980D01*
X100189206Y-120827491D01*
X100352726Y-120766025D01*
X100491903Y-120663581D01*
X100558705Y-120588961D01*
X100656641Y-120429873D01*
X100716788Y-120265983D01*
X100751610Y-120080934D01*
X100761304Y-119901661D01*
X100751610Y-119725222D01*
X100716788Y-119542111D01*
X100656641Y-119378768D01*
X100558705Y-119218636D01*
X100435126Y-119091360D01*
X100285580Y-119005739D01*
X100110069Y-118961771D01*
X100001343Y-118955342D01*
X99830961Y-118971852D01*
X99663165Y-119029892D01*
X99520660Y-119129722D01*
X99439706Y-119219491D01*
X99341357Y-119379209D01*
X99280956Y-119542299D01*
X99245988Y-119725263D01*
X99236252Y-119901661D01*
X98862683Y-119901661D01*
X98873201Y-119699733D01*
X98904757Y-119511329D01*
X98957351Y-119336449D01*
X99030981Y-119175092D01*
X99125649Y-119027260D01*
X99161880Y-118980988D01*
X99282244Y-118856938D01*
X99442496Y-118744651D01*
X99624100Y-118667298D01*
X99796757Y-118628800D01*
X99985101Y-118615967D01*
X100158362Y-118634167D01*
X100322554Y-118683274D01*
X100420219Y-118726243D01*
X100569885Y-118809190D01*
X100708477Y-118920534D01*
X100732240Y-118948504D01*
X100732240Y-117658535D01*
X101105809Y-117658535D01*
X101105809Y-121160001D01*
G37*
G36*
X102008531Y-120353022D02*
G01*
X102008531Y-118643322D01*
X102382100Y-118643322D01*
X102382100Y-120311989D01*
X102398509Y-120494143D01*
X102459132Y-120659023D01*
X102583112Y-120784645D01*
X102765435Y-120843269D01*
X102848848Y-120847980D01*
X103021745Y-120823975D01*
X103177872Y-120751960D01*
X103317229Y-120631934D01*
X103387404Y-120544509D01*
X103482399Y-120380324D01*
X103543255Y-120216940D01*
X103583331Y-120035148D01*
X103601143Y-119864676D01*
X103604535Y-119743514D01*
X103604535Y-118643322D01*
X103978105Y-118643322D01*
X103978105Y-121160001D01*
X103604535Y-121160001D01*
X103604535Y-120721462D01*
X103503767Y-120860028D01*
X103371292Y-120976715D01*
X103289096Y-121034338D01*
X103125299Y-121121456D01*
X102953624Y-121172413D01*
X102790718Y-121187356D01*
X102619000Y-121173464D01*
X102448553Y-121124628D01*
X102287400Y-121029125D01*
X102217969Y-120965095D01*
X102116727Y-120826819D01*
X102048618Y-120662037D01*
X102015894Y-120493311D01*
X102008531Y-120353022D01*
G37*
G36*
X105058635Y-120434233D02*
G01*
X105394591Y-120313699D01*
X105463073Y-120495271D01*
X105558242Y-120639277D01*
X105703002Y-120759803D01*
X105884086Y-120829197D01*
X106068213Y-120847980D01*
X106247651Y-120832954D01*
X106421139Y-120777438D01*
X106483670Y-120741124D01*
X106601639Y-120614606D01*
X106640963Y-120450475D01*
X106605015Y-120275660D01*
X106513590Y-120173504D01*
X106353379Y-120103473D01*
X106179237Y-120057458D01*
X106004099Y-120023050D01*
X105817769Y-119982471D01*
X105619792Y-119911988D01*
X105460635Y-119819549D01*
X105320887Y-119679641D01*
X105237038Y-119508116D01*
X105209089Y-119304976D01*
X105227481Y-119134717D01*
X105291061Y-118971393D01*
X105400054Y-118835285D01*
X105441608Y-118799760D01*
X105600657Y-118702838D01*
X105766356Y-118646300D01*
X105953423Y-118618839D01*
X106043422Y-118615967D01*
X106221455Y-118629741D01*
X106387967Y-118671065D01*
X106557824Y-118748339D01*
X106572575Y-118757017D01*
X106721651Y-118870776D01*
X106834384Y-119004346D01*
X106925412Y-119166634D01*
X106933321Y-119184442D01*
X106644382Y-119371654D01*
X106536314Y-119209439D01*
X106415566Y-119087066D01*
X106262040Y-118995998D01*
X106091952Y-118956969D01*
X106046842Y-118955342D01*
X105866447Y-118975628D01*
X105708321Y-119047666D01*
X105600330Y-119187381D01*
X105582658Y-119295573D01*
X105621260Y-119462256D01*
X105719434Y-119564850D01*
X105883292Y-119638434D01*
X106054429Y-119688590D01*
X106223796Y-119727272D01*
X106393719Y-119765729D01*
X106561670Y-119819598D01*
X106717151Y-119892846D01*
X106825610Y-119969194D01*
X106940734Y-120112569D01*
X106999588Y-120280746D01*
X107014532Y-120444491D01*
X106994043Y-120621468D01*
X106923217Y-120794475D01*
X106816220Y-120928911D01*
X106755512Y-120982192D01*
X106596906Y-121081368D01*
X106433443Y-121142276D01*
X106248822Y-121177538D01*
X106069923Y-121187356D01*
X105879879Y-121175334D01*
X105707253Y-121139270D01*
X105533868Y-121069960D01*
X105414253Y-120995014D01*
X105281748Y-120872893D01*
X105174668Y-120722912D01*
X105100830Y-120566207D01*
X105058635Y-120434233D01*
G37*
G36*
X108583182Y-120237617D02*
G01*
X108583182Y-118982698D01*
X108026674Y-118982698D01*
X108026674Y-118643322D01*
X108583182Y-118643322D01*
X108583182Y-117844892D01*
X108956751Y-117619212D01*
X108956751Y-118643322D01*
X109777407Y-118643322D01*
X109777407Y-118982698D01*
X108956751Y-118982698D01*
X108956751Y-120278650D01*
X108974332Y-120472133D01*
X109039285Y-120647269D01*
X109172121Y-120780706D01*
X109339630Y-120839084D01*
X109456838Y-120847980D01*
X109634033Y-120827965D01*
X109750907Y-120784721D01*
X109891590Y-120682285D01*
X110012521Y-120556416D01*
X110032152Y-120533395D01*
X110168073Y-120846271D01*
X110033335Y-120979174D01*
X109884934Y-121079434D01*
X109722871Y-121147052D01*
X109547145Y-121182026D01*
X109440596Y-121187356D01*
X109255788Y-121172610D01*
X109090321Y-121128371D01*
X108927290Y-121043350D01*
X108817411Y-120951417D01*
X108704185Y-120799220D01*
X108634648Y-120632030D01*
X108597821Y-120461107D01*
X108583410Y-120267196D01*
X108583182Y-120237617D01*
G37*
G36*
X112314532Y-118627087D02*
G01*
X112505323Y-118668168D01*
X112679342Y-118739520D01*
X112836590Y-118841141D01*
X112938642Y-118932261D01*
X113060553Y-119079599D01*
X113152522Y-119244853D01*
X113214547Y-119428024D01*
X113243879Y-119599287D01*
X113251517Y-119752063D01*
X113251517Y-119912774D01*
X111381960Y-119912774D01*
X111391737Y-120084591D01*
X111426853Y-120263922D01*
X111487507Y-120425088D01*
X111586270Y-120584686D01*
X111712832Y-120711962D01*
X111861708Y-120797584D01*
X112032899Y-120841552D01*
X112137648Y-120847980D01*
X112311729Y-120834041D01*
X112485946Y-120781623D01*
X112576186Y-120730011D01*
X112708642Y-120604533D01*
X112813888Y-120452078D01*
X112886496Y-120314554D01*
X113207065Y-120470137D01*
X113121887Y-120629547D01*
X113016527Y-120785383D01*
X112902618Y-120913117D01*
X112764253Y-121023225D01*
X112611695Y-121102565D01*
X112440609Y-121155940D01*
X112250995Y-121183349D01*
X112137648Y-121187356D01*
X111956637Y-121174553D01*
X111788669Y-121136145D01*
X111609191Y-121058973D01*
X111447467Y-120946949D01*
X111322976Y-120823190D01*
X111216066Y-120679835D01*
X111131276Y-120522897D01*
X111068604Y-120352374D01*
X111028053Y-120168268D01*
X111009620Y-119970577D01*
X111008391Y-119901661D01*
X111019451Y-119699443D01*
X111041620Y-119573399D01*
X111407606Y-119573399D01*
X112877948Y-119573399D01*
X112833117Y-119395608D01*
X112751517Y-119243070D01*
X112645429Y-119126312D01*
X112497776Y-119028973D01*
X112321638Y-118972039D01*
X112136793Y-118955342D01*
X111951692Y-118976454D01*
X111787804Y-119039789D01*
X111657222Y-119134006D01*
X111540176Y-119266149D01*
X111455858Y-119418090D01*
X111407606Y-119573399D01*
X111041620Y-119573399D01*
X111052629Y-119510808D01*
X111107928Y-119335757D01*
X111185345Y-119174291D01*
X111284882Y-119026409D01*
X111322976Y-118980133D01*
X111447467Y-118856374D01*
X111609191Y-118744350D01*
X111788669Y-118667178D01*
X111956637Y-118628770D01*
X112137648Y-118615967D01*
X112314532Y-118627087D01*
G37*
G36*
X116287944Y-121160001D02*
G01*
X115914375Y-121160001D01*
X115914375Y-120889868D01*
X115771689Y-121002873D01*
X115631420Y-121077935D01*
X115463562Y-121144613D01*
X115288251Y-121180517D01*
X115167236Y-121187356D01*
X114978892Y-121174553D01*
X114806236Y-121136145D01*
X114624631Y-121058973D01*
X114464379Y-120946949D01*
X114344016Y-120823190D01*
X114242335Y-120679575D01*
X114161692Y-120522496D01*
X114102086Y-120351954D01*
X114063518Y-120167947D01*
X114045987Y-119970477D01*
X114044818Y-119901661D01*
X114418387Y-119901661D01*
X114428041Y-120080934D01*
X114462716Y-120265983D01*
X114522609Y-120429873D01*
X114620132Y-120588961D01*
X114746604Y-120714170D01*
X114898095Y-120798402D01*
X115074606Y-120841657D01*
X115183478Y-120847980D01*
X115371342Y-120827491D01*
X115534862Y-120766025D01*
X115674039Y-120663581D01*
X115740840Y-120588961D01*
X115838777Y-120429873D01*
X115898923Y-120265983D01*
X115933745Y-120080934D01*
X115943440Y-119901661D01*
X115933745Y-119725222D01*
X115898923Y-119542111D01*
X115838777Y-119378768D01*
X115740840Y-119218636D01*
X115617261Y-119091360D01*
X115467716Y-119005739D01*
X115292204Y-118961771D01*
X115183478Y-118955342D01*
X115013096Y-118971852D01*
X114845301Y-119029892D01*
X114702795Y-119129722D01*
X114621842Y-119219491D01*
X114523492Y-119379209D01*
X114463092Y-119542299D01*
X114428123Y-119725263D01*
X114418387Y-119901661D01*
X114044818Y-119901661D01*
X114055337Y-119699733D01*
X114086893Y-119511329D01*
X114139486Y-119336449D01*
X114213117Y-119175092D01*
X114307785Y-119027260D01*
X114344016Y-118980988D01*
X114464379Y-118856938D01*
X114624631Y-118744651D01*
X114806236Y-118667298D01*
X114978892Y-118628800D01*
X115167236Y-118615967D01*
X115340498Y-118634167D01*
X115504689Y-118683274D01*
X115602355Y-118726243D01*
X115752020Y-118809190D01*
X115890613Y-118920534D01*
X115914375Y-118948504D01*
X115914375Y-117658535D01*
X116287944Y-117658535D01*
X116287944Y-121160001D01*
G37*
G36*
X98972103Y-127040001D02*
G01*
X98972103Y-124523322D01*
X99345673Y-124523322D01*
X99345673Y-124961860D01*
X99446278Y-124823294D01*
X99578352Y-124706607D01*
X99660258Y-124648985D01*
X99824155Y-124561866D01*
X99996134Y-124510910D01*
X100159490Y-124495967D01*
X100331155Y-124509858D01*
X100501414Y-124558695D01*
X100662199Y-124654198D01*
X100731385Y-124718228D01*
X100833040Y-124856225D01*
X100901426Y-125021135D01*
X100934285Y-125190316D01*
X100941678Y-125331155D01*
X100941678Y-127040001D01*
X100568108Y-127040001D01*
X100568108Y-125371333D01*
X100551699Y-125189180D01*
X100491077Y-125024300D01*
X100367097Y-124898677D01*
X100184773Y-124840053D01*
X100101360Y-124835342D01*
X99928396Y-124859348D01*
X99772066Y-124931363D01*
X99632371Y-125051388D01*
X99561950Y-125138814D01*
X99467329Y-125302625D01*
X99406712Y-125465769D01*
X99366794Y-125647403D01*
X99349052Y-125817805D01*
X99345673Y-125938954D01*
X99345673Y-127040001D01*
X98972103Y-127040001D01*
G37*
G36*
X103216358Y-124507380D02*
G01*
X103401099Y-124548372D01*
X103564148Y-124619178D01*
X103705505Y-124719797D01*
X103721650Y-124734470D01*
X103833849Y-124864835D01*
X103913991Y-125017425D01*
X103962076Y-125192242D01*
X103977854Y-125363439D01*
X103978105Y-125389285D01*
X103978105Y-127040001D01*
X103686601Y-127040001D01*
X103619923Y-126697206D01*
X103508151Y-126829494D01*
X103363519Y-126929110D01*
X103323290Y-126951096D01*
X103164186Y-127017287D01*
X102990132Y-127056002D01*
X102818928Y-127067356D01*
X102643203Y-127054960D01*
X102467865Y-127011383D01*
X102300802Y-126926165D01*
X102228227Y-126869031D01*
X102112371Y-126726845D01*
X102044789Y-126568614D01*
X102011963Y-126381713D01*
X102008531Y-126289442D01*
X102382100Y-126289442D01*
X102409148Y-126464515D01*
X102505198Y-126613430D01*
X102653087Y-126699343D01*
X102823162Y-126727533D01*
X102850558Y-126727980D01*
X103023548Y-126706275D01*
X103186687Y-126641160D01*
X103339976Y-126532634D01*
X103369452Y-126505719D01*
X103483091Y-126364326D01*
X103559539Y-126191151D01*
X103596271Y-126010537D01*
X103604535Y-125858598D01*
X103604535Y-125792774D01*
X103092480Y-125792774D01*
X102908787Y-125803120D01*
X102736247Y-125838884D01*
X102573058Y-125915520D01*
X102561618Y-125923566D01*
X102438901Y-126057551D01*
X102384905Y-126232114D01*
X102382100Y-126289442D01*
X102008531Y-126289442D01*
X102026536Y-126096620D01*
X102080552Y-125928482D01*
X102184363Y-125768831D01*
X102296615Y-125666257D01*
X102456472Y-125573131D01*
X102621592Y-125513473D01*
X102810273Y-125474186D01*
X102990753Y-125456725D01*
X103120690Y-125453399D01*
X103604535Y-125453399D01*
X103604535Y-125377317D01*
X103582777Y-125194513D01*
X103510097Y-125038257D01*
X103449808Y-124972118D01*
X103293570Y-124878619D01*
X103125272Y-124840151D01*
X103029221Y-124835342D01*
X102841726Y-124857309D01*
X102665614Y-124936209D01*
X102530214Y-125072491D01*
X102445135Y-125238808D01*
X102426552Y-125294397D01*
X102096580Y-125206347D01*
X102151367Y-125028792D01*
X102235907Y-124875040D01*
X102350200Y-124745089D01*
X102426552Y-124683179D01*
X102579554Y-124592681D01*
X102747161Y-124531801D01*
X102929374Y-124500538D01*
X103036915Y-124495967D01*
X103216358Y-124507380D01*
G37*
G36*
X105291154Y-126690367D02*
G01*
X105188893Y-126543556D01*
X105107789Y-126385867D01*
X105047843Y-126217298D01*
X105009054Y-126037849D01*
X104991423Y-125847522D01*
X104990247Y-125781661D01*
X105000826Y-125587707D01*
X105032562Y-125404632D01*
X105085456Y-125232437D01*
X105159508Y-125071121D01*
X105254716Y-124920684D01*
X105291154Y-124872956D01*
X105411919Y-124744839D01*
X105572030Y-124628870D01*
X105752840Y-124548981D01*
X105924294Y-124509221D01*
X106110956Y-124495967D01*
X106295376Y-124507334D01*
X106464383Y-124541434D01*
X106653965Y-124616029D01*
X106819463Y-124726145D01*
X106960876Y-124871783D01*
X107056666Y-125013868D01*
X107137042Y-125178687D01*
X107154727Y-125223444D01*
X106829884Y-125349107D01*
X106742359Y-125174508D01*
X106633015Y-125036032D01*
X106477871Y-124920134D01*
X106293029Y-124853404D01*
X106110956Y-124835342D01*
X105938009Y-124852119D01*
X105770394Y-124911099D01*
X105631315Y-125012543D01*
X105554448Y-125103765D01*
X105462297Y-125263146D01*
X105405703Y-125425367D01*
X105372939Y-125606929D01*
X105363817Y-125781661D01*
X105372939Y-125954553D01*
X105405703Y-126135915D01*
X105462297Y-126299966D01*
X105554448Y-126463832D01*
X105676232Y-126591521D01*
X105825199Y-126677421D01*
X106001349Y-126721531D01*
X106110956Y-126727980D01*
X106291215Y-126710249D01*
X106473410Y-126644741D01*
X106625335Y-126530964D01*
X106731463Y-126395023D01*
X106815352Y-126223619D01*
X107140195Y-126349282D01*
X107063713Y-126517580D01*
X106972324Y-126663439D01*
X106837126Y-126814207D01*
X106678636Y-126929912D01*
X106496855Y-127010555D01*
X106291783Y-127056136D01*
X106110956Y-127067356D01*
X105924294Y-127054102D01*
X105752840Y-127014342D01*
X105572030Y-126934452D01*
X105411919Y-126818484D01*
X105291154Y-126690367D01*
G37*
G36*
X108081385Y-127040001D02*
G01*
X108081385Y-123538535D01*
X108454954Y-123538535D01*
X108454954Y-124966134D01*
X108558513Y-124817821D01*
X108698161Y-124700253D01*
X108771249Y-124651550D01*
X108929863Y-124569504D01*
X109095824Y-124517846D01*
X109269132Y-124496575D01*
X109304675Y-124495967D01*
X109480454Y-124509698D01*
X109653936Y-124557971D01*
X109816558Y-124652372D01*
X109885973Y-124715663D01*
X109987628Y-124853172D01*
X110056015Y-125018541D01*
X110088873Y-125188923D01*
X110096266Y-125331155D01*
X110096266Y-127040001D01*
X109722697Y-127040001D01*
X109722697Y-125371333D01*
X109705506Y-125194940D01*
X109641997Y-125031083D01*
X109600453Y-124974683D01*
X109461431Y-124874668D01*
X109287616Y-124836567D01*
X109244836Y-124835342D01*
X109068242Y-124860159D01*
X108906796Y-124934609D01*
X108760496Y-125058691D01*
X108685764Y-125149072D01*
X108595829Y-125295533D01*
X108527984Y-125460401D01*
X108482228Y-125643677D01*
X108460589Y-125815422D01*
X108454954Y-125968873D01*
X108454954Y-127040001D01*
X108081385Y-127040001D01*
G37*
G36*
X112317837Y-124509461D02*
G01*
X112492317Y-124549943D01*
X112653393Y-124617412D01*
X112801065Y-124711870D01*
X112935333Y-124833316D01*
X112977110Y-124879795D01*
X113088959Y-125028188D01*
X113177666Y-125186138D01*
X113243233Y-125353645D01*
X113285658Y-125530709D01*
X113304942Y-125717331D01*
X113306228Y-125781661D01*
X113294657Y-125971498D01*
X113259946Y-126151838D01*
X113202093Y-126322681D01*
X113121099Y-126484027D01*
X113016964Y-126635877D01*
X112977110Y-126684383D01*
X112847310Y-126814534D01*
X112704106Y-126917757D01*
X112547498Y-126994052D01*
X112377487Y-127043420D01*
X112194071Y-127065860D01*
X112129954Y-127067356D01*
X111942041Y-127053892D01*
X111767471Y-127013500D01*
X111606245Y-126946181D01*
X111458363Y-126851934D01*
X111323824Y-126730759D01*
X111281943Y-126684383D01*
X111170385Y-126535699D01*
X111081908Y-126377518D01*
X111016512Y-126209841D01*
X110974197Y-126032667D01*
X110954963Y-125845995D01*
X110953681Y-125781661D01*
X111327250Y-125781661D01*
X111340928Y-125969621D01*
X111381960Y-126143690D01*
X111450348Y-126303868D01*
X111546092Y-126450154D01*
X111680753Y-126584455D01*
X111838540Y-126674803D01*
X112019454Y-126721197D01*
X112129954Y-126727980D01*
X112303328Y-126710616D01*
X112476533Y-126649570D01*
X112626612Y-126544572D01*
X112713817Y-126450154D01*
X112809560Y-126303868D01*
X112877948Y-126143690D01*
X112918981Y-125969621D01*
X112932658Y-125781661D01*
X112918981Y-125593381D01*
X112877948Y-125419205D01*
X112809560Y-125259134D01*
X112713817Y-125113169D01*
X112579155Y-124978868D01*
X112421368Y-124888520D01*
X112240454Y-124842125D01*
X112129954Y-124835342D01*
X111956580Y-124852707D01*
X111783375Y-124913752D01*
X111633296Y-125018751D01*
X111546092Y-125113169D01*
X111450348Y-125259134D01*
X111381960Y-125419205D01*
X111340928Y-125593381D01*
X111327250Y-125781661D01*
X110953681Y-125781661D01*
X110965221Y-125591855D01*
X110999842Y-125411605D01*
X111057545Y-125240912D01*
X111138328Y-125079776D01*
X111242192Y-124928197D01*
X111281943Y-124879795D01*
X111412034Y-124749353D01*
X111555468Y-124645900D01*
X111712246Y-124569434D01*
X111882368Y-124519956D01*
X112065834Y-124497466D01*
X112129954Y-124495967D01*
X112317837Y-124509461D01*
G37*
G36*
X114167916Y-126314233D02*
G01*
X114503872Y-126193699D01*
X114572354Y-126375271D01*
X114667523Y-126519277D01*
X114812283Y-126639803D01*
X114993368Y-126709197D01*
X115177494Y-126727980D01*
X115356933Y-126712954D01*
X115530420Y-126657438D01*
X115592951Y-126621124D01*
X115710921Y-126494606D01*
X115750244Y-126330475D01*
X115714296Y-126155660D01*
X115622871Y-126053504D01*
X115462660Y-125983473D01*
X115288518Y-125937458D01*
X115113381Y-125903050D01*
X114927050Y-125862471D01*
X114729074Y-125791988D01*
X114569916Y-125699549D01*
X114430168Y-125559641D01*
X114346320Y-125388116D01*
X114318370Y-125184976D01*
X114336763Y-125014717D01*
X114400342Y-124851393D01*
X114509336Y-124715285D01*
X114550889Y-124679760D01*
X114709938Y-124582838D01*
X114875637Y-124526300D01*
X115062704Y-124498839D01*
X115152704Y-124495967D01*
X115330736Y-124509741D01*
X115497248Y-124551065D01*
X115667105Y-124628339D01*
X115681856Y-124637017D01*
X115830932Y-124750776D01*
X115943665Y-124884346D01*
X116034693Y-125046634D01*
X116042602Y-125064442D01*
X115753663Y-125251654D01*
X115645596Y-125089439D01*
X115524847Y-124967066D01*
X115371321Y-124875998D01*
X115201233Y-124836969D01*
X115156123Y-124835342D01*
X114975728Y-124855628D01*
X114817602Y-124927666D01*
X114709611Y-125067381D01*
X114691939Y-125175573D01*
X114730541Y-125342256D01*
X114828715Y-125444850D01*
X114992573Y-125518434D01*
X115163710Y-125568590D01*
X115333077Y-125607272D01*
X115503000Y-125645729D01*
X115670951Y-125699598D01*
X115826432Y-125772846D01*
X115934891Y-125849194D01*
X116050016Y-125992569D01*
X116108869Y-126160746D01*
X116123813Y-126324491D01*
X116103324Y-126501468D01*
X116032499Y-126674475D01*
X115925501Y-126808911D01*
X115864794Y-126862192D01*
X115706187Y-126961368D01*
X115542724Y-127022276D01*
X115358103Y-127057538D01*
X115179204Y-127067356D01*
X114989160Y-127055334D01*
X114816534Y-127019270D01*
X114643149Y-126949960D01*
X114523534Y-126875014D01*
X114391029Y-126752893D01*
X114283949Y-126602912D01*
X114210111Y-126446207D01*
X114167916Y-126314233D01*
G37*
D12*
X128675238Y-139546819D02*
X129246666Y-139546819D01*
X128960952Y-140546819D02*
X128960952Y-139546819D01*
X129580000Y-140546819D02*
X129580000Y-139546819D01*
X129580000Y-139546819D02*
X129960952Y-139546819D01*
X129960952Y-139546819D02*
X130056190Y-139594438D01*
X130056190Y-139594438D02*
X130103809Y-139642057D01*
X130103809Y-139642057D02*
X130151428Y-139737295D01*
X130151428Y-139737295D02*
X130151428Y-139880152D01*
X130151428Y-139880152D02*
X130103809Y-139975390D01*
X130103809Y-139975390D02*
X130056190Y-140023009D01*
X130056190Y-140023009D02*
X129960952Y-140070628D01*
X129960952Y-140070628D02*
X129580000Y-140070628D01*
X131103809Y-140546819D02*
X130532381Y-140546819D01*
X130818095Y-140546819D02*
X130818095Y-139546819D01*
X130818095Y-139546819D02*
X130722857Y-139689676D01*
X130722857Y-139689676D02*
X130627619Y-139784914D01*
X130627619Y-139784914D02*
X130532381Y-139832533D01*
X131484762Y-139642057D02*
X131532381Y-139594438D01*
X131532381Y-139594438D02*
X131627619Y-139546819D01*
X131627619Y-139546819D02*
X131865714Y-139546819D01*
X131865714Y-139546819D02*
X131960952Y-139594438D01*
X131960952Y-139594438D02*
X132008571Y-139642057D01*
X132008571Y-139642057D02*
X132056190Y-139737295D01*
X132056190Y-139737295D02*
X132056190Y-139832533D01*
X132056190Y-139832533D02*
X132008571Y-139975390D01*
X132008571Y-139975390D02*
X131437143Y-140546819D01*
X131437143Y-140546819D02*
X132056190Y-140546819D01*
X132341905Y-139546819D02*
X132675238Y-140546819D01*
X132675238Y-140546819D02*
X133008571Y-139546819D01*
X133341905Y-140546819D02*
X133341905Y-139546819D01*
X133818095Y-140546819D02*
X133818095Y-139546819D01*
X133818095Y-139546819D02*
X134389523Y-140546819D01*
X134389523Y-140546819D02*
X134389523Y-139546819D01*
X135389523Y-140546819D02*
X134818095Y-140546819D01*
X135103809Y-140546819D02*
X135103809Y-139546819D01*
X135103809Y-139546819D02*
X135008571Y-139689676D01*
X135008571Y-139689676D02*
X134913333Y-139784914D01*
X134913333Y-139784914D02*
X134818095Y-139832533D01*
D13*
X138230880Y-149681932D02*
X138230880Y-150105266D01*
X138896118Y-150105266D02*
X137626118Y-150105266D01*
X137626118Y-150105266D02*
X137626118Y-149500504D01*
X138896118Y-148351456D02*
X138896118Y-149077171D01*
X138896118Y-148714314D02*
X137626118Y-148714314D01*
X137626118Y-148714314D02*
X137807546Y-148835266D01*
X137807546Y-148835266D02*
X137928499Y-148956218D01*
X137928499Y-148956218D02*
X137988975Y-149077171D01*
D12*
X122888810Y-62319819D02*
X123460238Y-62319819D01*
X123174524Y-63319819D02*
X123174524Y-62319819D01*
X123793572Y-63319819D02*
X123793572Y-62319819D01*
X123793572Y-62319819D02*
X124174524Y-62319819D01*
X124174524Y-62319819D02*
X124269762Y-62367438D01*
X124269762Y-62367438D02*
X124317381Y-62415057D01*
X124317381Y-62415057D02*
X124365000Y-62510295D01*
X124365000Y-62510295D02*
X124365000Y-62653152D01*
X124365000Y-62653152D02*
X124317381Y-62748390D01*
X124317381Y-62748390D02*
X124269762Y-62796009D01*
X124269762Y-62796009D02*
X124174524Y-62843628D01*
X124174524Y-62843628D02*
X123793572Y-62843628D01*
X124793572Y-63319819D02*
X124793572Y-62319819D01*
X124793572Y-62319819D02*
X125365000Y-63319819D01*
X125365000Y-63319819D02*
X125365000Y-62319819D01*
X126031667Y-62319819D02*
X126222143Y-62319819D01*
X126222143Y-62319819D02*
X126317381Y-62367438D01*
X126317381Y-62367438D02*
X126412619Y-62462676D01*
X126412619Y-62462676D02*
X126460238Y-62653152D01*
X126460238Y-62653152D02*
X126460238Y-62986485D01*
X126460238Y-62986485D02*
X126412619Y-63176961D01*
X126412619Y-63176961D02*
X126317381Y-63272200D01*
X126317381Y-63272200D02*
X126222143Y-63319819D01*
X126222143Y-63319819D02*
X126031667Y-63319819D01*
X126031667Y-63319819D02*
X125936429Y-63272200D01*
X125936429Y-63272200D02*
X125841191Y-63176961D01*
X125841191Y-63176961D02*
X125793572Y-62986485D01*
X125793572Y-62986485D02*
X125793572Y-62653152D01*
X125793572Y-62653152D02*
X125841191Y-62462676D01*
X125841191Y-62462676D02*
X125936429Y-62367438D01*
X125936429Y-62367438D02*
X126031667Y-62319819D01*
X126888810Y-63319819D02*
X126888810Y-62319819D01*
X127317381Y-63272200D02*
X127460238Y-63319819D01*
X127460238Y-63319819D02*
X127698333Y-63319819D01*
X127698333Y-63319819D02*
X127793571Y-63272200D01*
X127793571Y-63272200D02*
X127841190Y-63224580D01*
X127841190Y-63224580D02*
X127888809Y-63129342D01*
X127888809Y-63129342D02*
X127888809Y-63034104D01*
X127888809Y-63034104D02*
X127841190Y-62938866D01*
X127841190Y-62938866D02*
X127793571Y-62891247D01*
X127793571Y-62891247D02*
X127698333Y-62843628D01*
X127698333Y-62843628D02*
X127507857Y-62796009D01*
X127507857Y-62796009D02*
X127412619Y-62748390D01*
X127412619Y-62748390D02*
X127365000Y-62700771D01*
X127365000Y-62700771D02*
X127317381Y-62605533D01*
X127317381Y-62605533D02*
X127317381Y-62510295D01*
X127317381Y-62510295D02*
X127365000Y-62415057D01*
X127365000Y-62415057D02*
X127412619Y-62367438D01*
X127412619Y-62367438D02*
X127507857Y-62319819D01*
X127507857Y-62319819D02*
X127745952Y-62319819D01*
X127745952Y-62319819D02*
X127888809Y-62367438D01*
X128317381Y-62796009D02*
X128650714Y-62796009D01*
X128793571Y-63319819D02*
X128317381Y-63319819D01*
X128317381Y-63319819D02*
X128317381Y-62319819D01*
X128317381Y-62319819D02*
X128793571Y-62319819D01*
X129745952Y-63319819D02*
X129174524Y-63319819D01*
X129460238Y-63319819D02*
X129460238Y-62319819D01*
X129460238Y-62319819D02*
X129365000Y-62462676D01*
X129365000Y-62462676D02*
X129269762Y-62557914D01*
X129269762Y-62557914D02*
X129174524Y-62605533D01*
X107823333Y-100689580D02*
X107775714Y-100737200D01*
X107775714Y-100737200D02*
X107632857Y-100784819D01*
X107632857Y-100784819D02*
X107537619Y-100784819D01*
X107537619Y-100784819D02*
X107394762Y-100737200D01*
X107394762Y-100737200D02*
X107299524Y-100641961D01*
X107299524Y-100641961D02*
X107251905Y-100546723D01*
X107251905Y-100546723D02*
X107204286Y-100356247D01*
X107204286Y-100356247D02*
X107204286Y-100213390D01*
X107204286Y-100213390D02*
X107251905Y-100022914D01*
X107251905Y-100022914D02*
X107299524Y-99927676D01*
X107299524Y-99927676D02*
X107394762Y-99832438D01*
X107394762Y-99832438D02*
X107537619Y-99784819D01*
X107537619Y-99784819D02*
X107632857Y-99784819D01*
X107632857Y-99784819D02*
X107775714Y-99832438D01*
X107775714Y-99832438D02*
X107823333Y-99880057D01*
X108728095Y-99784819D02*
X108251905Y-99784819D01*
X108251905Y-99784819D02*
X108204286Y-100261009D01*
X108204286Y-100261009D02*
X108251905Y-100213390D01*
X108251905Y-100213390D02*
X108347143Y-100165771D01*
X108347143Y-100165771D02*
X108585238Y-100165771D01*
X108585238Y-100165771D02*
X108680476Y-100213390D01*
X108680476Y-100213390D02*
X108728095Y-100261009D01*
X108728095Y-100261009D02*
X108775714Y-100356247D01*
X108775714Y-100356247D02*
X108775714Y-100594342D01*
X108775714Y-100594342D02*
X108728095Y-100689580D01*
X108728095Y-100689580D02*
X108680476Y-100737200D01*
X108680476Y-100737200D02*
X108585238Y-100784819D01*
X108585238Y-100784819D02*
X108347143Y-100784819D01*
X108347143Y-100784819D02*
X108251905Y-100737200D01*
X108251905Y-100737200D02*
X108204286Y-100689580D01*
X114845180Y-117243267D02*
X114130895Y-117243267D01*
X114130895Y-117243267D02*
X113988038Y-117195648D01*
X113988038Y-117195648D02*
X113892800Y-117100410D01*
X113892800Y-117100410D02*
X113845180Y-116957553D01*
X113845180Y-116957553D02*
X113845180Y-116862315D01*
X114845180Y-117624220D02*
X114845180Y-118243267D01*
X114845180Y-118243267D02*
X114464228Y-117909934D01*
X114464228Y-117909934D02*
X114464228Y-118052791D01*
X114464228Y-118052791D02*
X114416609Y-118148029D01*
X114416609Y-118148029D02*
X114368990Y-118195648D01*
X114368990Y-118195648D02*
X114273752Y-118243267D01*
X114273752Y-118243267D02*
X114035657Y-118243267D01*
X114035657Y-118243267D02*
X113940419Y-118195648D01*
X113940419Y-118195648D02*
X113892800Y-118148029D01*
X113892800Y-118148029D02*
X113845180Y-118052791D01*
X113845180Y-118052791D02*
X113845180Y-117767077D01*
X113845180Y-117767077D02*
X113892800Y-117671839D01*
X113892800Y-117671839D02*
X113940419Y-117624220D01*
X123721905Y-132684819D02*
X123721905Y-131684819D01*
X123721905Y-131684819D02*
X123960000Y-131684819D01*
X123960000Y-131684819D02*
X124102857Y-131732438D01*
X124102857Y-131732438D02*
X124198095Y-131827676D01*
X124198095Y-131827676D02*
X124245714Y-131922914D01*
X124245714Y-131922914D02*
X124293333Y-132113390D01*
X124293333Y-132113390D02*
X124293333Y-132256247D01*
X124293333Y-132256247D02*
X124245714Y-132446723D01*
X124245714Y-132446723D02*
X124198095Y-132541961D01*
X124198095Y-132541961D02*
X124102857Y-132637200D01*
X124102857Y-132637200D02*
X123960000Y-132684819D01*
X123960000Y-132684819D02*
X123721905Y-132684819D01*
X125245714Y-132684819D02*
X124674286Y-132684819D01*
X124960000Y-132684819D02*
X124960000Y-131684819D01*
X124960000Y-131684819D02*
X124864762Y-131827676D01*
X124864762Y-131827676D02*
X124769524Y-131922914D01*
X124769524Y-131922914D02*
X124674286Y-131970533D01*
X145946905Y-67764819D02*
X145946905Y-66764819D01*
X145946905Y-66764819D02*
X146185000Y-66764819D01*
X146185000Y-66764819D02*
X146327857Y-66812438D01*
X146327857Y-66812438D02*
X146423095Y-66907676D01*
X146423095Y-66907676D02*
X146470714Y-67002914D01*
X146470714Y-67002914D02*
X146518333Y-67193390D01*
X146518333Y-67193390D02*
X146518333Y-67336247D01*
X146518333Y-67336247D02*
X146470714Y-67526723D01*
X146470714Y-67526723D02*
X146423095Y-67621961D01*
X146423095Y-67621961D02*
X146327857Y-67717200D01*
X146327857Y-67717200D02*
X146185000Y-67764819D01*
X146185000Y-67764819D02*
X145946905Y-67764819D01*
X147423095Y-66764819D02*
X146946905Y-66764819D01*
X146946905Y-66764819D02*
X146899286Y-67241009D01*
X146899286Y-67241009D02*
X146946905Y-67193390D01*
X146946905Y-67193390D02*
X147042143Y-67145771D01*
X147042143Y-67145771D02*
X147280238Y-67145771D01*
X147280238Y-67145771D02*
X147375476Y-67193390D01*
X147375476Y-67193390D02*
X147423095Y-67241009D01*
X147423095Y-67241009D02*
X147470714Y-67336247D01*
X147470714Y-67336247D02*
X147470714Y-67574342D01*
X147470714Y-67574342D02*
X147423095Y-67669580D01*
X147423095Y-67669580D02*
X147375476Y-67717200D01*
X147375476Y-67717200D02*
X147280238Y-67764819D01*
X147280238Y-67764819D02*
X147042143Y-67764819D01*
X147042143Y-67764819D02*
X146946905Y-67717200D01*
X146946905Y-67717200D02*
X146899286Y-67669580D01*
X141213221Y-138214580D02*
X141165602Y-138262200D01*
X141165602Y-138262200D02*
X141022745Y-138309819D01*
X141022745Y-138309819D02*
X140927507Y-138309819D01*
X140927507Y-138309819D02*
X140784650Y-138262200D01*
X140784650Y-138262200D02*
X140689412Y-138166961D01*
X140689412Y-138166961D02*
X140641793Y-138071723D01*
X140641793Y-138071723D02*
X140594174Y-137881247D01*
X140594174Y-137881247D02*
X140594174Y-137738390D01*
X140594174Y-137738390D02*
X140641793Y-137547914D01*
X140641793Y-137547914D02*
X140689412Y-137452676D01*
X140689412Y-137452676D02*
X140784650Y-137357438D01*
X140784650Y-137357438D02*
X140927507Y-137309819D01*
X140927507Y-137309819D02*
X141022745Y-137309819D01*
X141022745Y-137309819D02*
X141165602Y-137357438D01*
X141165602Y-137357438D02*
X141213221Y-137405057D01*
X141784650Y-137738390D02*
X141689412Y-137690771D01*
X141689412Y-137690771D02*
X141641793Y-137643152D01*
X141641793Y-137643152D02*
X141594174Y-137547914D01*
X141594174Y-137547914D02*
X141594174Y-137500295D01*
X141594174Y-137500295D02*
X141641793Y-137405057D01*
X141641793Y-137405057D02*
X141689412Y-137357438D01*
X141689412Y-137357438D02*
X141784650Y-137309819D01*
X141784650Y-137309819D02*
X141975126Y-137309819D01*
X141975126Y-137309819D02*
X142070364Y-137357438D01*
X142070364Y-137357438D02*
X142117983Y-137405057D01*
X142117983Y-137405057D02*
X142165602Y-137500295D01*
X142165602Y-137500295D02*
X142165602Y-137547914D01*
X142165602Y-137547914D02*
X142117983Y-137643152D01*
X142117983Y-137643152D02*
X142070364Y-137690771D01*
X142070364Y-137690771D02*
X141975126Y-137738390D01*
X141975126Y-137738390D02*
X141784650Y-137738390D01*
X141784650Y-137738390D02*
X141689412Y-137786009D01*
X141689412Y-137786009D02*
X141641793Y-137833628D01*
X141641793Y-137833628D02*
X141594174Y-137928866D01*
X141594174Y-137928866D02*
X141594174Y-138119342D01*
X141594174Y-138119342D02*
X141641793Y-138214580D01*
X141641793Y-138214580D02*
X141689412Y-138262200D01*
X141689412Y-138262200D02*
X141784650Y-138309819D01*
X141784650Y-138309819D02*
X141975126Y-138309819D01*
X141975126Y-138309819D02*
X142070364Y-138262200D01*
X142070364Y-138262200D02*
X142117983Y-138214580D01*
X142117983Y-138214580D02*
X142165602Y-138119342D01*
X142165602Y-138119342D02*
X142165602Y-137928866D01*
X142165602Y-137928866D02*
X142117983Y-137833628D01*
X142117983Y-137833628D02*
X142070364Y-137786009D01*
X142070364Y-137786009D02*
X141975126Y-137738390D01*
X136979819Y-83351666D02*
X136503628Y-83684999D01*
X136979819Y-83923094D02*
X135979819Y-83923094D01*
X135979819Y-83923094D02*
X135979819Y-83542142D01*
X135979819Y-83542142D02*
X136027438Y-83446904D01*
X136027438Y-83446904D02*
X136075057Y-83399285D01*
X136075057Y-83399285D02*
X136170295Y-83351666D01*
X136170295Y-83351666D02*
X136313152Y-83351666D01*
X136313152Y-83351666D02*
X136408390Y-83399285D01*
X136408390Y-83399285D02*
X136456009Y-83446904D01*
X136456009Y-83446904D02*
X136503628Y-83542142D01*
X136503628Y-83542142D02*
X136503628Y-83923094D01*
X136313152Y-82494523D02*
X136979819Y-82494523D01*
X135932200Y-82732618D02*
X136646485Y-82970713D01*
X136646485Y-82970713D02*
X136646485Y-82351666D01*
X149314819Y-132278333D02*
X150029104Y-132278333D01*
X150029104Y-132278333D02*
X150171961Y-132325952D01*
X150171961Y-132325952D02*
X150267200Y-132421190D01*
X150267200Y-132421190D02*
X150314819Y-132564047D01*
X150314819Y-132564047D02*
X150314819Y-132659285D01*
X150314819Y-131802142D02*
X149314819Y-131802142D01*
X149314819Y-131802142D02*
X149314819Y-131421190D01*
X149314819Y-131421190D02*
X149362438Y-131325952D01*
X149362438Y-131325952D02*
X149410057Y-131278333D01*
X149410057Y-131278333D02*
X149505295Y-131230714D01*
X149505295Y-131230714D02*
X149648152Y-131230714D01*
X149648152Y-131230714D02*
X149743390Y-131278333D01*
X149743390Y-131278333D02*
X149791009Y-131325952D01*
X149791009Y-131325952D02*
X149838628Y-131421190D01*
X149838628Y-131421190D02*
X149838628Y-131802142D01*
X150314819Y-130278333D02*
X150314819Y-130849761D01*
X150314819Y-130564047D02*
X149314819Y-130564047D01*
X149314819Y-130564047D02*
X149457676Y-130659285D01*
X149457676Y-130659285D02*
X149552914Y-130754523D01*
X149552914Y-130754523D02*
X149600533Y-130849761D01*
X108386666Y-116294819D02*
X108386666Y-117009104D01*
X108386666Y-117009104D02*
X108339047Y-117151961D01*
X108339047Y-117151961D02*
X108243809Y-117247200D01*
X108243809Y-117247200D02*
X108100952Y-117294819D01*
X108100952Y-117294819D02*
X108005714Y-117294819D01*
X108862857Y-117294819D02*
X108862857Y-116294819D01*
X108862857Y-116294819D02*
X109243809Y-116294819D01*
X109243809Y-116294819D02*
X109339047Y-116342438D01*
X109339047Y-116342438D02*
X109386666Y-116390057D01*
X109386666Y-116390057D02*
X109434285Y-116485295D01*
X109434285Y-116485295D02*
X109434285Y-116628152D01*
X109434285Y-116628152D02*
X109386666Y-116723390D01*
X109386666Y-116723390D02*
X109339047Y-116771009D01*
X109339047Y-116771009D02*
X109243809Y-116818628D01*
X109243809Y-116818628D02*
X108862857Y-116818628D01*
X109767619Y-116294819D02*
X110386666Y-116294819D01*
X110386666Y-116294819D02*
X110053333Y-116675771D01*
X110053333Y-116675771D02*
X110196190Y-116675771D01*
X110196190Y-116675771D02*
X110291428Y-116723390D01*
X110291428Y-116723390D02*
X110339047Y-116771009D01*
X110339047Y-116771009D02*
X110386666Y-116866247D01*
X110386666Y-116866247D02*
X110386666Y-117104342D01*
X110386666Y-117104342D02*
X110339047Y-117199580D01*
X110339047Y-117199580D02*
X110291428Y-117247200D01*
X110291428Y-117247200D02*
X110196190Y-117294819D01*
X110196190Y-117294819D02*
X109910476Y-117294819D01*
X109910476Y-117294819D02*
X109815238Y-117247200D01*
X109815238Y-117247200D02*
X109767619Y-117199580D01*
X110958333Y-70939819D02*
X110625000Y-70463628D01*
X110386905Y-70939819D02*
X110386905Y-69939819D01*
X110386905Y-69939819D02*
X110767857Y-69939819D01*
X110767857Y-69939819D02*
X110863095Y-69987438D01*
X110863095Y-69987438D02*
X110910714Y-70035057D01*
X110910714Y-70035057D02*
X110958333Y-70130295D01*
X110958333Y-70130295D02*
X110958333Y-70273152D01*
X110958333Y-70273152D02*
X110910714Y-70368390D01*
X110910714Y-70368390D02*
X110863095Y-70416009D01*
X110863095Y-70416009D02*
X110767857Y-70463628D01*
X110767857Y-70463628D02*
X110386905Y-70463628D01*
X111815476Y-69939819D02*
X111625000Y-69939819D01*
X111625000Y-69939819D02*
X111529762Y-69987438D01*
X111529762Y-69987438D02*
X111482143Y-70035057D01*
X111482143Y-70035057D02*
X111386905Y-70177914D01*
X111386905Y-70177914D02*
X111339286Y-70368390D01*
X111339286Y-70368390D02*
X111339286Y-70749342D01*
X111339286Y-70749342D02*
X111386905Y-70844580D01*
X111386905Y-70844580D02*
X111434524Y-70892200D01*
X111434524Y-70892200D02*
X111529762Y-70939819D01*
X111529762Y-70939819D02*
X111720238Y-70939819D01*
X111720238Y-70939819D02*
X111815476Y-70892200D01*
X111815476Y-70892200D02*
X111863095Y-70844580D01*
X111863095Y-70844580D02*
X111910714Y-70749342D01*
X111910714Y-70749342D02*
X111910714Y-70511247D01*
X111910714Y-70511247D02*
X111863095Y-70416009D01*
X111863095Y-70416009D02*
X111815476Y-70368390D01*
X111815476Y-70368390D02*
X111720238Y-70320771D01*
X111720238Y-70320771D02*
X111529762Y-70320771D01*
X111529762Y-70320771D02*
X111434524Y-70368390D01*
X111434524Y-70368390D02*
X111386905Y-70416009D01*
X111386905Y-70416009D02*
X111339286Y-70511247D01*
X115113095Y-86459819D02*
X115113095Y-87269342D01*
X115113095Y-87269342D02*
X115160714Y-87364580D01*
X115160714Y-87364580D02*
X115208333Y-87412200D01*
X115208333Y-87412200D02*
X115303571Y-87459819D01*
X115303571Y-87459819D02*
X115494047Y-87459819D01*
X115494047Y-87459819D02*
X115589285Y-87412200D01*
X115589285Y-87412200D02*
X115636904Y-87364580D01*
X115636904Y-87364580D02*
X115684523Y-87269342D01*
X115684523Y-87269342D02*
X115684523Y-86459819D01*
X116589285Y-86793152D02*
X116589285Y-87459819D01*
X116351190Y-86412200D02*
X116113095Y-87126485D01*
X116113095Y-87126485D02*
X116732142Y-87126485D01*
X121739819Y-107481666D02*
X121263628Y-107814999D01*
X121739819Y-108053094D02*
X120739819Y-108053094D01*
X120739819Y-108053094D02*
X120739819Y-107672142D01*
X120739819Y-107672142D02*
X120787438Y-107576904D01*
X120787438Y-107576904D02*
X120835057Y-107529285D01*
X120835057Y-107529285D02*
X120930295Y-107481666D01*
X120930295Y-107481666D02*
X121073152Y-107481666D01*
X121073152Y-107481666D02*
X121168390Y-107529285D01*
X121168390Y-107529285D02*
X121216009Y-107576904D01*
X121216009Y-107576904D02*
X121263628Y-107672142D01*
X121263628Y-107672142D02*
X121263628Y-108053094D01*
X120739819Y-107148332D02*
X120739819Y-106529285D01*
X120739819Y-106529285D02*
X121120771Y-106862618D01*
X121120771Y-106862618D02*
X121120771Y-106719761D01*
X121120771Y-106719761D02*
X121168390Y-106624523D01*
X121168390Y-106624523D02*
X121216009Y-106576904D01*
X121216009Y-106576904D02*
X121311247Y-106529285D01*
X121311247Y-106529285D02*
X121549342Y-106529285D01*
X121549342Y-106529285D02*
X121644580Y-106576904D01*
X121644580Y-106576904D02*
X121692200Y-106624523D01*
X121692200Y-106624523D02*
X121739819Y-106719761D01*
X121739819Y-106719761D02*
X121739819Y-107005475D01*
X121739819Y-107005475D02*
X121692200Y-107100713D01*
X121692200Y-107100713D02*
X121644580Y-107148332D01*
X135882142Y-97514580D02*
X135834523Y-97562200D01*
X135834523Y-97562200D02*
X135691666Y-97609819D01*
X135691666Y-97609819D02*
X135596428Y-97609819D01*
X135596428Y-97609819D02*
X135453571Y-97562200D01*
X135453571Y-97562200D02*
X135358333Y-97466961D01*
X135358333Y-97466961D02*
X135310714Y-97371723D01*
X135310714Y-97371723D02*
X135263095Y-97181247D01*
X135263095Y-97181247D02*
X135263095Y-97038390D01*
X135263095Y-97038390D02*
X135310714Y-96847914D01*
X135310714Y-96847914D02*
X135358333Y-96752676D01*
X135358333Y-96752676D02*
X135453571Y-96657438D01*
X135453571Y-96657438D02*
X135596428Y-96609819D01*
X135596428Y-96609819D02*
X135691666Y-96609819D01*
X135691666Y-96609819D02*
X135834523Y-96657438D01*
X135834523Y-96657438D02*
X135882142Y-96705057D01*
X136834523Y-97609819D02*
X136263095Y-97609819D01*
X136548809Y-97609819D02*
X136548809Y-96609819D01*
X136548809Y-96609819D02*
X136453571Y-96752676D01*
X136453571Y-96752676D02*
X136358333Y-96847914D01*
X136358333Y-96847914D02*
X136263095Y-96895533D01*
X137215476Y-96705057D02*
X137263095Y-96657438D01*
X137263095Y-96657438D02*
X137358333Y-96609819D01*
X137358333Y-96609819D02*
X137596428Y-96609819D01*
X137596428Y-96609819D02*
X137691666Y-96657438D01*
X137691666Y-96657438D02*
X137739285Y-96705057D01*
X137739285Y-96705057D02*
X137786904Y-96800295D01*
X137786904Y-96800295D02*
X137786904Y-96895533D01*
X137786904Y-96895533D02*
X137739285Y-97038390D01*
X137739285Y-97038390D02*
X137167857Y-97609819D01*
X137167857Y-97609819D02*
X137786904Y-97609819D01*
X135247142Y-72074580D02*
X135199523Y-72122200D01*
X135199523Y-72122200D02*
X135056666Y-72169819D01*
X135056666Y-72169819D02*
X134961428Y-72169819D01*
X134961428Y-72169819D02*
X134818571Y-72122200D01*
X134818571Y-72122200D02*
X134723333Y-72026961D01*
X134723333Y-72026961D02*
X134675714Y-71931723D01*
X134675714Y-71931723D02*
X134628095Y-71741247D01*
X134628095Y-71741247D02*
X134628095Y-71598390D01*
X134628095Y-71598390D02*
X134675714Y-71407914D01*
X134675714Y-71407914D02*
X134723333Y-71312676D01*
X134723333Y-71312676D02*
X134818571Y-71217438D01*
X134818571Y-71217438D02*
X134961428Y-71169819D01*
X134961428Y-71169819D02*
X135056666Y-71169819D01*
X135056666Y-71169819D02*
X135199523Y-71217438D01*
X135199523Y-71217438D02*
X135247142Y-71265057D01*
X136199523Y-72169819D02*
X135628095Y-72169819D01*
X135913809Y-72169819D02*
X135913809Y-71169819D01*
X135913809Y-71169819D02*
X135818571Y-71312676D01*
X135818571Y-71312676D02*
X135723333Y-71407914D01*
X135723333Y-71407914D02*
X135628095Y-71455533D01*
X137056666Y-71503152D02*
X137056666Y-72169819D01*
X136818571Y-71122200D02*
X136580476Y-71836485D01*
X136580476Y-71836485D02*
X137199523Y-71836485D01*
X136628333Y-106464580D02*
X136580714Y-106512200D01*
X136580714Y-106512200D02*
X136437857Y-106559819D01*
X136437857Y-106559819D02*
X136342619Y-106559819D01*
X136342619Y-106559819D02*
X136199762Y-106512200D01*
X136199762Y-106512200D02*
X136104524Y-106416961D01*
X136104524Y-106416961D02*
X136056905Y-106321723D01*
X136056905Y-106321723D02*
X136009286Y-106131247D01*
X136009286Y-106131247D02*
X136009286Y-105988390D01*
X136009286Y-105988390D02*
X136056905Y-105797914D01*
X136056905Y-105797914D02*
X136104524Y-105702676D01*
X136104524Y-105702676D02*
X136199762Y-105607438D01*
X136199762Y-105607438D02*
X136342619Y-105559819D01*
X136342619Y-105559819D02*
X136437857Y-105559819D01*
X136437857Y-105559819D02*
X136580714Y-105607438D01*
X136580714Y-105607438D02*
X136628333Y-105655057D01*
X137485476Y-105893152D02*
X137485476Y-106559819D01*
X137247381Y-105512200D02*
X137009286Y-106226485D01*
X137009286Y-106226485D02*
X137628333Y-106226485D01*
X124991905Y-116659819D02*
X124991905Y-115659819D01*
X124991905Y-115659819D02*
X125230000Y-115659819D01*
X125230000Y-115659819D02*
X125372857Y-115707438D01*
X125372857Y-115707438D02*
X125468095Y-115802676D01*
X125468095Y-115802676D02*
X125515714Y-115897914D01*
X125515714Y-115897914D02*
X125563333Y-116088390D01*
X125563333Y-116088390D02*
X125563333Y-116231247D01*
X125563333Y-116231247D02*
X125515714Y-116421723D01*
X125515714Y-116421723D02*
X125468095Y-116516961D01*
X125468095Y-116516961D02*
X125372857Y-116612200D01*
X125372857Y-116612200D02*
X125230000Y-116659819D01*
X125230000Y-116659819D02*
X124991905Y-116659819D01*
X125944286Y-115755057D02*
X125991905Y-115707438D01*
X125991905Y-115707438D02*
X126087143Y-115659819D01*
X126087143Y-115659819D02*
X126325238Y-115659819D01*
X126325238Y-115659819D02*
X126420476Y-115707438D01*
X126420476Y-115707438D02*
X126468095Y-115755057D01*
X126468095Y-115755057D02*
X126515714Y-115850295D01*
X126515714Y-115850295D02*
X126515714Y-115945533D01*
X126515714Y-115945533D02*
X126468095Y-116088390D01*
X126468095Y-116088390D02*
X125896667Y-116659819D01*
X125896667Y-116659819D02*
X126515714Y-116659819D01*
X129278095Y-118459819D02*
X129278095Y-117459819D01*
X129849523Y-118459819D02*
X129420952Y-117888390D01*
X129849523Y-117459819D02*
X129278095Y-118031247D01*
X126833333Y-70304819D02*
X126500000Y-69828628D01*
X126261905Y-70304819D02*
X126261905Y-69304819D01*
X126261905Y-69304819D02*
X126642857Y-69304819D01*
X126642857Y-69304819D02*
X126738095Y-69352438D01*
X126738095Y-69352438D02*
X126785714Y-69400057D01*
X126785714Y-69400057D02*
X126833333Y-69495295D01*
X126833333Y-69495295D02*
X126833333Y-69638152D01*
X126833333Y-69638152D02*
X126785714Y-69733390D01*
X126785714Y-69733390D02*
X126738095Y-69781009D01*
X126738095Y-69781009D02*
X126642857Y-69828628D01*
X126642857Y-69828628D02*
X126261905Y-69828628D01*
X127738095Y-69304819D02*
X127261905Y-69304819D01*
X127261905Y-69304819D02*
X127214286Y-69781009D01*
X127214286Y-69781009D02*
X127261905Y-69733390D01*
X127261905Y-69733390D02*
X127357143Y-69685771D01*
X127357143Y-69685771D02*
X127595238Y-69685771D01*
X127595238Y-69685771D02*
X127690476Y-69733390D01*
X127690476Y-69733390D02*
X127738095Y-69781009D01*
X127738095Y-69781009D02*
X127785714Y-69876247D01*
X127785714Y-69876247D02*
X127785714Y-70114342D01*
X127785714Y-70114342D02*
X127738095Y-70209580D01*
X127738095Y-70209580D02*
X127690476Y-70257200D01*
X127690476Y-70257200D02*
X127595238Y-70304819D01*
X127595238Y-70304819D02*
X127357143Y-70304819D01*
X127357143Y-70304819D02*
X127261905Y-70257200D01*
X127261905Y-70257200D02*
X127214286Y-70209580D01*
X141637142Y-94339580D02*
X141589523Y-94387200D01*
X141589523Y-94387200D02*
X141446666Y-94434819D01*
X141446666Y-94434819D02*
X141351428Y-94434819D01*
X141351428Y-94434819D02*
X141208571Y-94387200D01*
X141208571Y-94387200D02*
X141113333Y-94291961D01*
X141113333Y-94291961D02*
X141065714Y-94196723D01*
X141065714Y-94196723D02*
X141018095Y-94006247D01*
X141018095Y-94006247D02*
X141018095Y-93863390D01*
X141018095Y-93863390D02*
X141065714Y-93672914D01*
X141065714Y-93672914D02*
X141113333Y-93577676D01*
X141113333Y-93577676D02*
X141208571Y-93482438D01*
X141208571Y-93482438D02*
X141351428Y-93434819D01*
X141351428Y-93434819D02*
X141446666Y-93434819D01*
X141446666Y-93434819D02*
X141589523Y-93482438D01*
X141589523Y-93482438D02*
X141637142Y-93530057D01*
X142589523Y-94434819D02*
X142018095Y-94434819D01*
X142303809Y-94434819D02*
X142303809Y-93434819D01*
X142303809Y-93434819D02*
X142208571Y-93577676D01*
X142208571Y-93577676D02*
X142113333Y-93672914D01*
X142113333Y-93672914D02*
X142018095Y-93720533D01*
X142922857Y-93434819D02*
X143541904Y-93434819D01*
X143541904Y-93434819D02*
X143208571Y-93815771D01*
X143208571Y-93815771D02*
X143351428Y-93815771D01*
X143351428Y-93815771D02*
X143446666Y-93863390D01*
X143446666Y-93863390D02*
X143494285Y-93911009D01*
X143494285Y-93911009D02*
X143541904Y-94006247D01*
X143541904Y-94006247D02*
X143541904Y-94244342D01*
X143541904Y-94244342D02*
X143494285Y-94339580D01*
X143494285Y-94339580D02*
X143446666Y-94387200D01*
X143446666Y-94387200D02*
X143351428Y-94434819D01*
X143351428Y-94434819D02*
X143065714Y-94434819D01*
X143065714Y-94434819D02*
X142970476Y-94387200D01*
X142970476Y-94387200D02*
X142922857Y-94339580D01*
X139573095Y-122049819D02*
X139573095Y-122859342D01*
X139573095Y-122859342D02*
X139620714Y-122954580D01*
X139620714Y-122954580D02*
X139668333Y-123002200D01*
X139668333Y-123002200D02*
X139763571Y-123049819D01*
X139763571Y-123049819D02*
X139954047Y-123049819D01*
X139954047Y-123049819D02*
X140049285Y-123002200D01*
X140049285Y-123002200D02*
X140096904Y-122954580D01*
X140096904Y-122954580D02*
X140144523Y-122859342D01*
X140144523Y-122859342D02*
X140144523Y-122049819D01*
X140525476Y-122049819D02*
X141144523Y-122049819D01*
X141144523Y-122049819D02*
X140811190Y-122430771D01*
X140811190Y-122430771D02*
X140954047Y-122430771D01*
X140954047Y-122430771D02*
X141049285Y-122478390D01*
X141049285Y-122478390D02*
X141096904Y-122526009D01*
X141096904Y-122526009D02*
X141144523Y-122621247D01*
X141144523Y-122621247D02*
X141144523Y-122859342D01*
X141144523Y-122859342D02*
X141096904Y-122954580D01*
X141096904Y-122954580D02*
X141049285Y-123002200D01*
X141049285Y-123002200D02*
X140954047Y-123049819D01*
X140954047Y-123049819D02*
X140668333Y-123049819D01*
X140668333Y-123049819D02*
X140573095Y-123002200D01*
X140573095Y-123002200D02*
X140525476Y-122954580D01*
X130249819Y-110688333D02*
X130964104Y-110688333D01*
X130964104Y-110688333D02*
X131106961Y-110735952D01*
X131106961Y-110735952D02*
X131202200Y-110831190D01*
X131202200Y-110831190D02*
X131249819Y-110974047D01*
X131249819Y-110974047D02*
X131249819Y-111069285D01*
X131249819Y-110212142D02*
X130249819Y-110212142D01*
X130249819Y-110212142D02*
X130249819Y-109831190D01*
X130249819Y-109831190D02*
X130297438Y-109735952D01*
X130297438Y-109735952D02*
X130345057Y-109688333D01*
X130345057Y-109688333D02*
X130440295Y-109640714D01*
X130440295Y-109640714D02*
X130583152Y-109640714D01*
X130583152Y-109640714D02*
X130678390Y-109688333D01*
X130678390Y-109688333D02*
X130726009Y-109735952D01*
X130726009Y-109735952D02*
X130773628Y-109831190D01*
X130773628Y-109831190D02*
X130773628Y-110212142D01*
X130345057Y-109259761D02*
X130297438Y-109212142D01*
X130297438Y-109212142D02*
X130249819Y-109116904D01*
X130249819Y-109116904D02*
X130249819Y-108878809D01*
X130249819Y-108878809D02*
X130297438Y-108783571D01*
X130297438Y-108783571D02*
X130345057Y-108735952D01*
X130345057Y-108735952D02*
X130440295Y-108688333D01*
X130440295Y-108688333D02*
X130535533Y-108688333D01*
X130535533Y-108688333D02*
X130678390Y-108735952D01*
X130678390Y-108735952D02*
X131249819Y-109307380D01*
X131249819Y-109307380D02*
X131249819Y-108688333D01*
X144780476Y-137249819D02*
X145351904Y-137249819D01*
X145066190Y-138249819D02*
X145066190Y-137249819D01*
X145685238Y-138249819D02*
X145685238Y-137249819D01*
X145685238Y-137249819D02*
X146066190Y-137249819D01*
X146066190Y-137249819D02*
X146161428Y-137297438D01*
X146161428Y-137297438D02*
X146209047Y-137345057D01*
X146209047Y-137345057D02*
X146256666Y-137440295D01*
X146256666Y-137440295D02*
X146256666Y-137583152D01*
X146256666Y-137583152D02*
X146209047Y-137678390D01*
X146209047Y-137678390D02*
X146161428Y-137726009D01*
X146161428Y-137726009D02*
X146066190Y-137773628D01*
X146066190Y-137773628D02*
X145685238Y-137773628D01*
X146685238Y-137868866D02*
X147447143Y-137868866D01*
X147066190Y-138249819D02*
X147066190Y-137487914D01*
X148399523Y-137249819D02*
X147923333Y-137249819D01*
X147923333Y-137249819D02*
X147875714Y-137726009D01*
X147875714Y-137726009D02*
X147923333Y-137678390D01*
X147923333Y-137678390D02*
X148018571Y-137630771D01*
X148018571Y-137630771D02*
X148256666Y-137630771D01*
X148256666Y-137630771D02*
X148351904Y-137678390D01*
X148351904Y-137678390D02*
X148399523Y-137726009D01*
X148399523Y-137726009D02*
X148447142Y-137821247D01*
X148447142Y-137821247D02*
X148447142Y-138059342D01*
X148447142Y-138059342D02*
X148399523Y-138154580D01*
X148399523Y-138154580D02*
X148351904Y-138202200D01*
X148351904Y-138202200D02*
X148256666Y-138249819D01*
X148256666Y-138249819D02*
X148018571Y-138249819D01*
X148018571Y-138249819D02*
X147923333Y-138202200D01*
X147923333Y-138202200D02*
X147875714Y-138154580D01*
X149447142Y-138249819D02*
X149113809Y-137773628D01*
X148875714Y-138249819D02*
X148875714Y-137249819D01*
X148875714Y-137249819D02*
X149256666Y-137249819D01*
X149256666Y-137249819D02*
X149351904Y-137297438D01*
X149351904Y-137297438D02*
X149399523Y-137345057D01*
X149399523Y-137345057D02*
X149447142Y-137440295D01*
X149447142Y-137440295D02*
X149447142Y-137583152D01*
X149447142Y-137583152D02*
X149399523Y-137678390D01*
X149399523Y-137678390D02*
X149351904Y-137726009D01*
X149351904Y-137726009D02*
X149256666Y-137773628D01*
X149256666Y-137773628D02*
X148875714Y-137773628D01*
X149875714Y-137726009D02*
X150209047Y-137726009D01*
X150351904Y-138249819D02*
X149875714Y-138249819D01*
X149875714Y-138249819D02*
X149875714Y-137249819D01*
X149875714Y-137249819D02*
X150351904Y-137249819D01*
X151304285Y-137297438D02*
X151209047Y-137249819D01*
X151209047Y-137249819D02*
X151066190Y-137249819D01*
X151066190Y-137249819D02*
X150923333Y-137297438D01*
X150923333Y-137297438D02*
X150828095Y-137392676D01*
X150828095Y-137392676D02*
X150780476Y-137487914D01*
X150780476Y-137487914D02*
X150732857Y-137678390D01*
X150732857Y-137678390D02*
X150732857Y-137821247D01*
X150732857Y-137821247D02*
X150780476Y-138011723D01*
X150780476Y-138011723D02*
X150828095Y-138106961D01*
X150828095Y-138106961D02*
X150923333Y-138202200D01*
X150923333Y-138202200D02*
X151066190Y-138249819D01*
X151066190Y-138249819D02*
X151161428Y-138249819D01*
X151161428Y-138249819D02*
X151304285Y-138202200D01*
X151304285Y-138202200D02*
X151351904Y-138154580D01*
X151351904Y-138154580D02*
X151351904Y-137821247D01*
X151351904Y-137821247D02*
X151161428Y-137821247D01*
X152304285Y-138249819D02*
X151732857Y-138249819D01*
X152018571Y-138249819D02*
X152018571Y-137249819D01*
X152018571Y-137249819D02*
X151923333Y-137392676D01*
X151923333Y-137392676D02*
X151828095Y-137487914D01*
X151828095Y-137487914D02*
X151732857Y-137535533D01*
X115403333Y-138789580D02*
X115355714Y-138837200D01*
X115355714Y-138837200D02*
X115212857Y-138884819D01*
X115212857Y-138884819D02*
X115117619Y-138884819D01*
X115117619Y-138884819D02*
X114974762Y-138837200D01*
X114974762Y-138837200D02*
X114879524Y-138741961D01*
X114879524Y-138741961D02*
X114831905Y-138646723D01*
X114831905Y-138646723D02*
X114784286Y-138456247D01*
X114784286Y-138456247D02*
X114784286Y-138313390D01*
X114784286Y-138313390D02*
X114831905Y-138122914D01*
X114831905Y-138122914D02*
X114879524Y-138027676D01*
X114879524Y-138027676D02*
X114974762Y-137932438D01*
X114974762Y-137932438D02*
X115117619Y-137884819D01*
X115117619Y-137884819D02*
X115212857Y-137884819D01*
X115212857Y-137884819D02*
X115355714Y-137932438D01*
X115355714Y-137932438D02*
X115403333Y-137980057D01*
X115736667Y-137884819D02*
X116403333Y-137884819D01*
X116403333Y-137884819D02*
X115974762Y-138884819D01*
X128246667Y-75019819D02*
X128818095Y-75019819D01*
X128532381Y-76019819D02*
X128532381Y-75019819D01*
X129151429Y-76019819D02*
X129151429Y-75019819D01*
X129151429Y-75019819D02*
X129532381Y-75019819D01*
X129532381Y-75019819D02*
X129627619Y-75067438D01*
X129627619Y-75067438D02*
X129675238Y-75115057D01*
X129675238Y-75115057D02*
X129722857Y-75210295D01*
X129722857Y-75210295D02*
X129722857Y-75353152D01*
X129722857Y-75353152D02*
X129675238Y-75448390D01*
X129675238Y-75448390D02*
X129627619Y-75496009D01*
X129627619Y-75496009D02*
X129532381Y-75543628D01*
X129532381Y-75543628D02*
X129151429Y-75543628D01*
X130151429Y-75638866D02*
X130913334Y-75638866D01*
X131913333Y-76019819D02*
X131341905Y-76019819D01*
X131627619Y-76019819D02*
X131627619Y-75019819D01*
X131627619Y-75019819D02*
X131532381Y-75162676D01*
X131532381Y-75162676D02*
X131437143Y-75257914D01*
X131437143Y-75257914D02*
X131341905Y-75305533D01*
X132818095Y-75019819D02*
X132341905Y-75019819D01*
X132341905Y-75019819D02*
X132294286Y-75496009D01*
X132294286Y-75496009D02*
X132341905Y-75448390D01*
X132341905Y-75448390D02*
X132437143Y-75400771D01*
X132437143Y-75400771D02*
X132675238Y-75400771D01*
X132675238Y-75400771D02*
X132770476Y-75448390D01*
X132770476Y-75448390D02*
X132818095Y-75496009D01*
X132818095Y-75496009D02*
X132865714Y-75591247D01*
X132865714Y-75591247D02*
X132865714Y-75829342D01*
X132865714Y-75829342D02*
X132818095Y-75924580D01*
X132818095Y-75924580D02*
X132770476Y-75972200D01*
X132770476Y-75972200D02*
X132675238Y-76019819D01*
X132675238Y-76019819D02*
X132437143Y-76019819D01*
X132437143Y-76019819D02*
X132341905Y-75972200D01*
X132341905Y-75972200D02*
X132294286Y-75924580D01*
X133294286Y-76019819D02*
X133294286Y-75019819D01*
X133294286Y-75019819D02*
X133532381Y-75019819D01*
X133532381Y-75019819D02*
X133675238Y-75067438D01*
X133675238Y-75067438D02*
X133770476Y-75162676D01*
X133770476Y-75162676D02*
X133818095Y-75257914D01*
X133818095Y-75257914D02*
X133865714Y-75448390D01*
X133865714Y-75448390D02*
X133865714Y-75591247D01*
X133865714Y-75591247D02*
X133818095Y-75781723D01*
X133818095Y-75781723D02*
X133770476Y-75876961D01*
X133770476Y-75876961D02*
X133675238Y-75972200D01*
X133675238Y-75972200D02*
X133532381Y-76019819D01*
X133532381Y-76019819D02*
X133294286Y-76019819D01*
X134865714Y-75924580D02*
X134818095Y-75972200D01*
X134818095Y-75972200D02*
X134675238Y-76019819D01*
X134675238Y-76019819D02*
X134580000Y-76019819D01*
X134580000Y-76019819D02*
X134437143Y-75972200D01*
X134437143Y-75972200D02*
X134341905Y-75876961D01*
X134341905Y-75876961D02*
X134294286Y-75781723D01*
X134294286Y-75781723D02*
X134246667Y-75591247D01*
X134246667Y-75591247D02*
X134246667Y-75448390D01*
X134246667Y-75448390D02*
X134294286Y-75257914D01*
X134294286Y-75257914D02*
X134341905Y-75162676D01*
X134341905Y-75162676D02*
X134437143Y-75067438D01*
X134437143Y-75067438D02*
X134580000Y-75019819D01*
X134580000Y-75019819D02*
X134675238Y-75019819D01*
X134675238Y-75019819D02*
X134818095Y-75067438D01*
X134818095Y-75067438D02*
X134865714Y-75115057D01*
X135818095Y-76019819D02*
X135246667Y-76019819D01*
X135532381Y-76019819D02*
X135532381Y-75019819D01*
X135532381Y-75019819D02*
X135437143Y-75162676D01*
X135437143Y-75162676D02*
X135341905Y-75257914D01*
X135341905Y-75257914D02*
X135246667Y-75305533D01*
X140636666Y-100419819D02*
X140636666Y-101134104D01*
X140636666Y-101134104D02*
X140589047Y-101276961D01*
X140589047Y-101276961D02*
X140493809Y-101372200D01*
X140493809Y-101372200D02*
X140350952Y-101419819D01*
X140350952Y-101419819D02*
X140255714Y-101419819D01*
X141541428Y-100753152D02*
X141541428Y-101419819D01*
X141303333Y-100372200D02*
X141065238Y-101086485D01*
X141065238Y-101086485D02*
X141684285Y-101086485D01*
X147193095Y-55309819D02*
X147193095Y-54309819D01*
X147193095Y-54786009D02*
X147764523Y-54786009D01*
X147764523Y-55309819D02*
X147764523Y-54309819D01*
X148193095Y-54405057D02*
X148240714Y-54357438D01*
X148240714Y-54357438D02*
X148335952Y-54309819D01*
X148335952Y-54309819D02*
X148574047Y-54309819D01*
X148574047Y-54309819D02*
X148669285Y-54357438D01*
X148669285Y-54357438D02*
X148716904Y-54405057D01*
X148716904Y-54405057D02*
X148764523Y-54500295D01*
X148764523Y-54500295D02*
X148764523Y-54595533D01*
X148764523Y-54595533D02*
X148716904Y-54738390D01*
X148716904Y-54738390D02*
X148145476Y-55309819D01*
X148145476Y-55309819D02*
X148764523Y-55309819D01*
X140208095Y-128534819D02*
X140208095Y-129344342D01*
X140208095Y-129344342D02*
X140255714Y-129439580D01*
X140255714Y-129439580D02*
X140303333Y-129487200D01*
X140303333Y-129487200D02*
X140398571Y-129534819D01*
X140398571Y-129534819D02*
X140589047Y-129534819D01*
X140589047Y-129534819D02*
X140684285Y-129487200D01*
X140684285Y-129487200D02*
X140731904Y-129439580D01*
X140731904Y-129439580D02*
X140779523Y-129344342D01*
X140779523Y-129344342D02*
X140779523Y-128534819D01*
X141208095Y-128630057D02*
X141255714Y-128582438D01*
X141255714Y-128582438D02*
X141350952Y-128534819D01*
X141350952Y-128534819D02*
X141589047Y-128534819D01*
X141589047Y-128534819D02*
X141684285Y-128582438D01*
X141684285Y-128582438D02*
X141731904Y-128630057D01*
X141731904Y-128630057D02*
X141779523Y-128725295D01*
X141779523Y-128725295D02*
X141779523Y-128820533D01*
X141779523Y-128820533D02*
X141731904Y-128963390D01*
X141731904Y-128963390D02*
X141160476Y-129534819D01*
X141160476Y-129534819D02*
X141779523Y-129534819D01*
X115236666Y-151219819D02*
X115236666Y-151934104D01*
X115236666Y-151934104D02*
X115189047Y-152076961D01*
X115189047Y-152076961D02*
X115093809Y-152172200D01*
X115093809Y-152172200D02*
X114950952Y-152219819D01*
X114950952Y-152219819D02*
X114855714Y-152219819D01*
X116236666Y-152219819D02*
X115665238Y-152219819D01*
X115950952Y-152219819D02*
X115950952Y-151219819D01*
X115950952Y-151219819D02*
X115855714Y-151362676D01*
X115855714Y-151362676D02*
X115760476Y-151457914D01*
X115760476Y-151457914D02*
X115665238Y-151505533D01*
X107211905Y-67764819D02*
X107211905Y-66764819D01*
X107211905Y-66764819D02*
X107450000Y-66764819D01*
X107450000Y-66764819D02*
X107592857Y-66812438D01*
X107592857Y-66812438D02*
X107688095Y-66907676D01*
X107688095Y-66907676D02*
X107735714Y-67002914D01*
X107735714Y-67002914D02*
X107783333Y-67193390D01*
X107783333Y-67193390D02*
X107783333Y-67336247D01*
X107783333Y-67336247D02*
X107735714Y-67526723D01*
X107735714Y-67526723D02*
X107688095Y-67621961D01*
X107688095Y-67621961D02*
X107592857Y-67717200D01*
X107592857Y-67717200D02*
X107450000Y-67764819D01*
X107450000Y-67764819D02*
X107211905Y-67764819D01*
X108640476Y-67098152D02*
X108640476Y-67764819D01*
X108402381Y-66717200D02*
X108164286Y-67431485D01*
X108164286Y-67431485D02*
X108783333Y-67431485D01*
X102743095Y-55309819D02*
X102743095Y-54309819D01*
X102743095Y-54786009D02*
X103314523Y-54786009D01*
X103314523Y-55309819D02*
X103314523Y-54309819D01*
X104314523Y-55309819D02*
X103743095Y-55309819D01*
X104028809Y-55309819D02*
X104028809Y-54309819D01*
X104028809Y-54309819D02*
X103933571Y-54452676D01*
X103933571Y-54452676D02*
X103838333Y-54547914D01*
X103838333Y-54547914D02*
X103743095Y-54595533D01*
X136549048Y-153124819D02*
X137120476Y-153124819D01*
X136834762Y-154124819D02*
X136834762Y-153124819D01*
X137453810Y-154124819D02*
X137453810Y-153124819D01*
X137453810Y-153124819D02*
X137834762Y-153124819D01*
X137834762Y-153124819D02*
X137930000Y-153172438D01*
X137930000Y-153172438D02*
X137977619Y-153220057D01*
X137977619Y-153220057D02*
X138025238Y-153315295D01*
X138025238Y-153315295D02*
X138025238Y-153458152D01*
X138025238Y-153458152D02*
X137977619Y-153553390D01*
X137977619Y-153553390D02*
X137930000Y-153601009D01*
X137930000Y-153601009D02*
X137834762Y-153648628D01*
X137834762Y-153648628D02*
X137453810Y-153648628D01*
X138453810Y-153743866D02*
X139215715Y-153743866D01*
X138834762Y-154124819D02*
X138834762Y-153362914D01*
X140168095Y-153124819D02*
X139691905Y-153124819D01*
X139691905Y-153124819D02*
X139644286Y-153601009D01*
X139644286Y-153601009D02*
X139691905Y-153553390D01*
X139691905Y-153553390D02*
X139787143Y-153505771D01*
X139787143Y-153505771D02*
X140025238Y-153505771D01*
X140025238Y-153505771D02*
X140120476Y-153553390D01*
X140120476Y-153553390D02*
X140168095Y-153601009D01*
X140168095Y-153601009D02*
X140215714Y-153696247D01*
X140215714Y-153696247D02*
X140215714Y-153934342D01*
X140215714Y-153934342D02*
X140168095Y-154029580D01*
X140168095Y-154029580D02*
X140120476Y-154077200D01*
X140120476Y-154077200D02*
X140025238Y-154124819D01*
X140025238Y-154124819D02*
X139787143Y-154124819D01*
X139787143Y-154124819D02*
X139691905Y-154077200D01*
X139691905Y-154077200D02*
X139644286Y-154029580D01*
X142422857Y-153124819D02*
X142994285Y-153124819D01*
X142708571Y-154124819D02*
X142708571Y-153124819D01*
X143327619Y-154124819D02*
X143327619Y-153124819D01*
X143327619Y-153124819D02*
X143708571Y-153124819D01*
X143708571Y-153124819D02*
X143803809Y-153172438D01*
X143803809Y-153172438D02*
X143851428Y-153220057D01*
X143851428Y-153220057D02*
X143899047Y-153315295D01*
X143899047Y-153315295D02*
X143899047Y-153458152D01*
X143899047Y-153458152D02*
X143851428Y-153553390D01*
X143851428Y-153553390D02*
X143803809Y-153601009D01*
X143803809Y-153601009D02*
X143708571Y-153648628D01*
X143708571Y-153648628D02*
X143327619Y-153648628D01*
X144327619Y-153743866D02*
X145089524Y-153743866D01*
X144708571Y-154124819D02*
X144708571Y-153362914D01*
X146089523Y-154124819D02*
X145518095Y-154124819D01*
X145803809Y-154124819D02*
X145803809Y-153124819D01*
X145803809Y-153124819D02*
X145708571Y-153267676D01*
X145708571Y-153267676D02*
X145613333Y-153362914D01*
X145613333Y-153362914D02*
X145518095Y-153410533D01*
X146470476Y-153220057D02*
X146518095Y-153172438D01*
X146518095Y-153172438D02*
X146613333Y-153124819D01*
X146613333Y-153124819D02*
X146851428Y-153124819D01*
X146851428Y-153124819D02*
X146946666Y-153172438D01*
X146946666Y-153172438D02*
X146994285Y-153220057D01*
X146994285Y-153220057D02*
X147041904Y-153315295D01*
X147041904Y-153315295D02*
X147041904Y-153410533D01*
X147041904Y-153410533D02*
X146994285Y-153553390D01*
X146994285Y-153553390D02*
X146422857Y-154124819D01*
X146422857Y-154124819D02*
X147041904Y-154124819D01*
X144137142Y-80369580D02*
X144089523Y-80417200D01*
X144089523Y-80417200D02*
X143946666Y-80464819D01*
X143946666Y-80464819D02*
X143851428Y-80464819D01*
X143851428Y-80464819D02*
X143708571Y-80417200D01*
X143708571Y-80417200D02*
X143613333Y-80321961D01*
X143613333Y-80321961D02*
X143565714Y-80226723D01*
X143565714Y-80226723D02*
X143518095Y-80036247D01*
X143518095Y-80036247D02*
X143518095Y-79893390D01*
X143518095Y-79893390D02*
X143565714Y-79702914D01*
X143565714Y-79702914D02*
X143613333Y-79607676D01*
X143613333Y-79607676D02*
X143708571Y-79512438D01*
X143708571Y-79512438D02*
X143851428Y-79464819D01*
X143851428Y-79464819D02*
X143946666Y-79464819D01*
X143946666Y-79464819D02*
X144089523Y-79512438D01*
X144089523Y-79512438D02*
X144137142Y-79560057D01*
X145089523Y-80464819D02*
X144518095Y-80464819D01*
X144803809Y-80464819D02*
X144803809Y-79464819D01*
X144803809Y-79464819D02*
X144708571Y-79607676D01*
X144708571Y-79607676D02*
X144613333Y-79702914D01*
X144613333Y-79702914D02*
X144518095Y-79750533D01*
X145708571Y-79464819D02*
X145803809Y-79464819D01*
X145803809Y-79464819D02*
X145899047Y-79512438D01*
X145899047Y-79512438D02*
X145946666Y-79560057D01*
X145946666Y-79560057D02*
X145994285Y-79655295D01*
X145994285Y-79655295D02*
X146041904Y-79845771D01*
X146041904Y-79845771D02*
X146041904Y-80083866D01*
X146041904Y-80083866D02*
X145994285Y-80274342D01*
X145994285Y-80274342D02*
X145946666Y-80369580D01*
X145946666Y-80369580D02*
X145899047Y-80417200D01*
X145899047Y-80417200D02*
X145803809Y-80464819D01*
X145803809Y-80464819D02*
X145708571Y-80464819D01*
X145708571Y-80464819D02*
X145613333Y-80417200D01*
X145613333Y-80417200D02*
X145565714Y-80369580D01*
X145565714Y-80369580D02*
X145518095Y-80274342D01*
X145518095Y-80274342D02*
X145470476Y-80083866D01*
X145470476Y-80083866D02*
X145470476Y-79845771D01*
X145470476Y-79845771D02*
X145518095Y-79655295D01*
X145518095Y-79655295D02*
X145565714Y-79560057D01*
X145565714Y-79560057D02*
X145613333Y-79512438D01*
X145613333Y-79512438D02*
X145708571Y-79464819D01*
X148314580Y-121451666D02*
X148362200Y-121499285D01*
X148362200Y-121499285D02*
X148409819Y-121642142D01*
X148409819Y-121642142D02*
X148409819Y-121737380D01*
X148409819Y-121737380D02*
X148362200Y-121880237D01*
X148362200Y-121880237D02*
X148266961Y-121975475D01*
X148266961Y-121975475D02*
X148171723Y-122023094D01*
X148171723Y-122023094D02*
X147981247Y-122070713D01*
X147981247Y-122070713D02*
X147838390Y-122070713D01*
X147838390Y-122070713D02*
X147647914Y-122023094D01*
X147647914Y-122023094D02*
X147552676Y-121975475D01*
X147552676Y-121975475D02*
X147457438Y-121880237D01*
X147457438Y-121880237D02*
X147409819Y-121737380D01*
X147409819Y-121737380D02*
X147409819Y-121642142D01*
X147409819Y-121642142D02*
X147457438Y-121499285D01*
X147457438Y-121499285D02*
X147505057Y-121451666D01*
X148409819Y-120499285D02*
X148409819Y-121070713D01*
X148409819Y-120784999D02*
X147409819Y-120784999D01*
X147409819Y-120784999D02*
X147552676Y-120880237D01*
X147552676Y-120880237D02*
X147647914Y-120975475D01*
X147647914Y-120975475D02*
X147695533Y-121070713D01*
X128133095Y-86459819D02*
X128133095Y-87269342D01*
X128133095Y-87269342D02*
X128180714Y-87364580D01*
X128180714Y-87364580D02*
X128228333Y-87412200D01*
X128228333Y-87412200D02*
X128323571Y-87459819D01*
X128323571Y-87459819D02*
X128514047Y-87459819D01*
X128514047Y-87459819D02*
X128609285Y-87412200D01*
X128609285Y-87412200D02*
X128656904Y-87364580D01*
X128656904Y-87364580D02*
X128704523Y-87269342D01*
X128704523Y-87269342D02*
X128704523Y-86459819D01*
X129656904Y-86459819D02*
X129180714Y-86459819D01*
X129180714Y-86459819D02*
X129133095Y-86936009D01*
X129133095Y-86936009D02*
X129180714Y-86888390D01*
X129180714Y-86888390D02*
X129275952Y-86840771D01*
X129275952Y-86840771D02*
X129514047Y-86840771D01*
X129514047Y-86840771D02*
X129609285Y-86888390D01*
X129609285Y-86888390D02*
X129656904Y-86936009D01*
X129656904Y-86936009D02*
X129704523Y-87031247D01*
X129704523Y-87031247D02*
X129704523Y-87269342D01*
X129704523Y-87269342D02*
X129656904Y-87364580D01*
X129656904Y-87364580D02*
X129609285Y-87412200D01*
X129609285Y-87412200D02*
X129514047Y-87459819D01*
X129514047Y-87459819D02*
X129275952Y-87459819D01*
X129275952Y-87459819D02*
X129180714Y-87412200D01*
X129180714Y-87412200D02*
X129133095Y-87364580D01*
X108561667Y-73749819D02*
X109133095Y-73749819D01*
X108847381Y-74749819D02*
X108847381Y-73749819D01*
X109466429Y-74749819D02*
X109466429Y-73749819D01*
X109466429Y-73749819D02*
X109847381Y-73749819D01*
X109847381Y-73749819D02*
X109942619Y-73797438D01*
X109942619Y-73797438D02*
X109990238Y-73845057D01*
X109990238Y-73845057D02*
X110037857Y-73940295D01*
X110037857Y-73940295D02*
X110037857Y-74083152D01*
X110037857Y-74083152D02*
X109990238Y-74178390D01*
X109990238Y-74178390D02*
X109942619Y-74226009D01*
X109942619Y-74226009D02*
X109847381Y-74273628D01*
X109847381Y-74273628D02*
X109466429Y-74273628D01*
X110466429Y-74368866D02*
X111228334Y-74368866D01*
X110847381Y-74749819D02*
X110847381Y-73987914D01*
X112228333Y-74749819D02*
X111656905Y-74749819D01*
X111942619Y-74749819D02*
X111942619Y-73749819D01*
X111942619Y-73749819D02*
X111847381Y-73892676D01*
X111847381Y-73892676D02*
X111752143Y-73987914D01*
X111752143Y-73987914D02*
X111656905Y-74035533D01*
X113133095Y-73749819D02*
X112656905Y-73749819D01*
X112656905Y-73749819D02*
X112609286Y-74226009D01*
X112609286Y-74226009D02*
X112656905Y-74178390D01*
X112656905Y-74178390D02*
X112752143Y-74130771D01*
X112752143Y-74130771D02*
X112990238Y-74130771D01*
X112990238Y-74130771D02*
X113085476Y-74178390D01*
X113085476Y-74178390D02*
X113133095Y-74226009D01*
X113133095Y-74226009D02*
X113180714Y-74321247D01*
X113180714Y-74321247D02*
X113180714Y-74559342D01*
X113180714Y-74559342D02*
X113133095Y-74654580D01*
X113133095Y-74654580D02*
X113085476Y-74702200D01*
X113085476Y-74702200D02*
X112990238Y-74749819D01*
X112990238Y-74749819D02*
X112752143Y-74749819D01*
X112752143Y-74749819D02*
X112656905Y-74702200D01*
X112656905Y-74702200D02*
X112609286Y-74654580D01*
X113609286Y-74749819D02*
X113609286Y-73749819D01*
X113609286Y-73749819D02*
X113847381Y-73749819D01*
X113847381Y-73749819D02*
X113990238Y-73797438D01*
X113990238Y-73797438D02*
X114085476Y-73892676D01*
X114085476Y-73892676D02*
X114133095Y-73987914D01*
X114133095Y-73987914D02*
X114180714Y-74178390D01*
X114180714Y-74178390D02*
X114180714Y-74321247D01*
X114180714Y-74321247D02*
X114133095Y-74511723D01*
X114133095Y-74511723D02*
X114085476Y-74606961D01*
X114085476Y-74606961D02*
X113990238Y-74702200D01*
X113990238Y-74702200D02*
X113847381Y-74749819D01*
X113847381Y-74749819D02*
X113609286Y-74749819D01*
X115180714Y-74654580D02*
X115133095Y-74702200D01*
X115133095Y-74702200D02*
X114990238Y-74749819D01*
X114990238Y-74749819D02*
X114895000Y-74749819D01*
X114895000Y-74749819D02*
X114752143Y-74702200D01*
X114752143Y-74702200D02*
X114656905Y-74606961D01*
X114656905Y-74606961D02*
X114609286Y-74511723D01*
X114609286Y-74511723D02*
X114561667Y-74321247D01*
X114561667Y-74321247D02*
X114561667Y-74178390D01*
X114561667Y-74178390D02*
X114609286Y-73987914D01*
X114609286Y-73987914D02*
X114656905Y-73892676D01*
X114656905Y-73892676D02*
X114752143Y-73797438D01*
X114752143Y-73797438D02*
X114895000Y-73749819D01*
X114895000Y-73749819D02*
X114990238Y-73749819D01*
X114990238Y-73749819D02*
X115133095Y-73797438D01*
X115133095Y-73797438D02*
X115180714Y-73845057D01*
X116133095Y-74749819D02*
X115561667Y-74749819D01*
X115847381Y-74749819D02*
X115847381Y-73749819D01*
X115847381Y-73749819D02*
X115752143Y-73892676D01*
X115752143Y-73892676D02*
X115656905Y-73987914D01*
X115656905Y-73987914D02*
X115561667Y-74035533D01*
X142758095Y-86449819D02*
X142758095Y-87259342D01*
X142758095Y-87259342D02*
X142805714Y-87354580D01*
X142805714Y-87354580D02*
X142853333Y-87402200D01*
X142853333Y-87402200D02*
X142948571Y-87449819D01*
X142948571Y-87449819D02*
X143139047Y-87449819D01*
X143139047Y-87449819D02*
X143234285Y-87402200D01*
X143234285Y-87402200D02*
X143281904Y-87354580D01*
X143281904Y-87354580D02*
X143329523Y-87259342D01*
X143329523Y-87259342D02*
X143329523Y-86449819D01*
X144234285Y-86449819D02*
X144043809Y-86449819D01*
X144043809Y-86449819D02*
X143948571Y-86497438D01*
X143948571Y-86497438D02*
X143900952Y-86545057D01*
X143900952Y-86545057D02*
X143805714Y-86687914D01*
X143805714Y-86687914D02*
X143758095Y-86878390D01*
X143758095Y-86878390D02*
X143758095Y-87259342D01*
X143758095Y-87259342D02*
X143805714Y-87354580D01*
X143805714Y-87354580D02*
X143853333Y-87402200D01*
X143853333Y-87402200D02*
X143948571Y-87449819D01*
X143948571Y-87449819D02*
X144139047Y-87449819D01*
X144139047Y-87449819D02*
X144234285Y-87402200D01*
X144234285Y-87402200D02*
X144281904Y-87354580D01*
X144281904Y-87354580D02*
X144329523Y-87259342D01*
X144329523Y-87259342D02*
X144329523Y-87021247D01*
X144329523Y-87021247D02*
X144281904Y-86926009D01*
X144281904Y-86926009D02*
X144234285Y-86878390D01*
X144234285Y-86878390D02*
X144139047Y-86830771D01*
X144139047Y-86830771D02*
X143948571Y-86830771D01*
X143948571Y-86830771D02*
X143853333Y-86878390D01*
X143853333Y-86878390D02*
X143805714Y-86926009D01*
X143805714Y-86926009D02*
X143758095Y-87021247D01*
X132534819Y-129706666D02*
X132058628Y-130039999D01*
X132534819Y-130278094D02*
X131534819Y-130278094D01*
X131534819Y-130278094D02*
X131534819Y-129897142D01*
X131534819Y-129897142D02*
X131582438Y-129801904D01*
X131582438Y-129801904D02*
X131630057Y-129754285D01*
X131630057Y-129754285D02*
X131725295Y-129706666D01*
X131725295Y-129706666D02*
X131868152Y-129706666D01*
X131868152Y-129706666D02*
X131963390Y-129754285D01*
X131963390Y-129754285D02*
X132011009Y-129801904D01*
X132011009Y-129801904D02*
X132058628Y-129897142D01*
X132058628Y-129897142D02*
X132058628Y-130278094D01*
X132534819Y-128754285D02*
X132534819Y-129325713D01*
X132534819Y-129039999D02*
X131534819Y-129039999D01*
X131534819Y-129039999D02*
X131677676Y-129135237D01*
X131677676Y-129135237D02*
X131772914Y-129230475D01*
X131772914Y-129230475D02*
X131820533Y-129325713D01*
X151219819Y-80493570D02*
X151219819Y-79922142D01*
X152219819Y-80207856D02*
X151219819Y-80207856D01*
X152219819Y-79588808D02*
X151219819Y-79588808D01*
X151219819Y-79588808D02*
X151219819Y-79207856D01*
X151219819Y-79207856D02*
X151267438Y-79112618D01*
X151267438Y-79112618D02*
X151315057Y-79064999D01*
X151315057Y-79064999D02*
X151410295Y-79017380D01*
X151410295Y-79017380D02*
X151553152Y-79017380D01*
X151553152Y-79017380D02*
X151648390Y-79064999D01*
X151648390Y-79064999D02*
X151696009Y-79112618D01*
X151696009Y-79112618D02*
X151743628Y-79207856D01*
X151743628Y-79207856D02*
X151743628Y-79588808D01*
X151696009Y-78255475D02*
X151743628Y-78112618D01*
X151743628Y-78112618D02*
X151791247Y-78064999D01*
X151791247Y-78064999D02*
X151886485Y-78017380D01*
X151886485Y-78017380D02*
X152029342Y-78017380D01*
X152029342Y-78017380D02*
X152124580Y-78064999D01*
X152124580Y-78064999D02*
X152172200Y-78112618D01*
X152172200Y-78112618D02*
X152219819Y-78207856D01*
X152219819Y-78207856D02*
X152219819Y-78588808D01*
X152219819Y-78588808D02*
X151219819Y-78588808D01*
X151219819Y-78588808D02*
X151219819Y-78255475D01*
X151219819Y-78255475D02*
X151267438Y-78160237D01*
X151267438Y-78160237D02*
X151315057Y-78112618D01*
X151315057Y-78112618D02*
X151410295Y-78064999D01*
X151410295Y-78064999D02*
X151505533Y-78064999D01*
X151505533Y-78064999D02*
X151600771Y-78112618D01*
X151600771Y-78112618D02*
X151648390Y-78160237D01*
X151648390Y-78160237D02*
X151696009Y-78255475D01*
X151696009Y-78255475D02*
X151696009Y-78588808D01*
X151219819Y-77588808D02*
X152029342Y-77588808D01*
X152029342Y-77588808D02*
X152124580Y-77541189D01*
X152124580Y-77541189D02*
X152172200Y-77493570D01*
X152172200Y-77493570D02*
X152219819Y-77398332D01*
X152219819Y-77398332D02*
X152219819Y-77207856D01*
X152219819Y-77207856D02*
X152172200Y-77112618D01*
X152172200Y-77112618D02*
X152124580Y-77064999D01*
X152124580Y-77064999D02*
X152029342Y-77017380D01*
X152029342Y-77017380D02*
X151219819Y-77017380D01*
X151696009Y-76207856D02*
X151696009Y-76541189D01*
X152219819Y-76541189D02*
X151219819Y-76541189D01*
X151219819Y-76541189D02*
X151219819Y-76064999D01*
X152219819Y-75684046D02*
X151219819Y-75684046D01*
X151219819Y-75684046D02*
X152219819Y-75112618D01*
X152219819Y-75112618D02*
X151219819Y-75112618D01*
X151219819Y-74445951D02*
X151219819Y-74255475D01*
X151219819Y-74255475D02*
X151267438Y-74160237D01*
X151267438Y-74160237D02*
X151362676Y-74064999D01*
X151362676Y-74064999D02*
X151553152Y-74017380D01*
X151553152Y-74017380D02*
X151886485Y-74017380D01*
X151886485Y-74017380D02*
X152076961Y-74064999D01*
X152076961Y-74064999D02*
X152172200Y-74160237D01*
X152172200Y-74160237D02*
X152219819Y-74255475D01*
X152219819Y-74255475D02*
X152219819Y-74445951D01*
X152219819Y-74445951D02*
X152172200Y-74541189D01*
X152172200Y-74541189D02*
X152076961Y-74636427D01*
X152076961Y-74636427D02*
X151886485Y-74684046D01*
X151886485Y-74684046D02*
X151553152Y-74684046D01*
X151553152Y-74684046D02*
X151362676Y-74636427D01*
X151362676Y-74636427D02*
X151267438Y-74541189D01*
X151267438Y-74541189D02*
X151219819Y-74445951D01*
X152219819Y-73588808D02*
X151219819Y-73588808D01*
X152172200Y-73160237D02*
X152219819Y-73017380D01*
X152219819Y-73017380D02*
X152219819Y-72779285D01*
X152219819Y-72779285D02*
X152172200Y-72684047D01*
X152172200Y-72684047D02*
X152124580Y-72636428D01*
X152124580Y-72636428D02*
X152029342Y-72588809D01*
X152029342Y-72588809D02*
X151934104Y-72588809D01*
X151934104Y-72588809D02*
X151838866Y-72636428D01*
X151838866Y-72636428D02*
X151791247Y-72684047D01*
X151791247Y-72684047D02*
X151743628Y-72779285D01*
X151743628Y-72779285D02*
X151696009Y-72969761D01*
X151696009Y-72969761D02*
X151648390Y-73064999D01*
X151648390Y-73064999D02*
X151600771Y-73112618D01*
X151600771Y-73112618D02*
X151505533Y-73160237D01*
X151505533Y-73160237D02*
X151410295Y-73160237D01*
X151410295Y-73160237D02*
X151315057Y-73112618D01*
X151315057Y-73112618D02*
X151267438Y-73064999D01*
X151267438Y-73064999D02*
X151219819Y-72969761D01*
X151219819Y-72969761D02*
X151219819Y-72731666D01*
X151219819Y-72731666D02*
X151267438Y-72588809D01*
X151696009Y-72160237D02*
X151696009Y-71826904D01*
X152219819Y-71684047D02*
X152219819Y-72160237D01*
X152219819Y-72160237D02*
X151219819Y-72160237D01*
X151219819Y-72160237D02*
X151219819Y-71684047D01*
X151315057Y-71303094D02*
X151267438Y-71255475D01*
X151267438Y-71255475D02*
X151219819Y-71160237D01*
X151219819Y-71160237D02*
X151219819Y-70922142D01*
X151219819Y-70922142D02*
X151267438Y-70826904D01*
X151267438Y-70826904D02*
X151315057Y-70779285D01*
X151315057Y-70779285D02*
X151410295Y-70731666D01*
X151410295Y-70731666D02*
X151505533Y-70731666D01*
X151505533Y-70731666D02*
X151648390Y-70779285D01*
X151648390Y-70779285D02*
X152219819Y-71350713D01*
X152219819Y-71350713D02*
X152219819Y-70731666D01*
X151219819Y-102718570D02*
X151219819Y-102147142D01*
X152219819Y-102432856D02*
X151219819Y-102432856D01*
X152219819Y-101813808D02*
X151219819Y-101813808D01*
X151219819Y-101813808D02*
X151219819Y-101432856D01*
X151219819Y-101432856D02*
X151267438Y-101337618D01*
X151267438Y-101337618D02*
X151315057Y-101289999D01*
X151315057Y-101289999D02*
X151410295Y-101242380D01*
X151410295Y-101242380D02*
X151553152Y-101242380D01*
X151553152Y-101242380D02*
X151648390Y-101289999D01*
X151648390Y-101289999D02*
X151696009Y-101337618D01*
X151696009Y-101337618D02*
X151743628Y-101432856D01*
X151743628Y-101432856D02*
X151743628Y-101813808D01*
X151696009Y-100480475D02*
X151743628Y-100337618D01*
X151743628Y-100337618D02*
X151791247Y-100289999D01*
X151791247Y-100289999D02*
X151886485Y-100242380D01*
X151886485Y-100242380D02*
X152029342Y-100242380D01*
X152029342Y-100242380D02*
X152124580Y-100289999D01*
X152124580Y-100289999D02*
X152172200Y-100337618D01*
X152172200Y-100337618D02*
X152219819Y-100432856D01*
X152219819Y-100432856D02*
X152219819Y-100813808D01*
X152219819Y-100813808D02*
X151219819Y-100813808D01*
X151219819Y-100813808D02*
X151219819Y-100480475D01*
X151219819Y-100480475D02*
X151267438Y-100385237D01*
X151267438Y-100385237D02*
X151315057Y-100337618D01*
X151315057Y-100337618D02*
X151410295Y-100289999D01*
X151410295Y-100289999D02*
X151505533Y-100289999D01*
X151505533Y-100289999D02*
X151600771Y-100337618D01*
X151600771Y-100337618D02*
X151648390Y-100385237D01*
X151648390Y-100385237D02*
X151696009Y-100480475D01*
X151696009Y-100480475D02*
X151696009Y-100813808D01*
X151219819Y-99813808D02*
X152029342Y-99813808D01*
X152029342Y-99813808D02*
X152124580Y-99766189D01*
X152124580Y-99766189D02*
X152172200Y-99718570D01*
X152172200Y-99718570D02*
X152219819Y-99623332D01*
X152219819Y-99623332D02*
X152219819Y-99432856D01*
X152219819Y-99432856D02*
X152172200Y-99337618D01*
X152172200Y-99337618D02*
X152124580Y-99289999D01*
X152124580Y-99289999D02*
X152029342Y-99242380D01*
X152029342Y-99242380D02*
X151219819Y-99242380D01*
X151696009Y-98432856D02*
X151696009Y-98766189D01*
X152219819Y-98766189D02*
X151219819Y-98766189D01*
X151219819Y-98766189D02*
X151219819Y-98289999D01*
X152219819Y-97909046D02*
X151219819Y-97909046D01*
X151219819Y-97909046D02*
X152219819Y-97337618D01*
X152219819Y-97337618D02*
X151219819Y-97337618D01*
X151219819Y-96670951D02*
X151219819Y-96480475D01*
X151219819Y-96480475D02*
X151267438Y-96385237D01*
X151267438Y-96385237D02*
X151362676Y-96289999D01*
X151362676Y-96289999D02*
X151553152Y-96242380D01*
X151553152Y-96242380D02*
X151886485Y-96242380D01*
X151886485Y-96242380D02*
X152076961Y-96289999D01*
X152076961Y-96289999D02*
X152172200Y-96385237D01*
X152172200Y-96385237D02*
X152219819Y-96480475D01*
X152219819Y-96480475D02*
X152219819Y-96670951D01*
X152219819Y-96670951D02*
X152172200Y-96766189D01*
X152172200Y-96766189D02*
X152076961Y-96861427D01*
X152076961Y-96861427D02*
X151886485Y-96909046D01*
X151886485Y-96909046D02*
X151553152Y-96909046D01*
X151553152Y-96909046D02*
X151362676Y-96861427D01*
X151362676Y-96861427D02*
X151267438Y-96766189D01*
X151267438Y-96766189D02*
X151219819Y-96670951D01*
X152219819Y-95813808D02*
X151219819Y-95813808D01*
X152172200Y-95385237D02*
X152219819Y-95242380D01*
X152219819Y-95242380D02*
X152219819Y-95004285D01*
X152219819Y-95004285D02*
X152172200Y-94909047D01*
X152172200Y-94909047D02*
X152124580Y-94861428D01*
X152124580Y-94861428D02*
X152029342Y-94813809D01*
X152029342Y-94813809D02*
X151934104Y-94813809D01*
X151934104Y-94813809D02*
X151838866Y-94861428D01*
X151838866Y-94861428D02*
X151791247Y-94909047D01*
X151791247Y-94909047D02*
X151743628Y-95004285D01*
X151743628Y-95004285D02*
X151696009Y-95194761D01*
X151696009Y-95194761D02*
X151648390Y-95289999D01*
X151648390Y-95289999D02*
X151600771Y-95337618D01*
X151600771Y-95337618D02*
X151505533Y-95385237D01*
X151505533Y-95385237D02*
X151410295Y-95385237D01*
X151410295Y-95385237D02*
X151315057Y-95337618D01*
X151315057Y-95337618D02*
X151267438Y-95289999D01*
X151267438Y-95289999D02*
X151219819Y-95194761D01*
X151219819Y-95194761D02*
X151219819Y-94956666D01*
X151219819Y-94956666D02*
X151267438Y-94813809D01*
X151696009Y-94385237D02*
X151696009Y-94051904D01*
X152219819Y-93909047D02*
X152219819Y-94385237D01*
X152219819Y-94385237D02*
X151219819Y-94385237D01*
X151219819Y-94385237D02*
X151219819Y-93909047D01*
X152219819Y-92956666D02*
X152219819Y-93528094D01*
X152219819Y-93242380D02*
X151219819Y-93242380D01*
X151219819Y-93242380D02*
X151362676Y-93337618D01*
X151362676Y-93337618D02*
X151457914Y-93432856D01*
X151457914Y-93432856D02*
X151505533Y-93528094D01*
X128913333Y-153124819D02*
X129484761Y-153124819D01*
X129199047Y-154124819D02*
X129199047Y-153124819D01*
X129818095Y-154124819D02*
X129818095Y-153124819D01*
X129818095Y-153124819D02*
X130199047Y-153124819D01*
X130199047Y-153124819D02*
X130294285Y-153172438D01*
X130294285Y-153172438D02*
X130341904Y-153220057D01*
X130341904Y-153220057D02*
X130389523Y-153315295D01*
X130389523Y-153315295D02*
X130389523Y-153458152D01*
X130389523Y-153458152D02*
X130341904Y-153553390D01*
X130341904Y-153553390D02*
X130294285Y-153601009D01*
X130294285Y-153601009D02*
X130199047Y-153648628D01*
X130199047Y-153648628D02*
X129818095Y-153648628D01*
X130580000Y-154220057D02*
X131341904Y-154220057D01*
X132103809Y-153172438D02*
X132008571Y-153124819D01*
X132008571Y-153124819D02*
X131865714Y-153124819D01*
X131865714Y-153124819D02*
X131722857Y-153172438D01*
X131722857Y-153172438D02*
X131627619Y-153267676D01*
X131627619Y-153267676D02*
X131580000Y-153362914D01*
X131580000Y-153362914D02*
X131532381Y-153553390D01*
X131532381Y-153553390D02*
X131532381Y-153696247D01*
X131532381Y-153696247D02*
X131580000Y-153886723D01*
X131580000Y-153886723D02*
X131627619Y-153981961D01*
X131627619Y-153981961D02*
X131722857Y-154077200D01*
X131722857Y-154077200D02*
X131865714Y-154124819D01*
X131865714Y-154124819D02*
X131960952Y-154124819D01*
X131960952Y-154124819D02*
X132103809Y-154077200D01*
X132103809Y-154077200D02*
X132151428Y-154029580D01*
X132151428Y-154029580D02*
X132151428Y-153696247D01*
X132151428Y-153696247D02*
X131960952Y-153696247D01*
X132580000Y-154124819D02*
X132580000Y-153124819D01*
X132580000Y-153124819D02*
X133151428Y-154124819D01*
X133151428Y-154124819D02*
X133151428Y-153124819D01*
X133627619Y-154124819D02*
X133627619Y-153124819D01*
X133627619Y-153124819D02*
X133865714Y-153124819D01*
X133865714Y-153124819D02*
X134008571Y-153172438D01*
X134008571Y-153172438D02*
X134103809Y-153267676D01*
X134103809Y-153267676D02*
X134151428Y-153362914D01*
X134151428Y-153362914D02*
X134199047Y-153553390D01*
X134199047Y-153553390D02*
X134199047Y-153696247D01*
X134199047Y-153696247D02*
X134151428Y-153886723D01*
X134151428Y-153886723D02*
X134103809Y-153981961D01*
X134103809Y-153981961D02*
X134008571Y-154077200D01*
X134008571Y-154077200D02*
X133865714Y-154124819D01*
X133865714Y-154124819D02*
X133627619Y-154124819D01*
X135151428Y-154124819D02*
X134580000Y-154124819D01*
X134865714Y-154124819D02*
X134865714Y-153124819D01*
X134865714Y-153124819D02*
X134770476Y-153267676D01*
X134770476Y-153267676D02*
X134675238Y-153362914D01*
X134675238Y-153362914D02*
X134580000Y-153410533D01*
X144613333Y-70939819D02*
X144280000Y-70463628D01*
X144041905Y-70939819D02*
X144041905Y-69939819D01*
X144041905Y-69939819D02*
X144422857Y-69939819D01*
X144422857Y-69939819D02*
X144518095Y-69987438D01*
X144518095Y-69987438D02*
X144565714Y-70035057D01*
X144565714Y-70035057D02*
X144613333Y-70130295D01*
X144613333Y-70130295D02*
X144613333Y-70273152D01*
X144613333Y-70273152D02*
X144565714Y-70368390D01*
X144565714Y-70368390D02*
X144518095Y-70416009D01*
X144518095Y-70416009D02*
X144422857Y-70463628D01*
X144422857Y-70463628D02*
X144041905Y-70463628D01*
X144946667Y-69939819D02*
X145613333Y-69939819D01*
X145613333Y-69939819D02*
X145184762Y-70939819D01*
X126833333Y-121104819D02*
X126500000Y-120628628D01*
X126261905Y-121104819D02*
X126261905Y-120104819D01*
X126261905Y-120104819D02*
X126642857Y-120104819D01*
X126642857Y-120104819D02*
X126738095Y-120152438D01*
X126738095Y-120152438D02*
X126785714Y-120200057D01*
X126785714Y-120200057D02*
X126833333Y-120295295D01*
X126833333Y-120295295D02*
X126833333Y-120438152D01*
X126833333Y-120438152D02*
X126785714Y-120533390D01*
X126785714Y-120533390D02*
X126738095Y-120581009D01*
X126738095Y-120581009D02*
X126642857Y-120628628D01*
X126642857Y-120628628D02*
X126261905Y-120628628D01*
X127214286Y-120200057D02*
X127261905Y-120152438D01*
X127261905Y-120152438D02*
X127357143Y-120104819D01*
X127357143Y-120104819D02*
X127595238Y-120104819D01*
X127595238Y-120104819D02*
X127690476Y-120152438D01*
X127690476Y-120152438D02*
X127738095Y-120200057D01*
X127738095Y-120200057D02*
X127785714Y-120295295D01*
X127785714Y-120295295D02*
X127785714Y-120390533D01*
X127785714Y-120390533D02*
X127738095Y-120533390D01*
X127738095Y-120533390D02*
X127166667Y-121104819D01*
X127166667Y-121104819D02*
X127785714Y-121104819D01*
X140803333Y-137519580D02*
X140755714Y-137567200D01*
X140755714Y-137567200D02*
X140612857Y-137614819D01*
X140612857Y-137614819D02*
X140517619Y-137614819D01*
X140517619Y-137614819D02*
X140374762Y-137567200D01*
X140374762Y-137567200D02*
X140279524Y-137471961D01*
X140279524Y-137471961D02*
X140231905Y-137376723D01*
X140231905Y-137376723D02*
X140184286Y-137186247D01*
X140184286Y-137186247D02*
X140184286Y-137043390D01*
X140184286Y-137043390D02*
X140231905Y-136852914D01*
X140231905Y-136852914D02*
X140279524Y-136757676D01*
X140279524Y-136757676D02*
X140374762Y-136662438D01*
X140374762Y-136662438D02*
X140517619Y-136614819D01*
X140517619Y-136614819D02*
X140612857Y-136614819D01*
X140612857Y-136614819D02*
X140755714Y-136662438D01*
X140755714Y-136662438D02*
X140803333Y-136710057D01*
X141279524Y-137614819D02*
X141470000Y-137614819D01*
X141470000Y-137614819D02*
X141565238Y-137567200D01*
X141565238Y-137567200D02*
X141612857Y-137519580D01*
X141612857Y-137519580D02*
X141708095Y-137376723D01*
X141708095Y-137376723D02*
X141755714Y-137186247D01*
X141755714Y-137186247D02*
X141755714Y-136805295D01*
X141755714Y-136805295D02*
X141708095Y-136710057D01*
X141708095Y-136710057D02*
X141660476Y-136662438D01*
X141660476Y-136662438D02*
X141565238Y-136614819D01*
X141565238Y-136614819D02*
X141374762Y-136614819D01*
X141374762Y-136614819D02*
X141279524Y-136662438D01*
X141279524Y-136662438D02*
X141231905Y-136710057D01*
X141231905Y-136710057D02*
X141184286Y-136805295D01*
X141184286Y-136805295D02*
X141184286Y-137043390D01*
X141184286Y-137043390D02*
X141231905Y-137138628D01*
X141231905Y-137138628D02*
X141279524Y-137186247D01*
X141279524Y-137186247D02*
X141374762Y-137233866D01*
X141374762Y-137233866D02*
X141565238Y-137233866D01*
X141565238Y-137233866D02*
X141660476Y-137186247D01*
X141660476Y-137186247D02*
X141708095Y-137138628D01*
X141708095Y-137138628D02*
X141755714Y-137043390D01*
X125626905Y-67129819D02*
X125626905Y-66129819D01*
X125626905Y-66129819D02*
X125865000Y-66129819D01*
X125865000Y-66129819D02*
X126007857Y-66177438D01*
X126007857Y-66177438D02*
X126103095Y-66272676D01*
X126103095Y-66272676D02*
X126150714Y-66367914D01*
X126150714Y-66367914D02*
X126198333Y-66558390D01*
X126198333Y-66558390D02*
X126198333Y-66701247D01*
X126198333Y-66701247D02*
X126150714Y-66891723D01*
X126150714Y-66891723D02*
X126103095Y-66986961D01*
X126103095Y-66986961D02*
X126007857Y-67082200D01*
X126007857Y-67082200D02*
X125865000Y-67129819D01*
X125865000Y-67129819D02*
X125626905Y-67129819D01*
X126531667Y-66129819D02*
X127150714Y-66129819D01*
X127150714Y-66129819D02*
X126817381Y-66510771D01*
X126817381Y-66510771D02*
X126960238Y-66510771D01*
X126960238Y-66510771D02*
X127055476Y-66558390D01*
X127055476Y-66558390D02*
X127103095Y-66606009D01*
X127103095Y-66606009D02*
X127150714Y-66701247D01*
X127150714Y-66701247D02*
X127150714Y-66939342D01*
X127150714Y-66939342D02*
X127103095Y-67034580D01*
X127103095Y-67034580D02*
X127055476Y-67082200D01*
X127055476Y-67082200D02*
X126960238Y-67129819D01*
X126960238Y-67129819D02*
X126674524Y-67129819D01*
X126674524Y-67129819D02*
X126579286Y-67082200D01*
X126579286Y-67082200D02*
X126531667Y-67034580D01*
X122293095Y-65859819D02*
X122293095Y-64859819D01*
X122864523Y-65859819D02*
X122435952Y-65288390D01*
X122864523Y-64859819D02*
X122293095Y-65431247D01*
X126853333Y-105814580D02*
X126805714Y-105862200D01*
X126805714Y-105862200D02*
X126662857Y-105909819D01*
X126662857Y-105909819D02*
X126567619Y-105909819D01*
X126567619Y-105909819D02*
X126424762Y-105862200D01*
X126424762Y-105862200D02*
X126329524Y-105766961D01*
X126329524Y-105766961D02*
X126281905Y-105671723D01*
X126281905Y-105671723D02*
X126234286Y-105481247D01*
X126234286Y-105481247D02*
X126234286Y-105338390D01*
X126234286Y-105338390D02*
X126281905Y-105147914D01*
X126281905Y-105147914D02*
X126329524Y-105052676D01*
X126329524Y-105052676D02*
X126424762Y-104957438D01*
X126424762Y-104957438D02*
X126567619Y-104909819D01*
X126567619Y-104909819D02*
X126662857Y-104909819D01*
X126662857Y-104909819D02*
X126805714Y-104957438D01*
X126805714Y-104957438D02*
X126853333Y-105005057D01*
X127186667Y-104909819D02*
X127805714Y-104909819D01*
X127805714Y-104909819D02*
X127472381Y-105290771D01*
X127472381Y-105290771D02*
X127615238Y-105290771D01*
X127615238Y-105290771D02*
X127710476Y-105338390D01*
X127710476Y-105338390D02*
X127758095Y-105386009D01*
X127758095Y-105386009D02*
X127805714Y-105481247D01*
X127805714Y-105481247D02*
X127805714Y-105719342D01*
X127805714Y-105719342D02*
X127758095Y-105814580D01*
X127758095Y-105814580D02*
X127710476Y-105862200D01*
X127710476Y-105862200D02*
X127615238Y-105909819D01*
X127615238Y-105909819D02*
X127329524Y-105909819D01*
X127329524Y-105909819D02*
X127234286Y-105862200D01*
X127234286Y-105862200D02*
X127186667Y-105814580D01*
X105499819Y-85423333D02*
X106214104Y-85423333D01*
X106214104Y-85423333D02*
X106356961Y-85470952D01*
X106356961Y-85470952D02*
X106452200Y-85566190D01*
X106452200Y-85566190D02*
X106499819Y-85709047D01*
X106499819Y-85709047D02*
X106499819Y-85804285D01*
X105595057Y-84994761D02*
X105547438Y-84947142D01*
X105547438Y-84947142D02*
X105499819Y-84851904D01*
X105499819Y-84851904D02*
X105499819Y-84613809D01*
X105499819Y-84613809D02*
X105547438Y-84518571D01*
X105547438Y-84518571D02*
X105595057Y-84470952D01*
X105595057Y-84470952D02*
X105690295Y-84423333D01*
X105690295Y-84423333D02*
X105785533Y-84423333D01*
X105785533Y-84423333D02*
X105928390Y-84470952D01*
X105928390Y-84470952D02*
X106499819Y-85042380D01*
X106499819Y-85042380D02*
X106499819Y-84423333D01*
X140962142Y-77194580D02*
X140914523Y-77242200D01*
X140914523Y-77242200D02*
X140771666Y-77289819D01*
X140771666Y-77289819D02*
X140676428Y-77289819D01*
X140676428Y-77289819D02*
X140533571Y-77242200D01*
X140533571Y-77242200D02*
X140438333Y-77146961D01*
X140438333Y-77146961D02*
X140390714Y-77051723D01*
X140390714Y-77051723D02*
X140343095Y-76861247D01*
X140343095Y-76861247D02*
X140343095Y-76718390D01*
X140343095Y-76718390D02*
X140390714Y-76527914D01*
X140390714Y-76527914D02*
X140438333Y-76432676D01*
X140438333Y-76432676D02*
X140533571Y-76337438D01*
X140533571Y-76337438D02*
X140676428Y-76289819D01*
X140676428Y-76289819D02*
X140771666Y-76289819D01*
X140771666Y-76289819D02*
X140914523Y-76337438D01*
X140914523Y-76337438D02*
X140962142Y-76385057D01*
X141914523Y-77289819D02*
X141343095Y-77289819D01*
X141628809Y-77289819D02*
X141628809Y-76289819D01*
X141628809Y-76289819D02*
X141533571Y-76432676D01*
X141533571Y-76432676D02*
X141438333Y-76527914D01*
X141438333Y-76527914D02*
X141343095Y-76575533D01*
X142866904Y-77289819D02*
X142295476Y-77289819D01*
X142581190Y-77289819D02*
X142581190Y-76289819D01*
X142581190Y-76289819D02*
X142485952Y-76432676D01*
X142485952Y-76432676D02*
X142390714Y-76527914D01*
X142390714Y-76527914D02*
X142295476Y-76575533D01*
X104576666Y-127724819D02*
X104576666Y-128439104D01*
X104576666Y-128439104D02*
X104529047Y-128581961D01*
X104529047Y-128581961D02*
X104433809Y-128677200D01*
X104433809Y-128677200D02*
X104290952Y-128724819D01*
X104290952Y-128724819D02*
X104195714Y-128724819D01*
X105052857Y-128724819D02*
X105052857Y-127724819D01*
X105052857Y-127724819D02*
X105433809Y-127724819D01*
X105433809Y-127724819D02*
X105529047Y-127772438D01*
X105529047Y-127772438D02*
X105576666Y-127820057D01*
X105576666Y-127820057D02*
X105624285Y-127915295D01*
X105624285Y-127915295D02*
X105624285Y-128058152D01*
X105624285Y-128058152D02*
X105576666Y-128153390D01*
X105576666Y-128153390D02*
X105529047Y-128201009D01*
X105529047Y-128201009D02*
X105433809Y-128248628D01*
X105433809Y-128248628D02*
X105052857Y-128248628D01*
X106481428Y-128058152D02*
X106481428Y-128724819D01*
X106243333Y-127677200D02*
X106005238Y-128391485D01*
X106005238Y-128391485D02*
X106624285Y-128391485D01*
D14*
X130630000Y-140790000D02*
X133530000Y-140790000D01*
X130630000Y-143690000D02*
X130630000Y-140790000D01*
X133530000Y-140790000D02*
X133530000Y-143690000D01*
X133530000Y-143690000D02*
X130630000Y-143690000D01*
D10*
X129794000Y-152577800D02*
X147066000Y-152577800D01*
X147066000Y-152577800D02*
X147066000Y-144957800D01*
X129794000Y-144957800D02*
X129794000Y-152577800D01*
X147066000Y-144957800D02*
X129794000Y-144957800D01*
D14*
X130630000Y-61415000D02*
X133530000Y-61415000D01*
X130630000Y-64315000D02*
X130630000Y-61415000D01*
X133530000Y-61415000D02*
X133530000Y-64315000D01*
X133530000Y-64315000D02*
X130630000Y-64315000D01*
X105720000Y-99260000D02*
X105720000Y-99275000D01*
X105720000Y-99260000D02*
X110260000Y-99260000D01*
X105720000Y-101385000D02*
X105720000Y-101400000D01*
X105720000Y-101400000D02*
X110260000Y-101400000D01*
X110260000Y-99260000D02*
X110260000Y-99275000D01*
X110260000Y-101385000D02*
X110260000Y-101400000D01*
D15*
X97602997Y-102044603D02*
X97602997Y-133108598D01*
X97602997Y-133108598D02*
X118676999Y-133108598D01*
X118676999Y-102044603D02*
X97602997Y-102044603D01*
X118676999Y-133108598D02*
X118676999Y-102044603D01*
D16*
X117221000Y-133743598D02*
G75*
G02*
X116459000Y-133743598I-381000J0D01*
G01*
X116459000Y-133743598D02*
G75*
G02*
X117221000Y-133743598I381000J0D01*
G01*
D14*
X127020000Y-129815000D02*
X127020000Y-126725000D01*
X121470000Y-128270462D02*
G75*
G02*
X127020000Y-126725170I2990000J462D01*
G01*
X127020000Y-129814830D02*
G75*
G02*
X121470000Y-128269538I-2560000J1544830D01*
G01*
X126960000Y-128270000D02*
G75*
G02*
X121960000Y-128270000I-2500000J0D01*
G01*
X121960000Y-128270000D02*
G75*
G02*
X126960000Y-128270000I2500000J0D01*
G01*
X139040000Y-63225000D02*
X139040000Y-66315000D01*
X139040000Y-63225170D02*
G75*
G02*
X144590000Y-64770462I2560000J-1544830D01*
G01*
X144590000Y-64769538D02*
G75*
G02*
X139040000Y-66314830I-2990000J-462D01*
G01*
X144100000Y-64770000D02*
G75*
G02*
X139100000Y-64770000I-2500000J0D01*
G01*
X139100000Y-64770000D02*
G75*
G02*
X144100000Y-64770000I2500000J0D01*
G01*
X141385113Y-140130000D02*
X141885113Y-140130000D01*
X141635113Y-139880000D02*
X141635113Y-140380000D01*
X144189888Y-139025000D02*
X144189888Y-140565000D01*
X144189888Y-142645000D02*
X144189888Y-144185000D01*
X144229888Y-139025000D02*
X144229888Y-140565000D01*
X144229888Y-142645000D02*
X144229888Y-144185000D01*
X144269888Y-139026000D02*
X144269888Y-140565000D01*
X144269888Y-142645000D02*
X144269888Y-144184000D01*
X144309888Y-139027000D02*
X144309888Y-140565000D01*
X144309888Y-142645000D02*
X144309888Y-144183000D01*
X144349888Y-139029000D02*
X144349888Y-140565000D01*
X144349888Y-142645000D02*
X144349888Y-144181000D01*
X144389888Y-139032000D02*
X144389888Y-140565000D01*
X144389888Y-142645000D02*
X144389888Y-144178000D01*
X144429888Y-139036000D02*
X144429888Y-140565000D01*
X144429888Y-142645000D02*
X144429888Y-144174000D01*
X144469888Y-139040000D02*
X144469888Y-140565000D01*
X144469888Y-142645000D02*
X144469888Y-144170000D01*
X144509888Y-139044000D02*
X144509888Y-140565000D01*
X144509888Y-142645000D02*
X144509888Y-144166000D01*
X144549888Y-139049000D02*
X144549888Y-140565000D01*
X144549888Y-142645000D02*
X144549888Y-144161000D01*
X144589888Y-139055000D02*
X144589888Y-140565000D01*
X144589888Y-142645000D02*
X144589888Y-144155000D01*
X144629888Y-139062000D02*
X144629888Y-140565000D01*
X144629888Y-142645000D02*
X144629888Y-144148000D01*
X144669888Y-139069000D02*
X144669888Y-140565000D01*
X144669888Y-142645000D02*
X144669888Y-144141000D01*
X144709888Y-139077000D02*
X144709888Y-140565000D01*
X144709888Y-142645000D02*
X144709888Y-144133000D01*
X144749888Y-139085000D02*
X144749888Y-140565000D01*
X144749888Y-142645000D02*
X144749888Y-144125000D01*
X144789888Y-139094000D02*
X144789888Y-140565000D01*
X144789888Y-142645000D02*
X144789888Y-144116000D01*
X144829888Y-139104000D02*
X144829888Y-140565000D01*
X144829888Y-142645000D02*
X144829888Y-144106000D01*
X144869888Y-139114000D02*
X144869888Y-140565000D01*
X144869888Y-142645000D02*
X144869888Y-144096000D01*
X144910888Y-139125000D02*
X144910888Y-140565000D01*
X144910888Y-142645000D02*
X144910888Y-144085000D01*
X144950888Y-139137000D02*
X144950888Y-140565000D01*
X144950888Y-142645000D02*
X144950888Y-144073000D01*
X144990888Y-139150000D02*
X144990888Y-140565000D01*
X144990888Y-142645000D02*
X144990888Y-144060000D01*
X145030888Y-139163000D02*
X145030888Y-140565000D01*
X145030888Y-142645000D02*
X145030888Y-144047000D01*
X145070888Y-139177000D02*
X145070888Y-140565000D01*
X145070888Y-142645000D02*
X145070888Y-144033000D01*
X145110888Y-139191000D02*
X145110888Y-140565000D01*
X145110888Y-142645000D02*
X145110888Y-144019000D01*
X145150888Y-139207000D02*
X145150888Y-140565000D01*
X145150888Y-142645000D02*
X145150888Y-144003000D01*
X145190888Y-139223000D02*
X145190888Y-140565000D01*
X145190888Y-142645000D02*
X145190888Y-143987000D01*
X145230888Y-139240000D02*
X145230888Y-140565000D01*
X145230888Y-142645000D02*
X145230888Y-143970000D01*
X145270888Y-139257000D02*
X145270888Y-140565000D01*
X145270888Y-142645000D02*
X145270888Y-143953000D01*
X145310888Y-139276000D02*
X145310888Y-140565000D01*
X145310888Y-142645000D02*
X145310888Y-143934000D01*
X145350888Y-139295000D02*
X145350888Y-140565000D01*
X145350888Y-142645000D02*
X145350888Y-143915000D01*
X145390888Y-139315000D02*
X145390888Y-140565000D01*
X145390888Y-142645000D02*
X145390888Y-143895000D01*
X145430888Y-139337000D02*
X145430888Y-140565000D01*
X145430888Y-142645000D02*
X145430888Y-143873000D01*
X145470888Y-139358000D02*
X145470888Y-140565000D01*
X145470888Y-142645000D02*
X145470888Y-143852000D01*
X145510888Y-139381000D02*
X145510888Y-140565000D01*
X145510888Y-142645000D02*
X145510888Y-143829000D01*
X145550888Y-139405000D02*
X145550888Y-140565000D01*
X145550888Y-142645000D02*
X145550888Y-143805000D01*
X145590888Y-139430000D02*
X145590888Y-140565000D01*
X145590888Y-142645000D02*
X145590888Y-143780000D01*
X145630888Y-139456000D02*
X145630888Y-140565000D01*
X145630888Y-142645000D02*
X145630888Y-143754000D01*
X145670888Y-139483000D02*
X145670888Y-140565000D01*
X145670888Y-142645000D02*
X145670888Y-143727000D01*
X145710888Y-139510000D02*
X145710888Y-140565000D01*
X145710888Y-142645000D02*
X145710888Y-143700000D01*
X145750888Y-139540000D02*
X145750888Y-140565000D01*
X145750888Y-142645000D02*
X145750888Y-143670000D01*
X145790888Y-139570000D02*
X145790888Y-140565000D01*
X145790888Y-142645000D02*
X145790888Y-143640000D01*
X145830888Y-139601000D02*
X145830888Y-140565000D01*
X145830888Y-142645000D02*
X145830888Y-143609000D01*
X145870888Y-139634000D02*
X145870888Y-140565000D01*
X145870888Y-142645000D02*
X145870888Y-143576000D01*
X145910888Y-139668000D02*
X145910888Y-140565000D01*
X145910888Y-142645000D02*
X145910888Y-143542000D01*
X145950888Y-139704000D02*
X145950888Y-140565000D01*
X145950888Y-142645000D02*
X145950888Y-143506000D01*
X145990888Y-139741000D02*
X145990888Y-140565000D01*
X145990888Y-142645000D02*
X145990888Y-143469000D01*
X146030888Y-139779000D02*
X146030888Y-140565000D01*
X146030888Y-142645000D02*
X146030888Y-143431000D01*
X146070888Y-139820000D02*
X146070888Y-140565000D01*
X146070888Y-142645000D02*
X146070888Y-143390000D01*
X146110888Y-139862000D02*
X146110888Y-140565000D01*
X146110888Y-142645000D02*
X146110888Y-143348000D01*
X146150888Y-139906000D02*
X146150888Y-140565000D01*
X146150888Y-142645000D02*
X146150888Y-143304000D01*
X146190888Y-139952000D02*
X146190888Y-140565000D01*
X146190888Y-142645000D02*
X146190888Y-143258000D01*
X146230888Y-140000000D02*
X146230888Y-143210000D01*
X146270888Y-140051000D02*
X146270888Y-143159000D01*
X146310888Y-140105000D02*
X146310888Y-143105000D01*
X146350888Y-140162000D02*
X146350888Y-143048000D01*
X146390888Y-140222000D02*
X146390888Y-142988000D01*
X146430888Y-140286000D02*
X146430888Y-142924000D01*
X146470888Y-140354000D02*
X146470888Y-142856000D01*
X146510888Y-140427000D02*
X146510888Y-142783000D01*
X146550888Y-140507000D02*
X146550888Y-142703000D01*
X146590888Y-140594000D02*
X146590888Y-142616000D01*
X146630888Y-140690000D02*
X146630888Y-142520000D01*
X146670888Y-140800000D02*
X146670888Y-142410000D01*
X146710888Y-140928000D02*
X146710888Y-142282000D01*
X146750888Y-141087000D02*
X146750888Y-142123000D01*
X146790888Y-141321000D02*
X146790888Y-141889000D01*
X146809888Y-141605000D02*
G75*
G02*
X141569888Y-141605000I-2620000J0D01*
G01*
X141569888Y-141605000D02*
G75*
G02*
X146809888Y-141605000I2620000J0D01*
G01*
X135155000Y-79915000D02*
X135155000Y-86455000D01*
X135155000Y-86455000D02*
X137895000Y-86455000D01*
X136525000Y-79145000D02*
X136525000Y-79915000D01*
X136525000Y-87225000D02*
X136525000Y-86455000D01*
X137895000Y-79915000D02*
X135155000Y-79915000D01*
X137895000Y-86455000D02*
X137895000Y-79915000D01*
X148940000Y-129525000D02*
X148940000Y-133365000D01*
X148940000Y-133365000D02*
X150780000Y-133365000D01*
X149860000Y-128575000D02*
X149860000Y-129525000D01*
X149860000Y-134315000D02*
X149860000Y-133365000D01*
X150780000Y-129525000D02*
X148940000Y-129525000D01*
X150780000Y-133365000D02*
X150780000Y-129525000D01*
X108300000Y-121905000D02*
X108300000Y-125745000D01*
X108300000Y-125745000D02*
X110140000Y-125745000D01*
X109220000Y-120955000D02*
X109220000Y-121905000D01*
X109220000Y-126695000D02*
X109220000Y-125745000D01*
X110140000Y-121905000D02*
X108300000Y-121905000D01*
X110140000Y-125745000D02*
X110140000Y-121905000D01*
X107085000Y-70485000D02*
X107855000Y-70485000D01*
X107855000Y-69115000D02*
X107855000Y-71855000D01*
X107855000Y-71855000D02*
X114395000Y-71855000D01*
X114395000Y-69115000D02*
X107855000Y-69115000D01*
X114395000Y-71855000D02*
X114395000Y-69115000D01*
X115165000Y-70485000D02*
X114395000Y-70485000D01*
X110745000Y-76715000D02*
X110745000Y-97275000D01*
X110745000Y-97275000D02*
X121025000Y-97275000D01*
X113235000Y-76775000D02*
X113235000Y-97215000D01*
X113235000Y-97215000D02*
X118535000Y-97215000D01*
X114885000Y-76775000D02*
X113235000Y-76775000D01*
X118535000Y-76775000D02*
X116885000Y-76775000D01*
X118535000Y-97215000D02*
X118535000Y-76775000D01*
X121025000Y-76715000D02*
X110745000Y-76715000D01*
X121025000Y-97275000D02*
X121025000Y-76715000D01*
X116885000Y-76775000D02*
G75*
G02*
X114885000Y-76775000I-1000000J0D01*
G01*
X119915000Y-104045000D02*
X119915000Y-110585000D01*
X119915000Y-110585000D02*
X122655000Y-110585000D01*
X121285000Y-103275000D02*
X121285000Y-104045000D01*
X121285000Y-111355000D02*
X121285000Y-110585000D01*
X122655000Y-104045000D02*
X119915000Y-104045000D01*
X122655000Y-110585000D02*
X122655000Y-104045000D01*
X138950000Y-95735000D02*
X138950000Y-96360000D01*
X138950000Y-95735000D02*
X142990000Y-95735000D01*
X138950000Y-97950000D02*
X138950000Y-98575000D01*
X138950000Y-98575000D02*
X142990000Y-98575000D01*
X142990000Y-95735000D02*
X142990000Y-96360000D01*
X142990000Y-97950000D02*
X142990000Y-98575000D01*
X134020000Y-67995000D02*
X134020000Y-75435000D01*
X137760000Y-67995000D02*
X134020000Y-67995000D01*
X137760000Y-67995000D02*
X137760000Y-75435000D01*
X137760000Y-75435000D02*
X134020000Y-75435000D01*
X133990225Y-108380000D02*
X134490225Y-108380000D01*
X134240225Y-108130000D02*
X134240225Y-108630000D01*
X136795000Y-107275000D02*
X136795000Y-108815000D01*
X136795000Y-110895000D02*
X136795000Y-112435000D01*
X136835000Y-107275000D02*
X136835000Y-108815000D01*
X136835000Y-110895000D02*
X136835000Y-112435000D01*
X136875000Y-107276000D02*
X136875000Y-108815000D01*
X136875000Y-110895000D02*
X136875000Y-112434000D01*
X136915000Y-107277000D02*
X136915000Y-108815000D01*
X136915000Y-110895000D02*
X136915000Y-112433000D01*
X136955000Y-107279000D02*
X136955000Y-108815000D01*
X136955000Y-110895000D02*
X136955000Y-112431000D01*
X136995000Y-107282000D02*
X136995000Y-108815000D01*
X136995000Y-110895000D02*
X136995000Y-112428000D01*
X137035000Y-107286000D02*
X137035000Y-108815000D01*
X137035000Y-110895000D02*
X137035000Y-112424000D01*
X137075000Y-107290000D02*
X137075000Y-108815000D01*
X137075000Y-110895000D02*
X137075000Y-112420000D01*
X137115000Y-107294000D02*
X137115000Y-108815000D01*
X137115000Y-110895000D02*
X137115000Y-112416000D01*
X137155000Y-107299000D02*
X137155000Y-108815000D01*
X137155000Y-110895000D02*
X137155000Y-112411000D01*
X137195000Y-107305000D02*
X137195000Y-108815000D01*
X137195000Y-110895000D02*
X137195000Y-112405000D01*
X137235000Y-107312000D02*
X137235000Y-108815000D01*
X137235000Y-110895000D02*
X137235000Y-112398000D01*
X137275000Y-107319000D02*
X137275000Y-108815000D01*
X137275000Y-110895000D02*
X137275000Y-112391000D01*
X137315000Y-107327000D02*
X137315000Y-108815000D01*
X137315000Y-110895000D02*
X137315000Y-112383000D01*
X137355000Y-107335000D02*
X137355000Y-108815000D01*
X137355000Y-110895000D02*
X137355000Y-112375000D01*
X137395000Y-107344000D02*
X137395000Y-108815000D01*
X137395000Y-110895000D02*
X137395000Y-112366000D01*
X137435000Y-107354000D02*
X137435000Y-108815000D01*
X137435000Y-110895000D02*
X137435000Y-112356000D01*
X137475000Y-107364000D02*
X137475000Y-108815000D01*
X137475000Y-110895000D02*
X137475000Y-112346000D01*
X137516000Y-107375000D02*
X137516000Y-108815000D01*
X137516000Y-110895000D02*
X137516000Y-112335000D01*
X137556000Y-107387000D02*
X137556000Y-108815000D01*
X137556000Y-110895000D02*
X137556000Y-112323000D01*
X137596000Y-107400000D02*
X137596000Y-108815000D01*
X137596000Y-110895000D02*
X137596000Y-112310000D01*
X137636000Y-107413000D02*
X137636000Y-108815000D01*
X137636000Y-110895000D02*
X137636000Y-112297000D01*
X137676000Y-107427000D02*
X137676000Y-108815000D01*
X137676000Y-110895000D02*
X137676000Y-112283000D01*
X137716000Y-107441000D02*
X137716000Y-108815000D01*
X137716000Y-110895000D02*
X137716000Y-112269000D01*
X137756000Y-107457000D02*
X137756000Y-108815000D01*
X137756000Y-110895000D02*
X137756000Y-112253000D01*
X137796000Y-107473000D02*
X137796000Y-108815000D01*
X137796000Y-110895000D02*
X137796000Y-112237000D01*
X137836000Y-107490000D02*
X137836000Y-108815000D01*
X137836000Y-110895000D02*
X137836000Y-112220000D01*
X137876000Y-107507000D02*
X137876000Y-108815000D01*
X137876000Y-110895000D02*
X137876000Y-112203000D01*
X137916000Y-107526000D02*
X137916000Y-108815000D01*
X137916000Y-110895000D02*
X137916000Y-112184000D01*
X137956000Y-107545000D02*
X137956000Y-108815000D01*
X137956000Y-110895000D02*
X137956000Y-112165000D01*
X137996000Y-107565000D02*
X137996000Y-108815000D01*
X137996000Y-110895000D02*
X137996000Y-112145000D01*
X138036000Y-107587000D02*
X138036000Y-108815000D01*
X138036000Y-110895000D02*
X138036000Y-112123000D01*
X138076000Y-107608000D02*
X138076000Y-108815000D01*
X138076000Y-110895000D02*
X138076000Y-112102000D01*
X138116000Y-107631000D02*
X138116000Y-108815000D01*
X138116000Y-110895000D02*
X138116000Y-112079000D01*
X138156000Y-107655000D02*
X138156000Y-108815000D01*
X138156000Y-110895000D02*
X138156000Y-112055000D01*
X138196000Y-107680000D02*
X138196000Y-108815000D01*
X138196000Y-110895000D02*
X138196000Y-112030000D01*
X138236000Y-107706000D02*
X138236000Y-108815000D01*
X138236000Y-110895000D02*
X138236000Y-112004000D01*
X138276000Y-107733000D02*
X138276000Y-108815000D01*
X138276000Y-110895000D02*
X138276000Y-111977000D01*
X138316000Y-107760000D02*
X138316000Y-108815000D01*
X138316000Y-110895000D02*
X138316000Y-111950000D01*
X138356000Y-107790000D02*
X138356000Y-108815000D01*
X138356000Y-110895000D02*
X138356000Y-111920000D01*
X138396000Y-107820000D02*
X138396000Y-108815000D01*
X138396000Y-110895000D02*
X138396000Y-111890000D01*
X138436000Y-107851000D02*
X138436000Y-108815000D01*
X138436000Y-110895000D02*
X138436000Y-111859000D01*
X138476000Y-107884000D02*
X138476000Y-108815000D01*
X138476000Y-110895000D02*
X138476000Y-111826000D01*
X138516000Y-107918000D02*
X138516000Y-108815000D01*
X138516000Y-110895000D02*
X138516000Y-111792000D01*
X138556000Y-107954000D02*
X138556000Y-108815000D01*
X138556000Y-110895000D02*
X138556000Y-111756000D01*
X138596000Y-107991000D02*
X138596000Y-108815000D01*
X138596000Y-110895000D02*
X138596000Y-111719000D01*
X138636000Y-108029000D02*
X138636000Y-108815000D01*
X138636000Y-110895000D02*
X138636000Y-111681000D01*
X138676000Y-108070000D02*
X138676000Y-108815000D01*
X138676000Y-110895000D02*
X138676000Y-111640000D01*
X138716000Y-108112000D02*
X138716000Y-108815000D01*
X138716000Y-110895000D02*
X138716000Y-111598000D01*
X138756000Y-108156000D02*
X138756000Y-108815000D01*
X138756000Y-110895000D02*
X138756000Y-111554000D01*
X138796000Y-108202000D02*
X138796000Y-108815000D01*
X138796000Y-110895000D02*
X138796000Y-111508000D01*
X138836000Y-108250000D02*
X138836000Y-111460000D01*
X138876000Y-108301000D02*
X138876000Y-111409000D01*
X138916000Y-108355000D02*
X138916000Y-111355000D01*
X138956000Y-108412000D02*
X138956000Y-111298000D01*
X138996000Y-108472000D02*
X138996000Y-111238000D01*
X139036000Y-108536000D02*
X139036000Y-111174000D01*
X139076000Y-108604000D02*
X139076000Y-111106000D01*
X139116000Y-108677000D02*
X139116000Y-111033000D01*
X139156000Y-108757000D02*
X139156000Y-110953000D01*
X139196000Y-108844000D02*
X139196000Y-110866000D01*
X139236000Y-108940000D02*
X139236000Y-110770000D01*
X139276000Y-109050000D02*
X139276000Y-110660000D01*
X139316000Y-109178000D02*
X139316000Y-110532000D01*
X139356000Y-109337000D02*
X139356000Y-110373000D01*
X139396000Y-109571000D02*
X139396000Y-110139000D01*
X139415000Y-109855000D02*
G75*
G02*
X134175000Y-109855000I-2620000J0D01*
G01*
X134175000Y-109855000D02*
G75*
G02*
X139415000Y-109855000I2620000J0D01*
G01*
X122960000Y-116205000D02*
X123610000Y-116205000D01*
X123610000Y-115085000D02*
X123610000Y-117325000D01*
X123610000Y-117325000D02*
X127850000Y-117325000D01*
X127010000Y-117325000D02*
X127010000Y-115085000D01*
X127130000Y-117325000D02*
X127130000Y-115085000D01*
X127250000Y-117325000D02*
X127250000Y-115085000D01*
X127850000Y-115085000D02*
X123610000Y-115085000D01*
X127850000Y-117325000D02*
X127850000Y-115085000D01*
X128500000Y-116205000D02*
X127850000Y-116205000D01*
X122960000Y-69850000D02*
X123730000Y-69850000D01*
X123730000Y-68480000D02*
X123730000Y-71220000D01*
X123730000Y-71220000D02*
X130270000Y-71220000D01*
X130270000Y-68480000D02*
X123730000Y-68480000D01*
X130270000Y-71220000D02*
X130270000Y-68480000D01*
X131040000Y-69850000D02*
X130270000Y-69850000D01*
X140010000Y-92910000D02*
X140010000Y-92925000D01*
X140010000Y-92910000D02*
X144550000Y-92910000D01*
X140010000Y-95035000D02*
X140010000Y-95050000D01*
X140010000Y-95050000D02*
X144550000Y-95050000D01*
X144550000Y-92910000D02*
X144550000Y-92925000D01*
X144550000Y-95035000D02*
X144550000Y-95050000D01*
X135205000Y-117405000D02*
X135205000Y-127805000D01*
X135205000Y-127805000D02*
X145485000Y-127805000D01*
X137695000Y-117465000D02*
X137695000Y-127745000D01*
X137695000Y-127745000D02*
X142995000Y-127745000D01*
X139345000Y-117465000D02*
X137695000Y-117465000D01*
X142995000Y-117465000D02*
X141345000Y-117465000D01*
X142995000Y-127745000D02*
X142995000Y-117465000D01*
X145485000Y-117405000D02*
X135205000Y-117405000D01*
X145485000Y-127805000D02*
X145485000Y-117405000D01*
X141345000Y-117465000D02*
G75*
G02*
X139345000Y-117465000I-1000000J0D01*
G01*
X132715000Y-112725000D02*
X132715000Y-111775000D01*
X131795000Y-111775000D02*
X133635000Y-111775000D01*
X133635000Y-111775000D02*
X133635000Y-107935000D01*
X131795000Y-107935000D02*
X131795000Y-111775000D01*
X133635000Y-107935000D02*
X131795000Y-107935000D01*
X132715000Y-106985000D02*
X132715000Y-107935000D01*
X148410000Y-139520000D02*
X151310000Y-139520000D01*
X148410000Y-142420000D02*
X148410000Y-139520000D01*
X151310000Y-139520000D02*
X151310000Y-142420000D01*
X151310000Y-142420000D02*
X148410000Y-142420000D01*
X104350000Y-135830000D02*
X106150000Y-135830000D01*
X104510000Y-138430000D02*
X106450000Y-138430000D01*
X105250000Y-134930000D02*
X105250000Y-136730000D01*
X106450000Y-134310000D02*
X106450000Y-142550000D01*
X106450000Y-134310000D02*
X108250000Y-134310000D01*
X106450000Y-142550000D02*
X108250000Y-142550000D01*
X108250000Y-134310000D02*
X109150000Y-135210000D01*
X108250000Y-142550000D02*
X109150000Y-141650000D01*
X109150000Y-135210000D02*
X110050000Y-134310000D01*
X109150000Y-141650000D02*
X110050000Y-142550000D01*
X110050000Y-134310000D02*
X124690000Y-134310000D01*
X110050000Y-142550000D02*
X124690000Y-142550000D01*
X124690000Y-134310000D02*
X124690000Y-142550000D01*
X126630000Y-138430000D02*
X124690000Y-138430000D01*
X124280000Y-72845000D02*
X127180000Y-72845000D01*
X124280000Y-75745000D02*
X124280000Y-72845000D01*
X127180000Y-72845000D02*
X127180000Y-75745000D01*
X127180000Y-75745000D02*
X124280000Y-75745000D01*
D10*
X142795000Y-100210000D02*
X142795000Y-115690000D01*
X142795000Y-115690000D02*
X151845000Y-115690000D01*
X151845000Y-100210000D02*
X142795000Y-100210000D01*
X151845000Y-102460000D02*
X151845000Y-100210000D01*
X151845000Y-107620000D02*
X151845000Y-103100000D01*
X151845000Y-112780000D02*
X151845000Y-108260000D01*
X151845000Y-113420000D02*
X151845000Y-115690000D01*
X151845000Y-102460000D02*
G75*
G02*
X151845000Y-103100000I-125001J-320000D01*
G01*
X151845000Y-107620000D02*
G75*
G02*
X151845000Y-108260000I-125001J-320000D01*
G01*
X151845000Y-112780000D02*
G75*
G02*
X151845000Y-113420000I-125001J-320000D01*
G01*
X145550000Y-104050000D02*
G75*
G02*
X145350000Y-104050000I-100000J0D01*
G01*
X145350000Y-104050000D02*
G75*
G02*
X145550000Y-104050000I100000J0D01*
G01*
D17*
X144145000Y-110200000D02*
X142895000Y-110200000D01*
X142895000Y-105700000D01*
X144145000Y-105700000D01*
X144145000Y-110200000D01*
G36*
X144145000Y-110200000D02*
G01*
X142895000Y-110200000D01*
X142895000Y-105700000D01*
X144145000Y-105700000D01*
X144145000Y-110200000D01*
G37*
D14*
X135850000Y-130080000D02*
X135850000Y-134721000D01*
X135850000Y-130080000D02*
X146090000Y-130080000D01*
X135850000Y-131590000D02*
X146090000Y-131590000D01*
X135850000Y-134721000D02*
X146090000Y-134721000D01*
X139120000Y-130080000D02*
X139120000Y-131590000D01*
X142821000Y-130080000D02*
X142821000Y-131590000D01*
X146090000Y-130080000D02*
X146090000Y-134721000D01*
D15*
X102743000Y-145923000D02*
X102743000Y-158470600D01*
X102743000Y-158470600D02*
X109168075Y-158470600D01*
X106479735Y-145923000D02*
X102743000Y-145923000D01*
X111559735Y-145923000D02*
X109420265Y-145923000D01*
X111811925Y-158470600D02*
X119328075Y-158470600D01*
X116639735Y-145923000D02*
X114500265Y-145923000D01*
X121719735Y-145923000D02*
X119580265Y-145923000D01*
X121971925Y-158470600D02*
X128397000Y-158470600D01*
X128397000Y-145923000D02*
X124660265Y-145923000D01*
X128397000Y-158470600D02*
X128397000Y-145923000D01*
D16*
X102489000Y-146050000D02*
G75*
G02*
X101727000Y-146050000I-381000J0D01*
G01*
X101727000Y-146050000D02*
G75*
G02*
X102489000Y-146050000I381000J0D01*
G01*
D14*
X110465000Y-63225000D02*
X110465000Y-66315000D01*
X110465000Y-63225170D02*
G75*
G02*
X116015000Y-64770462I2560000J-1544830D01*
G01*
X116015000Y-64769538D02*
G75*
G02*
X110465000Y-66314830I-2990000J-462D01*
G01*
X115525000Y-64770000D02*
G75*
G02*
X110525000Y-64770000I-2500000J0D01*
G01*
X110525000Y-64770000D02*
G75*
G02*
X115525000Y-64770000I2500000J0D01*
G01*
X136980000Y-154760000D02*
X139880000Y-154760000D01*
X136980000Y-157660000D02*
X136980000Y-154760000D01*
X139880000Y-154760000D02*
X139880000Y-157660000D01*
X139880000Y-157660000D02*
X136980000Y-157660000D01*
X143330000Y-154760000D02*
X146230000Y-154760000D01*
X143330000Y-157660000D02*
X143330000Y-154760000D01*
X146230000Y-154760000D02*
X146230000Y-157660000D01*
X146230000Y-157660000D02*
X143330000Y-157660000D01*
X142510000Y-78955000D02*
X142510000Y-78940000D01*
X142510000Y-81080000D02*
X142510000Y-81065000D01*
X147050000Y-78940000D02*
X142510000Y-78940000D01*
X147050000Y-78955000D02*
X147050000Y-78940000D01*
X147050000Y-81080000D02*
X142510000Y-81080000D01*
X147050000Y-81080000D02*
X147050000Y-81065000D01*
X146885000Y-119015000D02*
X146885000Y-123555000D01*
X146900000Y-119015000D02*
X146885000Y-119015000D01*
X146900000Y-123555000D02*
X146885000Y-123555000D01*
X149025000Y-119015000D02*
X149010000Y-119015000D01*
X149025000Y-119015000D02*
X149025000Y-123555000D01*
X149025000Y-123555000D02*
X149010000Y-123555000D01*
X123765000Y-76715000D02*
X123765000Y-97275000D01*
X123765000Y-97275000D02*
X134045000Y-97275000D01*
X126255000Y-76775000D02*
X126255000Y-97215000D01*
X126255000Y-97215000D02*
X131555000Y-97215000D01*
X127905000Y-76775000D02*
X126255000Y-76775000D01*
X131555000Y-76775000D02*
X129905000Y-76775000D01*
X131555000Y-97215000D02*
X131555000Y-76775000D01*
X134045000Y-76715000D02*
X123765000Y-76715000D01*
X134045000Y-97275000D02*
X134045000Y-76715000D01*
X129905000Y-76775000D02*
G75*
G02*
X127905000Y-76775000I-1000000J0D01*
G01*
X117930000Y-72845000D02*
X120830000Y-72845000D01*
X117930000Y-75745000D02*
X117930000Y-72845000D01*
X120830000Y-72845000D02*
X120830000Y-75745000D01*
X120830000Y-75745000D02*
X117930000Y-75745000D01*
X138380000Y-81805000D02*
X138380000Y-92205000D01*
X138380000Y-92205000D02*
X148660000Y-92205000D01*
X140870000Y-81865000D02*
X140870000Y-92145000D01*
X140870000Y-92145000D02*
X146170000Y-92145000D01*
X142520000Y-81865000D02*
X140870000Y-81865000D01*
X146170000Y-81865000D02*
X144520000Y-81865000D01*
X146170000Y-92145000D02*
X146170000Y-81865000D01*
X148660000Y-81805000D02*
X138380000Y-81805000D01*
X148660000Y-92205000D02*
X148660000Y-81805000D01*
X144520000Y-81865000D02*
G75*
G02*
X142520000Y-81865000I-1000000J0D01*
G01*
X130710000Y-126270000D02*
X130710000Y-132810000D01*
X130710000Y-132810000D02*
X133450000Y-132810000D01*
X132080000Y-125500000D02*
X132080000Y-126270000D01*
X132080000Y-133580000D02*
X132080000Y-132810000D01*
X133450000Y-126270000D02*
X130710000Y-126270000D01*
X133450000Y-132810000D02*
X133450000Y-126270000D01*
X149680000Y-81735000D02*
X152580000Y-81735000D01*
X149680000Y-84635000D02*
X149680000Y-81735000D01*
X152580000Y-81735000D02*
X152580000Y-84635000D01*
X152580000Y-84635000D02*
X149680000Y-84635000D01*
X149680000Y-88720000D02*
X152580000Y-88720000D01*
X149680000Y-91620000D02*
X149680000Y-88720000D01*
X152580000Y-88720000D02*
X152580000Y-91620000D01*
X152580000Y-91620000D02*
X149680000Y-91620000D01*
X130630000Y-154760000D02*
X133530000Y-154760000D01*
X130630000Y-157660000D02*
X130630000Y-154760000D01*
X133530000Y-154760000D02*
X133530000Y-157660000D01*
X133530000Y-157660000D02*
X130630000Y-157660000D01*
X140740000Y-70485000D02*
X141510000Y-70485000D01*
X141510000Y-69115000D02*
X141510000Y-71855000D01*
X141510000Y-71855000D02*
X148050000Y-71855000D01*
X148050000Y-69115000D02*
X141510000Y-69115000D01*
X148050000Y-71855000D02*
X148050000Y-69115000D01*
X148820000Y-70485000D02*
X148050000Y-70485000D01*
X122960000Y-120650000D02*
X123730000Y-120650000D01*
X123730000Y-119280000D02*
X123730000Y-122020000D01*
X123730000Y-122020000D02*
X130270000Y-122020000D01*
X130270000Y-119280000D02*
X123730000Y-119280000D01*
X130270000Y-122020000D02*
X130270000Y-119280000D01*
X131040000Y-120650000D02*
X130270000Y-120650000D01*
X138700000Y-136105000D02*
X138700000Y-136090000D01*
X138700000Y-138230000D02*
X138700000Y-138215000D01*
X143240000Y-136090000D02*
X138700000Y-136090000D01*
X143240000Y-136105000D02*
X143240000Y-136090000D01*
X143240000Y-138230000D02*
X138700000Y-138230000D01*
X143240000Y-138230000D02*
X143240000Y-138215000D01*
X120420000Y-66675000D02*
X123610000Y-66675000D01*
X123610000Y-65555000D02*
X123610000Y-67795000D01*
X123610000Y-67795000D02*
X127850000Y-67795000D01*
X124210000Y-65555000D02*
X124210000Y-67795000D01*
X124330000Y-65555000D02*
X124330000Y-67795000D01*
X124450000Y-65555000D02*
X124450000Y-67795000D01*
X127850000Y-65555000D02*
X123610000Y-65555000D01*
X127850000Y-67795000D02*
X127850000Y-65555000D01*
X131040000Y-66675000D02*
X127850000Y-66675000D01*
X123519759Y-108016000D02*
X124149759Y-108016000D01*
X123834759Y-107701000D02*
X123834759Y-108331000D01*
X127020000Y-106625000D02*
X127020000Y-113085000D01*
X127060000Y-106625000D02*
X127060000Y-113085000D01*
X127100000Y-106625000D02*
X127100000Y-113085000D01*
X127140000Y-106627000D02*
X127140000Y-113083000D01*
X127180000Y-106628000D02*
X127180000Y-113082000D01*
X127220000Y-106631000D02*
X127220000Y-113079000D01*
X127260000Y-106633000D02*
X127260000Y-108815000D01*
X127260000Y-110895000D02*
X127260000Y-113077000D01*
X127300000Y-106637000D02*
X127300000Y-108815000D01*
X127300000Y-110895000D02*
X127300000Y-113073000D01*
X127340000Y-106640000D02*
X127340000Y-108815000D01*
X127340000Y-110895000D02*
X127340000Y-113070000D01*
X127380000Y-106644000D02*
X127380000Y-108815000D01*
X127380000Y-110895000D02*
X127380000Y-113066000D01*
X127420000Y-106649000D02*
X127420000Y-108815000D01*
X127420000Y-110895000D02*
X127420000Y-113061000D01*
X127460000Y-106654000D02*
X127460000Y-108815000D01*
X127460000Y-110895000D02*
X127460000Y-113056000D01*
X127500000Y-106660000D02*
X127500000Y-108815000D01*
X127500000Y-110895000D02*
X127500000Y-113050000D01*
X127540000Y-106666000D02*
X127540000Y-108815000D01*
X127540000Y-110895000D02*
X127540000Y-113044000D01*
X127580000Y-106673000D02*
X127580000Y-108815000D01*
X127580000Y-110895000D02*
X127580000Y-113037000D01*
X127620000Y-106680000D02*
X127620000Y-108815000D01*
X127620000Y-110895000D02*
X127620000Y-113030000D01*
X127660000Y-106688000D02*
X127660000Y-108815000D01*
X127660000Y-110895000D02*
X127660000Y-113022000D01*
X127700000Y-106696000D02*
X127700000Y-108815000D01*
X127700000Y-110895000D02*
X127700000Y-113014000D01*
X127741000Y-106705000D02*
X127741000Y-108815000D01*
X127741000Y-110895000D02*
X127741000Y-113005000D01*
X127781000Y-106714000D02*
X127781000Y-108815000D01*
X127781000Y-110895000D02*
X127781000Y-112996000D01*
X127821000Y-106724000D02*
X127821000Y-108815000D01*
X127821000Y-110895000D02*
X127821000Y-112986000D01*
X127861000Y-106734000D02*
X127861000Y-108815000D01*
X127861000Y-110895000D02*
X127861000Y-112976000D01*
X127901000Y-106745000D02*
X127901000Y-108815000D01*
X127901000Y-110895000D02*
X127901000Y-112965000D01*
X127941000Y-106757000D02*
X127941000Y-108815000D01*
X127941000Y-110895000D02*
X127941000Y-112953000D01*
X127981000Y-106769000D02*
X127981000Y-108815000D01*
X127981000Y-110895000D02*
X127981000Y-112941000D01*
X128021000Y-106781000D02*
X128021000Y-108815000D01*
X128021000Y-110895000D02*
X128021000Y-112929000D01*
X128061000Y-106794000D02*
X128061000Y-108815000D01*
X128061000Y-110895000D02*
X128061000Y-112916000D01*
X128101000Y-106808000D02*
X128101000Y-108815000D01*
X128101000Y-110895000D02*
X128101000Y-112902000D01*
X128141000Y-106822000D02*
X128141000Y-108815000D01*
X128141000Y-110895000D02*
X128141000Y-112888000D01*
X128181000Y-106837000D02*
X128181000Y-108815000D01*
X128181000Y-110895000D02*
X128181000Y-112873000D01*
X128221000Y-106853000D02*
X128221000Y-108815000D01*
X128221000Y-110895000D02*
X128221000Y-112857000D01*
X128261000Y-106869000D02*
X128261000Y-108815000D01*
X128261000Y-110895000D02*
X128261000Y-112841000D01*
X128301000Y-106885000D02*
X128301000Y-108815000D01*
X128301000Y-110895000D02*
X128301000Y-112825000D01*
X128341000Y-106903000D02*
X128341000Y-108815000D01*
X128341000Y-110895000D02*
X128341000Y-112807000D01*
X128381000Y-106921000D02*
X128381000Y-108815000D01*
X128381000Y-110895000D02*
X128381000Y-112789000D01*
X128421000Y-106939000D02*
X128421000Y-108815000D01*
X128421000Y-110895000D02*
X128421000Y-112771000D01*
X128461000Y-106959000D02*
X128461000Y-108815000D01*
X128461000Y-110895000D02*
X128461000Y-112751000D01*
X128501000Y-106979000D02*
X128501000Y-108815000D01*
X128501000Y-110895000D02*
X128501000Y-112731000D01*
X128541000Y-106999000D02*
X128541000Y-108815000D01*
X128541000Y-110895000D02*
X128541000Y-112711000D01*
X128581000Y-107021000D02*
X128581000Y-108815000D01*
X128581000Y-110895000D02*
X128581000Y-112689000D01*
X128621000Y-107043000D02*
X128621000Y-108815000D01*
X128621000Y-110895000D02*
X128621000Y-112667000D01*
X128661000Y-107065000D02*
X128661000Y-108815000D01*
X128661000Y-110895000D02*
X128661000Y-112645000D01*
X128701000Y-107089000D02*
X128701000Y-108815000D01*
X128701000Y-110895000D02*
X128701000Y-112621000D01*
X128741000Y-107113000D02*
X128741000Y-108815000D01*
X128741000Y-110895000D02*
X128741000Y-112597000D01*
X128781000Y-107139000D02*
X128781000Y-108815000D01*
X128781000Y-110895000D02*
X128781000Y-112571000D01*
X128821000Y-107165000D02*
X128821000Y-108815000D01*
X128821000Y-110895000D02*
X128821000Y-112545000D01*
X128861000Y-107191000D02*
X128861000Y-108815000D01*
X128861000Y-110895000D02*
X128861000Y-112519000D01*
X128901000Y-107219000D02*
X128901000Y-108815000D01*
X128901000Y-110895000D02*
X128901000Y-112491000D01*
X128941000Y-107248000D02*
X128941000Y-108815000D01*
X128941000Y-110895000D02*
X128941000Y-112462000D01*
X128981000Y-107277000D02*
X128981000Y-108815000D01*
X128981000Y-110895000D02*
X128981000Y-112433000D01*
X129021000Y-107307000D02*
X129021000Y-108815000D01*
X129021000Y-110895000D02*
X129021000Y-112403000D01*
X129061000Y-107339000D02*
X129061000Y-108815000D01*
X129061000Y-110895000D02*
X129061000Y-112371000D01*
X129101000Y-107371000D02*
X129101000Y-108815000D01*
X129101000Y-110895000D02*
X129101000Y-112339000D01*
X129141000Y-107405000D02*
X129141000Y-108815000D01*
X129141000Y-110895000D02*
X129141000Y-112305000D01*
X129181000Y-107439000D02*
X129181000Y-108815000D01*
X129181000Y-110895000D02*
X129181000Y-112271000D01*
X129221000Y-107475000D02*
X129221000Y-108815000D01*
X129221000Y-110895000D02*
X129221000Y-112235000D01*
X129261000Y-107512000D02*
X129261000Y-108815000D01*
X129261000Y-110895000D02*
X129261000Y-112198000D01*
X129301000Y-107550000D02*
X129301000Y-108815000D01*
X129301000Y-110895000D02*
X129301000Y-112160000D01*
X129341000Y-107590000D02*
X129341000Y-112120000D01*
X129381000Y-107631000D02*
X129381000Y-112079000D01*
X129421000Y-107673000D02*
X129421000Y-112037000D01*
X129461000Y-107718000D02*
X129461000Y-111992000D01*
X129501000Y-107763000D02*
X129501000Y-111947000D01*
X129541000Y-107811000D02*
X129541000Y-111899000D01*
X129581000Y-107860000D02*
X129581000Y-111850000D01*
X129621000Y-107911000D02*
X129621000Y-111799000D01*
X129661000Y-107965000D02*
X129661000Y-111745000D01*
X129701000Y-108021000D02*
X129701000Y-111689000D01*
X129741000Y-108079000D02*
X129741000Y-111631000D01*
X129781000Y-108141000D02*
X129781000Y-111569000D01*
X129821000Y-108205000D02*
X129821000Y-111505000D01*
X129861000Y-108274000D02*
X129861000Y-111436000D01*
X129901000Y-108346000D02*
X129901000Y-111364000D01*
X129941000Y-108423000D02*
X129941000Y-111287000D01*
X129981000Y-108505000D02*
X129981000Y-111205000D01*
X130021000Y-108593000D02*
X130021000Y-111117000D01*
X130061000Y-108690000D02*
X130061000Y-111020000D01*
X130101000Y-108796000D02*
X130101000Y-110914000D01*
X130141000Y-108915000D02*
X130141000Y-110795000D01*
X130181000Y-109053000D02*
X130181000Y-110657000D01*
X130221000Y-109222000D02*
X130221000Y-110488000D01*
X130261000Y-109453000D02*
X130261000Y-110257000D01*
X130290000Y-109855000D02*
G75*
G02*
X123750000Y-109855000I-3270000J0D01*
G01*
X123750000Y-109855000D02*
G75*
G02*
X130290000Y-109855000I3270000J0D01*
G01*
D15*
X104060000Y-86715600D02*
X104060000Y-93624400D01*
X104060000Y-93624400D02*
X107870000Y-93624400D01*
X107870000Y-86715600D02*
X104060000Y-86715600D01*
X107870000Y-93624400D02*
X107870000Y-86715600D01*
D16*
X105711000Y-94259400D02*
G75*
G02*
X104949000Y-94259400I-381000J0D01*
G01*
X104949000Y-94259400D02*
G75*
G02*
X105711000Y-94259400I381000J0D01*
G01*
D14*
X144010000Y-76040000D02*
X144010000Y-75415000D01*
X144010000Y-78255000D02*
X144010000Y-77630000D01*
X148050000Y-75415000D02*
X144010000Y-75415000D01*
X148050000Y-76040000D02*
X148050000Y-75415000D01*
X148050000Y-78255000D02*
X144010000Y-78255000D01*
X148050000Y-78255000D02*
X148050000Y-77630000D01*
X104490000Y-119365000D02*
X104490000Y-123205000D01*
X104490000Y-123205000D02*
X106330000Y-123205000D01*
X105410000Y-118415000D02*
X105410000Y-119365000D01*
X105410000Y-124155000D02*
X105410000Y-123205000D01*
X106330000Y-119365000D02*
X104490000Y-119365000D01*
X106330000Y-123205000D02*
X106330000Y-119365000D01*
%LPC*%
D18*
X132080000Y-142240000D03*
D19*
X138430000Y-148767800D03*
D20*
X134620000Y-147040600D03*
X142240000Y-150495000D03*
D18*
X132080000Y-62865000D03*
D21*
X105490000Y-100330000D03*
X110490000Y-100330000D03*
D22*
X116840000Y-123056600D03*
X116840000Y-120316600D03*
X116840000Y-117576601D03*
X116840000Y-114836601D03*
X116840000Y-112096602D03*
X114300000Y-121686600D03*
X114300000Y-118946601D03*
X114300000Y-116206601D03*
X114300000Y-113466601D03*
D23*
X115570000Y-105081602D03*
X115570000Y-130071600D03*
D24*
X125730000Y-128270000D03*
D25*
X123190000Y-128270000D03*
D26*
X140330000Y-64770000D03*
D25*
X142870000Y-64770000D03*
D27*
X143189888Y-141605000D03*
D21*
X145189888Y-141605000D03*
X136525000Y-88265000D03*
D28*
X136525000Y-78105000D03*
D29*
X149860000Y-127635000D03*
D30*
X149860000Y-135255000D03*
D29*
X109220000Y-120015000D03*
D30*
X109220000Y-127635000D03*
D21*
X116205000Y-70485000D03*
D28*
X106045000Y-70485000D03*
D27*
X112075000Y-78105000D03*
D28*
X112075000Y-80645000D03*
X112075000Y-83185000D03*
X112075000Y-85725000D03*
X112075000Y-88265000D03*
X112075000Y-90805000D03*
X112075000Y-93345000D03*
X112075000Y-95885000D03*
X119695000Y-95885000D03*
X119695000Y-93345000D03*
X119695000Y-90805000D03*
X119695000Y-88265000D03*
X119695000Y-85725000D03*
X119695000Y-83185000D03*
X119695000Y-80645000D03*
X119695000Y-78105000D03*
D21*
X121285000Y-112395000D03*
D28*
X121285000Y-102235000D03*
D21*
X139720000Y-97155000D03*
X142220000Y-97155000D03*
X135890000Y-69215000D03*
X135890000Y-74215000D03*
D27*
X135795000Y-109855000D03*
D21*
X137795000Y-109855000D03*
D31*
X129540000Y-116205000D03*
D28*
X121920000Y-116205000D03*
D21*
X132080000Y-69850000D03*
D28*
X121920000Y-69850000D03*
D21*
X139780000Y-93980000D03*
X144780000Y-93980000D03*
D27*
X136535000Y-118795000D03*
D28*
X136535000Y-121335000D03*
X136535000Y-123875000D03*
X136535000Y-126415000D03*
X144155000Y-126415000D03*
X144155000Y-123875000D03*
X144155000Y-121335000D03*
X144155000Y-118795000D03*
D29*
X132715000Y-113665000D03*
D30*
X132715000Y-106045000D03*
D18*
X149860000Y-140970000D03*
D32*
X103070000Y-138430000D03*
D33*
X128070000Y-138430000D03*
D18*
X125730000Y-74295000D03*
D34*
X146050000Y-105410000D03*
X148590000Y-105410000D03*
X146050000Y-107950000D03*
X148590000Y-107950000D03*
X146050000Y-110490000D03*
X148590000Y-110490000D03*
D35*
X147955000Y-59055000D03*
D36*
X138430000Y-133350000D03*
D37*
X140970000Y-133350000D03*
X143510000Y-133350000D03*
D38*
X107950000Y-146050000D03*
X113030000Y-146050000D03*
X118110000Y-146050000D03*
X123190000Y-146050000D03*
D39*
X105410000Y-148590000D03*
X125730000Y-148590000D03*
D40*
X110490000Y-156210000D03*
X120650000Y-156210000D03*
D26*
X111755000Y-64770000D03*
D25*
X114295000Y-64770000D03*
D35*
X103505000Y-59055000D03*
D18*
X138430000Y-156210000D03*
X144780000Y-156210000D03*
D21*
X147280000Y-80010000D03*
X142280000Y-80010000D03*
X147955000Y-118785000D03*
X147955000Y-123785000D03*
D27*
X125095000Y-78105000D03*
D28*
X125095000Y-80645000D03*
X125095000Y-83185000D03*
X125095000Y-85725000D03*
X125095000Y-88265000D03*
X125095000Y-90805000D03*
X125095000Y-93345000D03*
X125095000Y-95885000D03*
X132715000Y-95885000D03*
X132715000Y-93345000D03*
X132715000Y-90805000D03*
X132715000Y-88265000D03*
X132715000Y-85725000D03*
X132715000Y-83185000D03*
X132715000Y-80645000D03*
X132715000Y-78105000D03*
D18*
X119380000Y-74295000D03*
D27*
X139710000Y-83195000D03*
D28*
X139710000Y-85735000D03*
X139710000Y-88275000D03*
X139710000Y-90815000D03*
X147330000Y-90815000D03*
X147330000Y-88275000D03*
X147330000Y-85735000D03*
X147330000Y-83195000D03*
D21*
X132080000Y-124460000D03*
D28*
X132080000Y-134620000D03*
D18*
X151130000Y-83185000D03*
X151130000Y-90170000D03*
X132080000Y-156210000D03*
D21*
X149860000Y-70485000D03*
D28*
X139700000Y-70485000D03*
D21*
X121920000Y-120650000D03*
D28*
X132080000Y-120650000D03*
D21*
X143470000Y-137160000D03*
X138470000Y-137160000D03*
D27*
X119380000Y-66675000D03*
D28*
X132080000Y-66675000D03*
D27*
X125770000Y-109855000D03*
D21*
X128270000Y-109855000D03*
D41*
X105330000Y-92710000D03*
X106600000Y-92710000D03*
X105330000Y-91440000D03*
X106600000Y-91440000D03*
X105330000Y-90170000D03*
X106600000Y-90170000D03*
X105330000Y-88900000D03*
X106600000Y-88900000D03*
X105330000Y-87630000D03*
X106600000Y-87630000D03*
D21*
X147280000Y-76835000D03*
X144780000Y-76835000D03*
D29*
X105410000Y-117475000D03*
D30*
X105410000Y-125095000D03*
D42*
X149835000Y-158750000D03*
D43*
X149835000Y-156210000D03*
X149835000Y-153670000D03*
X149835000Y-151130000D03*
X149835000Y-148590000D03*
X149835000Y-146050000D03*
%LPD*%
M02*
