%TF.GenerationSoftware,KiCad,Pcbnew,8.0.3*%
%TF.CreationDate,2024-08-19T01:24:25-04:00*%
%TF.ProjectId,smoke-detector-interface,736d6f6b-652d-4646-9574-6563746f722d,rev?*%
%TF.SameCoordinates,Original*%
%TF.FileFunction,Drillmap*%
%TF.FilePolarity,Positive*%
%FSLAX45Y45*%
G04 Gerber Fmt 4.5, Leading zero omitted, Abs format (unit mm)*
G04 Created by KiCad (PCBNEW 8.0.3) date 2024-08-19 01:24:25*
%MOMM*%
%LPD*%
G01*
G04 APERTURE LIST*
%ADD10C,0.050000*%
%ADD11C,0.200000*%
%ADD12C,0.100000*%
%ADD13C,0.110000*%
%ADD14C,0.114300*%
%ADD15C,0.120000*%
%ADD16C,0.127000*%
%ADD17C,0.152400*%
%ADD18C,0.254000*%
%ADD19C,0.335280*%
%ADD20C,0.406400*%
G04 APERTURE END LIST*
D10*
X15367000Y-5588000D02*
X15367000Y-15748000D01*
X15113000Y-16002000D01*
X10033000Y-16002000D01*
X9779000Y-15748000D01*
X9779000Y-5588000D01*
X10033000Y-5334000D01*
X15113000Y-5334000D01*
X15367000Y-5588000D01*
D11*
D12*
X10499980Y-8729980D02*
X10566020Y-8796020D01*
X10566020Y-8729980D02*
X10499980Y-8796020D01*
X10499980Y-8856980D02*
X10566020Y-8923020D01*
X10566020Y-8856980D02*
X10499980Y-8923020D01*
X10499980Y-8983980D02*
X10566020Y-9050020D01*
X10566020Y-8983980D02*
X10499980Y-9050020D01*
X10499980Y-9110980D02*
X10566020Y-9177020D01*
X10566020Y-9110980D02*
X10499980Y-9177020D01*
X10499980Y-9237980D02*
X10566020Y-9304020D01*
X10566020Y-9237980D02*
X10499980Y-9304020D01*
X10626980Y-8729980D02*
X10693020Y-8796020D01*
X10693020Y-8729980D02*
X10626980Y-8796020D01*
X10626980Y-8856980D02*
X10693020Y-8923020D01*
X10693020Y-8856980D02*
X10626980Y-8923020D01*
X10626980Y-8983980D02*
X10693020Y-9050020D01*
X10693020Y-8983980D02*
X10626980Y-9050020D01*
X10626980Y-9110980D02*
X10693020Y-9177020D01*
X10693020Y-9110980D02*
X10626980Y-9177020D01*
X10626980Y-9237980D02*
X10693020Y-9304020D01*
X10693020Y-9237980D02*
X10626980Y-9304020D01*
X10576000Y-11747500D02*
G75*
G02*
X10506000Y-11747500I-35000J0D01*
G01*
X10506000Y-11747500D02*
G75*
G02*
X10576000Y-11747500I35000J0D01*
G01*
X10576000Y-12509500D02*
G75*
G02*
X10506000Y-12509500I-35000J0D01*
G01*
X10506000Y-12509500D02*
G75*
G02*
X10576000Y-12509500I35000J0D01*
G01*
X10957000Y-12001500D02*
G75*
G02*
X10887000Y-12001500I-35000J0D01*
G01*
X10887000Y-12001500D02*
G75*
G02*
X10957000Y-12001500I35000J0D01*
G01*
X10957000Y-12763500D02*
G75*
G02*
X10887000Y-12763500I-35000J0D01*
G01*
X10887000Y-12763500D02*
G75*
G02*
X10957000Y-12763500I35000J0D01*
G01*
X13306500Y-10604500D02*
G75*
G02*
X13236500Y-10604500I-35000J0D01*
G01*
X13236500Y-10604500D02*
G75*
G02*
X13306500Y-10604500I35000J0D01*
G01*
X13306500Y-11366500D02*
G75*
G02*
X13236500Y-11366500I-35000J0D01*
G01*
X13236500Y-11366500D02*
G75*
G02*
X13306500Y-11366500I35000J0D01*
G01*
X15021000Y-12763500D02*
G75*
G02*
X14951000Y-12763500I-35000J0D01*
G01*
X14951000Y-12763500D02*
G75*
G02*
X15021000Y-12763500I35000J0D01*
G01*
X15021000Y-13525500D02*
G75*
G02*
X14951000Y-13525500I-35000J0D01*
G01*
X14951000Y-13525500D02*
G75*
G02*
X15021000Y-13525500I35000J0D01*
G01*
X10549000Y-9993000D02*
X10549000Y-10073000D01*
X10509000Y-10033000D02*
X10589000Y-10033000D01*
X10604500Y-7008500D02*
X10604500Y-7088500D01*
X10564500Y-7048500D02*
X10644500Y-7048500D01*
X11049000Y-9993000D02*
X11049000Y-10073000D01*
X11009000Y-10033000D02*
X11089000Y-10033000D01*
X11207500Y-7770500D02*
X11207500Y-7850500D01*
X11167500Y-7810500D02*
X11247500Y-7810500D01*
X11207500Y-8024500D02*
X11207500Y-8104500D01*
X11167500Y-8064500D02*
X11247500Y-8064500D01*
X11207500Y-8278500D02*
X11207500Y-8358500D01*
X11167500Y-8318500D02*
X11247500Y-8318500D01*
X11207500Y-8532500D02*
X11207500Y-8612500D01*
X11167500Y-8572500D02*
X11247500Y-8572500D01*
X11207500Y-8786500D02*
X11207500Y-8866500D01*
X11167500Y-8826500D02*
X11247500Y-8826500D01*
X11207500Y-9040500D02*
X11207500Y-9120500D01*
X11167500Y-9080500D02*
X11247500Y-9080500D01*
X11207500Y-9294500D02*
X11207500Y-9374500D01*
X11167500Y-9334500D02*
X11247500Y-9334500D01*
X11207500Y-9548500D02*
X11207500Y-9628500D01*
X11167500Y-9588500D02*
X11247500Y-9588500D01*
X11620500Y-7008500D02*
X11620500Y-7088500D01*
X11580500Y-7048500D02*
X11660500Y-7048500D01*
X11938000Y-6627500D02*
X11938000Y-6707500D01*
X11898000Y-6667500D02*
X11978000Y-6667500D01*
X11969500Y-7770500D02*
X11969500Y-7850500D01*
X11929500Y-7810500D02*
X12009500Y-7810500D01*
X11969500Y-8024500D02*
X11969500Y-8104500D01*
X11929500Y-8064500D02*
X12009500Y-8064500D01*
X11969500Y-8278500D02*
X11969500Y-8358500D01*
X11929500Y-8318500D02*
X12009500Y-8318500D01*
X11969500Y-8532500D02*
X11969500Y-8612500D01*
X11929500Y-8572500D02*
X12009500Y-8572500D01*
X11969500Y-8786500D02*
X11969500Y-8866500D01*
X11929500Y-8826500D02*
X12009500Y-8826500D01*
X11969500Y-9040500D02*
X11969500Y-9120500D01*
X11929500Y-9080500D02*
X12009500Y-9080500D01*
X11969500Y-9294500D02*
X11969500Y-9374500D01*
X11929500Y-9334500D02*
X12009500Y-9334500D01*
X11969500Y-9548500D02*
X11969500Y-9628500D01*
X11929500Y-9588500D02*
X12009500Y-9588500D01*
X12128500Y-10183500D02*
X12128500Y-10263500D01*
X12088500Y-10223500D02*
X12168500Y-10223500D01*
X12128500Y-11199500D02*
X12128500Y-11279500D01*
X12088500Y-11239500D02*
X12168500Y-11239500D01*
X12192000Y-6945000D02*
X12192000Y-7025000D01*
X12152000Y-6985000D02*
X12232000Y-6985000D01*
X12192000Y-11580500D02*
X12192000Y-11660500D01*
X12152000Y-11620500D02*
X12232000Y-11620500D01*
X12192000Y-12025000D02*
X12192000Y-12105000D01*
X12152000Y-12065000D02*
X12232000Y-12065000D01*
X12509500Y-7770500D02*
X12509500Y-7850500D01*
X12469500Y-7810500D02*
X12549500Y-7810500D01*
X12509500Y-8024500D02*
X12509500Y-8104500D01*
X12469500Y-8064500D02*
X12549500Y-8064500D01*
X12509500Y-8278500D02*
X12509500Y-8358500D01*
X12469500Y-8318500D02*
X12549500Y-8318500D01*
X12509500Y-8532500D02*
X12509500Y-8612500D01*
X12469500Y-8572500D02*
X12549500Y-8572500D01*
X12509500Y-8786500D02*
X12509500Y-8866500D01*
X12469500Y-8826500D02*
X12549500Y-8826500D01*
X12509500Y-9040500D02*
X12509500Y-9120500D01*
X12469500Y-9080500D02*
X12549500Y-9080500D01*
X12509500Y-9294500D02*
X12509500Y-9374500D01*
X12469500Y-9334500D02*
X12549500Y-9334500D01*
X12509500Y-9548500D02*
X12509500Y-9628500D01*
X12469500Y-9588500D02*
X12549500Y-9588500D01*
X12577000Y-10945500D02*
X12577000Y-11025500D01*
X12537000Y-10985500D02*
X12617000Y-10985500D01*
X12827000Y-10945500D02*
X12827000Y-11025500D01*
X12787000Y-10985500D02*
X12867000Y-10985500D01*
X12954000Y-11580500D02*
X12954000Y-11660500D01*
X12914000Y-11620500D02*
X12994000Y-11620500D01*
X13208000Y-6627500D02*
X13208000Y-6707500D01*
X13168000Y-6667500D02*
X13248000Y-6667500D01*
X13208000Y-6945000D02*
X13208000Y-7025000D01*
X13168000Y-6985000D02*
X13248000Y-6985000D01*
X13208000Y-12025000D02*
X13208000Y-12105000D01*
X13168000Y-12065000D02*
X13248000Y-12065000D01*
X13208000Y-12406000D02*
X13208000Y-12486000D01*
X13168000Y-12446000D02*
X13248000Y-12446000D01*
X13208000Y-13422000D02*
X13208000Y-13502000D01*
X13168000Y-13462000D02*
X13248000Y-13462000D01*
X13271500Y-7770500D02*
X13271500Y-7850500D01*
X13231500Y-7810500D02*
X13311500Y-7810500D01*
X13271500Y-8024500D02*
X13271500Y-8104500D01*
X13231500Y-8064500D02*
X13311500Y-8064500D01*
X13271500Y-8278500D02*
X13271500Y-8358500D01*
X13231500Y-8318500D02*
X13311500Y-8318500D01*
X13271500Y-8532500D02*
X13271500Y-8612500D01*
X13231500Y-8572500D02*
X13311500Y-8572500D01*
X13271500Y-8786500D02*
X13271500Y-8866500D01*
X13231500Y-8826500D02*
X13311500Y-8826500D01*
X13271500Y-9040500D02*
X13271500Y-9120500D01*
X13231500Y-9080500D02*
X13311500Y-9080500D01*
X13271500Y-9294500D02*
X13271500Y-9374500D01*
X13231500Y-9334500D02*
X13311500Y-9334500D01*
X13271500Y-9548500D02*
X13271500Y-9628500D01*
X13231500Y-9588500D02*
X13311500Y-9588500D01*
X13579500Y-10945500D02*
X13579500Y-11025500D01*
X13539500Y-10985500D02*
X13619500Y-10985500D01*
X13589000Y-6881500D02*
X13589000Y-6961500D01*
X13549000Y-6921500D02*
X13629000Y-6921500D01*
X13589000Y-7381500D02*
X13589000Y-7461500D01*
X13549000Y-7421500D02*
X13629000Y-7421500D01*
X13652500Y-7770500D02*
X13652500Y-7850500D01*
X13612500Y-7810500D02*
X13692500Y-7810500D01*
X13652500Y-8786500D02*
X13652500Y-8866500D01*
X13612500Y-8826500D02*
X13692500Y-8826500D01*
X13653500Y-11839500D02*
X13653500Y-11919500D01*
X13613500Y-11879500D02*
X13693500Y-11879500D01*
X13653500Y-12093500D02*
X13653500Y-12173500D01*
X13613500Y-12133500D02*
X13693500Y-12133500D01*
X13653500Y-12347500D02*
X13653500Y-12427500D01*
X13613500Y-12387500D02*
X13693500Y-12387500D01*
X13653500Y-12601500D02*
X13653500Y-12681500D01*
X13613500Y-12641500D02*
X13693500Y-12641500D01*
X13779500Y-10945500D02*
X13779500Y-11025500D01*
X13739500Y-10985500D02*
X13819500Y-10985500D01*
X13847000Y-13676000D02*
X13847000Y-13756000D01*
X13807000Y-13716000D02*
X13887000Y-13716000D01*
X13970000Y-7008500D02*
X13970000Y-7088500D01*
X13930000Y-7048500D02*
X14010000Y-7048500D01*
X13971000Y-8279500D02*
X13971000Y-8359500D01*
X13931000Y-8319500D02*
X14011000Y-8319500D01*
X13971000Y-8533500D02*
X13971000Y-8613500D01*
X13931000Y-8573500D02*
X14011000Y-8573500D01*
X13971000Y-8787500D02*
X13971000Y-8867500D01*
X13931000Y-8827500D02*
X14011000Y-8827500D01*
X13971000Y-9041500D02*
X13971000Y-9121500D01*
X13931000Y-9081500D02*
X14011000Y-9081500D01*
X13972000Y-9675500D02*
X13972000Y-9755500D01*
X13932000Y-9715500D02*
X14012000Y-9715500D01*
X13978000Y-9358000D02*
X13978000Y-9438000D01*
X13938000Y-9398000D02*
X14018000Y-9398000D01*
X14222000Y-9675500D02*
X14222000Y-9755500D01*
X14182000Y-9715500D02*
X14262000Y-9715500D01*
X14228000Y-7961000D02*
X14228000Y-8041000D01*
X14188000Y-8001000D02*
X14268000Y-8001000D01*
X14318989Y-14120500D02*
X14318989Y-14200500D01*
X14278989Y-14160500D02*
X14358989Y-14160500D01*
X14347000Y-13676000D02*
X14347000Y-13756000D01*
X14307000Y-13716000D02*
X14387000Y-13716000D01*
X14415500Y-11839500D02*
X14415500Y-11919500D01*
X14375500Y-11879500D02*
X14455500Y-11879500D01*
X14415500Y-12093500D02*
X14415500Y-12173500D01*
X14375500Y-12133500D02*
X14455500Y-12133500D01*
X14415500Y-12347500D02*
X14415500Y-12427500D01*
X14375500Y-12387500D02*
X14455500Y-12387500D01*
X14415500Y-12601500D02*
X14415500Y-12681500D01*
X14375500Y-12641500D02*
X14455500Y-12641500D01*
X14478000Y-7643500D02*
X14478000Y-7723500D01*
X14438000Y-7683500D02*
X14518000Y-7683500D01*
X14478000Y-9358000D02*
X14478000Y-9438000D01*
X14438000Y-9398000D02*
X14518000Y-9398000D01*
X14518989Y-14120500D02*
X14518989Y-14200500D01*
X14478989Y-14160500D02*
X14558989Y-14160500D01*
X14728000Y-7643500D02*
X14728000Y-7723500D01*
X14688000Y-7683500D02*
X14768000Y-7683500D01*
X14728000Y-7961000D02*
X14728000Y-8041000D01*
X14688000Y-8001000D02*
X14768000Y-8001000D01*
X14733000Y-8279500D02*
X14733000Y-8359500D01*
X14693000Y-8319500D02*
X14773000Y-8319500D01*
X14733000Y-8533500D02*
X14733000Y-8613500D01*
X14693000Y-8573500D02*
X14773000Y-8573500D01*
X14733000Y-8787500D02*
X14733000Y-8867500D01*
X14693000Y-8827500D02*
X14773000Y-8827500D01*
X14733000Y-9041500D02*
X14733000Y-9121500D01*
X14693000Y-9081500D02*
X14773000Y-9081500D01*
X14795500Y-11838500D02*
X14795500Y-11918500D01*
X14755500Y-11878500D02*
X14835500Y-11878500D01*
X14795500Y-12338500D02*
X14795500Y-12418500D01*
X14755500Y-12378500D02*
X14835500Y-12378500D01*
X14986000Y-7008500D02*
X14986000Y-7088500D01*
X14946000Y-7048500D02*
X15026000Y-7048500D01*
X11207320Y-6508820D02*
X11207320Y-6445180D01*
X11143680Y-6445180D01*
X11143680Y-6508820D01*
X11207320Y-6508820D01*
X11461320Y-6508820D02*
X11461320Y-6445180D01*
X11397680Y-6445180D01*
X11397680Y-6508820D01*
X11461320Y-6508820D01*
X12350820Y-12858820D02*
X12350820Y-12795180D01*
X12287180Y-12795180D01*
X12287180Y-12858820D01*
X12350820Y-12858820D01*
X12604820Y-12858820D02*
X12604820Y-12795180D01*
X12541180Y-12795180D01*
X12541180Y-12858820D01*
X12604820Y-12858820D01*
X14064820Y-6508820D02*
X14064820Y-6445180D01*
X14001180Y-6445180D01*
X14001180Y-6508820D01*
X14064820Y-6508820D01*
X14318820Y-6508820D02*
X14318820Y-6445180D01*
X14255180Y-6445180D01*
X14255180Y-6508820D01*
X14318820Y-6508820D01*
X14983500Y-14655000D02*
X15033500Y-14605000D01*
X14983500Y-14555000D01*
X14933500Y-14605000D01*
X14983500Y-14655000D01*
X14983500Y-14909000D02*
X15033500Y-14859000D01*
X14983500Y-14809000D01*
X14933500Y-14859000D01*
X14983500Y-14909000D01*
X14983500Y-15163000D02*
X15033500Y-15113000D01*
X14983500Y-15063000D01*
X14933500Y-15113000D01*
X14983500Y-15163000D01*
X14983500Y-15417000D02*
X15033500Y-15367000D01*
X14983500Y-15317000D01*
X14933500Y-15367000D01*
X14983500Y-15417000D01*
X14983500Y-15671000D02*
X15033500Y-15621000D01*
X14983500Y-15571000D01*
X14933500Y-15621000D01*
X14983500Y-15671000D01*
X14983500Y-15925000D02*
X15033500Y-15875000D01*
X14983500Y-15825000D01*
X14933500Y-15875000D01*
X14983500Y-15925000D01*
D13*
X13788000Y-13280000D02*
X13898000Y-13390000D01*
X13898000Y-13280000D02*
X13788000Y-13390000D01*
X13898000Y-13335000D02*
G75*
G02*
X13788000Y-13335000I-55000J0D01*
G01*
X13788000Y-13335000D02*
G75*
G02*
X13898000Y-13335000I55000J0D01*
G01*
X14042000Y-13280000D02*
X14152000Y-13390000D01*
X14152000Y-13280000D02*
X14042000Y-13390000D01*
X14152000Y-13335000D02*
G75*
G02*
X14042000Y-13335000I-55000J0D01*
G01*
X14042000Y-13335000D02*
G75*
G02*
X14152000Y-13335000I55000J0D01*
G01*
X14296000Y-13280000D02*
X14406000Y-13390000D01*
X14406000Y-13280000D02*
X14296000Y-13390000D01*
X14406000Y-13335000D02*
G75*
G02*
X14296000Y-13335000I-55000J0D01*
G01*
X14296000Y-13335000D02*
G75*
G02*
X14406000Y-13335000I55000J0D01*
G01*
X14550000Y-10486000D02*
X14660000Y-10596000D01*
X14660000Y-10486000D02*
X14550000Y-10596000D01*
X14660000Y-10541000D02*
G75*
G02*
X14550000Y-10541000I-55000J0D01*
G01*
X14550000Y-10541000D02*
G75*
G02*
X14660000Y-10541000I55000J0D01*
G01*
X14550000Y-10740000D02*
X14660000Y-10850000D01*
X14660000Y-10740000D02*
X14550000Y-10850000D01*
X14660000Y-10795000D02*
G75*
G02*
X14550000Y-10795000I-55000J0D01*
G01*
X14550000Y-10795000D02*
G75*
G02*
X14660000Y-10795000I55000J0D01*
G01*
X14550000Y-10994000D02*
X14660000Y-11104000D01*
X14660000Y-10994000D02*
X14550000Y-11104000D01*
X14660000Y-11049000D02*
G75*
G02*
X14550000Y-11049000I-55000J0D01*
G01*
X14550000Y-11049000D02*
G75*
G02*
X14660000Y-11049000I55000J0D01*
G01*
X14804000Y-10486000D02*
X14914000Y-10596000D01*
X14914000Y-10486000D02*
X14804000Y-10596000D01*
X14914000Y-10541000D02*
G75*
G02*
X14804000Y-10541000I-55000J0D01*
G01*
X14804000Y-10541000D02*
G75*
G02*
X14914000Y-10541000I55000J0D01*
G01*
X14804000Y-10740000D02*
X14914000Y-10850000D01*
X14914000Y-10740000D02*
X14804000Y-10850000D01*
X14914000Y-10795000D02*
G75*
G02*
X14804000Y-10795000I-55000J0D01*
G01*
X14804000Y-10795000D02*
G75*
G02*
X14914000Y-10795000I55000J0D01*
G01*
X14804000Y-10994000D02*
X14914000Y-11104000D01*
X14914000Y-10994000D02*
X14804000Y-11104000D01*
X14914000Y-11049000D02*
G75*
G02*
X14804000Y-11049000I-55000J0D01*
G01*
X14804000Y-11049000D02*
G75*
G02*
X14914000Y-11049000I55000J0D01*
G01*
D14*
X11372850Y-11289510D02*
X11487150Y-11403810D01*
X11487150Y-11289510D02*
X11372850Y-11403810D01*
X11430000Y-11289510D02*
X11430000Y-11403810D01*
X11372850Y-11346660D02*
X11487150Y-11346660D01*
X11372850Y-11563510D02*
X11487150Y-11677810D01*
X11487150Y-11563510D02*
X11372850Y-11677810D01*
X11430000Y-11563510D02*
X11430000Y-11677810D01*
X11372850Y-11620660D02*
X11487150Y-11620660D01*
X11372850Y-11837510D02*
X11487150Y-11951810D01*
X11487150Y-11837510D02*
X11372850Y-11951810D01*
X11430000Y-11837510D02*
X11430000Y-11951810D01*
X11372850Y-11894660D02*
X11487150Y-11894660D01*
X11372850Y-12111510D02*
X11487150Y-12225810D01*
X11487150Y-12111510D02*
X11372850Y-12225810D01*
X11430000Y-12111510D02*
X11430000Y-12225810D01*
X11372850Y-12168660D02*
X11487150Y-12168660D01*
X11626850Y-11152510D02*
X11741150Y-11266810D01*
X11741150Y-11152510D02*
X11626850Y-11266810D01*
X11684000Y-11152510D02*
X11684000Y-11266810D01*
X11626850Y-11209660D02*
X11741150Y-11209660D01*
X11626850Y-11426510D02*
X11741150Y-11540810D01*
X11741150Y-11426510D02*
X11626850Y-11540810D01*
X11684000Y-11426510D02*
X11684000Y-11540810D01*
X11626850Y-11483660D02*
X11741150Y-11483660D01*
X11626850Y-11700510D02*
X11741150Y-11814810D01*
X11741150Y-11700510D02*
X11626850Y-11814810D01*
X11684000Y-11700510D02*
X11684000Y-11814810D01*
X11626850Y-11757660D02*
X11741150Y-11757660D01*
X11626850Y-11974510D02*
X11741150Y-12088810D01*
X11741150Y-11974510D02*
X11626850Y-12088810D01*
X11684000Y-11974510D02*
X11684000Y-12088810D01*
X11626850Y-12031660D02*
X11741150Y-12031660D01*
X11626850Y-12248510D02*
X11741150Y-12362810D01*
X11741150Y-12248510D02*
X11626850Y-12362810D01*
X11684000Y-12248510D02*
X11684000Y-12362810D01*
X11626850Y-12305660D02*
X11741150Y-12305660D01*
D15*
X10247000Y-13783000D02*
X10367000Y-13903000D01*
X10367000Y-13783000D02*
X10247000Y-13903000D01*
X10349427Y-13885427D02*
X10349427Y-13800573D01*
X10264573Y-13800573D01*
X10264573Y-13885427D01*
X10349427Y-13885427D01*
X11878000Y-7369500D02*
X11998000Y-7489500D01*
X11998000Y-7369500D02*
X11878000Y-7489500D01*
X11980427Y-7471927D02*
X11980427Y-7387073D01*
X11895573Y-7387073D01*
X11895573Y-7471927D01*
X11980427Y-7471927D01*
X12513000Y-7369500D02*
X12633000Y-7489500D01*
X12633000Y-7369500D02*
X12513000Y-7489500D01*
X12615427Y-7471927D02*
X12615427Y-7387073D01*
X12530573Y-7387073D01*
X12530573Y-7471927D01*
X12615427Y-7471927D01*
X12747000Y-13783000D02*
X12867000Y-13903000D01*
X12867000Y-13783000D02*
X12747000Y-13903000D01*
X12849427Y-13885427D02*
X12849427Y-13800573D01*
X12764573Y-13800573D01*
X12764573Y-13885427D01*
X12849427Y-13885427D01*
X13148000Y-6226500D02*
X13268000Y-6346500D01*
X13268000Y-6226500D02*
X13148000Y-6346500D01*
X13250427Y-6328927D02*
X13250427Y-6244073D01*
X13165573Y-6244073D01*
X13165573Y-6328927D01*
X13250427Y-6328927D01*
X13148000Y-14164000D02*
X13268000Y-14284000D01*
X13268000Y-14164000D02*
X13148000Y-14284000D01*
X13250427Y-14266427D02*
X13250427Y-14181573D01*
X13165573Y-14181573D01*
X13165573Y-14266427D01*
X13250427Y-14266427D01*
X13148000Y-15561000D02*
X13268000Y-15681000D01*
X13268000Y-15561000D02*
X13148000Y-15681000D01*
X13250427Y-15663427D02*
X13250427Y-15578573D01*
X13165573Y-15578573D01*
X13165573Y-15663427D01*
X13250427Y-15663427D01*
X13783000Y-15561000D02*
X13903000Y-15681000D01*
X13903000Y-15561000D02*
X13783000Y-15681000D01*
X13885427Y-15663427D02*
X13885427Y-15578573D01*
X13800573Y-15578573D01*
X13800573Y-15663427D01*
X13885427Y-15663427D01*
X14418000Y-15561000D02*
X14538000Y-15681000D01*
X14538000Y-15561000D02*
X14418000Y-15681000D01*
X14520427Y-15663427D02*
X14520427Y-15578573D01*
X14435573Y-15578573D01*
X14435573Y-15663427D01*
X14520427Y-15663427D01*
X14926000Y-14037000D02*
X15046000Y-14157000D01*
X15046000Y-14037000D02*
X14926000Y-14157000D01*
X15028427Y-14139427D02*
X15028427Y-14054573D01*
X14943573Y-14054573D01*
X14943573Y-14139427D01*
X15028427Y-14139427D01*
X15053000Y-8258500D02*
X15173000Y-8378500D01*
X15173000Y-8258500D02*
X15053000Y-8378500D01*
X15155427Y-8360927D02*
X15155427Y-8276073D01*
X15070573Y-8276073D01*
X15070573Y-8360927D01*
X15155427Y-8360927D01*
X15053000Y-8957000D02*
X15173000Y-9077000D01*
X15173000Y-8957000D02*
X15053000Y-9077000D01*
X15155427Y-9059427D02*
X15155427Y-8974573D01*
X15070573Y-8974573D01*
X15070573Y-9059427D01*
X15155427Y-9059427D01*
D16*
X13398500Y-14640560D02*
X13525500Y-14767560D01*
X13525500Y-14640560D02*
X13398500Y-14767560D01*
X13462000Y-14767560D02*
X13525500Y-14704060D01*
X13462000Y-14640560D01*
X13398500Y-14704060D01*
X13462000Y-14767560D01*
X14160500Y-14986000D02*
X14287500Y-15113000D01*
X14287500Y-14986000D02*
X14160500Y-15113000D01*
X14224000Y-15113000D02*
X14287500Y-15049500D01*
X14224000Y-14986000D01*
X14160500Y-15049500D01*
X14224000Y-15113000D01*
D17*
X10795000Y-14528800D02*
X10795000Y-14681200D01*
X10718800Y-14605000D02*
X10871200Y-14605000D01*
X10871200Y-14605000D02*
G75*
G02*
X10718800Y-14605000I-76200J0D01*
G01*
X10718800Y-14605000D02*
G75*
G02*
X10871200Y-14605000I76200J0D01*
G01*
X11303000Y-14528800D02*
X11303000Y-14681200D01*
X11226800Y-14605000D02*
X11379200Y-14605000D01*
X11379200Y-14605000D02*
G75*
G02*
X11226800Y-14605000I-76200J0D01*
G01*
X11226800Y-14605000D02*
G75*
G02*
X11379200Y-14605000I76200J0D01*
G01*
X11811000Y-14528800D02*
X11811000Y-14681200D01*
X11734800Y-14605000D02*
X11887200Y-14605000D01*
X11887200Y-14605000D02*
G75*
G02*
X11734800Y-14605000I-76200J0D01*
G01*
X11734800Y-14605000D02*
G75*
G02*
X11887200Y-14605000I76200J0D01*
G01*
X12319000Y-14528800D02*
X12319000Y-14681200D01*
X12242800Y-14605000D02*
X12395200Y-14605000D01*
X12395200Y-14605000D02*
G75*
G02*
X12242800Y-14605000I-76200J0D01*
G01*
X12242800Y-14605000D02*
G75*
G02*
X12395200Y-14605000I76200J0D01*
G01*
D18*
X10630803Y-14948803D02*
X10630803Y-14769197D01*
X10451197Y-14769197D01*
X10451197Y-14948803D01*
X10630803Y-14948803D01*
X10668000Y-14859000D02*
G75*
G02*
X10414000Y-14859000I-127000J0D01*
G01*
X10414000Y-14859000D02*
G75*
G02*
X10668000Y-14859000I127000J0D01*
G01*
X12662803Y-14948803D02*
X12662803Y-14769197D01*
X12483197Y-14769197D01*
X12483197Y-14948803D01*
X12662803Y-14948803D01*
X12700000Y-14859000D02*
G75*
G02*
X12446000Y-14859000I-127000J0D01*
G01*
X12446000Y-14859000D02*
G75*
G02*
X12700000Y-14859000I127000J0D01*
G01*
D19*
X11557000Y-10675800D02*
X11724640Y-10508160D01*
X11557000Y-10340520D01*
X11389360Y-10508160D01*
X11557000Y-10675800D01*
X11724640Y-10508160D02*
G75*
G02*
X11389360Y-10508160I-167640J0D01*
G01*
X11389360Y-10508160D02*
G75*
G02*
X11724640Y-10508160I167640J0D01*
G01*
X11557000Y-13174800D02*
X11724640Y-13007160D01*
X11557000Y-12839520D01*
X11389360Y-13007160D01*
X11557000Y-13174800D01*
X11724640Y-13007160D02*
G75*
G02*
X11389360Y-13007160I-167640J0D01*
G01*
X11389360Y-13007160D02*
G75*
G02*
X11724640Y-13007160I167640J0D01*
G01*
D20*
X11049000Y-15417800D02*
X11049000Y-15824200D01*
X10845800Y-15621000D02*
X11252200Y-15621000D01*
X11192685Y-15764685D02*
X11192685Y-15477314D01*
X10905315Y-15477314D01*
X10905315Y-15764685D01*
X11192685Y-15764685D01*
X12065000Y-15417800D02*
X12065000Y-15824200D01*
X11861800Y-15621000D02*
X12268200Y-15621000D01*
X12208685Y-15764685D02*
X12208685Y-15477314D01*
X11921314Y-15477314D01*
X11921314Y-15764685D01*
X12208685Y-15764685D01*
D11*
X10037277Y-16315984D02*
X10037277Y-16115984D01*
X10037277Y-16115984D02*
X10084896Y-16115984D01*
X10084896Y-16115984D02*
X10113467Y-16125508D01*
X10113467Y-16125508D02*
X10132515Y-16144555D01*
X10132515Y-16144555D02*
X10142039Y-16163603D01*
X10142039Y-16163603D02*
X10151563Y-16201698D01*
X10151563Y-16201698D02*
X10151563Y-16230269D01*
X10151563Y-16230269D02*
X10142039Y-16268365D01*
X10142039Y-16268365D02*
X10132515Y-16287412D01*
X10132515Y-16287412D02*
X10113467Y-16306460D01*
X10113467Y-16306460D02*
X10084896Y-16315984D01*
X10084896Y-16315984D02*
X10037277Y-16315984D01*
X10237277Y-16315984D02*
X10237277Y-16182650D01*
X10237277Y-16220746D02*
X10246801Y-16201698D01*
X10246801Y-16201698D02*
X10256324Y-16192174D01*
X10256324Y-16192174D02*
X10275372Y-16182650D01*
X10275372Y-16182650D02*
X10294420Y-16182650D01*
X10361086Y-16315984D02*
X10361086Y-16182650D01*
X10361086Y-16115984D02*
X10351563Y-16125508D01*
X10351563Y-16125508D02*
X10361086Y-16135031D01*
X10361086Y-16135031D02*
X10370610Y-16125508D01*
X10370610Y-16125508D02*
X10361086Y-16115984D01*
X10361086Y-16115984D02*
X10361086Y-16135031D01*
X10484896Y-16315984D02*
X10465848Y-16306460D01*
X10465848Y-16306460D02*
X10456324Y-16287412D01*
X10456324Y-16287412D02*
X10456324Y-16115984D01*
X10589658Y-16315984D02*
X10570610Y-16306460D01*
X10570610Y-16306460D02*
X10561086Y-16287412D01*
X10561086Y-16287412D02*
X10561086Y-16115984D01*
X10818229Y-16315984D02*
X10818229Y-16115984D01*
X10818229Y-16115984D02*
X10884896Y-16258841D01*
X10884896Y-16258841D02*
X10951563Y-16115984D01*
X10951563Y-16115984D02*
X10951563Y-16315984D01*
X11132515Y-16315984D02*
X11132515Y-16211222D01*
X11132515Y-16211222D02*
X11122991Y-16192174D01*
X11122991Y-16192174D02*
X11103944Y-16182650D01*
X11103944Y-16182650D02*
X11065848Y-16182650D01*
X11065848Y-16182650D02*
X11046801Y-16192174D01*
X11132515Y-16306460D02*
X11113467Y-16315984D01*
X11113467Y-16315984D02*
X11065848Y-16315984D01*
X11065848Y-16315984D02*
X11046801Y-16306460D01*
X11046801Y-16306460D02*
X11037277Y-16287412D01*
X11037277Y-16287412D02*
X11037277Y-16268365D01*
X11037277Y-16268365D02*
X11046801Y-16249317D01*
X11046801Y-16249317D02*
X11065848Y-16239793D01*
X11065848Y-16239793D02*
X11113467Y-16239793D01*
X11113467Y-16239793D02*
X11132515Y-16230269D01*
X11227753Y-16182650D02*
X11227753Y-16382650D01*
X11227753Y-16192174D02*
X11246801Y-16182650D01*
X11246801Y-16182650D02*
X11284896Y-16182650D01*
X11284896Y-16182650D02*
X11303943Y-16192174D01*
X11303943Y-16192174D02*
X11313467Y-16201698D01*
X11313467Y-16201698D02*
X11322991Y-16220746D01*
X11322991Y-16220746D02*
X11322991Y-16277888D01*
X11322991Y-16277888D02*
X11313467Y-16296936D01*
X11313467Y-16296936D02*
X11303943Y-16306460D01*
X11303943Y-16306460D02*
X11284896Y-16315984D01*
X11284896Y-16315984D02*
X11246801Y-16315984D01*
X11246801Y-16315984D02*
X11227753Y-16306460D01*
X11408705Y-16296936D02*
X11418229Y-16306460D01*
X11418229Y-16306460D02*
X11408705Y-16315984D01*
X11408705Y-16315984D02*
X11399182Y-16306460D01*
X11399182Y-16306460D02*
X11408705Y-16296936D01*
X11408705Y-16296936D02*
X11408705Y-16315984D01*
X11408705Y-16192174D02*
X11418229Y-16201698D01*
X11418229Y-16201698D02*
X11408705Y-16211222D01*
X11408705Y-16211222D02*
X11399182Y-16201698D01*
X11399182Y-16201698D02*
X11408705Y-16192174D01*
X11408705Y-16192174D02*
X11408705Y-16211222D01*
D12*
X9710460Y-16611480D02*
X9776500Y-16677520D01*
X9776500Y-16611480D02*
X9710460Y-16677520D01*
D11*
X10075372Y-16535984D02*
X10094420Y-16535984D01*
X10094420Y-16535984D02*
X10113467Y-16545508D01*
X10113467Y-16545508D02*
X10122991Y-16555031D01*
X10122991Y-16555031D02*
X10132515Y-16574079D01*
X10132515Y-16574079D02*
X10142039Y-16612174D01*
X10142039Y-16612174D02*
X10142039Y-16659793D01*
X10142039Y-16659793D02*
X10132515Y-16697888D01*
X10132515Y-16697888D02*
X10122991Y-16716936D01*
X10122991Y-16716936D02*
X10113467Y-16726460D01*
X10113467Y-16726460D02*
X10094420Y-16735984D01*
X10094420Y-16735984D02*
X10075372Y-16735984D01*
X10075372Y-16735984D02*
X10056324Y-16726460D01*
X10056324Y-16726460D02*
X10046801Y-16716936D01*
X10046801Y-16716936D02*
X10037277Y-16697888D01*
X10037277Y-16697888D02*
X10027753Y-16659793D01*
X10027753Y-16659793D02*
X10027753Y-16612174D01*
X10027753Y-16612174D02*
X10037277Y-16574079D01*
X10037277Y-16574079D02*
X10046801Y-16555031D01*
X10046801Y-16555031D02*
X10056324Y-16545508D01*
X10056324Y-16545508D02*
X10075372Y-16535984D01*
X10227753Y-16716936D02*
X10237277Y-16726460D01*
X10237277Y-16726460D02*
X10227753Y-16735984D01*
X10227753Y-16735984D02*
X10218229Y-16726460D01*
X10218229Y-16726460D02*
X10227753Y-16716936D01*
X10227753Y-16716936D02*
X10227753Y-16735984D01*
X10408705Y-16535984D02*
X10370610Y-16535984D01*
X10370610Y-16535984D02*
X10351563Y-16545508D01*
X10351563Y-16545508D02*
X10342039Y-16555031D01*
X10342039Y-16555031D02*
X10322991Y-16583603D01*
X10322991Y-16583603D02*
X10313467Y-16621698D01*
X10313467Y-16621698D02*
X10313467Y-16697888D01*
X10313467Y-16697888D02*
X10322991Y-16716936D01*
X10322991Y-16716936D02*
X10332515Y-16726460D01*
X10332515Y-16726460D02*
X10351563Y-16735984D01*
X10351563Y-16735984D02*
X10389658Y-16735984D01*
X10389658Y-16735984D02*
X10408705Y-16726460D01*
X10408705Y-16726460D02*
X10418229Y-16716936D01*
X10418229Y-16716936D02*
X10427753Y-16697888D01*
X10427753Y-16697888D02*
X10427753Y-16650269D01*
X10427753Y-16650269D02*
X10418229Y-16631222D01*
X10418229Y-16631222D02*
X10408705Y-16621698D01*
X10408705Y-16621698D02*
X10389658Y-16612174D01*
X10389658Y-16612174D02*
X10351563Y-16612174D01*
X10351563Y-16612174D02*
X10332515Y-16621698D01*
X10332515Y-16621698D02*
X10322991Y-16631222D01*
X10322991Y-16631222D02*
X10313467Y-16650269D01*
X10599182Y-16535984D02*
X10561086Y-16535984D01*
X10561086Y-16535984D02*
X10542039Y-16545508D01*
X10542039Y-16545508D02*
X10532515Y-16555031D01*
X10532515Y-16555031D02*
X10513467Y-16583603D01*
X10513467Y-16583603D02*
X10503944Y-16621698D01*
X10503944Y-16621698D02*
X10503944Y-16697888D01*
X10503944Y-16697888D02*
X10513467Y-16716936D01*
X10513467Y-16716936D02*
X10522991Y-16726460D01*
X10522991Y-16726460D02*
X10542039Y-16735984D01*
X10542039Y-16735984D02*
X10580134Y-16735984D01*
X10580134Y-16735984D02*
X10599182Y-16726460D01*
X10599182Y-16726460D02*
X10608705Y-16716936D01*
X10608705Y-16716936D02*
X10618229Y-16697888D01*
X10618229Y-16697888D02*
X10618229Y-16650269D01*
X10618229Y-16650269D02*
X10608705Y-16631222D01*
X10608705Y-16631222D02*
X10599182Y-16621698D01*
X10599182Y-16621698D02*
X10580134Y-16612174D01*
X10580134Y-16612174D02*
X10542039Y-16612174D01*
X10542039Y-16612174D02*
X10522991Y-16621698D01*
X10522991Y-16621698D02*
X10513467Y-16631222D01*
X10513467Y-16631222D02*
X10503944Y-16650269D01*
X10742039Y-16535984D02*
X10761086Y-16535984D01*
X10761086Y-16535984D02*
X10780134Y-16545508D01*
X10780134Y-16545508D02*
X10789658Y-16555031D01*
X10789658Y-16555031D02*
X10799182Y-16574079D01*
X10799182Y-16574079D02*
X10808705Y-16612174D01*
X10808705Y-16612174D02*
X10808705Y-16659793D01*
X10808705Y-16659793D02*
X10799182Y-16697888D01*
X10799182Y-16697888D02*
X10789658Y-16716936D01*
X10789658Y-16716936D02*
X10780134Y-16726460D01*
X10780134Y-16726460D02*
X10761086Y-16735984D01*
X10761086Y-16735984D02*
X10742039Y-16735984D01*
X10742039Y-16735984D02*
X10722991Y-16726460D01*
X10722991Y-16726460D02*
X10713467Y-16716936D01*
X10713467Y-16716936D02*
X10703944Y-16697888D01*
X10703944Y-16697888D02*
X10694420Y-16659793D01*
X10694420Y-16659793D02*
X10694420Y-16612174D01*
X10694420Y-16612174D02*
X10703944Y-16574079D01*
X10703944Y-16574079D02*
X10713467Y-16555031D01*
X10713467Y-16555031D02*
X10722991Y-16545508D01*
X10722991Y-16545508D02*
X10742039Y-16535984D01*
X10894420Y-16735984D02*
X10894420Y-16602650D01*
X10894420Y-16621698D02*
X10903944Y-16612174D01*
X10903944Y-16612174D02*
X10922991Y-16602650D01*
X10922991Y-16602650D02*
X10951563Y-16602650D01*
X10951563Y-16602650D02*
X10970610Y-16612174D01*
X10970610Y-16612174D02*
X10980134Y-16631222D01*
X10980134Y-16631222D02*
X10980134Y-16735984D01*
X10980134Y-16631222D02*
X10989658Y-16612174D01*
X10989658Y-16612174D02*
X11008705Y-16602650D01*
X11008705Y-16602650D02*
X11037277Y-16602650D01*
X11037277Y-16602650D02*
X11056325Y-16612174D01*
X11056325Y-16612174D02*
X11065848Y-16631222D01*
X11065848Y-16631222D02*
X11065848Y-16735984D01*
X11161086Y-16735984D02*
X11161086Y-16602650D01*
X11161086Y-16621698D02*
X11170610Y-16612174D01*
X11170610Y-16612174D02*
X11189658Y-16602650D01*
X11189658Y-16602650D02*
X11218229Y-16602650D01*
X11218229Y-16602650D02*
X11237277Y-16612174D01*
X11237277Y-16612174D02*
X11246801Y-16631222D01*
X11246801Y-16631222D02*
X11246801Y-16735984D01*
X11246801Y-16631222D02*
X11256324Y-16612174D01*
X11256324Y-16612174D02*
X11275372Y-16602650D01*
X11275372Y-16602650D02*
X11303943Y-16602650D01*
X11303943Y-16602650D02*
X11322991Y-16612174D01*
X11322991Y-16612174D02*
X11332515Y-16631222D01*
X11332515Y-16631222D02*
X11332515Y-16735984D01*
X11722991Y-16526460D02*
X11551563Y-16783603D01*
X11980134Y-16535984D02*
X11999182Y-16535984D01*
X11999182Y-16535984D02*
X12018229Y-16545508D01*
X12018229Y-16545508D02*
X12027753Y-16555031D01*
X12027753Y-16555031D02*
X12037277Y-16574079D01*
X12037277Y-16574079D02*
X12046801Y-16612174D01*
X12046801Y-16612174D02*
X12046801Y-16659793D01*
X12046801Y-16659793D02*
X12037277Y-16697888D01*
X12037277Y-16697888D02*
X12027753Y-16716936D01*
X12027753Y-16716936D02*
X12018229Y-16726460D01*
X12018229Y-16726460D02*
X11999182Y-16735984D01*
X11999182Y-16735984D02*
X11980134Y-16735984D01*
X11980134Y-16735984D02*
X11961086Y-16726460D01*
X11961086Y-16726460D02*
X11951563Y-16716936D01*
X11951563Y-16716936D02*
X11942039Y-16697888D01*
X11942039Y-16697888D02*
X11932515Y-16659793D01*
X11932515Y-16659793D02*
X11932515Y-16612174D01*
X11932515Y-16612174D02*
X11942039Y-16574079D01*
X11942039Y-16574079D02*
X11951563Y-16555031D01*
X11951563Y-16555031D02*
X11961086Y-16545508D01*
X11961086Y-16545508D02*
X11980134Y-16535984D01*
X12132515Y-16716936D02*
X12142039Y-16726460D01*
X12142039Y-16726460D02*
X12132515Y-16735984D01*
X12132515Y-16735984D02*
X12122991Y-16726460D01*
X12122991Y-16726460D02*
X12132515Y-16716936D01*
X12132515Y-16716936D02*
X12132515Y-16735984D01*
X12265848Y-16535984D02*
X12284896Y-16535984D01*
X12284896Y-16535984D02*
X12303944Y-16545508D01*
X12303944Y-16545508D02*
X12313467Y-16555031D01*
X12313467Y-16555031D02*
X12322991Y-16574079D01*
X12322991Y-16574079D02*
X12332515Y-16612174D01*
X12332515Y-16612174D02*
X12332515Y-16659793D01*
X12332515Y-16659793D02*
X12322991Y-16697888D01*
X12322991Y-16697888D02*
X12313467Y-16716936D01*
X12313467Y-16716936D02*
X12303944Y-16726460D01*
X12303944Y-16726460D02*
X12284896Y-16735984D01*
X12284896Y-16735984D02*
X12265848Y-16735984D01*
X12265848Y-16735984D02*
X12246801Y-16726460D01*
X12246801Y-16726460D02*
X12237277Y-16716936D01*
X12237277Y-16716936D02*
X12227753Y-16697888D01*
X12227753Y-16697888D02*
X12218229Y-16659793D01*
X12218229Y-16659793D02*
X12218229Y-16612174D01*
X12218229Y-16612174D02*
X12227753Y-16574079D01*
X12227753Y-16574079D02*
X12237277Y-16555031D01*
X12237277Y-16555031D02*
X12246801Y-16545508D01*
X12246801Y-16545508D02*
X12265848Y-16535984D01*
X12408706Y-16555031D02*
X12418229Y-16545508D01*
X12418229Y-16545508D02*
X12437277Y-16535984D01*
X12437277Y-16535984D02*
X12484896Y-16535984D01*
X12484896Y-16535984D02*
X12503944Y-16545508D01*
X12503944Y-16545508D02*
X12513467Y-16555031D01*
X12513467Y-16555031D02*
X12522991Y-16574079D01*
X12522991Y-16574079D02*
X12522991Y-16593127D01*
X12522991Y-16593127D02*
X12513467Y-16621698D01*
X12513467Y-16621698D02*
X12399182Y-16735984D01*
X12399182Y-16735984D02*
X12522991Y-16735984D01*
X12694420Y-16535984D02*
X12656325Y-16535984D01*
X12656325Y-16535984D02*
X12637277Y-16545508D01*
X12637277Y-16545508D02*
X12627753Y-16555031D01*
X12627753Y-16555031D02*
X12608706Y-16583603D01*
X12608706Y-16583603D02*
X12599182Y-16621698D01*
X12599182Y-16621698D02*
X12599182Y-16697888D01*
X12599182Y-16697888D02*
X12608706Y-16716936D01*
X12608706Y-16716936D02*
X12618229Y-16726460D01*
X12618229Y-16726460D02*
X12637277Y-16735984D01*
X12637277Y-16735984D02*
X12675372Y-16735984D01*
X12675372Y-16735984D02*
X12694420Y-16726460D01*
X12694420Y-16726460D02*
X12703944Y-16716936D01*
X12703944Y-16716936D02*
X12713467Y-16697888D01*
X12713467Y-16697888D02*
X12713467Y-16650269D01*
X12713467Y-16650269D02*
X12703944Y-16631222D01*
X12703944Y-16631222D02*
X12694420Y-16621698D01*
X12694420Y-16621698D02*
X12675372Y-16612174D01*
X12675372Y-16612174D02*
X12637277Y-16612174D01*
X12637277Y-16612174D02*
X12618229Y-16621698D01*
X12618229Y-16621698D02*
X12608706Y-16631222D01*
X12608706Y-16631222D02*
X12599182Y-16650269D01*
X12837277Y-16535984D02*
X12856325Y-16535984D01*
X12856325Y-16535984D02*
X12875372Y-16545508D01*
X12875372Y-16545508D02*
X12884896Y-16555031D01*
X12884896Y-16555031D02*
X12894420Y-16574079D01*
X12894420Y-16574079D02*
X12903944Y-16612174D01*
X12903944Y-16612174D02*
X12903944Y-16659793D01*
X12903944Y-16659793D02*
X12894420Y-16697888D01*
X12894420Y-16697888D02*
X12884896Y-16716936D01*
X12884896Y-16716936D02*
X12875372Y-16726460D01*
X12875372Y-16726460D02*
X12856325Y-16735984D01*
X12856325Y-16735984D02*
X12837277Y-16735984D01*
X12837277Y-16735984D02*
X12818229Y-16726460D01*
X12818229Y-16726460D02*
X12808706Y-16716936D01*
X12808706Y-16716936D02*
X12799182Y-16697888D01*
X12799182Y-16697888D02*
X12789658Y-16659793D01*
X12789658Y-16659793D02*
X12789658Y-16612174D01*
X12789658Y-16612174D02*
X12799182Y-16574079D01*
X12799182Y-16574079D02*
X12808706Y-16555031D01*
X12808706Y-16555031D02*
X12818229Y-16545508D01*
X12818229Y-16545508D02*
X12837277Y-16535984D01*
X12980134Y-16535984D02*
X12980134Y-16574079D01*
X13056325Y-16535984D02*
X13056325Y-16574079D01*
X13351563Y-16812174D02*
X13342039Y-16802650D01*
X13342039Y-16802650D02*
X13322991Y-16774079D01*
X13322991Y-16774079D02*
X13313468Y-16755031D01*
X13313468Y-16755031D02*
X13303944Y-16726460D01*
X13303944Y-16726460D02*
X13294420Y-16678841D01*
X13294420Y-16678841D02*
X13294420Y-16640746D01*
X13294420Y-16640746D02*
X13303944Y-16593127D01*
X13303944Y-16593127D02*
X13313468Y-16564555D01*
X13313468Y-16564555D02*
X13322991Y-16545508D01*
X13322991Y-16545508D02*
X13342039Y-16516936D01*
X13342039Y-16516936D02*
X13351563Y-16507412D01*
X13532515Y-16735984D02*
X13418229Y-16735984D01*
X13475372Y-16735984D02*
X13475372Y-16535984D01*
X13475372Y-16535984D02*
X13456325Y-16564555D01*
X13456325Y-16564555D02*
X13437277Y-16583603D01*
X13437277Y-16583603D02*
X13418229Y-16593127D01*
X13656325Y-16535984D02*
X13675372Y-16535984D01*
X13675372Y-16535984D02*
X13694420Y-16545508D01*
X13694420Y-16545508D02*
X13703944Y-16555031D01*
X13703944Y-16555031D02*
X13713468Y-16574079D01*
X13713468Y-16574079D02*
X13722991Y-16612174D01*
X13722991Y-16612174D02*
X13722991Y-16659793D01*
X13722991Y-16659793D02*
X13713468Y-16697888D01*
X13713468Y-16697888D02*
X13703944Y-16716936D01*
X13703944Y-16716936D02*
X13694420Y-16726460D01*
X13694420Y-16726460D02*
X13675372Y-16735984D01*
X13675372Y-16735984D02*
X13656325Y-16735984D01*
X13656325Y-16735984D02*
X13637277Y-16726460D01*
X13637277Y-16726460D02*
X13627753Y-16716936D01*
X13627753Y-16716936D02*
X13618229Y-16697888D01*
X13618229Y-16697888D02*
X13608706Y-16659793D01*
X13608706Y-16659793D02*
X13608706Y-16612174D01*
X13608706Y-16612174D02*
X13618229Y-16574079D01*
X13618229Y-16574079D02*
X13627753Y-16555031D01*
X13627753Y-16555031D02*
X13637277Y-16545508D01*
X13637277Y-16545508D02*
X13656325Y-16535984D01*
X13961087Y-16735984D02*
X13961087Y-16535984D01*
X14046801Y-16735984D02*
X14046801Y-16631222D01*
X14046801Y-16631222D02*
X14037277Y-16612174D01*
X14037277Y-16612174D02*
X14018230Y-16602650D01*
X14018230Y-16602650D02*
X13989658Y-16602650D01*
X13989658Y-16602650D02*
X13970610Y-16612174D01*
X13970610Y-16612174D02*
X13961087Y-16621698D01*
X14170610Y-16735984D02*
X14151563Y-16726460D01*
X14151563Y-16726460D02*
X14142039Y-16716936D01*
X14142039Y-16716936D02*
X14132515Y-16697888D01*
X14132515Y-16697888D02*
X14132515Y-16640746D01*
X14132515Y-16640746D02*
X14142039Y-16621698D01*
X14142039Y-16621698D02*
X14151563Y-16612174D01*
X14151563Y-16612174D02*
X14170610Y-16602650D01*
X14170610Y-16602650D02*
X14199182Y-16602650D01*
X14199182Y-16602650D02*
X14218230Y-16612174D01*
X14218230Y-16612174D02*
X14227753Y-16621698D01*
X14227753Y-16621698D02*
X14237277Y-16640746D01*
X14237277Y-16640746D02*
X14237277Y-16697888D01*
X14237277Y-16697888D02*
X14227753Y-16716936D01*
X14227753Y-16716936D02*
X14218230Y-16726460D01*
X14218230Y-16726460D02*
X14199182Y-16735984D01*
X14199182Y-16735984D02*
X14170610Y-16735984D01*
X14351563Y-16735984D02*
X14332515Y-16726460D01*
X14332515Y-16726460D02*
X14322991Y-16707412D01*
X14322991Y-16707412D02*
X14322991Y-16535984D01*
X14503944Y-16726460D02*
X14484896Y-16735984D01*
X14484896Y-16735984D02*
X14446801Y-16735984D01*
X14446801Y-16735984D02*
X14427753Y-16726460D01*
X14427753Y-16726460D02*
X14418230Y-16707412D01*
X14418230Y-16707412D02*
X14418230Y-16631222D01*
X14418230Y-16631222D02*
X14427753Y-16612174D01*
X14427753Y-16612174D02*
X14446801Y-16602650D01*
X14446801Y-16602650D02*
X14484896Y-16602650D01*
X14484896Y-16602650D02*
X14503944Y-16612174D01*
X14503944Y-16612174D02*
X14513468Y-16631222D01*
X14513468Y-16631222D02*
X14513468Y-16650269D01*
X14513468Y-16650269D02*
X14418230Y-16669317D01*
X14589658Y-16726460D02*
X14608706Y-16735984D01*
X14608706Y-16735984D02*
X14646801Y-16735984D01*
X14646801Y-16735984D02*
X14665849Y-16726460D01*
X14665849Y-16726460D02*
X14675372Y-16707412D01*
X14675372Y-16707412D02*
X14675372Y-16697888D01*
X14675372Y-16697888D02*
X14665849Y-16678841D01*
X14665849Y-16678841D02*
X14646801Y-16669317D01*
X14646801Y-16669317D02*
X14618230Y-16669317D01*
X14618230Y-16669317D02*
X14599182Y-16659793D01*
X14599182Y-16659793D02*
X14589658Y-16640746D01*
X14589658Y-16640746D02*
X14589658Y-16631222D01*
X14589658Y-16631222D02*
X14599182Y-16612174D01*
X14599182Y-16612174D02*
X14618230Y-16602650D01*
X14618230Y-16602650D02*
X14646801Y-16602650D01*
X14646801Y-16602650D02*
X14665849Y-16612174D01*
X14742039Y-16812174D02*
X14751563Y-16802650D01*
X14751563Y-16802650D02*
X14770611Y-16774079D01*
X14770611Y-16774079D02*
X14780134Y-16755031D01*
X14780134Y-16755031D02*
X14789658Y-16726460D01*
X14789658Y-16726460D02*
X14799182Y-16678841D01*
X14799182Y-16678841D02*
X14799182Y-16640746D01*
X14799182Y-16640746D02*
X14789658Y-16593127D01*
X14789658Y-16593127D02*
X14780134Y-16564555D01*
X14780134Y-16564555D02*
X14770611Y-16545508D01*
X14770611Y-16545508D02*
X14751563Y-16516936D01*
X14751563Y-16516936D02*
X14742039Y-16507412D01*
D12*
X9776500Y-16908500D02*
G75*
G02*
X9706500Y-16908500I-35000J0D01*
G01*
X9706500Y-16908500D02*
G75*
G02*
X9776500Y-16908500I35000J0D01*
G01*
D11*
X10075372Y-16799984D02*
X10094420Y-16799984D01*
X10094420Y-16799984D02*
X10113467Y-16809508D01*
X10113467Y-16809508D02*
X10122991Y-16819031D01*
X10122991Y-16819031D02*
X10132515Y-16838079D01*
X10132515Y-16838079D02*
X10142039Y-16876174D01*
X10142039Y-16876174D02*
X10142039Y-16923793D01*
X10142039Y-16923793D02*
X10132515Y-16961889D01*
X10132515Y-16961889D02*
X10122991Y-16980936D01*
X10122991Y-16980936D02*
X10113467Y-16990460D01*
X10113467Y-16990460D02*
X10094420Y-16999984D01*
X10094420Y-16999984D02*
X10075372Y-16999984D01*
X10075372Y-16999984D02*
X10056324Y-16990460D01*
X10056324Y-16990460D02*
X10046801Y-16980936D01*
X10046801Y-16980936D02*
X10037277Y-16961889D01*
X10037277Y-16961889D02*
X10027753Y-16923793D01*
X10027753Y-16923793D02*
X10027753Y-16876174D01*
X10027753Y-16876174D02*
X10037277Y-16838079D01*
X10037277Y-16838079D02*
X10046801Y-16819031D01*
X10046801Y-16819031D02*
X10056324Y-16809508D01*
X10056324Y-16809508D02*
X10075372Y-16799984D01*
X10227753Y-16980936D02*
X10237277Y-16990460D01*
X10237277Y-16990460D02*
X10227753Y-16999984D01*
X10227753Y-16999984D02*
X10218229Y-16990460D01*
X10218229Y-16990460D02*
X10227753Y-16980936D01*
X10227753Y-16980936D02*
X10227753Y-16999984D01*
X10303944Y-16799984D02*
X10437277Y-16799984D01*
X10437277Y-16799984D02*
X10351563Y-16999984D01*
X10551563Y-16799984D02*
X10570610Y-16799984D01*
X10570610Y-16799984D02*
X10589658Y-16809508D01*
X10589658Y-16809508D02*
X10599182Y-16819031D01*
X10599182Y-16819031D02*
X10608705Y-16838079D01*
X10608705Y-16838079D02*
X10618229Y-16876174D01*
X10618229Y-16876174D02*
X10618229Y-16923793D01*
X10618229Y-16923793D02*
X10608705Y-16961889D01*
X10608705Y-16961889D02*
X10599182Y-16980936D01*
X10599182Y-16980936D02*
X10589658Y-16990460D01*
X10589658Y-16990460D02*
X10570610Y-16999984D01*
X10570610Y-16999984D02*
X10551563Y-16999984D01*
X10551563Y-16999984D02*
X10532515Y-16990460D01*
X10532515Y-16990460D02*
X10522991Y-16980936D01*
X10522991Y-16980936D02*
X10513467Y-16961889D01*
X10513467Y-16961889D02*
X10503944Y-16923793D01*
X10503944Y-16923793D02*
X10503944Y-16876174D01*
X10503944Y-16876174D02*
X10513467Y-16838079D01*
X10513467Y-16838079D02*
X10522991Y-16819031D01*
X10522991Y-16819031D02*
X10532515Y-16809508D01*
X10532515Y-16809508D02*
X10551563Y-16799984D01*
X10742039Y-16799984D02*
X10761086Y-16799984D01*
X10761086Y-16799984D02*
X10780134Y-16809508D01*
X10780134Y-16809508D02*
X10789658Y-16819031D01*
X10789658Y-16819031D02*
X10799182Y-16838079D01*
X10799182Y-16838079D02*
X10808705Y-16876174D01*
X10808705Y-16876174D02*
X10808705Y-16923793D01*
X10808705Y-16923793D02*
X10799182Y-16961889D01*
X10799182Y-16961889D02*
X10789658Y-16980936D01*
X10789658Y-16980936D02*
X10780134Y-16990460D01*
X10780134Y-16990460D02*
X10761086Y-16999984D01*
X10761086Y-16999984D02*
X10742039Y-16999984D01*
X10742039Y-16999984D02*
X10722991Y-16990460D01*
X10722991Y-16990460D02*
X10713467Y-16980936D01*
X10713467Y-16980936D02*
X10703944Y-16961889D01*
X10703944Y-16961889D02*
X10694420Y-16923793D01*
X10694420Y-16923793D02*
X10694420Y-16876174D01*
X10694420Y-16876174D02*
X10703944Y-16838079D01*
X10703944Y-16838079D02*
X10713467Y-16819031D01*
X10713467Y-16819031D02*
X10722991Y-16809508D01*
X10722991Y-16809508D02*
X10742039Y-16799984D01*
X10894420Y-16999984D02*
X10894420Y-16866650D01*
X10894420Y-16885698D02*
X10903944Y-16876174D01*
X10903944Y-16876174D02*
X10922991Y-16866650D01*
X10922991Y-16866650D02*
X10951563Y-16866650D01*
X10951563Y-16866650D02*
X10970610Y-16876174D01*
X10970610Y-16876174D02*
X10980134Y-16895222D01*
X10980134Y-16895222D02*
X10980134Y-16999984D01*
X10980134Y-16895222D02*
X10989658Y-16876174D01*
X10989658Y-16876174D02*
X11008705Y-16866650D01*
X11008705Y-16866650D02*
X11037277Y-16866650D01*
X11037277Y-16866650D02*
X11056325Y-16876174D01*
X11056325Y-16876174D02*
X11065848Y-16895222D01*
X11065848Y-16895222D02*
X11065848Y-16999984D01*
X11161086Y-16999984D02*
X11161086Y-16866650D01*
X11161086Y-16885698D02*
X11170610Y-16876174D01*
X11170610Y-16876174D02*
X11189658Y-16866650D01*
X11189658Y-16866650D02*
X11218229Y-16866650D01*
X11218229Y-16866650D02*
X11237277Y-16876174D01*
X11237277Y-16876174D02*
X11246801Y-16895222D01*
X11246801Y-16895222D02*
X11246801Y-16999984D01*
X11246801Y-16895222D02*
X11256324Y-16876174D01*
X11256324Y-16876174D02*
X11275372Y-16866650D01*
X11275372Y-16866650D02*
X11303943Y-16866650D01*
X11303943Y-16866650D02*
X11322991Y-16876174D01*
X11322991Y-16876174D02*
X11332515Y-16895222D01*
X11332515Y-16895222D02*
X11332515Y-16999984D01*
X11722991Y-16790460D02*
X11551563Y-17047603D01*
X11980134Y-16799984D02*
X11999182Y-16799984D01*
X11999182Y-16799984D02*
X12018229Y-16809508D01*
X12018229Y-16809508D02*
X12027753Y-16819031D01*
X12027753Y-16819031D02*
X12037277Y-16838079D01*
X12037277Y-16838079D02*
X12046801Y-16876174D01*
X12046801Y-16876174D02*
X12046801Y-16923793D01*
X12046801Y-16923793D02*
X12037277Y-16961889D01*
X12037277Y-16961889D02*
X12027753Y-16980936D01*
X12027753Y-16980936D02*
X12018229Y-16990460D01*
X12018229Y-16990460D02*
X11999182Y-16999984D01*
X11999182Y-16999984D02*
X11980134Y-16999984D01*
X11980134Y-16999984D02*
X11961086Y-16990460D01*
X11961086Y-16990460D02*
X11951563Y-16980936D01*
X11951563Y-16980936D02*
X11942039Y-16961889D01*
X11942039Y-16961889D02*
X11932515Y-16923793D01*
X11932515Y-16923793D02*
X11932515Y-16876174D01*
X11932515Y-16876174D02*
X11942039Y-16838079D01*
X11942039Y-16838079D02*
X11951563Y-16819031D01*
X11951563Y-16819031D02*
X11961086Y-16809508D01*
X11961086Y-16809508D02*
X11980134Y-16799984D01*
X12132515Y-16980936D02*
X12142039Y-16990460D01*
X12142039Y-16990460D02*
X12132515Y-16999984D01*
X12132515Y-16999984D02*
X12122991Y-16990460D01*
X12122991Y-16990460D02*
X12132515Y-16980936D01*
X12132515Y-16980936D02*
X12132515Y-16999984D01*
X12265848Y-16799984D02*
X12284896Y-16799984D01*
X12284896Y-16799984D02*
X12303944Y-16809508D01*
X12303944Y-16809508D02*
X12313467Y-16819031D01*
X12313467Y-16819031D02*
X12322991Y-16838079D01*
X12322991Y-16838079D02*
X12332515Y-16876174D01*
X12332515Y-16876174D02*
X12332515Y-16923793D01*
X12332515Y-16923793D02*
X12322991Y-16961889D01*
X12322991Y-16961889D02*
X12313467Y-16980936D01*
X12313467Y-16980936D02*
X12303944Y-16990460D01*
X12303944Y-16990460D02*
X12284896Y-16999984D01*
X12284896Y-16999984D02*
X12265848Y-16999984D01*
X12265848Y-16999984D02*
X12246801Y-16990460D01*
X12246801Y-16990460D02*
X12237277Y-16980936D01*
X12237277Y-16980936D02*
X12227753Y-16961889D01*
X12227753Y-16961889D02*
X12218229Y-16923793D01*
X12218229Y-16923793D02*
X12218229Y-16876174D01*
X12218229Y-16876174D02*
X12227753Y-16838079D01*
X12227753Y-16838079D02*
X12237277Y-16819031D01*
X12237277Y-16819031D02*
X12246801Y-16809508D01*
X12246801Y-16809508D02*
X12265848Y-16799984D01*
X12408706Y-16819031D02*
X12418229Y-16809508D01*
X12418229Y-16809508D02*
X12437277Y-16799984D01*
X12437277Y-16799984D02*
X12484896Y-16799984D01*
X12484896Y-16799984D02*
X12503944Y-16809508D01*
X12503944Y-16809508D02*
X12513467Y-16819031D01*
X12513467Y-16819031D02*
X12522991Y-16838079D01*
X12522991Y-16838079D02*
X12522991Y-16857127D01*
X12522991Y-16857127D02*
X12513467Y-16885698D01*
X12513467Y-16885698D02*
X12399182Y-16999984D01*
X12399182Y-16999984D02*
X12522991Y-16999984D01*
X12589658Y-16799984D02*
X12722991Y-16799984D01*
X12722991Y-16799984D02*
X12637277Y-16999984D01*
X12884896Y-16799984D02*
X12846801Y-16799984D01*
X12846801Y-16799984D02*
X12827753Y-16809508D01*
X12827753Y-16809508D02*
X12818229Y-16819031D01*
X12818229Y-16819031D02*
X12799182Y-16847603D01*
X12799182Y-16847603D02*
X12789658Y-16885698D01*
X12789658Y-16885698D02*
X12789658Y-16961889D01*
X12789658Y-16961889D02*
X12799182Y-16980936D01*
X12799182Y-16980936D02*
X12808706Y-16990460D01*
X12808706Y-16990460D02*
X12827753Y-16999984D01*
X12827753Y-16999984D02*
X12865848Y-16999984D01*
X12865848Y-16999984D02*
X12884896Y-16990460D01*
X12884896Y-16990460D02*
X12894420Y-16980936D01*
X12894420Y-16980936D02*
X12903944Y-16961889D01*
X12903944Y-16961889D02*
X12903944Y-16914270D01*
X12903944Y-16914270D02*
X12894420Y-16895222D01*
X12894420Y-16895222D02*
X12884896Y-16885698D01*
X12884896Y-16885698D02*
X12865848Y-16876174D01*
X12865848Y-16876174D02*
X12827753Y-16876174D01*
X12827753Y-16876174D02*
X12808706Y-16885698D01*
X12808706Y-16885698D02*
X12799182Y-16895222D01*
X12799182Y-16895222D02*
X12789658Y-16914270D01*
X12980134Y-16799984D02*
X12980134Y-16838079D01*
X13056325Y-16799984D02*
X13056325Y-16838079D01*
X13351563Y-17076174D02*
X13342039Y-17066650D01*
X13342039Y-17066650D02*
X13322991Y-17038079D01*
X13322991Y-17038079D02*
X13313468Y-17019031D01*
X13313468Y-17019031D02*
X13303944Y-16990460D01*
X13303944Y-16990460D02*
X13294420Y-16942841D01*
X13294420Y-16942841D02*
X13294420Y-16904746D01*
X13294420Y-16904746D02*
X13303944Y-16857127D01*
X13303944Y-16857127D02*
X13313468Y-16828555D01*
X13313468Y-16828555D02*
X13322991Y-16809508D01*
X13322991Y-16809508D02*
X13342039Y-16780936D01*
X13342039Y-16780936D02*
X13351563Y-16771412D01*
X13456325Y-16885698D02*
X13437277Y-16876174D01*
X13437277Y-16876174D02*
X13427753Y-16866650D01*
X13427753Y-16866650D02*
X13418229Y-16847603D01*
X13418229Y-16847603D02*
X13418229Y-16838079D01*
X13418229Y-16838079D02*
X13427753Y-16819031D01*
X13427753Y-16819031D02*
X13437277Y-16809508D01*
X13437277Y-16809508D02*
X13456325Y-16799984D01*
X13456325Y-16799984D02*
X13494420Y-16799984D01*
X13494420Y-16799984D02*
X13513468Y-16809508D01*
X13513468Y-16809508D02*
X13522991Y-16819031D01*
X13522991Y-16819031D02*
X13532515Y-16838079D01*
X13532515Y-16838079D02*
X13532515Y-16847603D01*
X13532515Y-16847603D02*
X13522991Y-16866650D01*
X13522991Y-16866650D02*
X13513468Y-16876174D01*
X13513468Y-16876174D02*
X13494420Y-16885698D01*
X13494420Y-16885698D02*
X13456325Y-16885698D01*
X13456325Y-16885698D02*
X13437277Y-16895222D01*
X13437277Y-16895222D02*
X13427753Y-16904746D01*
X13427753Y-16904746D02*
X13418229Y-16923793D01*
X13418229Y-16923793D02*
X13418229Y-16961889D01*
X13418229Y-16961889D02*
X13427753Y-16980936D01*
X13427753Y-16980936D02*
X13437277Y-16990460D01*
X13437277Y-16990460D02*
X13456325Y-16999984D01*
X13456325Y-16999984D02*
X13494420Y-16999984D01*
X13494420Y-16999984D02*
X13513468Y-16990460D01*
X13513468Y-16990460D02*
X13522991Y-16980936D01*
X13522991Y-16980936D02*
X13532515Y-16961889D01*
X13532515Y-16961889D02*
X13532515Y-16923793D01*
X13532515Y-16923793D02*
X13522991Y-16904746D01*
X13522991Y-16904746D02*
X13513468Y-16895222D01*
X13513468Y-16895222D02*
X13494420Y-16885698D01*
X13770610Y-16999984D02*
X13770610Y-16799984D01*
X13856325Y-16999984D02*
X13856325Y-16895222D01*
X13856325Y-16895222D02*
X13846801Y-16876174D01*
X13846801Y-16876174D02*
X13827753Y-16866650D01*
X13827753Y-16866650D02*
X13799182Y-16866650D01*
X13799182Y-16866650D02*
X13780134Y-16876174D01*
X13780134Y-16876174D02*
X13770610Y-16885698D01*
X13980134Y-16999984D02*
X13961087Y-16990460D01*
X13961087Y-16990460D02*
X13951563Y-16980936D01*
X13951563Y-16980936D02*
X13942039Y-16961889D01*
X13942039Y-16961889D02*
X13942039Y-16904746D01*
X13942039Y-16904746D02*
X13951563Y-16885698D01*
X13951563Y-16885698D02*
X13961087Y-16876174D01*
X13961087Y-16876174D02*
X13980134Y-16866650D01*
X13980134Y-16866650D02*
X14008706Y-16866650D01*
X14008706Y-16866650D02*
X14027753Y-16876174D01*
X14027753Y-16876174D02*
X14037277Y-16885698D01*
X14037277Y-16885698D02*
X14046801Y-16904746D01*
X14046801Y-16904746D02*
X14046801Y-16961889D01*
X14046801Y-16961889D02*
X14037277Y-16980936D01*
X14037277Y-16980936D02*
X14027753Y-16990460D01*
X14027753Y-16990460D02*
X14008706Y-16999984D01*
X14008706Y-16999984D02*
X13980134Y-16999984D01*
X14161087Y-16999984D02*
X14142039Y-16990460D01*
X14142039Y-16990460D02*
X14132515Y-16971412D01*
X14132515Y-16971412D02*
X14132515Y-16799984D01*
X14313468Y-16990460D02*
X14294420Y-16999984D01*
X14294420Y-16999984D02*
X14256325Y-16999984D01*
X14256325Y-16999984D02*
X14237277Y-16990460D01*
X14237277Y-16990460D02*
X14227753Y-16971412D01*
X14227753Y-16971412D02*
X14227753Y-16895222D01*
X14227753Y-16895222D02*
X14237277Y-16876174D01*
X14237277Y-16876174D02*
X14256325Y-16866650D01*
X14256325Y-16866650D02*
X14294420Y-16866650D01*
X14294420Y-16866650D02*
X14313468Y-16876174D01*
X14313468Y-16876174D02*
X14322991Y-16895222D01*
X14322991Y-16895222D02*
X14322991Y-16914270D01*
X14322991Y-16914270D02*
X14227753Y-16933317D01*
X14399182Y-16990460D02*
X14418230Y-16999984D01*
X14418230Y-16999984D02*
X14456325Y-16999984D01*
X14456325Y-16999984D02*
X14475372Y-16990460D01*
X14475372Y-16990460D02*
X14484896Y-16971412D01*
X14484896Y-16971412D02*
X14484896Y-16961889D01*
X14484896Y-16961889D02*
X14475372Y-16942841D01*
X14475372Y-16942841D02*
X14456325Y-16933317D01*
X14456325Y-16933317D02*
X14427753Y-16933317D01*
X14427753Y-16933317D02*
X14408706Y-16923793D01*
X14408706Y-16923793D02*
X14399182Y-16904746D01*
X14399182Y-16904746D02*
X14399182Y-16895222D01*
X14399182Y-16895222D02*
X14408706Y-16876174D01*
X14408706Y-16876174D02*
X14427753Y-16866650D01*
X14427753Y-16866650D02*
X14456325Y-16866650D01*
X14456325Y-16866650D02*
X14475372Y-16876174D01*
X14551563Y-17076174D02*
X14561087Y-17066650D01*
X14561087Y-17066650D02*
X14580134Y-17038079D01*
X14580134Y-17038079D02*
X14589658Y-17019031D01*
X14589658Y-17019031D02*
X14599182Y-16990460D01*
X14599182Y-16990460D02*
X14608706Y-16942841D01*
X14608706Y-16942841D02*
X14608706Y-16904746D01*
X14608706Y-16904746D02*
X14599182Y-16857127D01*
X14599182Y-16857127D02*
X14589658Y-16828555D01*
X14589658Y-16828555D02*
X14580134Y-16809508D01*
X14580134Y-16809508D02*
X14561087Y-16780936D01*
X14561087Y-16780936D02*
X14551563Y-16771412D01*
D12*
X9736500Y-17132500D02*
X9736500Y-17212500D01*
X9696500Y-17172500D02*
X9776500Y-17172500D01*
D11*
X10075372Y-17063984D02*
X10094420Y-17063984D01*
X10094420Y-17063984D02*
X10113467Y-17073508D01*
X10113467Y-17073508D02*
X10122991Y-17083031D01*
X10122991Y-17083031D02*
X10132515Y-17102079D01*
X10132515Y-17102079D02*
X10142039Y-17140174D01*
X10142039Y-17140174D02*
X10142039Y-17187793D01*
X10142039Y-17187793D02*
X10132515Y-17225889D01*
X10132515Y-17225889D02*
X10122991Y-17244936D01*
X10122991Y-17244936D02*
X10113467Y-17254460D01*
X10113467Y-17254460D02*
X10094420Y-17263984D01*
X10094420Y-17263984D02*
X10075372Y-17263984D01*
X10075372Y-17263984D02*
X10056324Y-17254460D01*
X10056324Y-17254460D02*
X10046801Y-17244936D01*
X10046801Y-17244936D02*
X10037277Y-17225889D01*
X10037277Y-17225889D02*
X10027753Y-17187793D01*
X10027753Y-17187793D02*
X10027753Y-17140174D01*
X10027753Y-17140174D02*
X10037277Y-17102079D01*
X10037277Y-17102079D02*
X10046801Y-17083031D01*
X10046801Y-17083031D02*
X10056324Y-17073508D01*
X10056324Y-17073508D02*
X10075372Y-17063984D01*
X10227753Y-17244936D02*
X10237277Y-17254460D01*
X10237277Y-17254460D02*
X10227753Y-17263984D01*
X10227753Y-17263984D02*
X10218229Y-17254460D01*
X10218229Y-17254460D02*
X10227753Y-17244936D01*
X10227753Y-17244936D02*
X10227753Y-17263984D01*
X10351563Y-17149698D02*
X10332515Y-17140174D01*
X10332515Y-17140174D02*
X10322991Y-17130650D01*
X10322991Y-17130650D02*
X10313467Y-17111603D01*
X10313467Y-17111603D02*
X10313467Y-17102079D01*
X10313467Y-17102079D02*
X10322991Y-17083031D01*
X10322991Y-17083031D02*
X10332515Y-17073508D01*
X10332515Y-17073508D02*
X10351563Y-17063984D01*
X10351563Y-17063984D02*
X10389658Y-17063984D01*
X10389658Y-17063984D02*
X10408705Y-17073508D01*
X10408705Y-17073508D02*
X10418229Y-17083031D01*
X10418229Y-17083031D02*
X10427753Y-17102079D01*
X10427753Y-17102079D02*
X10427753Y-17111603D01*
X10427753Y-17111603D02*
X10418229Y-17130650D01*
X10418229Y-17130650D02*
X10408705Y-17140174D01*
X10408705Y-17140174D02*
X10389658Y-17149698D01*
X10389658Y-17149698D02*
X10351563Y-17149698D01*
X10351563Y-17149698D02*
X10332515Y-17159222D01*
X10332515Y-17159222D02*
X10322991Y-17168746D01*
X10322991Y-17168746D02*
X10313467Y-17187793D01*
X10313467Y-17187793D02*
X10313467Y-17225889D01*
X10313467Y-17225889D02*
X10322991Y-17244936D01*
X10322991Y-17244936D02*
X10332515Y-17254460D01*
X10332515Y-17254460D02*
X10351563Y-17263984D01*
X10351563Y-17263984D02*
X10389658Y-17263984D01*
X10389658Y-17263984D02*
X10408705Y-17254460D01*
X10408705Y-17254460D02*
X10418229Y-17244936D01*
X10418229Y-17244936D02*
X10427753Y-17225889D01*
X10427753Y-17225889D02*
X10427753Y-17187793D01*
X10427753Y-17187793D02*
X10418229Y-17168746D01*
X10418229Y-17168746D02*
X10408705Y-17159222D01*
X10408705Y-17159222D02*
X10389658Y-17149698D01*
X10551563Y-17063984D02*
X10570610Y-17063984D01*
X10570610Y-17063984D02*
X10589658Y-17073508D01*
X10589658Y-17073508D02*
X10599182Y-17083031D01*
X10599182Y-17083031D02*
X10608705Y-17102079D01*
X10608705Y-17102079D02*
X10618229Y-17140174D01*
X10618229Y-17140174D02*
X10618229Y-17187793D01*
X10618229Y-17187793D02*
X10608705Y-17225889D01*
X10608705Y-17225889D02*
X10599182Y-17244936D01*
X10599182Y-17244936D02*
X10589658Y-17254460D01*
X10589658Y-17254460D02*
X10570610Y-17263984D01*
X10570610Y-17263984D02*
X10551563Y-17263984D01*
X10551563Y-17263984D02*
X10532515Y-17254460D01*
X10532515Y-17254460D02*
X10522991Y-17244936D01*
X10522991Y-17244936D02*
X10513467Y-17225889D01*
X10513467Y-17225889D02*
X10503944Y-17187793D01*
X10503944Y-17187793D02*
X10503944Y-17140174D01*
X10503944Y-17140174D02*
X10513467Y-17102079D01*
X10513467Y-17102079D02*
X10522991Y-17083031D01*
X10522991Y-17083031D02*
X10532515Y-17073508D01*
X10532515Y-17073508D02*
X10551563Y-17063984D01*
X10742039Y-17063984D02*
X10761086Y-17063984D01*
X10761086Y-17063984D02*
X10780134Y-17073508D01*
X10780134Y-17073508D02*
X10789658Y-17083031D01*
X10789658Y-17083031D02*
X10799182Y-17102079D01*
X10799182Y-17102079D02*
X10808705Y-17140174D01*
X10808705Y-17140174D02*
X10808705Y-17187793D01*
X10808705Y-17187793D02*
X10799182Y-17225889D01*
X10799182Y-17225889D02*
X10789658Y-17244936D01*
X10789658Y-17244936D02*
X10780134Y-17254460D01*
X10780134Y-17254460D02*
X10761086Y-17263984D01*
X10761086Y-17263984D02*
X10742039Y-17263984D01*
X10742039Y-17263984D02*
X10722991Y-17254460D01*
X10722991Y-17254460D02*
X10713467Y-17244936D01*
X10713467Y-17244936D02*
X10703944Y-17225889D01*
X10703944Y-17225889D02*
X10694420Y-17187793D01*
X10694420Y-17187793D02*
X10694420Y-17140174D01*
X10694420Y-17140174D02*
X10703944Y-17102079D01*
X10703944Y-17102079D02*
X10713467Y-17083031D01*
X10713467Y-17083031D02*
X10722991Y-17073508D01*
X10722991Y-17073508D02*
X10742039Y-17063984D01*
X10894420Y-17263984D02*
X10894420Y-17130650D01*
X10894420Y-17149698D02*
X10903944Y-17140174D01*
X10903944Y-17140174D02*
X10922991Y-17130650D01*
X10922991Y-17130650D02*
X10951563Y-17130650D01*
X10951563Y-17130650D02*
X10970610Y-17140174D01*
X10970610Y-17140174D02*
X10980134Y-17159222D01*
X10980134Y-17159222D02*
X10980134Y-17263984D01*
X10980134Y-17159222D02*
X10989658Y-17140174D01*
X10989658Y-17140174D02*
X11008705Y-17130650D01*
X11008705Y-17130650D02*
X11037277Y-17130650D01*
X11037277Y-17130650D02*
X11056325Y-17140174D01*
X11056325Y-17140174D02*
X11065848Y-17159222D01*
X11065848Y-17159222D02*
X11065848Y-17263984D01*
X11161086Y-17263984D02*
X11161086Y-17130650D01*
X11161086Y-17149698D02*
X11170610Y-17140174D01*
X11170610Y-17140174D02*
X11189658Y-17130650D01*
X11189658Y-17130650D02*
X11218229Y-17130650D01*
X11218229Y-17130650D02*
X11237277Y-17140174D01*
X11237277Y-17140174D02*
X11246801Y-17159222D01*
X11246801Y-17159222D02*
X11246801Y-17263984D01*
X11246801Y-17159222D02*
X11256324Y-17140174D01*
X11256324Y-17140174D02*
X11275372Y-17130650D01*
X11275372Y-17130650D02*
X11303943Y-17130650D01*
X11303943Y-17130650D02*
X11322991Y-17140174D01*
X11322991Y-17140174D02*
X11332515Y-17159222D01*
X11332515Y-17159222D02*
X11332515Y-17263984D01*
X11722991Y-17054460D02*
X11551563Y-17311603D01*
X11980134Y-17063984D02*
X11999182Y-17063984D01*
X11999182Y-17063984D02*
X12018229Y-17073508D01*
X12018229Y-17073508D02*
X12027753Y-17083031D01*
X12027753Y-17083031D02*
X12037277Y-17102079D01*
X12037277Y-17102079D02*
X12046801Y-17140174D01*
X12046801Y-17140174D02*
X12046801Y-17187793D01*
X12046801Y-17187793D02*
X12037277Y-17225889D01*
X12037277Y-17225889D02*
X12027753Y-17244936D01*
X12027753Y-17244936D02*
X12018229Y-17254460D01*
X12018229Y-17254460D02*
X11999182Y-17263984D01*
X11999182Y-17263984D02*
X11980134Y-17263984D01*
X11980134Y-17263984D02*
X11961086Y-17254460D01*
X11961086Y-17254460D02*
X11951563Y-17244936D01*
X11951563Y-17244936D02*
X11942039Y-17225889D01*
X11942039Y-17225889D02*
X11932515Y-17187793D01*
X11932515Y-17187793D02*
X11932515Y-17140174D01*
X11932515Y-17140174D02*
X11942039Y-17102079D01*
X11942039Y-17102079D02*
X11951563Y-17083031D01*
X11951563Y-17083031D02*
X11961086Y-17073508D01*
X11961086Y-17073508D02*
X11980134Y-17063984D01*
X12132515Y-17244936D02*
X12142039Y-17254460D01*
X12142039Y-17254460D02*
X12132515Y-17263984D01*
X12132515Y-17263984D02*
X12122991Y-17254460D01*
X12122991Y-17254460D02*
X12132515Y-17244936D01*
X12132515Y-17244936D02*
X12132515Y-17263984D01*
X12265848Y-17063984D02*
X12284896Y-17063984D01*
X12284896Y-17063984D02*
X12303944Y-17073508D01*
X12303944Y-17073508D02*
X12313467Y-17083031D01*
X12313467Y-17083031D02*
X12322991Y-17102079D01*
X12322991Y-17102079D02*
X12332515Y-17140174D01*
X12332515Y-17140174D02*
X12332515Y-17187793D01*
X12332515Y-17187793D02*
X12322991Y-17225889D01*
X12322991Y-17225889D02*
X12313467Y-17244936D01*
X12313467Y-17244936D02*
X12303944Y-17254460D01*
X12303944Y-17254460D02*
X12284896Y-17263984D01*
X12284896Y-17263984D02*
X12265848Y-17263984D01*
X12265848Y-17263984D02*
X12246801Y-17254460D01*
X12246801Y-17254460D02*
X12237277Y-17244936D01*
X12237277Y-17244936D02*
X12227753Y-17225889D01*
X12227753Y-17225889D02*
X12218229Y-17187793D01*
X12218229Y-17187793D02*
X12218229Y-17140174D01*
X12218229Y-17140174D02*
X12227753Y-17102079D01*
X12227753Y-17102079D02*
X12237277Y-17083031D01*
X12237277Y-17083031D02*
X12246801Y-17073508D01*
X12246801Y-17073508D02*
X12265848Y-17063984D01*
X12399182Y-17063984D02*
X12522991Y-17063984D01*
X12522991Y-17063984D02*
X12456325Y-17140174D01*
X12456325Y-17140174D02*
X12484896Y-17140174D01*
X12484896Y-17140174D02*
X12503944Y-17149698D01*
X12503944Y-17149698D02*
X12513467Y-17159222D01*
X12513467Y-17159222D02*
X12522991Y-17178270D01*
X12522991Y-17178270D02*
X12522991Y-17225889D01*
X12522991Y-17225889D02*
X12513467Y-17244936D01*
X12513467Y-17244936D02*
X12503944Y-17254460D01*
X12503944Y-17254460D02*
X12484896Y-17263984D01*
X12484896Y-17263984D02*
X12427753Y-17263984D01*
X12427753Y-17263984D02*
X12408706Y-17254460D01*
X12408706Y-17254460D02*
X12399182Y-17244936D01*
X12713467Y-17263984D02*
X12599182Y-17263984D01*
X12656325Y-17263984D02*
X12656325Y-17063984D01*
X12656325Y-17063984D02*
X12637277Y-17092555D01*
X12637277Y-17092555D02*
X12618229Y-17111603D01*
X12618229Y-17111603D02*
X12599182Y-17121127D01*
X12894420Y-17063984D02*
X12799182Y-17063984D01*
X12799182Y-17063984D02*
X12789658Y-17159222D01*
X12789658Y-17159222D02*
X12799182Y-17149698D01*
X12799182Y-17149698D02*
X12818229Y-17140174D01*
X12818229Y-17140174D02*
X12865848Y-17140174D01*
X12865848Y-17140174D02*
X12884896Y-17149698D01*
X12884896Y-17149698D02*
X12894420Y-17159222D01*
X12894420Y-17159222D02*
X12903944Y-17178270D01*
X12903944Y-17178270D02*
X12903944Y-17225889D01*
X12903944Y-17225889D02*
X12894420Y-17244936D01*
X12894420Y-17244936D02*
X12884896Y-17254460D01*
X12884896Y-17254460D02*
X12865848Y-17263984D01*
X12865848Y-17263984D02*
X12818229Y-17263984D01*
X12818229Y-17263984D02*
X12799182Y-17254460D01*
X12799182Y-17254460D02*
X12789658Y-17244936D01*
X12980134Y-17063984D02*
X12980134Y-17102079D01*
X13056325Y-17063984D02*
X13056325Y-17102079D01*
X13351563Y-17340174D02*
X13342039Y-17330650D01*
X13342039Y-17330650D02*
X13322991Y-17302079D01*
X13322991Y-17302079D02*
X13313468Y-17283031D01*
X13313468Y-17283031D02*
X13303944Y-17254460D01*
X13303944Y-17254460D02*
X13294420Y-17206841D01*
X13294420Y-17206841D02*
X13294420Y-17168746D01*
X13294420Y-17168746D02*
X13303944Y-17121127D01*
X13303944Y-17121127D02*
X13313468Y-17092555D01*
X13313468Y-17092555D02*
X13322991Y-17073508D01*
X13322991Y-17073508D02*
X13342039Y-17044936D01*
X13342039Y-17044936D02*
X13351563Y-17035412D01*
X13456325Y-17149698D02*
X13437277Y-17140174D01*
X13437277Y-17140174D02*
X13427753Y-17130650D01*
X13427753Y-17130650D02*
X13418229Y-17111603D01*
X13418229Y-17111603D02*
X13418229Y-17102079D01*
X13418229Y-17102079D02*
X13427753Y-17083031D01*
X13427753Y-17083031D02*
X13437277Y-17073508D01*
X13437277Y-17073508D02*
X13456325Y-17063984D01*
X13456325Y-17063984D02*
X13494420Y-17063984D01*
X13494420Y-17063984D02*
X13513468Y-17073508D01*
X13513468Y-17073508D02*
X13522991Y-17083031D01*
X13522991Y-17083031D02*
X13532515Y-17102079D01*
X13532515Y-17102079D02*
X13532515Y-17111603D01*
X13532515Y-17111603D02*
X13522991Y-17130650D01*
X13522991Y-17130650D02*
X13513468Y-17140174D01*
X13513468Y-17140174D02*
X13494420Y-17149698D01*
X13494420Y-17149698D02*
X13456325Y-17149698D01*
X13456325Y-17149698D02*
X13437277Y-17159222D01*
X13437277Y-17159222D02*
X13427753Y-17168746D01*
X13427753Y-17168746D02*
X13418229Y-17187793D01*
X13418229Y-17187793D02*
X13418229Y-17225889D01*
X13418229Y-17225889D02*
X13427753Y-17244936D01*
X13427753Y-17244936D02*
X13437277Y-17254460D01*
X13437277Y-17254460D02*
X13456325Y-17263984D01*
X13456325Y-17263984D02*
X13494420Y-17263984D01*
X13494420Y-17263984D02*
X13513468Y-17254460D01*
X13513468Y-17254460D02*
X13522991Y-17244936D01*
X13522991Y-17244936D02*
X13532515Y-17225889D01*
X13532515Y-17225889D02*
X13532515Y-17187793D01*
X13532515Y-17187793D02*
X13522991Y-17168746D01*
X13522991Y-17168746D02*
X13513468Y-17159222D01*
X13513468Y-17159222D02*
X13494420Y-17149698D01*
X13646801Y-17149698D02*
X13627753Y-17140174D01*
X13627753Y-17140174D02*
X13618229Y-17130650D01*
X13618229Y-17130650D02*
X13608706Y-17111603D01*
X13608706Y-17111603D02*
X13608706Y-17102079D01*
X13608706Y-17102079D02*
X13618229Y-17083031D01*
X13618229Y-17083031D02*
X13627753Y-17073508D01*
X13627753Y-17073508D02*
X13646801Y-17063984D01*
X13646801Y-17063984D02*
X13684896Y-17063984D01*
X13684896Y-17063984D02*
X13703944Y-17073508D01*
X13703944Y-17073508D02*
X13713468Y-17083031D01*
X13713468Y-17083031D02*
X13722991Y-17102079D01*
X13722991Y-17102079D02*
X13722991Y-17111603D01*
X13722991Y-17111603D02*
X13713468Y-17130650D01*
X13713468Y-17130650D02*
X13703944Y-17140174D01*
X13703944Y-17140174D02*
X13684896Y-17149698D01*
X13684896Y-17149698D02*
X13646801Y-17149698D01*
X13646801Y-17149698D02*
X13627753Y-17159222D01*
X13627753Y-17159222D02*
X13618229Y-17168746D01*
X13618229Y-17168746D02*
X13608706Y-17187793D01*
X13608706Y-17187793D02*
X13608706Y-17225889D01*
X13608706Y-17225889D02*
X13618229Y-17244936D01*
X13618229Y-17244936D02*
X13627753Y-17254460D01*
X13627753Y-17254460D02*
X13646801Y-17263984D01*
X13646801Y-17263984D02*
X13684896Y-17263984D01*
X13684896Y-17263984D02*
X13703944Y-17254460D01*
X13703944Y-17254460D02*
X13713468Y-17244936D01*
X13713468Y-17244936D02*
X13722991Y-17225889D01*
X13722991Y-17225889D02*
X13722991Y-17187793D01*
X13722991Y-17187793D02*
X13713468Y-17168746D01*
X13713468Y-17168746D02*
X13703944Y-17159222D01*
X13703944Y-17159222D02*
X13684896Y-17149698D01*
X13961087Y-17263984D02*
X13961087Y-17063984D01*
X14046801Y-17263984D02*
X14046801Y-17159222D01*
X14046801Y-17159222D02*
X14037277Y-17140174D01*
X14037277Y-17140174D02*
X14018230Y-17130650D01*
X14018230Y-17130650D02*
X13989658Y-17130650D01*
X13989658Y-17130650D02*
X13970610Y-17140174D01*
X13970610Y-17140174D02*
X13961087Y-17149698D01*
X14170610Y-17263984D02*
X14151563Y-17254460D01*
X14151563Y-17254460D02*
X14142039Y-17244936D01*
X14142039Y-17244936D02*
X14132515Y-17225889D01*
X14132515Y-17225889D02*
X14132515Y-17168746D01*
X14132515Y-17168746D02*
X14142039Y-17149698D01*
X14142039Y-17149698D02*
X14151563Y-17140174D01*
X14151563Y-17140174D02*
X14170610Y-17130650D01*
X14170610Y-17130650D02*
X14199182Y-17130650D01*
X14199182Y-17130650D02*
X14218230Y-17140174D01*
X14218230Y-17140174D02*
X14227753Y-17149698D01*
X14227753Y-17149698D02*
X14237277Y-17168746D01*
X14237277Y-17168746D02*
X14237277Y-17225889D01*
X14237277Y-17225889D02*
X14227753Y-17244936D01*
X14227753Y-17244936D02*
X14218230Y-17254460D01*
X14218230Y-17254460D02*
X14199182Y-17263984D01*
X14199182Y-17263984D02*
X14170610Y-17263984D01*
X14351563Y-17263984D02*
X14332515Y-17254460D01*
X14332515Y-17254460D02*
X14322991Y-17235412D01*
X14322991Y-17235412D02*
X14322991Y-17063984D01*
X14503944Y-17254460D02*
X14484896Y-17263984D01*
X14484896Y-17263984D02*
X14446801Y-17263984D01*
X14446801Y-17263984D02*
X14427753Y-17254460D01*
X14427753Y-17254460D02*
X14418230Y-17235412D01*
X14418230Y-17235412D02*
X14418230Y-17159222D01*
X14418230Y-17159222D02*
X14427753Y-17140174D01*
X14427753Y-17140174D02*
X14446801Y-17130650D01*
X14446801Y-17130650D02*
X14484896Y-17130650D01*
X14484896Y-17130650D02*
X14503944Y-17140174D01*
X14503944Y-17140174D02*
X14513468Y-17159222D01*
X14513468Y-17159222D02*
X14513468Y-17178270D01*
X14513468Y-17178270D02*
X14418230Y-17197317D01*
X14589658Y-17254460D02*
X14608706Y-17263984D01*
X14608706Y-17263984D02*
X14646801Y-17263984D01*
X14646801Y-17263984D02*
X14665849Y-17254460D01*
X14665849Y-17254460D02*
X14675372Y-17235412D01*
X14675372Y-17235412D02*
X14675372Y-17225889D01*
X14675372Y-17225889D02*
X14665849Y-17206841D01*
X14665849Y-17206841D02*
X14646801Y-17197317D01*
X14646801Y-17197317D02*
X14618230Y-17197317D01*
X14618230Y-17197317D02*
X14599182Y-17187793D01*
X14599182Y-17187793D02*
X14589658Y-17168746D01*
X14589658Y-17168746D02*
X14589658Y-17159222D01*
X14589658Y-17159222D02*
X14599182Y-17140174D01*
X14599182Y-17140174D02*
X14618230Y-17130650D01*
X14618230Y-17130650D02*
X14646801Y-17130650D01*
X14646801Y-17130650D02*
X14665849Y-17140174D01*
X14742039Y-17340174D02*
X14751563Y-17330650D01*
X14751563Y-17330650D02*
X14770611Y-17302079D01*
X14770611Y-17302079D02*
X14780134Y-17283031D01*
X14780134Y-17283031D02*
X14789658Y-17254460D01*
X14789658Y-17254460D02*
X14799182Y-17206841D01*
X14799182Y-17206841D02*
X14799182Y-17168746D01*
X14799182Y-17168746D02*
X14789658Y-17121127D01*
X14789658Y-17121127D02*
X14780134Y-17092555D01*
X14780134Y-17092555D02*
X14770611Y-17073508D01*
X14770611Y-17073508D02*
X14751563Y-17044936D01*
X14751563Y-17044936D02*
X14742039Y-17035412D01*
D12*
X9763320Y-17468320D02*
X9763320Y-17404680D01*
X9699680Y-17404680D01*
X9699680Y-17468320D01*
X9763320Y-17468320D01*
D11*
X10075372Y-17327984D02*
X10094420Y-17327984D01*
X10094420Y-17327984D02*
X10113467Y-17337508D01*
X10113467Y-17337508D02*
X10122991Y-17347031D01*
X10122991Y-17347031D02*
X10132515Y-17366079D01*
X10132515Y-17366079D02*
X10142039Y-17404174D01*
X10142039Y-17404174D02*
X10142039Y-17451793D01*
X10142039Y-17451793D02*
X10132515Y-17489889D01*
X10132515Y-17489889D02*
X10122991Y-17508936D01*
X10122991Y-17508936D02*
X10113467Y-17518460D01*
X10113467Y-17518460D02*
X10094420Y-17527984D01*
X10094420Y-17527984D02*
X10075372Y-17527984D01*
X10075372Y-17527984D02*
X10056324Y-17518460D01*
X10056324Y-17518460D02*
X10046801Y-17508936D01*
X10046801Y-17508936D02*
X10037277Y-17489889D01*
X10037277Y-17489889D02*
X10027753Y-17451793D01*
X10027753Y-17451793D02*
X10027753Y-17404174D01*
X10027753Y-17404174D02*
X10037277Y-17366079D01*
X10037277Y-17366079D02*
X10046801Y-17347031D01*
X10046801Y-17347031D02*
X10056324Y-17337508D01*
X10056324Y-17337508D02*
X10075372Y-17327984D01*
X10227753Y-17508936D02*
X10237277Y-17518460D01*
X10237277Y-17518460D02*
X10227753Y-17527984D01*
X10227753Y-17527984D02*
X10218229Y-17518460D01*
X10218229Y-17518460D02*
X10227753Y-17508936D01*
X10227753Y-17508936D02*
X10227753Y-17527984D01*
X10332515Y-17527984D02*
X10370610Y-17527984D01*
X10370610Y-17527984D02*
X10389658Y-17518460D01*
X10389658Y-17518460D02*
X10399182Y-17508936D01*
X10399182Y-17508936D02*
X10418229Y-17480365D01*
X10418229Y-17480365D02*
X10427753Y-17442270D01*
X10427753Y-17442270D02*
X10427753Y-17366079D01*
X10427753Y-17366079D02*
X10418229Y-17347031D01*
X10418229Y-17347031D02*
X10408705Y-17337508D01*
X10408705Y-17337508D02*
X10389658Y-17327984D01*
X10389658Y-17327984D02*
X10351563Y-17327984D01*
X10351563Y-17327984D02*
X10332515Y-17337508D01*
X10332515Y-17337508D02*
X10322991Y-17347031D01*
X10322991Y-17347031D02*
X10313467Y-17366079D01*
X10313467Y-17366079D02*
X10313467Y-17413698D01*
X10313467Y-17413698D02*
X10322991Y-17432746D01*
X10322991Y-17432746D02*
X10332515Y-17442270D01*
X10332515Y-17442270D02*
X10351563Y-17451793D01*
X10351563Y-17451793D02*
X10389658Y-17451793D01*
X10389658Y-17451793D02*
X10408705Y-17442270D01*
X10408705Y-17442270D02*
X10418229Y-17432746D01*
X10418229Y-17432746D02*
X10427753Y-17413698D01*
X10551563Y-17327984D02*
X10570610Y-17327984D01*
X10570610Y-17327984D02*
X10589658Y-17337508D01*
X10589658Y-17337508D02*
X10599182Y-17347031D01*
X10599182Y-17347031D02*
X10608705Y-17366079D01*
X10608705Y-17366079D02*
X10618229Y-17404174D01*
X10618229Y-17404174D02*
X10618229Y-17451793D01*
X10618229Y-17451793D02*
X10608705Y-17489889D01*
X10608705Y-17489889D02*
X10599182Y-17508936D01*
X10599182Y-17508936D02*
X10589658Y-17518460D01*
X10589658Y-17518460D02*
X10570610Y-17527984D01*
X10570610Y-17527984D02*
X10551563Y-17527984D01*
X10551563Y-17527984D02*
X10532515Y-17518460D01*
X10532515Y-17518460D02*
X10522991Y-17508936D01*
X10522991Y-17508936D02*
X10513467Y-17489889D01*
X10513467Y-17489889D02*
X10503944Y-17451793D01*
X10503944Y-17451793D02*
X10503944Y-17404174D01*
X10503944Y-17404174D02*
X10513467Y-17366079D01*
X10513467Y-17366079D02*
X10522991Y-17347031D01*
X10522991Y-17347031D02*
X10532515Y-17337508D01*
X10532515Y-17337508D02*
X10551563Y-17327984D01*
X10742039Y-17327984D02*
X10761086Y-17327984D01*
X10761086Y-17327984D02*
X10780134Y-17337508D01*
X10780134Y-17337508D02*
X10789658Y-17347031D01*
X10789658Y-17347031D02*
X10799182Y-17366079D01*
X10799182Y-17366079D02*
X10808705Y-17404174D01*
X10808705Y-17404174D02*
X10808705Y-17451793D01*
X10808705Y-17451793D02*
X10799182Y-17489889D01*
X10799182Y-17489889D02*
X10789658Y-17508936D01*
X10789658Y-17508936D02*
X10780134Y-17518460D01*
X10780134Y-17518460D02*
X10761086Y-17527984D01*
X10761086Y-17527984D02*
X10742039Y-17527984D01*
X10742039Y-17527984D02*
X10722991Y-17518460D01*
X10722991Y-17518460D02*
X10713467Y-17508936D01*
X10713467Y-17508936D02*
X10703944Y-17489889D01*
X10703944Y-17489889D02*
X10694420Y-17451793D01*
X10694420Y-17451793D02*
X10694420Y-17404174D01*
X10694420Y-17404174D02*
X10703944Y-17366079D01*
X10703944Y-17366079D02*
X10713467Y-17347031D01*
X10713467Y-17347031D02*
X10722991Y-17337508D01*
X10722991Y-17337508D02*
X10742039Y-17327984D01*
X10894420Y-17527984D02*
X10894420Y-17394650D01*
X10894420Y-17413698D02*
X10903944Y-17404174D01*
X10903944Y-17404174D02*
X10922991Y-17394650D01*
X10922991Y-17394650D02*
X10951563Y-17394650D01*
X10951563Y-17394650D02*
X10970610Y-17404174D01*
X10970610Y-17404174D02*
X10980134Y-17423222D01*
X10980134Y-17423222D02*
X10980134Y-17527984D01*
X10980134Y-17423222D02*
X10989658Y-17404174D01*
X10989658Y-17404174D02*
X11008705Y-17394650D01*
X11008705Y-17394650D02*
X11037277Y-17394650D01*
X11037277Y-17394650D02*
X11056325Y-17404174D01*
X11056325Y-17404174D02*
X11065848Y-17423222D01*
X11065848Y-17423222D02*
X11065848Y-17527984D01*
X11161086Y-17527984D02*
X11161086Y-17394650D01*
X11161086Y-17413698D02*
X11170610Y-17404174D01*
X11170610Y-17404174D02*
X11189658Y-17394650D01*
X11189658Y-17394650D02*
X11218229Y-17394650D01*
X11218229Y-17394650D02*
X11237277Y-17404174D01*
X11237277Y-17404174D02*
X11246801Y-17423222D01*
X11246801Y-17423222D02*
X11246801Y-17527984D01*
X11246801Y-17423222D02*
X11256324Y-17404174D01*
X11256324Y-17404174D02*
X11275372Y-17394650D01*
X11275372Y-17394650D02*
X11303943Y-17394650D01*
X11303943Y-17394650D02*
X11322991Y-17404174D01*
X11322991Y-17404174D02*
X11332515Y-17423222D01*
X11332515Y-17423222D02*
X11332515Y-17527984D01*
X11722991Y-17318460D02*
X11551563Y-17575603D01*
X11980134Y-17327984D02*
X11999182Y-17327984D01*
X11999182Y-17327984D02*
X12018229Y-17337508D01*
X12018229Y-17337508D02*
X12027753Y-17347031D01*
X12027753Y-17347031D02*
X12037277Y-17366079D01*
X12037277Y-17366079D02*
X12046801Y-17404174D01*
X12046801Y-17404174D02*
X12046801Y-17451793D01*
X12046801Y-17451793D02*
X12037277Y-17489889D01*
X12037277Y-17489889D02*
X12027753Y-17508936D01*
X12027753Y-17508936D02*
X12018229Y-17518460D01*
X12018229Y-17518460D02*
X11999182Y-17527984D01*
X11999182Y-17527984D02*
X11980134Y-17527984D01*
X11980134Y-17527984D02*
X11961086Y-17518460D01*
X11961086Y-17518460D02*
X11951563Y-17508936D01*
X11951563Y-17508936D02*
X11942039Y-17489889D01*
X11942039Y-17489889D02*
X11932515Y-17451793D01*
X11932515Y-17451793D02*
X11932515Y-17404174D01*
X11932515Y-17404174D02*
X11942039Y-17366079D01*
X11942039Y-17366079D02*
X11951563Y-17347031D01*
X11951563Y-17347031D02*
X11961086Y-17337508D01*
X11961086Y-17337508D02*
X11980134Y-17327984D01*
X12132515Y-17508936D02*
X12142039Y-17518460D01*
X12142039Y-17518460D02*
X12132515Y-17527984D01*
X12132515Y-17527984D02*
X12122991Y-17518460D01*
X12122991Y-17518460D02*
X12132515Y-17508936D01*
X12132515Y-17508936D02*
X12132515Y-17527984D01*
X12265848Y-17327984D02*
X12284896Y-17327984D01*
X12284896Y-17327984D02*
X12303944Y-17337508D01*
X12303944Y-17337508D02*
X12313467Y-17347031D01*
X12313467Y-17347031D02*
X12322991Y-17366079D01*
X12322991Y-17366079D02*
X12332515Y-17404174D01*
X12332515Y-17404174D02*
X12332515Y-17451793D01*
X12332515Y-17451793D02*
X12322991Y-17489889D01*
X12322991Y-17489889D02*
X12313467Y-17508936D01*
X12313467Y-17508936D02*
X12303944Y-17518460D01*
X12303944Y-17518460D02*
X12284896Y-17527984D01*
X12284896Y-17527984D02*
X12265848Y-17527984D01*
X12265848Y-17527984D02*
X12246801Y-17518460D01*
X12246801Y-17518460D02*
X12237277Y-17508936D01*
X12237277Y-17508936D02*
X12227753Y-17489889D01*
X12227753Y-17489889D02*
X12218229Y-17451793D01*
X12218229Y-17451793D02*
X12218229Y-17404174D01*
X12218229Y-17404174D02*
X12227753Y-17366079D01*
X12227753Y-17366079D02*
X12237277Y-17347031D01*
X12237277Y-17347031D02*
X12246801Y-17337508D01*
X12246801Y-17337508D02*
X12265848Y-17327984D01*
X12399182Y-17327984D02*
X12522991Y-17327984D01*
X12522991Y-17327984D02*
X12456325Y-17404174D01*
X12456325Y-17404174D02*
X12484896Y-17404174D01*
X12484896Y-17404174D02*
X12503944Y-17413698D01*
X12503944Y-17413698D02*
X12513467Y-17423222D01*
X12513467Y-17423222D02*
X12522991Y-17442270D01*
X12522991Y-17442270D02*
X12522991Y-17489889D01*
X12522991Y-17489889D02*
X12513467Y-17508936D01*
X12513467Y-17508936D02*
X12503944Y-17518460D01*
X12503944Y-17518460D02*
X12484896Y-17527984D01*
X12484896Y-17527984D02*
X12427753Y-17527984D01*
X12427753Y-17527984D02*
X12408706Y-17518460D01*
X12408706Y-17518460D02*
X12399182Y-17508936D01*
X12703944Y-17327984D02*
X12608706Y-17327984D01*
X12608706Y-17327984D02*
X12599182Y-17423222D01*
X12599182Y-17423222D02*
X12608706Y-17413698D01*
X12608706Y-17413698D02*
X12627753Y-17404174D01*
X12627753Y-17404174D02*
X12675372Y-17404174D01*
X12675372Y-17404174D02*
X12694420Y-17413698D01*
X12694420Y-17413698D02*
X12703944Y-17423222D01*
X12703944Y-17423222D02*
X12713467Y-17442270D01*
X12713467Y-17442270D02*
X12713467Y-17489889D01*
X12713467Y-17489889D02*
X12703944Y-17508936D01*
X12703944Y-17508936D02*
X12694420Y-17518460D01*
X12694420Y-17518460D02*
X12675372Y-17527984D01*
X12675372Y-17527984D02*
X12627753Y-17527984D01*
X12627753Y-17527984D02*
X12608706Y-17518460D01*
X12608706Y-17518460D02*
X12599182Y-17508936D01*
X12884896Y-17394650D02*
X12884896Y-17527984D01*
X12837277Y-17318460D02*
X12789658Y-17461317D01*
X12789658Y-17461317D02*
X12913467Y-17461317D01*
X12980134Y-17327984D02*
X12980134Y-17366079D01*
X13056325Y-17327984D02*
X13056325Y-17366079D01*
X13351563Y-17604174D02*
X13342039Y-17594650D01*
X13342039Y-17594650D02*
X13322991Y-17566079D01*
X13322991Y-17566079D02*
X13313468Y-17547031D01*
X13313468Y-17547031D02*
X13303944Y-17518460D01*
X13303944Y-17518460D02*
X13294420Y-17470841D01*
X13294420Y-17470841D02*
X13294420Y-17432746D01*
X13294420Y-17432746D02*
X13303944Y-17385127D01*
X13303944Y-17385127D02*
X13313468Y-17356555D01*
X13313468Y-17356555D02*
X13322991Y-17337508D01*
X13322991Y-17337508D02*
X13342039Y-17308936D01*
X13342039Y-17308936D02*
X13351563Y-17299412D01*
X13513468Y-17327984D02*
X13475372Y-17327984D01*
X13475372Y-17327984D02*
X13456325Y-17337508D01*
X13456325Y-17337508D02*
X13446801Y-17347031D01*
X13446801Y-17347031D02*
X13427753Y-17375603D01*
X13427753Y-17375603D02*
X13418229Y-17413698D01*
X13418229Y-17413698D02*
X13418229Y-17489889D01*
X13418229Y-17489889D02*
X13427753Y-17508936D01*
X13427753Y-17508936D02*
X13437277Y-17518460D01*
X13437277Y-17518460D02*
X13456325Y-17527984D01*
X13456325Y-17527984D02*
X13494420Y-17527984D01*
X13494420Y-17527984D02*
X13513468Y-17518460D01*
X13513468Y-17518460D02*
X13522991Y-17508936D01*
X13522991Y-17508936D02*
X13532515Y-17489889D01*
X13532515Y-17489889D02*
X13532515Y-17442270D01*
X13532515Y-17442270D02*
X13522991Y-17423222D01*
X13522991Y-17423222D02*
X13513468Y-17413698D01*
X13513468Y-17413698D02*
X13494420Y-17404174D01*
X13494420Y-17404174D02*
X13456325Y-17404174D01*
X13456325Y-17404174D02*
X13437277Y-17413698D01*
X13437277Y-17413698D02*
X13427753Y-17423222D01*
X13427753Y-17423222D02*
X13418229Y-17442270D01*
X13770610Y-17527984D02*
X13770610Y-17327984D01*
X13856325Y-17527984D02*
X13856325Y-17423222D01*
X13856325Y-17423222D02*
X13846801Y-17404174D01*
X13846801Y-17404174D02*
X13827753Y-17394650D01*
X13827753Y-17394650D02*
X13799182Y-17394650D01*
X13799182Y-17394650D02*
X13780134Y-17404174D01*
X13780134Y-17404174D02*
X13770610Y-17413698D01*
X13980134Y-17527984D02*
X13961087Y-17518460D01*
X13961087Y-17518460D02*
X13951563Y-17508936D01*
X13951563Y-17508936D02*
X13942039Y-17489889D01*
X13942039Y-17489889D02*
X13942039Y-17432746D01*
X13942039Y-17432746D02*
X13951563Y-17413698D01*
X13951563Y-17413698D02*
X13961087Y-17404174D01*
X13961087Y-17404174D02*
X13980134Y-17394650D01*
X13980134Y-17394650D02*
X14008706Y-17394650D01*
X14008706Y-17394650D02*
X14027753Y-17404174D01*
X14027753Y-17404174D02*
X14037277Y-17413698D01*
X14037277Y-17413698D02*
X14046801Y-17432746D01*
X14046801Y-17432746D02*
X14046801Y-17489889D01*
X14046801Y-17489889D02*
X14037277Y-17508936D01*
X14037277Y-17508936D02*
X14027753Y-17518460D01*
X14027753Y-17518460D02*
X14008706Y-17527984D01*
X14008706Y-17527984D02*
X13980134Y-17527984D01*
X14161087Y-17527984D02*
X14142039Y-17518460D01*
X14142039Y-17518460D02*
X14132515Y-17499412D01*
X14132515Y-17499412D02*
X14132515Y-17327984D01*
X14313468Y-17518460D02*
X14294420Y-17527984D01*
X14294420Y-17527984D02*
X14256325Y-17527984D01*
X14256325Y-17527984D02*
X14237277Y-17518460D01*
X14237277Y-17518460D02*
X14227753Y-17499412D01*
X14227753Y-17499412D02*
X14227753Y-17423222D01*
X14227753Y-17423222D02*
X14237277Y-17404174D01*
X14237277Y-17404174D02*
X14256325Y-17394650D01*
X14256325Y-17394650D02*
X14294420Y-17394650D01*
X14294420Y-17394650D02*
X14313468Y-17404174D01*
X14313468Y-17404174D02*
X14322991Y-17423222D01*
X14322991Y-17423222D02*
X14322991Y-17442270D01*
X14322991Y-17442270D02*
X14227753Y-17461317D01*
X14399182Y-17518460D02*
X14418230Y-17527984D01*
X14418230Y-17527984D02*
X14456325Y-17527984D01*
X14456325Y-17527984D02*
X14475372Y-17518460D01*
X14475372Y-17518460D02*
X14484896Y-17499412D01*
X14484896Y-17499412D02*
X14484896Y-17489889D01*
X14484896Y-17489889D02*
X14475372Y-17470841D01*
X14475372Y-17470841D02*
X14456325Y-17461317D01*
X14456325Y-17461317D02*
X14427753Y-17461317D01*
X14427753Y-17461317D02*
X14408706Y-17451793D01*
X14408706Y-17451793D02*
X14399182Y-17432746D01*
X14399182Y-17432746D02*
X14399182Y-17423222D01*
X14399182Y-17423222D02*
X14408706Y-17404174D01*
X14408706Y-17404174D02*
X14427753Y-17394650D01*
X14427753Y-17394650D02*
X14456325Y-17394650D01*
X14456325Y-17394650D02*
X14475372Y-17404174D01*
X14551563Y-17604174D02*
X14561087Y-17594650D01*
X14561087Y-17594650D02*
X14580134Y-17566079D01*
X14580134Y-17566079D02*
X14589658Y-17547031D01*
X14589658Y-17547031D02*
X14599182Y-17518460D01*
X14599182Y-17518460D02*
X14608706Y-17470841D01*
X14608706Y-17470841D02*
X14608706Y-17432746D01*
X14608706Y-17432746D02*
X14599182Y-17385127D01*
X14599182Y-17385127D02*
X14589658Y-17356555D01*
X14589658Y-17356555D02*
X14580134Y-17337508D01*
X14580134Y-17337508D02*
X14561087Y-17308936D01*
X14561087Y-17308936D02*
X14551563Y-17299412D01*
D12*
X9726500Y-17750500D02*
X9776500Y-17700500D01*
X9726500Y-17650500D01*
X9676500Y-17700500D01*
X9726500Y-17750500D01*
D11*
X10142039Y-17791984D02*
X10027753Y-17791984D01*
X10084896Y-17791984D02*
X10084896Y-17591984D01*
X10084896Y-17591984D02*
X10065848Y-17620555D01*
X10065848Y-17620555D02*
X10046801Y-17639603D01*
X10046801Y-17639603D02*
X10027753Y-17649127D01*
X10227753Y-17772936D02*
X10237277Y-17782460D01*
X10237277Y-17782460D02*
X10227753Y-17791984D01*
X10227753Y-17791984D02*
X10218229Y-17782460D01*
X10218229Y-17782460D02*
X10227753Y-17772936D01*
X10227753Y-17772936D02*
X10227753Y-17791984D01*
X10361086Y-17591984D02*
X10380134Y-17591984D01*
X10380134Y-17591984D02*
X10399182Y-17601508D01*
X10399182Y-17601508D02*
X10408705Y-17611031D01*
X10408705Y-17611031D02*
X10418229Y-17630079D01*
X10418229Y-17630079D02*
X10427753Y-17668174D01*
X10427753Y-17668174D02*
X10427753Y-17715793D01*
X10427753Y-17715793D02*
X10418229Y-17753889D01*
X10418229Y-17753889D02*
X10408705Y-17772936D01*
X10408705Y-17772936D02*
X10399182Y-17782460D01*
X10399182Y-17782460D02*
X10380134Y-17791984D01*
X10380134Y-17791984D02*
X10361086Y-17791984D01*
X10361086Y-17791984D02*
X10342039Y-17782460D01*
X10342039Y-17782460D02*
X10332515Y-17772936D01*
X10332515Y-17772936D02*
X10322991Y-17753889D01*
X10322991Y-17753889D02*
X10313467Y-17715793D01*
X10313467Y-17715793D02*
X10313467Y-17668174D01*
X10313467Y-17668174D02*
X10322991Y-17630079D01*
X10322991Y-17630079D02*
X10332515Y-17611031D01*
X10332515Y-17611031D02*
X10342039Y-17601508D01*
X10342039Y-17601508D02*
X10361086Y-17591984D01*
X10551563Y-17591984D02*
X10570610Y-17591984D01*
X10570610Y-17591984D02*
X10589658Y-17601508D01*
X10589658Y-17601508D02*
X10599182Y-17611031D01*
X10599182Y-17611031D02*
X10608705Y-17630079D01*
X10608705Y-17630079D02*
X10618229Y-17668174D01*
X10618229Y-17668174D02*
X10618229Y-17715793D01*
X10618229Y-17715793D02*
X10608705Y-17753889D01*
X10608705Y-17753889D02*
X10599182Y-17772936D01*
X10599182Y-17772936D02*
X10589658Y-17782460D01*
X10589658Y-17782460D02*
X10570610Y-17791984D01*
X10570610Y-17791984D02*
X10551563Y-17791984D01*
X10551563Y-17791984D02*
X10532515Y-17782460D01*
X10532515Y-17782460D02*
X10522991Y-17772936D01*
X10522991Y-17772936D02*
X10513467Y-17753889D01*
X10513467Y-17753889D02*
X10503944Y-17715793D01*
X10503944Y-17715793D02*
X10503944Y-17668174D01*
X10503944Y-17668174D02*
X10513467Y-17630079D01*
X10513467Y-17630079D02*
X10522991Y-17611031D01*
X10522991Y-17611031D02*
X10532515Y-17601508D01*
X10532515Y-17601508D02*
X10551563Y-17591984D01*
X10742039Y-17591984D02*
X10761086Y-17591984D01*
X10761086Y-17591984D02*
X10780134Y-17601508D01*
X10780134Y-17601508D02*
X10789658Y-17611031D01*
X10789658Y-17611031D02*
X10799182Y-17630079D01*
X10799182Y-17630079D02*
X10808705Y-17668174D01*
X10808705Y-17668174D02*
X10808705Y-17715793D01*
X10808705Y-17715793D02*
X10799182Y-17753889D01*
X10799182Y-17753889D02*
X10789658Y-17772936D01*
X10789658Y-17772936D02*
X10780134Y-17782460D01*
X10780134Y-17782460D02*
X10761086Y-17791984D01*
X10761086Y-17791984D02*
X10742039Y-17791984D01*
X10742039Y-17791984D02*
X10722991Y-17782460D01*
X10722991Y-17782460D02*
X10713467Y-17772936D01*
X10713467Y-17772936D02*
X10703944Y-17753889D01*
X10703944Y-17753889D02*
X10694420Y-17715793D01*
X10694420Y-17715793D02*
X10694420Y-17668174D01*
X10694420Y-17668174D02*
X10703944Y-17630079D01*
X10703944Y-17630079D02*
X10713467Y-17611031D01*
X10713467Y-17611031D02*
X10722991Y-17601508D01*
X10722991Y-17601508D02*
X10742039Y-17591984D01*
X10894420Y-17791984D02*
X10894420Y-17658650D01*
X10894420Y-17677698D02*
X10903944Y-17668174D01*
X10903944Y-17668174D02*
X10922991Y-17658650D01*
X10922991Y-17658650D02*
X10951563Y-17658650D01*
X10951563Y-17658650D02*
X10970610Y-17668174D01*
X10970610Y-17668174D02*
X10980134Y-17687222D01*
X10980134Y-17687222D02*
X10980134Y-17791984D01*
X10980134Y-17687222D02*
X10989658Y-17668174D01*
X10989658Y-17668174D02*
X11008705Y-17658650D01*
X11008705Y-17658650D02*
X11037277Y-17658650D01*
X11037277Y-17658650D02*
X11056325Y-17668174D01*
X11056325Y-17668174D02*
X11065848Y-17687222D01*
X11065848Y-17687222D02*
X11065848Y-17791984D01*
X11161086Y-17791984D02*
X11161086Y-17658650D01*
X11161086Y-17677698D02*
X11170610Y-17668174D01*
X11170610Y-17668174D02*
X11189658Y-17658650D01*
X11189658Y-17658650D02*
X11218229Y-17658650D01*
X11218229Y-17658650D02*
X11237277Y-17668174D01*
X11237277Y-17668174D02*
X11246801Y-17687222D01*
X11246801Y-17687222D02*
X11246801Y-17791984D01*
X11246801Y-17687222D02*
X11256324Y-17668174D01*
X11256324Y-17668174D02*
X11275372Y-17658650D01*
X11275372Y-17658650D02*
X11303943Y-17658650D01*
X11303943Y-17658650D02*
X11322991Y-17668174D01*
X11322991Y-17668174D02*
X11332515Y-17687222D01*
X11332515Y-17687222D02*
X11332515Y-17791984D01*
X11722991Y-17582460D02*
X11551563Y-17839603D01*
X11980134Y-17591984D02*
X11999182Y-17591984D01*
X11999182Y-17591984D02*
X12018229Y-17601508D01*
X12018229Y-17601508D02*
X12027753Y-17611031D01*
X12027753Y-17611031D02*
X12037277Y-17630079D01*
X12037277Y-17630079D02*
X12046801Y-17668174D01*
X12046801Y-17668174D02*
X12046801Y-17715793D01*
X12046801Y-17715793D02*
X12037277Y-17753889D01*
X12037277Y-17753889D02*
X12027753Y-17772936D01*
X12027753Y-17772936D02*
X12018229Y-17782460D01*
X12018229Y-17782460D02*
X11999182Y-17791984D01*
X11999182Y-17791984D02*
X11980134Y-17791984D01*
X11980134Y-17791984D02*
X11961086Y-17782460D01*
X11961086Y-17782460D02*
X11951563Y-17772936D01*
X11951563Y-17772936D02*
X11942039Y-17753889D01*
X11942039Y-17753889D02*
X11932515Y-17715793D01*
X11932515Y-17715793D02*
X11932515Y-17668174D01*
X11932515Y-17668174D02*
X11942039Y-17630079D01*
X11942039Y-17630079D02*
X11951563Y-17611031D01*
X11951563Y-17611031D02*
X11961086Y-17601508D01*
X11961086Y-17601508D02*
X11980134Y-17591984D01*
X12132515Y-17772936D02*
X12142039Y-17782460D01*
X12142039Y-17782460D02*
X12132515Y-17791984D01*
X12132515Y-17791984D02*
X12122991Y-17782460D01*
X12122991Y-17782460D02*
X12132515Y-17772936D01*
X12132515Y-17772936D02*
X12132515Y-17791984D01*
X12265848Y-17591984D02*
X12284896Y-17591984D01*
X12284896Y-17591984D02*
X12303944Y-17601508D01*
X12303944Y-17601508D02*
X12313467Y-17611031D01*
X12313467Y-17611031D02*
X12322991Y-17630079D01*
X12322991Y-17630079D02*
X12332515Y-17668174D01*
X12332515Y-17668174D02*
X12332515Y-17715793D01*
X12332515Y-17715793D02*
X12322991Y-17753889D01*
X12322991Y-17753889D02*
X12313467Y-17772936D01*
X12313467Y-17772936D02*
X12303944Y-17782460D01*
X12303944Y-17782460D02*
X12284896Y-17791984D01*
X12284896Y-17791984D02*
X12265848Y-17791984D01*
X12265848Y-17791984D02*
X12246801Y-17782460D01*
X12246801Y-17782460D02*
X12237277Y-17772936D01*
X12237277Y-17772936D02*
X12227753Y-17753889D01*
X12227753Y-17753889D02*
X12218229Y-17715793D01*
X12218229Y-17715793D02*
X12218229Y-17668174D01*
X12218229Y-17668174D02*
X12227753Y-17630079D01*
X12227753Y-17630079D02*
X12237277Y-17611031D01*
X12237277Y-17611031D02*
X12246801Y-17601508D01*
X12246801Y-17601508D02*
X12265848Y-17591984D01*
X12399182Y-17591984D02*
X12522991Y-17591984D01*
X12522991Y-17591984D02*
X12456325Y-17668174D01*
X12456325Y-17668174D02*
X12484896Y-17668174D01*
X12484896Y-17668174D02*
X12503944Y-17677698D01*
X12503944Y-17677698D02*
X12513467Y-17687222D01*
X12513467Y-17687222D02*
X12522991Y-17706270D01*
X12522991Y-17706270D02*
X12522991Y-17753889D01*
X12522991Y-17753889D02*
X12513467Y-17772936D01*
X12513467Y-17772936D02*
X12503944Y-17782460D01*
X12503944Y-17782460D02*
X12484896Y-17791984D01*
X12484896Y-17791984D02*
X12427753Y-17791984D01*
X12427753Y-17791984D02*
X12408706Y-17782460D01*
X12408706Y-17782460D02*
X12399182Y-17772936D01*
X12618229Y-17791984D02*
X12656325Y-17791984D01*
X12656325Y-17791984D02*
X12675372Y-17782460D01*
X12675372Y-17782460D02*
X12684896Y-17772936D01*
X12684896Y-17772936D02*
X12703944Y-17744365D01*
X12703944Y-17744365D02*
X12713467Y-17706270D01*
X12713467Y-17706270D02*
X12713467Y-17630079D01*
X12713467Y-17630079D02*
X12703944Y-17611031D01*
X12703944Y-17611031D02*
X12694420Y-17601508D01*
X12694420Y-17601508D02*
X12675372Y-17591984D01*
X12675372Y-17591984D02*
X12637277Y-17591984D01*
X12637277Y-17591984D02*
X12618229Y-17601508D01*
X12618229Y-17601508D02*
X12608706Y-17611031D01*
X12608706Y-17611031D02*
X12599182Y-17630079D01*
X12599182Y-17630079D02*
X12599182Y-17677698D01*
X12599182Y-17677698D02*
X12608706Y-17696746D01*
X12608706Y-17696746D02*
X12618229Y-17706270D01*
X12618229Y-17706270D02*
X12637277Y-17715793D01*
X12637277Y-17715793D02*
X12675372Y-17715793D01*
X12675372Y-17715793D02*
X12694420Y-17706270D01*
X12694420Y-17706270D02*
X12703944Y-17696746D01*
X12703944Y-17696746D02*
X12713467Y-17677698D01*
X12884896Y-17658650D02*
X12884896Y-17791984D01*
X12837277Y-17582460D02*
X12789658Y-17725317D01*
X12789658Y-17725317D02*
X12913467Y-17725317D01*
X12980134Y-17591984D02*
X12980134Y-17630079D01*
X13056325Y-17591984D02*
X13056325Y-17630079D01*
X13351563Y-17868174D02*
X13342039Y-17858650D01*
X13342039Y-17858650D02*
X13322991Y-17830079D01*
X13322991Y-17830079D02*
X13313468Y-17811031D01*
X13313468Y-17811031D02*
X13303944Y-17782460D01*
X13303944Y-17782460D02*
X13294420Y-17734841D01*
X13294420Y-17734841D02*
X13294420Y-17696746D01*
X13294420Y-17696746D02*
X13303944Y-17649127D01*
X13303944Y-17649127D02*
X13313468Y-17620555D01*
X13313468Y-17620555D02*
X13322991Y-17601508D01*
X13322991Y-17601508D02*
X13342039Y-17572936D01*
X13342039Y-17572936D02*
X13351563Y-17563412D01*
X13513468Y-17591984D02*
X13475372Y-17591984D01*
X13475372Y-17591984D02*
X13456325Y-17601508D01*
X13456325Y-17601508D02*
X13446801Y-17611031D01*
X13446801Y-17611031D02*
X13427753Y-17639603D01*
X13427753Y-17639603D02*
X13418229Y-17677698D01*
X13418229Y-17677698D02*
X13418229Y-17753889D01*
X13418229Y-17753889D02*
X13427753Y-17772936D01*
X13427753Y-17772936D02*
X13437277Y-17782460D01*
X13437277Y-17782460D02*
X13456325Y-17791984D01*
X13456325Y-17791984D02*
X13494420Y-17791984D01*
X13494420Y-17791984D02*
X13513468Y-17782460D01*
X13513468Y-17782460D02*
X13522991Y-17772936D01*
X13522991Y-17772936D02*
X13532515Y-17753889D01*
X13532515Y-17753889D02*
X13532515Y-17706270D01*
X13532515Y-17706270D02*
X13522991Y-17687222D01*
X13522991Y-17687222D02*
X13513468Y-17677698D01*
X13513468Y-17677698D02*
X13494420Y-17668174D01*
X13494420Y-17668174D02*
X13456325Y-17668174D01*
X13456325Y-17668174D02*
X13437277Y-17677698D01*
X13437277Y-17677698D02*
X13427753Y-17687222D01*
X13427753Y-17687222D02*
X13418229Y-17706270D01*
X13770610Y-17791984D02*
X13770610Y-17591984D01*
X13856325Y-17791984D02*
X13856325Y-17687222D01*
X13856325Y-17687222D02*
X13846801Y-17668174D01*
X13846801Y-17668174D02*
X13827753Y-17658650D01*
X13827753Y-17658650D02*
X13799182Y-17658650D01*
X13799182Y-17658650D02*
X13780134Y-17668174D01*
X13780134Y-17668174D02*
X13770610Y-17677698D01*
X13980134Y-17791984D02*
X13961087Y-17782460D01*
X13961087Y-17782460D02*
X13951563Y-17772936D01*
X13951563Y-17772936D02*
X13942039Y-17753889D01*
X13942039Y-17753889D02*
X13942039Y-17696746D01*
X13942039Y-17696746D02*
X13951563Y-17677698D01*
X13951563Y-17677698D02*
X13961087Y-17668174D01*
X13961087Y-17668174D02*
X13980134Y-17658650D01*
X13980134Y-17658650D02*
X14008706Y-17658650D01*
X14008706Y-17658650D02*
X14027753Y-17668174D01*
X14027753Y-17668174D02*
X14037277Y-17677698D01*
X14037277Y-17677698D02*
X14046801Y-17696746D01*
X14046801Y-17696746D02*
X14046801Y-17753889D01*
X14046801Y-17753889D02*
X14037277Y-17772936D01*
X14037277Y-17772936D02*
X14027753Y-17782460D01*
X14027753Y-17782460D02*
X14008706Y-17791984D01*
X14008706Y-17791984D02*
X13980134Y-17791984D01*
X14161087Y-17791984D02*
X14142039Y-17782460D01*
X14142039Y-17782460D02*
X14132515Y-17763412D01*
X14132515Y-17763412D02*
X14132515Y-17591984D01*
X14313468Y-17782460D02*
X14294420Y-17791984D01*
X14294420Y-17791984D02*
X14256325Y-17791984D01*
X14256325Y-17791984D02*
X14237277Y-17782460D01*
X14237277Y-17782460D02*
X14227753Y-17763412D01*
X14227753Y-17763412D02*
X14227753Y-17687222D01*
X14227753Y-17687222D02*
X14237277Y-17668174D01*
X14237277Y-17668174D02*
X14256325Y-17658650D01*
X14256325Y-17658650D02*
X14294420Y-17658650D01*
X14294420Y-17658650D02*
X14313468Y-17668174D01*
X14313468Y-17668174D02*
X14322991Y-17687222D01*
X14322991Y-17687222D02*
X14322991Y-17706270D01*
X14322991Y-17706270D02*
X14227753Y-17725317D01*
X14399182Y-17782460D02*
X14418230Y-17791984D01*
X14418230Y-17791984D02*
X14456325Y-17791984D01*
X14456325Y-17791984D02*
X14475372Y-17782460D01*
X14475372Y-17782460D02*
X14484896Y-17763412D01*
X14484896Y-17763412D02*
X14484896Y-17753889D01*
X14484896Y-17753889D02*
X14475372Y-17734841D01*
X14475372Y-17734841D02*
X14456325Y-17725317D01*
X14456325Y-17725317D02*
X14427753Y-17725317D01*
X14427753Y-17725317D02*
X14408706Y-17715793D01*
X14408706Y-17715793D02*
X14399182Y-17696746D01*
X14399182Y-17696746D02*
X14399182Y-17687222D01*
X14399182Y-17687222D02*
X14408706Y-17668174D01*
X14408706Y-17668174D02*
X14427753Y-17658650D01*
X14427753Y-17658650D02*
X14456325Y-17658650D01*
X14456325Y-17658650D02*
X14475372Y-17668174D01*
X14551563Y-17868174D02*
X14561087Y-17858650D01*
X14561087Y-17858650D02*
X14580134Y-17830079D01*
X14580134Y-17830079D02*
X14589658Y-17811031D01*
X14589658Y-17811031D02*
X14599182Y-17782460D01*
X14599182Y-17782460D02*
X14608706Y-17734841D01*
X14608706Y-17734841D02*
X14608706Y-17696746D01*
X14608706Y-17696746D02*
X14599182Y-17649127D01*
X14599182Y-17649127D02*
X14589658Y-17620555D01*
X14589658Y-17620555D02*
X14580134Y-17601508D01*
X14580134Y-17601508D02*
X14561087Y-17572936D01*
X14561087Y-17572936D02*
X14551563Y-17563412D01*
D13*
X9666500Y-17909500D02*
X9776500Y-18019500D01*
X9776500Y-17909500D02*
X9666500Y-18019500D01*
X9776500Y-17964500D02*
G75*
G02*
X9666500Y-17964500I-55000J0D01*
G01*
X9666500Y-17964500D02*
G75*
G02*
X9776500Y-17964500I55000J0D01*
G01*
D11*
X10142039Y-18055984D02*
X10027753Y-18055984D01*
X10084896Y-18055984D02*
X10084896Y-17855984D01*
X10084896Y-17855984D02*
X10065848Y-17884555D01*
X10065848Y-17884555D02*
X10046801Y-17903603D01*
X10046801Y-17903603D02*
X10027753Y-17913127D01*
X10227753Y-18036936D02*
X10237277Y-18046460D01*
X10237277Y-18046460D02*
X10227753Y-18055984D01*
X10227753Y-18055984D02*
X10218229Y-18046460D01*
X10218229Y-18046460D02*
X10227753Y-18036936D01*
X10227753Y-18036936D02*
X10227753Y-18055984D01*
X10427753Y-18055984D02*
X10313467Y-18055984D01*
X10370610Y-18055984D02*
X10370610Y-17855984D01*
X10370610Y-17855984D02*
X10351563Y-17884555D01*
X10351563Y-17884555D02*
X10332515Y-17903603D01*
X10332515Y-17903603D02*
X10313467Y-17913127D01*
X10551563Y-17855984D02*
X10570610Y-17855984D01*
X10570610Y-17855984D02*
X10589658Y-17865508D01*
X10589658Y-17865508D02*
X10599182Y-17875031D01*
X10599182Y-17875031D02*
X10608705Y-17894079D01*
X10608705Y-17894079D02*
X10618229Y-17932174D01*
X10618229Y-17932174D02*
X10618229Y-17979793D01*
X10618229Y-17979793D02*
X10608705Y-18017889D01*
X10608705Y-18017889D02*
X10599182Y-18036936D01*
X10599182Y-18036936D02*
X10589658Y-18046460D01*
X10589658Y-18046460D02*
X10570610Y-18055984D01*
X10570610Y-18055984D02*
X10551563Y-18055984D01*
X10551563Y-18055984D02*
X10532515Y-18046460D01*
X10532515Y-18046460D02*
X10522991Y-18036936D01*
X10522991Y-18036936D02*
X10513467Y-18017889D01*
X10513467Y-18017889D02*
X10503944Y-17979793D01*
X10503944Y-17979793D02*
X10503944Y-17932174D01*
X10503944Y-17932174D02*
X10513467Y-17894079D01*
X10513467Y-17894079D02*
X10522991Y-17875031D01*
X10522991Y-17875031D02*
X10532515Y-17865508D01*
X10532515Y-17865508D02*
X10551563Y-17855984D01*
X10742039Y-17855984D02*
X10761086Y-17855984D01*
X10761086Y-17855984D02*
X10780134Y-17865508D01*
X10780134Y-17865508D02*
X10789658Y-17875031D01*
X10789658Y-17875031D02*
X10799182Y-17894079D01*
X10799182Y-17894079D02*
X10808705Y-17932174D01*
X10808705Y-17932174D02*
X10808705Y-17979793D01*
X10808705Y-17979793D02*
X10799182Y-18017889D01*
X10799182Y-18017889D02*
X10789658Y-18036936D01*
X10789658Y-18036936D02*
X10780134Y-18046460D01*
X10780134Y-18046460D02*
X10761086Y-18055984D01*
X10761086Y-18055984D02*
X10742039Y-18055984D01*
X10742039Y-18055984D02*
X10722991Y-18046460D01*
X10722991Y-18046460D02*
X10713467Y-18036936D01*
X10713467Y-18036936D02*
X10703944Y-18017889D01*
X10703944Y-18017889D02*
X10694420Y-17979793D01*
X10694420Y-17979793D02*
X10694420Y-17932174D01*
X10694420Y-17932174D02*
X10703944Y-17894079D01*
X10703944Y-17894079D02*
X10713467Y-17875031D01*
X10713467Y-17875031D02*
X10722991Y-17865508D01*
X10722991Y-17865508D02*
X10742039Y-17855984D01*
X10894420Y-18055984D02*
X10894420Y-17922650D01*
X10894420Y-17941698D02*
X10903944Y-17932174D01*
X10903944Y-17932174D02*
X10922991Y-17922650D01*
X10922991Y-17922650D02*
X10951563Y-17922650D01*
X10951563Y-17922650D02*
X10970610Y-17932174D01*
X10970610Y-17932174D02*
X10980134Y-17951222D01*
X10980134Y-17951222D02*
X10980134Y-18055984D01*
X10980134Y-17951222D02*
X10989658Y-17932174D01*
X10989658Y-17932174D02*
X11008705Y-17922650D01*
X11008705Y-17922650D02*
X11037277Y-17922650D01*
X11037277Y-17922650D02*
X11056325Y-17932174D01*
X11056325Y-17932174D02*
X11065848Y-17951222D01*
X11065848Y-17951222D02*
X11065848Y-18055984D01*
X11161086Y-18055984D02*
X11161086Y-17922650D01*
X11161086Y-17941698D02*
X11170610Y-17932174D01*
X11170610Y-17932174D02*
X11189658Y-17922650D01*
X11189658Y-17922650D02*
X11218229Y-17922650D01*
X11218229Y-17922650D02*
X11237277Y-17932174D01*
X11237277Y-17932174D02*
X11246801Y-17951222D01*
X11246801Y-17951222D02*
X11246801Y-18055984D01*
X11246801Y-17951222D02*
X11256324Y-17932174D01*
X11256324Y-17932174D02*
X11275372Y-17922650D01*
X11275372Y-17922650D02*
X11303943Y-17922650D01*
X11303943Y-17922650D02*
X11322991Y-17932174D01*
X11322991Y-17932174D02*
X11332515Y-17951222D01*
X11332515Y-17951222D02*
X11332515Y-18055984D01*
X11722991Y-17846460D02*
X11551563Y-18103603D01*
X11980134Y-17855984D02*
X11999182Y-17855984D01*
X11999182Y-17855984D02*
X12018229Y-17865508D01*
X12018229Y-17865508D02*
X12027753Y-17875031D01*
X12027753Y-17875031D02*
X12037277Y-17894079D01*
X12037277Y-17894079D02*
X12046801Y-17932174D01*
X12046801Y-17932174D02*
X12046801Y-17979793D01*
X12046801Y-17979793D02*
X12037277Y-18017889D01*
X12037277Y-18017889D02*
X12027753Y-18036936D01*
X12027753Y-18036936D02*
X12018229Y-18046460D01*
X12018229Y-18046460D02*
X11999182Y-18055984D01*
X11999182Y-18055984D02*
X11980134Y-18055984D01*
X11980134Y-18055984D02*
X11961086Y-18046460D01*
X11961086Y-18046460D02*
X11951563Y-18036936D01*
X11951563Y-18036936D02*
X11942039Y-18017889D01*
X11942039Y-18017889D02*
X11932515Y-17979793D01*
X11932515Y-17979793D02*
X11932515Y-17932174D01*
X11932515Y-17932174D02*
X11942039Y-17894079D01*
X11942039Y-17894079D02*
X11951563Y-17875031D01*
X11951563Y-17875031D02*
X11961086Y-17865508D01*
X11961086Y-17865508D02*
X11980134Y-17855984D01*
X12132515Y-18036936D02*
X12142039Y-18046460D01*
X12142039Y-18046460D02*
X12132515Y-18055984D01*
X12132515Y-18055984D02*
X12122991Y-18046460D01*
X12122991Y-18046460D02*
X12132515Y-18036936D01*
X12132515Y-18036936D02*
X12132515Y-18055984D01*
X12265848Y-17855984D02*
X12284896Y-17855984D01*
X12284896Y-17855984D02*
X12303944Y-17865508D01*
X12303944Y-17865508D02*
X12313467Y-17875031D01*
X12313467Y-17875031D02*
X12322991Y-17894079D01*
X12322991Y-17894079D02*
X12332515Y-17932174D01*
X12332515Y-17932174D02*
X12332515Y-17979793D01*
X12332515Y-17979793D02*
X12322991Y-18017889D01*
X12322991Y-18017889D02*
X12313467Y-18036936D01*
X12313467Y-18036936D02*
X12303944Y-18046460D01*
X12303944Y-18046460D02*
X12284896Y-18055984D01*
X12284896Y-18055984D02*
X12265848Y-18055984D01*
X12265848Y-18055984D02*
X12246801Y-18046460D01*
X12246801Y-18046460D02*
X12237277Y-18036936D01*
X12237277Y-18036936D02*
X12227753Y-18017889D01*
X12227753Y-18017889D02*
X12218229Y-17979793D01*
X12218229Y-17979793D02*
X12218229Y-17932174D01*
X12218229Y-17932174D02*
X12227753Y-17894079D01*
X12227753Y-17894079D02*
X12237277Y-17875031D01*
X12237277Y-17875031D02*
X12246801Y-17865508D01*
X12246801Y-17865508D02*
X12265848Y-17855984D01*
X12503944Y-17922650D02*
X12503944Y-18055984D01*
X12456325Y-17846460D02*
X12408706Y-17989317D01*
X12408706Y-17989317D02*
X12532515Y-17989317D01*
X12589658Y-17855984D02*
X12713467Y-17855984D01*
X12713467Y-17855984D02*
X12646801Y-17932174D01*
X12646801Y-17932174D02*
X12675372Y-17932174D01*
X12675372Y-17932174D02*
X12694420Y-17941698D01*
X12694420Y-17941698D02*
X12703944Y-17951222D01*
X12703944Y-17951222D02*
X12713467Y-17970270D01*
X12713467Y-17970270D02*
X12713467Y-18017889D01*
X12713467Y-18017889D02*
X12703944Y-18036936D01*
X12703944Y-18036936D02*
X12694420Y-18046460D01*
X12694420Y-18046460D02*
X12675372Y-18055984D01*
X12675372Y-18055984D02*
X12618229Y-18055984D01*
X12618229Y-18055984D02*
X12599182Y-18046460D01*
X12599182Y-18046460D02*
X12589658Y-18036936D01*
X12780134Y-17855984D02*
X12903944Y-17855984D01*
X12903944Y-17855984D02*
X12837277Y-17932174D01*
X12837277Y-17932174D02*
X12865848Y-17932174D01*
X12865848Y-17932174D02*
X12884896Y-17941698D01*
X12884896Y-17941698D02*
X12894420Y-17951222D01*
X12894420Y-17951222D02*
X12903944Y-17970270D01*
X12903944Y-17970270D02*
X12903944Y-18017889D01*
X12903944Y-18017889D02*
X12894420Y-18036936D01*
X12894420Y-18036936D02*
X12884896Y-18046460D01*
X12884896Y-18046460D02*
X12865848Y-18055984D01*
X12865848Y-18055984D02*
X12808706Y-18055984D01*
X12808706Y-18055984D02*
X12789658Y-18046460D01*
X12789658Y-18046460D02*
X12780134Y-18036936D01*
X12980134Y-17855984D02*
X12980134Y-17894079D01*
X13056325Y-17855984D02*
X13056325Y-17894079D01*
X13351563Y-18132174D02*
X13342039Y-18122650D01*
X13342039Y-18122650D02*
X13322991Y-18094079D01*
X13322991Y-18094079D02*
X13313468Y-18075031D01*
X13313468Y-18075031D02*
X13303944Y-18046460D01*
X13303944Y-18046460D02*
X13294420Y-17998841D01*
X13294420Y-17998841D02*
X13294420Y-17960746D01*
X13294420Y-17960746D02*
X13303944Y-17913127D01*
X13303944Y-17913127D02*
X13313468Y-17884555D01*
X13313468Y-17884555D02*
X13322991Y-17865508D01*
X13322991Y-17865508D02*
X13342039Y-17836936D01*
X13342039Y-17836936D02*
X13351563Y-17827412D01*
X13437277Y-18055984D02*
X13475372Y-18055984D01*
X13475372Y-18055984D02*
X13494420Y-18046460D01*
X13494420Y-18046460D02*
X13503944Y-18036936D01*
X13503944Y-18036936D02*
X13522991Y-18008365D01*
X13522991Y-18008365D02*
X13532515Y-17970270D01*
X13532515Y-17970270D02*
X13532515Y-17894079D01*
X13532515Y-17894079D02*
X13522991Y-17875031D01*
X13522991Y-17875031D02*
X13513468Y-17865508D01*
X13513468Y-17865508D02*
X13494420Y-17855984D01*
X13494420Y-17855984D02*
X13456325Y-17855984D01*
X13456325Y-17855984D02*
X13437277Y-17865508D01*
X13437277Y-17865508D02*
X13427753Y-17875031D01*
X13427753Y-17875031D02*
X13418229Y-17894079D01*
X13418229Y-17894079D02*
X13418229Y-17941698D01*
X13418229Y-17941698D02*
X13427753Y-17960746D01*
X13427753Y-17960746D02*
X13437277Y-17970270D01*
X13437277Y-17970270D02*
X13456325Y-17979793D01*
X13456325Y-17979793D02*
X13494420Y-17979793D01*
X13494420Y-17979793D02*
X13513468Y-17970270D01*
X13513468Y-17970270D02*
X13522991Y-17960746D01*
X13522991Y-17960746D02*
X13532515Y-17941698D01*
X13770610Y-18055984D02*
X13770610Y-17855984D01*
X13856325Y-18055984D02*
X13856325Y-17951222D01*
X13856325Y-17951222D02*
X13846801Y-17932174D01*
X13846801Y-17932174D02*
X13827753Y-17922650D01*
X13827753Y-17922650D02*
X13799182Y-17922650D01*
X13799182Y-17922650D02*
X13780134Y-17932174D01*
X13780134Y-17932174D02*
X13770610Y-17941698D01*
X13980134Y-18055984D02*
X13961087Y-18046460D01*
X13961087Y-18046460D02*
X13951563Y-18036936D01*
X13951563Y-18036936D02*
X13942039Y-18017889D01*
X13942039Y-18017889D02*
X13942039Y-17960746D01*
X13942039Y-17960746D02*
X13951563Y-17941698D01*
X13951563Y-17941698D02*
X13961087Y-17932174D01*
X13961087Y-17932174D02*
X13980134Y-17922650D01*
X13980134Y-17922650D02*
X14008706Y-17922650D01*
X14008706Y-17922650D02*
X14027753Y-17932174D01*
X14027753Y-17932174D02*
X14037277Y-17941698D01*
X14037277Y-17941698D02*
X14046801Y-17960746D01*
X14046801Y-17960746D02*
X14046801Y-18017889D01*
X14046801Y-18017889D02*
X14037277Y-18036936D01*
X14037277Y-18036936D02*
X14027753Y-18046460D01*
X14027753Y-18046460D02*
X14008706Y-18055984D01*
X14008706Y-18055984D02*
X13980134Y-18055984D01*
X14161087Y-18055984D02*
X14142039Y-18046460D01*
X14142039Y-18046460D02*
X14132515Y-18027412D01*
X14132515Y-18027412D02*
X14132515Y-17855984D01*
X14313468Y-18046460D02*
X14294420Y-18055984D01*
X14294420Y-18055984D02*
X14256325Y-18055984D01*
X14256325Y-18055984D02*
X14237277Y-18046460D01*
X14237277Y-18046460D02*
X14227753Y-18027412D01*
X14227753Y-18027412D02*
X14227753Y-17951222D01*
X14227753Y-17951222D02*
X14237277Y-17932174D01*
X14237277Y-17932174D02*
X14256325Y-17922650D01*
X14256325Y-17922650D02*
X14294420Y-17922650D01*
X14294420Y-17922650D02*
X14313468Y-17932174D01*
X14313468Y-17932174D02*
X14322991Y-17951222D01*
X14322991Y-17951222D02*
X14322991Y-17970270D01*
X14322991Y-17970270D02*
X14227753Y-17989317D01*
X14399182Y-18046460D02*
X14418230Y-18055984D01*
X14418230Y-18055984D02*
X14456325Y-18055984D01*
X14456325Y-18055984D02*
X14475372Y-18046460D01*
X14475372Y-18046460D02*
X14484896Y-18027412D01*
X14484896Y-18027412D02*
X14484896Y-18017889D01*
X14484896Y-18017889D02*
X14475372Y-17998841D01*
X14475372Y-17998841D02*
X14456325Y-17989317D01*
X14456325Y-17989317D02*
X14427753Y-17989317D01*
X14427753Y-17989317D02*
X14408706Y-17979793D01*
X14408706Y-17979793D02*
X14399182Y-17960746D01*
X14399182Y-17960746D02*
X14399182Y-17951222D01*
X14399182Y-17951222D02*
X14408706Y-17932174D01*
X14408706Y-17932174D02*
X14427753Y-17922650D01*
X14427753Y-17922650D02*
X14456325Y-17922650D01*
X14456325Y-17922650D02*
X14475372Y-17932174D01*
X14551563Y-18132174D02*
X14561087Y-18122650D01*
X14561087Y-18122650D02*
X14580134Y-18094079D01*
X14580134Y-18094079D02*
X14589658Y-18075031D01*
X14589658Y-18075031D02*
X14599182Y-18046460D01*
X14599182Y-18046460D02*
X14608706Y-17998841D01*
X14608706Y-17998841D02*
X14608706Y-17960746D01*
X14608706Y-17960746D02*
X14599182Y-17913127D01*
X14599182Y-17913127D02*
X14589658Y-17884555D01*
X14589658Y-17884555D02*
X14580134Y-17865508D01*
X14580134Y-17865508D02*
X14561087Y-17836936D01*
X14561087Y-17836936D02*
X14551563Y-17827412D01*
D14*
X9662200Y-18171350D02*
X9776500Y-18285650D01*
X9776500Y-18171350D02*
X9662200Y-18285650D01*
X9719350Y-18171350D02*
X9719350Y-18285650D01*
X9662200Y-18228500D02*
X9776500Y-18228500D01*
D11*
X10142039Y-18319984D02*
X10027753Y-18319984D01*
X10084896Y-18319984D02*
X10084896Y-18119984D01*
X10084896Y-18119984D02*
X10065848Y-18148555D01*
X10065848Y-18148555D02*
X10046801Y-18167603D01*
X10046801Y-18167603D02*
X10027753Y-18177127D01*
X10227753Y-18300936D02*
X10237277Y-18310460D01*
X10237277Y-18310460D02*
X10227753Y-18319984D01*
X10227753Y-18319984D02*
X10218229Y-18310460D01*
X10218229Y-18310460D02*
X10227753Y-18300936D01*
X10227753Y-18300936D02*
X10227753Y-18319984D01*
X10427753Y-18319984D02*
X10313467Y-18319984D01*
X10370610Y-18319984D02*
X10370610Y-18119984D01*
X10370610Y-18119984D02*
X10351563Y-18148555D01*
X10351563Y-18148555D02*
X10332515Y-18167603D01*
X10332515Y-18167603D02*
X10313467Y-18177127D01*
X10599182Y-18186650D02*
X10599182Y-18319984D01*
X10551563Y-18110460D02*
X10503944Y-18253317D01*
X10503944Y-18253317D02*
X10627753Y-18253317D01*
X10684896Y-18119984D02*
X10808705Y-18119984D01*
X10808705Y-18119984D02*
X10742039Y-18196174D01*
X10742039Y-18196174D02*
X10770610Y-18196174D01*
X10770610Y-18196174D02*
X10789658Y-18205698D01*
X10789658Y-18205698D02*
X10799182Y-18215222D01*
X10799182Y-18215222D02*
X10808705Y-18234270D01*
X10808705Y-18234270D02*
X10808705Y-18281889D01*
X10808705Y-18281889D02*
X10799182Y-18300936D01*
X10799182Y-18300936D02*
X10789658Y-18310460D01*
X10789658Y-18310460D02*
X10770610Y-18319984D01*
X10770610Y-18319984D02*
X10713467Y-18319984D01*
X10713467Y-18319984D02*
X10694420Y-18310460D01*
X10694420Y-18310460D02*
X10684896Y-18300936D01*
X10894420Y-18319984D02*
X10894420Y-18186650D01*
X10894420Y-18205698D02*
X10903944Y-18196174D01*
X10903944Y-18196174D02*
X10922991Y-18186650D01*
X10922991Y-18186650D02*
X10951563Y-18186650D01*
X10951563Y-18186650D02*
X10970610Y-18196174D01*
X10970610Y-18196174D02*
X10980134Y-18215222D01*
X10980134Y-18215222D02*
X10980134Y-18319984D01*
X10980134Y-18215222D02*
X10989658Y-18196174D01*
X10989658Y-18196174D02*
X11008705Y-18186650D01*
X11008705Y-18186650D02*
X11037277Y-18186650D01*
X11037277Y-18186650D02*
X11056325Y-18196174D01*
X11056325Y-18196174D02*
X11065848Y-18215222D01*
X11065848Y-18215222D02*
X11065848Y-18319984D01*
X11161086Y-18319984D02*
X11161086Y-18186650D01*
X11161086Y-18205698D02*
X11170610Y-18196174D01*
X11170610Y-18196174D02*
X11189658Y-18186650D01*
X11189658Y-18186650D02*
X11218229Y-18186650D01*
X11218229Y-18186650D02*
X11237277Y-18196174D01*
X11237277Y-18196174D02*
X11246801Y-18215222D01*
X11246801Y-18215222D02*
X11246801Y-18319984D01*
X11246801Y-18215222D02*
X11256324Y-18196174D01*
X11256324Y-18196174D02*
X11275372Y-18186650D01*
X11275372Y-18186650D02*
X11303943Y-18186650D01*
X11303943Y-18186650D02*
X11322991Y-18196174D01*
X11322991Y-18196174D02*
X11332515Y-18215222D01*
X11332515Y-18215222D02*
X11332515Y-18319984D01*
X11722991Y-18110460D02*
X11551563Y-18367603D01*
X11980134Y-18119984D02*
X11999182Y-18119984D01*
X11999182Y-18119984D02*
X12018229Y-18129508D01*
X12018229Y-18129508D02*
X12027753Y-18139031D01*
X12027753Y-18139031D02*
X12037277Y-18158079D01*
X12037277Y-18158079D02*
X12046801Y-18196174D01*
X12046801Y-18196174D02*
X12046801Y-18243793D01*
X12046801Y-18243793D02*
X12037277Y-18281889D01*
X12037277Y-18281889D02*
X12027753Y-18300936D01*
X12027753Y-18300936D02*
X12018229Y-18310460D01*
X12018229Y-18310460D02*
X11999182Y-18319984D01*
X11999182Y-18319984D02*
X11980134Y-18319984D01*
X11980134Y-18319984D02*
X11961086Y-18310460D01*
X11961086Y-18310460D02*
X11951563Y-18300936D01*
X11951563Y-18300936D02*
X11942039Y-18281889D01*
X11942039Y-18281889D02*
X11932515Y-18243793D01*
X11932515Y-18243793D02*
X11932515Y-18196174D01*
X11932515Y-18196174D02*
X11942039Y-18158079D01*
X11942039Y-18158079D02*
X11951563Y-18139031D01*
X11951563Y-18139031D02*
X11961086Y-18129508D01*
X11961086Y-18129508D02*
X11980134Y-18119984D01*
X12132515Y-18300936D02*
X12142039Y-18310460D01*
X12142039Y-18310460D02*
X12132515Y-18319984D01*
X12132515Y-18319984D02*
X12122991Y-18310460D01*
X12122991Y-18310460D02*
X12132515Y-18300936D01*
X12132515Y-18300936D02*
X12132515Y-18319984D01*
X12265848Y-18119984D02*
X12284896Y-18119984D01*
X12284896Y-18119984D02*
X12303944Y-18129508D01*
X12303944Y-18129508D02*
X12313467Y-18139031D01*
X12313467Y-18139031D02*
X12322991Y-18158079D01*
X12322991Y-18158079D02*
X12332515Y-18196174D01*
X12332515Y-18196174D02*
X12332515Y-18243793D01*
X12332515Y-18243793D02*
X12322991Y-18281889D01*
X12322991Y-18281889D02*
X12313467Y-18300936D01*
X12313467Y-18300936D02*
X12303944Y-18310460D01*
X12303944Y-18310460D02*
X12284896Y-18319984D01*
X12284896Y-18319984D02*
X12265848Y-18319984D01*
X12265848Y-18319984D02*
X12246801Y-18310460D01*
X12246801Y-18310460D02*
X12237277Y-18300936D01*
X12237277Y-18300936D02*
X12227753Y-18281889D01*
X12227753Y-18281889D02*
X12218229Y-18243793D01*
X12218229Y-18243793D02*
X12218229Y-18196174D01*
X12218229Y-18196174D02*
X12227753Y-18158079D01*
X12227753Y-18158079D02*
X12237277Y-18139031D01*
X12237277Y-18139031D02*
X12246801Y-18129508D01*
X12246801Y-18129508D02*
X12265848Y-18119984D01*
X12503944Y-18186650D02*
X12503944Y-18319984D01*
X12456325Y-18110460D02*
X12408706Y-18253317D01*
X12408706Y-18253317D02*
X12532515Y-18253317D01*
X12703944Y-18119984D02*
X12608706Y-18119984D01*
X12608706Y-18119984D02*
X12599182Y-18215222D01*
X12599182Y-18215222D02*
X12608706Y-18205698D01*
X12608706Y-18205698D02*
X12627753Y-18196174D01*
X12627753Y-18196174D02*
X12675372Y-18196174D01*
X12675372Y-18196174D02*
X12694420Y-18205698D01*
X12694420Y-18205698D02*
X12703944Y-18215222D01*
X12703944Y-18215222D02*
X12713467Y-18234270D01*
X12713467Y-18234270D02*
X12713467Y-18281889D01*
X12713467Y-18281889D02*
X12703944Y-18300936D01*
X12703944Y-18300936D02*
X12694420Y-18310460D01*
X12694420Y-18310460D02*
X12675372Y-18319984D01*
X12675372Y-18319984D02*
X12627753Y-18319984D01*
X12627753Y-18319984D02*
X12608706Y-18310460D01*
X12608706Y-18310460D02*
X12599182Y-18300936D01*
X12837277Y-18119984D02*
X12856325Y-18119984D01*
X12856325Y-18119984D02*
X12875372Y-18129508D01*
X12875372Y-18129508D02*
X12884896Y-18139031D01*
X12884896Y-18139031D02*
X12894420Y-18158079D01*
X12894420Y-18158079D02*
X12903944Y-18196174D01*
X12903944Y-18196174D02*
X12903944Y-18243793D01*
X12903944Y-18243793D02*
X12894420Y-18281889D01*
X12894420Y-18281889D02*
X12884896Y-18300936D01*
X12884896Y-18300936D02*
X12875372Y-18310460D01*
X12875372Y-18310460D02*
X12856325Y-18319984D01*
X12856325Y-18319984D02*
X12837277Y-18319984D01*
X12837277Y-18319984D02*
X12818229Y-18310460D01*
X12818229Y-18310460D02*
X12808706Y-18300936D01*
X12808706Y-18300936D02*
X12799182Y-18281889D01*
X12799182Y-18281889D02*
X12789658Y-18243793D01*
X12789658Y-18243793D02*
X12789658Y-18196174D01*
X12789658Y-18196174D02*
X12799182Y-18158079D01*
X12799182Y-18158079D02*
X12808706Y-18139031D01*
X12808706Y-18139031D02*
X12818229Y-18129508D01*
X12818229Y-18129508D02*
X12837277Y-18119984D01*
X12980134Y-18119984D02*
X12980134Y-18158079D01*
X13056325Y-18119984D02*
X13056325Y-18158079D01*
X13351563Y-18396174D02*
X13342039Y-18386650D01*
X13342039Y-18386650D02*
X13322991Y-18358079D01*
X13322991Y-18358079D02*
X13313468Y-18339031D01*
X13313468Y-18339031D02*
X13303944Y-18310460D01*
X13303944Y-18310460D02*
X13294420Y-18262841D01*
X13294420Y-18262841D02*
X13294420Y-18224746D01*
X13294420Y-18224746D02*
X13303944Y-18177127D01*
X13303944Y-18177127D02*
X13313468Y-18148555D01*
X13313468Y-18148555D02*
X13322991Y-18129508D01*
X13322991Y-18129508D02*
X13342039Y-18100936D01*
X13342039Y-18100936D02*
X13351563Y-18091412D01*
X13437277Y-18319984D02*
X13475372Y-18319984D01*
X13475372Y-18319984D02*
X13494420Y-18310460D01*
X13494420Y-18310460D02*
X13503944Y-18300936D01*
X13503944Y-18300936D02*
X13522991Y-18272365D01*
X13522991Y-18272365D02*
X13532515Y-18234270D01*
X13532515Y-18234270D02*
X13532515Y-18158079D01*
X13532515Y-18158079D02*
X13522991Y-18139031D01*
X13522991Y-18139031D02*
X13513468Y-18129508D01*
X13513468Y-18129508D02*
X13494420Y-18119984D01*
X13494420Y-18119984D02*
X13456325Y-18119984D01*
X13456325Y-18119984D02*
X13437277Y-18129508D01*
X13437277Y-18129508D02*
X13427753Y-18139031D01*
X13427753Y-18139031D02*
X13418229Y-18158079D01*
X13418229Y-18158079D02*
X13418229Y-18205698D01*
X13418229Y-18205698D02*
X13427753Y-18224746D01*
X13427753Y-18224746D02*
X13437277Y-18234270D01*
X13437277Y-18234270D02*
X13456325Y-18243793D01*
X13456325Y-18243793D02*
X13494420Y-18243793D01*
X13494420Y-18243793D02*
X13513468Y-18234270D01*
X13513468Y-18234270D02*
X13522991Y-18224746D01*
X13522991Y-18224746D02*
X13532515Y-18205698D01*
X13770610Y-18319984D02*
X13770610Y-18119984D01*
X13856325Y-18319984D02*
X13856325Y-18215222D01*
X13856325Y-18215222D02*
X13846801Y-18196174D01*
X13846801Y-18196174D02*
X13827753Y-18186650D01*
X13827753Y-18186650D02*
X13799182Y-18186650D01*
X13799182Y-18186650D02*
X13780134Y-18196174D01*
X13780134Y-18196174D02*
X13770610Y-18205698D01*
X13980134Y-18319984D02*
X13961087Y-18310460D01*
X13961087Y-18310460D02*
X13951563Y-18300936D01*
X13951563Y-18300936D02*
X13942039Y-18281889D01*
X13942039Y-18281889D02*
X13942039Y-18224746D01*
X13942039Y-18224746D02*
X13951563Y-18205698D01*
X13951563Y-18205698D02*
X13961087Y-18196174D01*
X13961087Y-18196174D02*
X13980134Y-18186650D01*
X13980134Y-18186650D02*
X14008706Y-18186650D01*
X14008706Y-18186650D02*
X14027753Y-18196174D01*
X14027753Y-18196174D02*
X14037277Y-18205698D01*
X14037277Y-18205698D02*
X14046801Y-18224746D01*
X14046801Y-18224746D02*
X14046801Y-18281889D01*
X14046801Y-18281889D02*
X14037277Y-18300936D01*
X14037277Y-18300936D02*
X14027753Y-18310460D01*
X14027753Y-18310460D02*
X14008706Y-18319984D01*
X14008706Y-18319984D02*
X13980134Y-18319984D01*
X14161087Y-18319984D02*
X14142039Y-18310460D01*
X14142039Y-18310460D02*
X14132515Y-18291412D01*
X14132515Y-18291412D02*
X14132515Y-18119984D01*
X14313468Y-18310460D02*
X14294420Y-18319984D01*
X14294420Y-18319984D02*
X14256325Y-18319984D01*
X14256325Y-18319984D02*
X14237277Y-18310460D01*
X14237277Y-18310460D02*
X14227753Y-18291412D01*
X14227753Y-18291412D02*
X14227753Y-18215222D01*
X14227753Y-18215222D02*
X14237277Y-18196174D01*
X14237277Y-18196174D02*
X14256325Y-18186650D01*
X14256325Y-18186650D02*
X14294420Y-18186650D01*
X14294420Y-18186650D02*
X14313468Y-18196174D01*
X14313468Y-18196174D02*
X14322991Y-18215222D01*
X14322991Y-18215222D02*
X14322991Y-18234270D01*
X14322991Y-18234270D02*
X14227753Y-18253317D01*
X14399182Y-18310460D02*
X14418230Y-18319984D01*
X14418230Y-18319984D02*
X14456325Y-18319984D01*
X14456325Y-18319984D02*
X14475372Y-18310460D01*
X14475372Y-18310460D02*
X14484896Y-18291412D01*
X14484896Y-18291412D02*
X14484896Y-18281889D01*
X14484896Y-18281889D02*
X14475372Y-18262841D01*
X14475372Y-18262841D02*
X14456325Y-18253317D01*
X14456325Y-18253317D02*
X14427753Y-18253317D01*
X14427753Y-18253317D02*
X14408706Y-18243793D01*
X14408706Y-18243793D02*
X14399182Y-18224746D01*
X14399182Y-18224746D02*
X14399182Y-18215222D01*
X14399182Y-18215222D02*
X14408706Y-18196174D01*
X14408706Y-18196174D02*
X14427753Y-18186650D01*
X14427753Y-18186650D02*
X14456325Y-18186650D01*
X14456325Y-18186650D02*
X14475372Y-18196174D01*
X14551563Y-18396174D02*
X14561087Y-18386650D01*
X14561087Y-18386650D02*
X14580134Y-18358079D01*
X14580134Y-18358079D02*
X14589658Y-18339031D01*
X14589658Y-18339031D02*
X14599182Y-18310460D01*
X14599182Y-18310460D02*
X14608706Y-18262841D01*
X14608706Y-18262841D02*
X14608706Y-18224746D01*
X14608706Y-18224746D02*
X14599182Y-18177127D01*
X14599182Y-18177127D02*
X14589658Y-18148555D01*
X14589658Y-18148555D02*
X14580134Y-18129508D01*
X14580134Y-18129508D02*
X14561087Y-18100936D01*
X14561087Y-18100936D02*
X14551563Y-18091412D01*
D15*
X9656500Y-18432500D02*
X9776500Y-18552500D01*
X9776500Y-18432500D02*
X9656500Y-18552500D01*
X9758927Y-18534927D02*
X9758927Y-18450073D01*
X9674073Y-18450073D01*
X9674073Y-18534927D01*
X9758927Y-18534927D01*
D11*
X10142039Y-18583984D02*
X10027753Y-18583984D01*
X10084896Y-18583984D02*
X10084896Y-18383984D01*
X10084896Y-18383984D02*
X10065848Y-18412555D01*
X10065848Y-18412555D02*
X10046801Y-18431603D01*
X10046801Y-18431603D02*
X10027753Y-18441127D01*
X10227753Y-18564936D02*
X10237277Y-18574460D01*
X10237277Y-18574460D02*
X10227753Y-18583984D01*
X10227753Y-18583984D02*
X10218229Y-18574460D01*
X10218229Y-18574460D02*
X10227753Y-18564936D01*
X10227753Y-18564936D02*
X10227753Y-18583984D01*
X10313467Y-18403031D02*
X10322991Y-18393508D01*
X10322991Y-18393508D02*
X10342039Y-18383984D01*
X10342039Y-18383984D02*
X10389658Y-18383984D01*
X10389658Y-18383984D02*
X10408705Y-18393508D01*
X10408705Y-18393508D02*
X10418229Y-18403031D01*
X10418229Y-18403031D02*
X10427753Y-18422079D01*
X10427753Y-18422079D02*
X10427753Y-18441127D01*
X10427753Y-18441127D02*
X10418229Y-18469698D01*
X10418229Y-18469698D02*
X10303944Y-18583984D01*
X10303944Y-18583984D02*
X10427753Y-18583984D01*
X10551563Y-18383984D02*
X10570610Y-18383984D01*
X10570610Y-18383984D02*
X10589658Y-18393508D01*
X10589658Y-18393508D02*
X10599182Y-18403031D01*
X10599182Y-18403031D02*
X10608705Y-18422079D01*
X10608705Y-18422079D02*
X10618229Y-18460174D01*
X10618229Y-18460174D02*
X10618229Y-18507793D01*
X10618229Y-18507793D02*
X10608705Y-18545889D01*
X10608705Y-18545889D02*
X10599182Y-18564936D01*
X10599182Y-18564936D02*
X10589658Y-18574460D01*
X10589658Y-18574460D02*
X10570610Y-18583984D01*
X10570610Y-18583984D02*
X10551563Y-18583984D01*
X10551563Y-18583984D02*
X10532515Y-18574460D01*
X10532515Y-18574460D02*
X10522991Y-18564936D01*
X10522991Y-18564936D02*
X10513467Y-18545889D01*
X10513467Y-18545889D02*
X10503944Y-18507793D01*
X10503944Y-18507793D02*
X10503944Y-18460174D01*
X10503944Y-18460174D02*
X10513467Y-18422079D01*
X10513467Y-18422079D02*
X10522991Y-18403031D01*
X10522991Y-18403031D02*
X10532515Y-18393508D01*
X10532515Y-18393508D02*
X10551563Y-18383984D01*
X10742039Y-18383984D02*
X10761086Y-18383984D01*
X10761086Y-18383984D02*
X10780134Y-18393508D01*
X10780134Y-18393508D02*
X10789658Y-18403031D01*
X10789658Y-18403031D02*
X10799182Y-18422079D01*
X10799182Y-18422079D02*
X10808705Y-18460174D01*
X10808705Y-18460174D02*
X10808705Y-18507793D01*
X10808705Y-18507793D02*
X10799182Y-18545889D01*
X10799182Y-18545889D02*
X10789658Y-18564936D01*
X10789658Y-18564936D02*
X10780134Y-18574460D01*
X10780134Y-18574460D02*
X10761086Y-18583984D01*
X10761086Y-18583984D02*
X10742039Y-18583984D01*
X10742039Y-18583984D02*
X10722991Y-18574460D01*
X10722991Y-18574460D02*
X10713467Y-18564936D01*
X10713467Y-18564936D02*
X10703944Y-18545889D01*
X10703944Y-18545889D02*
X10694420Y-18507793D01*
X10694420Y-18507793D02*
X10694420Y-18460174D01*
X10694420Y-18460174D02*
X10703944Y-18422079D01*
X10703944Y-18422079D02*
X10713467Y-18403031D01*
X10713467Y-18403031D02*
X10722991Y-18393508D01*
X10722991Y-18393508D02*
X10742039Y-18383984D01*
X10894420Y-18583984D02*
X10894420Y-18450650D01*
X10894420Y-18469698D02*
X10903944Y-18460174D01*
X10903944Y-18460174D02*
X10922991Y-18450650D01*
X10922991Y-18450650D02*
X10951563Y-18450650D01*
X10951563Y-18450650D02*
X10970610Y-18460174D01*
X10970610Y-18460174D02*
X10980134Y-18479222D01*
X10980134Y-18479222D02*
X10980134Y-18583984D01*
X10980134Y-18479222D02*
X10989658Y-18460174D01*
X10989658Y-18460174D02*
X11008705Y-18450650D01*
X11008705Y-18450650D02*
X11037277Y-18450650D01*
X11037277Y-18450650D02*
X11056325Y-18460174D01*
X11056325Y-18460174D02*
X11065848Y-18479222D01*
X11065848Y-18479222D02*
X11065848Y-18583984D01*
X11161086Y-18583984D02*
X11161086Y-18450650D01*
X11161086Y-18469698D02*
X11170610Y-18460174D01*
X11170610Y-18460174D02*
X11189658Y-18450650D01*
X11189658Y-18450650D02*
X11218229Y-18450650D01*
X11218229Y-18450650D02*
X11237277Y-18460174D01*
X11237277Y-18460174D02*
X11246801Y-18479222D01*
X11246801Y-18479222D02*
X11246801Y-18583984D01*
X11246801Y-18479222D02*
X11256324Y-18460174D01*
X11256324Y-18460174D02*
X11275372Y-18450650D01*
X11275372Y-18450650D02*
X11303943Y-18450650D01*
X11303943Y-18450650D02*
X11322991Y-18460174D01*
X11322991Y-18460174D02*
X11332515Y-18479222D01*
X11332515Y-18479222D02*
X11332515Y-18583984D01*
X11722991Y-18374460D02*
X11551563Y-18631603D01*
X11980134Y-18383984D02*
X11999182Y-18383984D01*
X11999182Y-18383984D02*
X12018229Y-18393508D01*
X12018229Y-18393508D02*
X12027753Y-18403031D01*
X12027753Y-18403031D02*
X12037277Y-18422079D01*
X12037277Y-18422079D02*
X12046801Y-18460174D01*
X12046801Y-18460174D02*
X12046801Y-18507793D01*
X12046801Y-18507793D02*
X12037277Y-18545889D01*
X12037277Y-18545889D02*
X12027753Y-18564936D01*
X12027753Y-18564936D02*
X12018229Y-18574460D01*
X12018229Y-18574460D02*
X11999182Y-18583984D01*
X11999182Y-18583984D02*
X11980134Y-18583984D01*
X11980134Y-18583984D02*
X11961086Y-18574460D01*
X11961086Y-18574460D02*
X11951563Y-18564936D01*
X11951563Y-18564936D02*
X11942039Y-18545889D01*
X11942039Y-18545889D02*
X11932515Y-18507793D01*
X11932515Y-18507793D02*
X11932515Y-18460174D01*
X11932515Y-18460174D02*
X11942039Y-18422079D01*
X11942039Y-18422079D02*
X11951563Y-18403031D01*
X11951563Y-18403031D02*
X11961086Y-18393508D01*
X11961086Y-18393508D02*
X11980134Y-18383984D01*
X12132515Y-18564936D02*
X12142039Y-18574460D01*
X12142039Y-18574460D02*
X12132515Y-18583984D01*
X12132515Y-18583984D02*
X12122991Y-18574460D01*
X12122991Y-18574460D02*
X12132515Y-18564936D01*
X12132515Y-18564936D02*
X12132515Y-18583984D01*
X12265848Y-18383984D02*
X12284896Y-18383984D01*
X12284896Y-18383984D02*
X12303944Y-18393508D01*
X12303944Y-18393508D02*
X12313467Y-18403031D01*
X12313467Y-18403031D02*
X12322991Y-18422079D01*
X12322991Y-18422079D02*
X12332515Y-18460174D01*
X12332515Y-18460174D02*
X12332515Y-18507793D01*
X12332515Y-18507793D02*
X12322991Y-18545889D01*
X12322991Y-18545889D02*
X12313467Y-18564936D01*
X12313467Y-18564936D02*
X12303944Y-18574460D01*
X12303944Y-18574460D02*
X12284896Y-18583984D01*
X12284896Y-18583984D02*
X12265848Y-18583984D01*
X12265848Y-18583984D02*
X12246801Y-18574460D01*
X12246801Y-18574460D02*
X12237277Y-18564936D01*
X12237277Y-18564936D02*
X12227753Y-18545889D01*
X12227753Y-18545889D02*
X12218229Y-18507793D01*
X12218229Y-18507793D02*
X12218229Y-18460174D01*
X12218229Y-18460174D02*
X12227753Y-18422079D01*
X12227753Y-18422079D02*
X12237277Y-18403031D01*
X12237277Y-18403031D02*
X12246801Y-18393508D01*
X12246801Y-18393508D02*
X12265848Y-18383984D01*
X12503944Y-18450650D02*
X12503944Y-18583984D01*
X12456325Y-18374460D02*
X12408706Y-18517317D01*
X12408706Y-18517317D02*
X12532515Y-18517317D01*
X12589658Y-18383984D02*
X12722991Y-18383984D01*
X12722991Y-18383984D02*
X12637277Y-18583984D01*
X12789658Y-18403031D02*
X12799182Y-18393508D01*
X12799182Y-18393508D02*
X12818229Y-18383984D01*
X12818229Y-18383984D02*
X12865848Y-18383984D01*
X12865848Y-18383984D02*
X12884896Y-18393508D01*
X12884896Y-18393508D02*
X12894420Y-18403031D01*
X12894420Y-18403031D02*
X12903944Y-18422079D01*
X12903944Y-18422079D02*
X12903944Y-18441127D01*
X12903944Y-18441127D02*
X12894420Y-18469698D01*
X12894420Y-18469698D02*
X12780134Y-18583984D01*
X12780134Y-18583984D02*
X12903944Y-18583984D01*
X12980134Y-18383984D02*
X12980134Y-18422079D01*
X13056325Y-18383984D02*
X13056325Y-18422079D01*
X13351563Y-18660174D02*
X13342039Y-18650650D01*
X13342039Y-18650650D02*
X13322991Y-18622079D01*
X13322991Y-18622079D02*
X13313468Y-18603031D01*
X13313468Y-18603031D02*
X13303944Y-18574460D01*
X13303944Y-18574460D02*
X13294420Y-18526841D01*
X13294420Y-18526841D02*
X13294420Y-18488746D01*
X13294420Y-18488746D02*
X13303944Y-18441127D01*
X13303944Y-18441127D02*
X13313468Y-18412555D01*
X13313468Y-18412555D02*
X13322991Y-18393508D01*
X13322991Y-18393508D02*
X13342039Y-18364936D01*
X13342039Y-18364936D02*
X13351563Y-18355412D01*
X13532515Y-18583984D02*
X13418229Y-18583984D01*
X13475372Y-18583984D02*
X13475372Y-18383984D01*
X13475372Y-18383984D02*
X13456325Y-18412555D01*
X13456325Y-18412555D02*
X13437277Y-18431603D01*
X13437277Y-18431603D02*
X13418229Y-18441127D01*
X13608706Y-18403031D02*
X13618229Y-18393508D01*
X13618229Y-18393508D02*
X13637277Y-18383984D01*
X13637277Y-18383984D02*
X13684896Y-18383984D01*
X13684896Y-18383984D02*
X13703944Y-18393508D01*
X13703944Y-18393508D02*
X13713468Y-18403031D01*
X13713468Y-18403031D02*
X13722991Y-18422079D01*
X13722991Y-18422079D02*
X13722991Y-18441127D01*
X13722991Y-18441127D02*
X13713468Y-18469698D01*
X13713468Y-18469698D02*
X13599182Y-18583984D01*
X13599182Y-18583984D02*
X13722991Y-18583984D01*
X13961087Y-18583984D02*
X13961087Y-18383984D01*
X14046801Y-18583984D02*
X14046801Y-18479222D01*
X14046801Y-18479222D02*
X14037277Y-18460174D01*
X14037277Y-18460174D02*
X14018230Y-18450650D01*
X14018230Y-18450650D02*
X13989658Y-18450650D01*
X13989658Y-18450650D02*
X13970610Y-18460174D01*
X13970610Y-18460174D02*
X13961087Y-18469698D01*
X14170610Y-18583984D02*
X14151563Y-18574460D01*
X14151563Y-18574460D02*
X14142039Y-18564936D01*
X14142039Y-18564936D02*
X14132515Y-18545889D01*
X14132515Y-18545889D02*
X14132515Y-18488746D01*
X14132515Y-18488746D02*
X14142039Y-18469698D01*
X14142039Y-18469698D02*
X14151563Y-18460174D01*
X14151563Y-18460174D02*
X14170610Y-18450650D01*
X14170610Y-18450650D02*
X14199182Y-18450650D01*
X14199182Y-18450650D02*
X14218230Y-18460174D01*
X14218230Y-18460174D02*
X14227753Y-18469698D01*
X14227753Y-18469698D02*
X14237277Y-18488746D01*
X14237277Y-18488746D02*
X14237277Y-18545889D01*
X14237277Y-18545889D02*
X14227753Y-18564936D01*
X14227753Y-18564936D02*
X14218230Y-18574460D01*
X14218230Y-18574460D02*
X14199182Y-18583984D01*
X14199182Y-18583984D02*
X14170610Y-18583984D01*
X14351563Y-18583984D02*
X14332515Y-18574460D01*
X14332515Y-18574460D02*
X14322991Y-18555412D01*
X14322991Y-18555412D02*
X14322991Y-18383984D01*
X14503944Y-18574460D02*
X14484896Y-18583984D01*
X14484896Y-18583984D02*
X14446801Y-18583984D01*
X14446801Y-18583984D02*
X14427753Y-18574460D01*
X14427753Y-18574460D02*
X14418230Y-18555412D01*
X14418230Y-18555412D02*
X14418230Y-18479222D01*
X14418230Y-18479222D02*
X14427753Y-18460174D01*
X14427753Y-18460174D02*
X14446801Y-18450650D01*
X14446801Y-18450650D02*
X14484896Y-18450650D01*
X14484896Y-18450650D02*
X14503944Y-18460174D01*
X14503944Y-18460174D02*
X14513468Y-18479222D01*
X14513468Y-18479222D02*
X14513468Y-18498270D01*
X14513468Y-18498270D02*
X14418230Y-18517317D01*
X14589658Y-18574460D02*
X14608706Y-18583984D01*
X14608706Y-18583984D02*
X14646801Y-18583984D01*
X14646801Y-18583984D02*
X14665849Y-18574460D01*
X14665849Y-18574460D02*
X14675372Y-18555412D01*
X14675372Y-18555412D02*
X14675372Y-18545889D01*
X14675372Y-18545889D02*
X14665849Y-18526841D01*
X14665849Y-18526841D02*
X14646801Y-18517317D01*
X14646801Y-18517317D02*
X14618230Y-18517317D01*
X14618230Y-18517317D02*
X14599182Y-18507793D01*
X14599182Y-18507793D02*
X14589658Y-18488746D01*
X14589658Y-18488746D02*
X14589658Y-18479222D01*
X14589658Y-18479222D02*
X14599182Y-18460174D01*
X14599182Y-18460174D02*
X14618230Y-18450650D01*
X14618230Y-18450650D02*
X14646801Y-18450650D01*
X14646801Y-18450650D02*
X14665849Y-18460174D01*
X14742039Y-18660174D02*
X14751563Y-18650650D01*
X14751563Y-18650650D02*
X14770611Y-18622079D01*
X14770611Y-18622079D02*
X14780134Y-18603031D01*
X14780134Y-18603031D02*
X14789658Y-18574460D01*
X14789658Y-18574460D02*
X14799182Y-18526841D01*
X14799182Y-18526841D02*
X14799182Y-18488746D01*
X14799182Y-18488746D02*
X14789658Y-18441127D01*
X14789658Y-18441127D02*
X14780134Y-18412555D01*
X14780134Y-18412555D02*
X14770611Y-18393508D01*
X14770611Y-18393508D02*
X14751563Y-18364936D01*
X14751563Y-18364936D02*
X14742039Y-18355412D01*
D16*
X9649500Y-18693000D02*
X9776500Y-18820000D01*
X9776500Y-18693000D02*
X9649500Y-18820000D01*
X9713000Y-18820000D02*
X9776500Y-18756500D01*
X9713000Y-18693000D01*
X9649500Y-18756500D01*
X9713000Y-18820000D01*
D11*
X10142039Y-18847984D02*
X10027753Y-18847984D01*
X10084896Y-18847984D02*
X10084896Y-18647984D01*
X10084896Y-18647984D02*
X10065848Y-18676555D01*
X10065848Y-18676555D02*
X10046801Y-18695603D01*
X10046801Y-18695603D02*
X10027753Y-18705127D01*
X10227753Y-18828936D02*
X10237277Y-18838460D01*
X10237277Y-18838460D02*
X10227753Y-18847984D01*
X10227753Y-18847984D02*
X10218229Y-18838460D01*
X10218229Y-18838460D02*
X10227753Y-18828936D01*
X10227753Y-18828936D02*
X10227753Y-18847984D01*
X10313467Y-18667031D02*
X10322991Y-18657508D01*
X10322991Y-18657508D02*
X10342039Y-18647984D01*
X10342039Y-18647984D02*
X10389658Y-18647984D01*
X10389658Y-18647984D02*
X10408705Y-18657508D01*
X10408705Y-18657508D02*
X10418229Y-18667031D01*
X10418229Y-18667031D02*
X10427753Y-18686079D01*
X10427753Y-18686079D02*
X10427753Y-18705127D01*
X10427753Y-18705127D02*
X10418229Y-18733698D01*
X10418229Y-18733698D02*
X10303944Y-18847984D01*
X10303944Y-18847984D02*
X10427753Y-18847984D01*
X10494420Y-18647984D02*
X10627753Y-18647984D01*
X10627753Y-18647984D02*
X10542039Y-18847984D01*
X10742039Y-18647984D02*
X10761086Y-18647984D01*
X10761086Y-18647984D02*
X10780134Y-18657508D01*
X10780134Y-18657508D02*
X10789658Y-18667031D01*
X10789658Y-18667031D02*
X10799182Y-18686079D01*
X10799182Y-18686079D02*
X10808705Y-18724174D01*
X10808705Y-18724174D02*
X10808705Y-18771793D01*
X10808705Y-18771793D02*
X10799182Y-18809889D01*
X10799182Y-18809889D02*
X10789658Y-18828936D01*
X10789658Y-18828936D02*
X10780134Y-18838460D01*
X10780134Y-18838460D02*
X10761086Y-18847984D01*
X10761086Y-18847984D02*
X10742039Y-18847984D01*
X10742039Y-18847984D02*
X10722991Y-18838460D01*
X10722991Y-18838460D02*
X10713467Y-18828936D01*
X10713467Y-18828936D02*
X10703944Y-18809889D01*
X10703944Y-18809889D02*
X10694420Y-18771793D01*
X10694420Y-18771793D02*
X10694420Y-18724174D01*
X10694420Y-18724174D02*
X10703944Y-18686079D01*
X10703944Y-18686079D02*
X10713467Y-18667031D01*
X10713467Y-18667031D02*
X10722991Y-18657508D01*
X10722991Y-18657508D02*
X10742039Y-18647984D01*
X10894420Y-18847984D02*
X10894420Y-18714650D01*
X10894420Y-18733698D02*
X10903944Y-18724174D01*
X10903944Y-18724174D02*
X10922991Y-18714650D01*
X10922991Y-18714650D02*
X10951563Y-18714650D01*
X10951563Y-18714650D02*
X10970610Y-18724174D01*
X10970610Y-18724174D02*
X10980134Y-18743222D01*
X10980134Y-18743222D02*
X10980134Y-18847984D01*
X10980134Y-18743222D02*
X10989658Y-18724174D01*
X10989658Y-18724174D02*
X11008705Y-18714650D01*
X11008705Y-18714650D02*
X11037277Y-18714650D01*
X11037277Y-18714650D02*
X11056325Y-18724174D01*
X11056325Y-18724174D02*
X11065848Y-18743222D01*
X11065848Y-18743222D02*
X11065848Y-18847984D01*
X11161086Y-18847984D02*
X11161086Y-18714650D01*
X11161086Y-18733698D02*
X11170610Y-18724174D01*
X11170610Y-18724174D02*
X11189658Y-18714650D01*
X11189658Y-18714650D02*
X11218229Y-18714650D01*
X11218229Y-18714650D02*
X11237277Y-18724174D01*
X11237277Y-18724174D02*
X11246801Y-18743222D01*
X11246801Y-18743222D02*
X11246801Y-18847984D01*
X11246801Y-18743222D02*
X11256324Y-18724174D01*
X11256324Y-18724174D02*
X11275372Y-18714650D01*
X11275372Y-18714650D02*
X11303943Y-18714650D01*
X11303943Y-18714650D02*
X11322991Y-18724174D01*
X11322991Y-18724174D02*
X11332515Y-18743222D01*
X11332515Y-18743222D02*
X11332515Y-18847984D01*
X11722991Y-18638460D02*
X11551563Y-18895603D01*
X11980134Y-18647984D02*
X11999182Y-18647984D01*
X11999182Y-18647984D02*
X12018229Y-18657508D01*
X12018229Y-18657508D02*
X12027753Y-18667031D01*
X12027753Y-18667031D02*
X12037277Y-18686079D01*
X12037277Y-18686079D02*
X12046801Y-18724174D01*
X12046801Y-18724174D02*
X12046801Y-18771793D01*
X12046801Y-18771793D02*
X12037277Y-18809889D01*
X12037277Y-18809889D02*
X12027753Y-18828936D01*
X12027753Y-18828936D02*
X12018229Y-18838460D01*
X12018229Y-18838460D02*
X11999182Y-18847984D01*
X11999182Y-18847984D02*
X11980134Y-18847984D01*
X11980134Y-18847984D02*
X11961086Y-18838460D01*
X11961086Y-18838460D02*
X11951563Y-18828936D01*
X11951563Y-18828936D02*
X11942039Y-18809889D01*
X11942039Y-18809889D02*
X11932515Y-18771793D01*
X11932515Y-18771793D02*
X11932515Y-18724174D01*
X11932515Y-18724174D02*
X11942039Y-18686079D01*
X11942039Y-18686079D02*
X11951563Y-18667031D01*
X11951563Y-18667031D02*
X11961086Y-18657508D01*
X11961086Y-18657508D02*
X11980134Y-18647984D01*
X12132515Y-18828936D02*
X12142039Y-18838460D01*
X12142039Y-18838460D02*
X12132515Y-18847984D01*
X12132515Y-18847984D02*
X12122991Y-18838460D01*
X12122991Y-18838460D02*
X12132515Y-18828936D01*
X12132515Y-18828936D02*
X12132515Y-18847984D01*
X12265848Y-18647984D02*
X12284896Y-18647984D01*
X12284896Y-18647984D02*
X12303944Y-18657508D01*
X12303944Y-18657508D02*
X12313467Y-18667031D01*
X12313467Y-18667031D02*
X12322991Y-18686079D01*
X12322991Y-18686079D02*
X12332515Y-18724174D01*
X12332515Y-18724174D02*
X12332515Y-18771793D01*
X12332515Y-18771793D02*
X12322991Y-18809889D01*
X12322991Y-18809889D02*
X12313467Y-18828936D01*
X12313467Y-18828936D02*
X12303944Y-18838460D01*
X12303944Y-18838460D02*
X12284896Y-18847984D01*
X12284896Y-18847984D02*
X12265848Y-18847984D01*
X12265848Y-18847984D02*
X12246801Y-18838460D01*
X12246801Y-18838460D02*
X12237277Y-18828936D01*
X12237277Y-18828936D02*
X12227753Y-18809889D01*
X12227753Y-18809889D02*
X12218229Y-18771793D01*
X12218229Y-18771793D02*
X12218229Y-18724174D01*
X12218229Y-18724174D02*
X12227753Y-18686079D01*
X12227753Y-18686079D02*
X12237277Y-18667031D01*
X12237277Y-18667031D02*
X12246801Y-18657508D01*
X12246801Y-18657508D02*
X12265848Y-18647984D01*
X12513467Y-18647984D02*
X12418229Y-18647984D01*
X12418229Y-18647984D02*
X12408706Y-18743222D01*
X12408706Y-18743222D02*
X12418229Y-18733698D01*
X12418229Y-18733698D02*
X12437277Y-18724174D01*
X12437277Y-18724174D02*
X12484896Y-18724174D01*
X12484896Y-18724174D02*
X12503944Y-18733698D01*
X12503944Y-18733698D02*
X12513467Y-18743222D01*
X12513467Y-18743222D02*
X12522991Y-18762270D01*
X12522991Y-18762270D02*
X12522991Y-18809889D01*
X12522991Y-18809889D02*
X12513467Y-18828936D01*
X12513467Y-18828936D02*
X12503944Y-18838460D01*
X12503944Y-18838460D02*
X12484896Y-18847984D01*
X12484896Y-18847984D02*
X12437277Y-18847984D01*
X12437277Y-18847984D02*
X12418229Y-18838460D01*
X12418229Y-18838460D02*
X12408706Y-18828936D01*
X12646801Y-18647984D02*
X12665848Y-18647984D01*
X12665848Y-18647984D02*
X12684896Y-18657508D01*
X12684896Y-18657508D02*
X12694420Y-18667031D01*
X12694420Y-18667031D02*
X12703944Y-18686079D01*
X12703944Y-18686079D02*
X12713467Y-18724174D01*
X12713467Y-18724174D02*
X12713467Y-18771793D01*
X12713467Y-18771793D02*
X12703944Y-18809889D01*
X12703944Y-18809889D02*
X12694420Y-18828936D01*
X12694420Y-18828936D02*
X12684896Y-18838460D01*
X12684896Y-18838460D02*
X12665848Y-18847984D01*
X12665848Y-18847984D02*
X12646801Y-18847984D01*
X12646801Y-18847984D02*
X12627753Y-18838460D01*
X12627753Y-18838460D02*
X12618229Y-18828936D01*
X12618229Y-18828936D02*
X12608706Y-18809889D01*
X12608706Y-18809889D02*
X12599182Y-18771793D01*
X12599182Y-18771793D02*
X12599182Y-18724174D01*
X12599182Y-18724174D02*
X12608706Y-18686079D01*
X12608706Y-18686079D02*
X12618229Y-18667031D01*
X12618229Y-18667031D02*
X12627753Y-18657508D01*
X12627753Y-18657508D02*
X12646801Y-18647984D01*
X12837277Y-18647984D02*
X12856325Y-18647984D01*
X12856325Y-18647984D02*
X12875372Y-18657508D01*
X12875372Y-18657508D02*
X12884896Y-18667031D01*
X12884896Y-18667031D02*
X12894420Y-18686079D01*
X12894420Y-18686079D02*
X12903944Y-18724174D01*
X12903944Y-18724174D02*
X12903944Y-18771793D01*
X12903944Y-18771793D02*
X12894420Y-18809889D01*
X12894420Y-18809889D02*
X12884896Y-18828936D01*
X12884896Y-18828936D02*
X12875372Y-18838460D01*
X12875372Y-18838460D02*
X12856325Y-18847984D01*
X12856325Y-18847984D02*
X12837277Y-18847984D01*
X12837277Y-18847984D02*
X12818229Y-18838460D01*
X12818229Y-18838460D02*
X12808706Y-18828936D01*
X12808706Y-18828936D02*
X12799182Y-18809889D01*
X12799182Y-18809889D02*
X12789658Y-18771793D01*
X12789658Y-18771793D02*
X12789658Y-18724174D01*
X12789658Y-18724174D02*
X12799182Y-18686079D01*
X12799182Y-18686079D02*
X12808706Y-18667031D01*
X12808706Y-18667031D02*
X12818229Y-18657508D01*
X12818229Y-18657508D02*
X12837277Y-18647984D01*
X12980134Y-18647984D02*
X12980134Y-18686079D01*
X13056325Y-18647984D02*
X13056325Y-18686079D01*
X13351563Y-18924174D02*
X13342039Y-18914650D01*
X13342039Y-18914650D02*
X13322991Y-18886079D01*
X13322991Y-18886079D02*
X13313468Y-18867031D01*
X13313468Y-18867031D02*
X13303944Y-18838460D01*
X13303944Y-18838460D02*
X13294420Y-18790841D01*
X13294420Y-18790841D02*
X13294420Y-18752746D01*
X13294420Y-18752746D02*
X13303944Y-18705127D01*
X13303944Y-18705127D02*
X13313468Y-18676555D01*
X13313468Y-18676555D02*
X13322991Y-18657508D01*
X13322991Y-18657508D02*
X13342039Y-18628936D01*
X13342039Y-18628936D02*
X13351563Y-18619412D01*
X13418229Y-18667031D02*
X13427753Y-18657508D01*
X13427753Y-18657508D02*
X13446801Y-18647984D01*
X13446801Y-18647984D02*
X13494420Y-18647984D01*
X13494420Y-18647984D02*
X13513468Y-18657508D01*
X13513468Y-18657508D02*
X13522991Y-18667031D01*
X13522991Y-18667031D02*
X13532515Y-18686079D01*
X13532515Y-18686079D02*
X13532515Y-18705127D01*
X13532515Y-18705127D02*
X13522991Y-18733698D01*
X13522991Y-18733698D02*
X13408706Y-18847984D01*
X13408706Y-18847984D02*
X13532515Y-18847984D01*
X13770610Y-18847984D02*
X13770610Y-18647984D01*
X13856325Y-18847984D02*
X13856325Y-18743222D01*
X13856325Y-18743222D02*
X13846801Y-18724174D01*
X13846801Y-18724174D02*
X13827753Y-18714650D01*
X13827753Y-18714650D02*
X13799182Y-18714650D01*
X13799182Y-18714650D02*
X13780134Y-18724174D01*
X13780134Y-18724174D02*
X13770610Y-18733698D01*
X13980134Y-18847984D02*
X13961087Y-18838460D01*
X13961087Y-18838460D02*
X13951563Y-18828936D01*
X13951563Y-18828936D02*
X13942039Y-18809889D01*
X13942039Y-18809889D02*
X13942039Y-18752746D01*
X13942039Y-18752746D02*
X13951563Y-18733698D01*
X13951563Y-18733698D02*
X13961087Y-18724174D01*
X13961087Y-18724174D02*
X13980134Y-18714650D01*
X13980134Y-18714650D02*
X14008706Y-18714650D01*
X14008706Y-18714650D02*
X14027753Y-18724174D01*
X14027753Y-18724174D02*
X14037277Y-18733698D01*
X14037277Y-18733698D02*
X14046801Y-18752746D01*
X14046801Y-18752746D02*
X14046801Y-18809889D01*
X14046801Y-18809889D02*
X14037277Y-18828936D01*
X14037277Y-18828936D02*
X14027753Y-18838460D01*
X14027753Y-18838460D02*
X14008706Y-18847984D01*
X14008706Y-18847984D02*
X13980134Y-18847984D01*
X14161087Y-18847984D02*
X14142039Y-18838460D01*
X14142039Y-18838460D02*
X14132515Y-18819412D01*
X14132515Y-18819412D02*
X14132515Y-18647984D01*
X14313468Y-18838460D02*
X14294420Y-18847984D01*
X14294420Y-18847984D02*
X14256325Y-18847984D01*
X14256325Y-18847984D02*
X14237277Y-18838460D01*
X14237277Y-18838460D02*
X14227753Y-18819412D01*
X14227753Y-18819412D02*
X14227753Y-18743222D01*
X14227753Y-18743222D02*
X14237277Y-18724174D01*
X14237277Y-18724174D02*
X14256325Y-18714650D01*
X14256325Y-18714650D02*
X14294420Y-18714650D01*
X14294420Y-18714650D02*
X14313468Y-18724174D01*
X14313468Y-18724174D02*
X14322991Y-18743222D01*
X14322991Y-18743222D02*
X14322991Y-18762270D01*
X14322991Y-18762270D02*
X14227753Y-18781317D01*
X14399182Y-18838460D02*
X14418230Y-18847984D01*
X14418230Y-18847984D02*
X14456325Y-18847984D01*
X14456325Y-18847984D02*
X14475372Y-18838460D01*
X14475372Y-18838460D02*
X14484896Y-18819412D01*
X14484896Y-18819412D02*
X14484896Y-18809889D01*
X14484896Y-18809889D02*
X14475372Y-18790841D01*
X14475372Y-18790841D02*
X14456325Y-18781317D01*
X14456325Y-18781317D02*
X14427753Y-18781317D01*
X14427753Y-18781317D02*
X14408706Y-18771793D01*
X14408706Y-18771793D02*
X14399182Y-18752746D01*
X14399182Y-18752746D02*
X14399182Y-18743222D01*
X14399182Y-18743222D02*
X14408706Y-18724174D01*
X14408706Y-18724174D02*
X14427753Y-18714650D01*
X14427753Y-18714650D02*
X14456325Y-18714650D01*
X14456325Y-18714650D02*
X14475372Y-18724174D01*
X14551563Y-18924174D02*
X14561087Y-18914650D01*
X14561087Y-18914650D02*
X14580134Y-18886079D01*
X14580134Y-18886079D02*
X14589658Y-18867031D01*
X14589658Y-18867031D02*
X14599182Y-18838460D01*
X14599182Y-18838460D02*
X14608706Y-18790841D01*
X14608706Y-18790841D02*
X14608706Y-18752746D01*
X14608706Y-18752746D02*
X14599182Y-18705127D01*
X14599182Y-18705127D02*
X14589658Y-18676555D01*
X14589658Y-18676555D02*
X14580134Y-18657508D01*
X14580134Y-18657508D02*
X14561087Y-18628936D01*
X14561087Y-18628936D02*
X14551563Y-18619412D01*
D17*
X9700300Y-18944300D02*
X9700300Y-19096700D01*
X9624100Y-19020500D02*
X9776500Y-19020500D01*
X9776500Y-19020500D02*
G75*
G02*
X9624100Y-19020500I-76200J0D01*
G01*
X9624100Y-19020500D02*
G75*
G02*
X9776500Y-19020500I76200J0D01*
G01*
D11*
X10142039Y-19111984D02*
X10027753Y-19111984D01*
X10084896Y-19111984D02*
X10084896Y-18911984D01*
X10084896Y-18911984D02*
X10065848Y-18940555D01*
X10065848Y-18940555D02*
X10046801Y-18959603D01*
X10046801Y-18959603D02*
X10027753Y-18969127D01*
X10227753Y-19092936D02*
X10237277Y-19102460D01*
X10237277Y-19102460D02*
X10227753Y-19111984D01*
X10227753Y-19111984D02*
X10218229Y-19102460D01*
X10218229Y-19102460D02*
X10227753Y-19092936D01*
X10227753Y-19092936D02*
X10227753Y-19111984D01*
X10418229Y-18911984D02*
X10322991Y-18911984D01*
X10322991Y-18911984D02*
X10313467Y-19007222D01*
X10313467Y-19007222D02*
X10322991Y-18997698D01*
X10322991Y-18997698D02*
X10342039Y-18988174D01*
X10342039Y-18988174D02*
X10389658Y-18988174D01*
X10389658Y-18988174D02*
X10408705Y-18997698D01*
X10408705Y-18997698D02*
X10418229Y-19007222D01*
X10418229Y-19007222D02*
X10427753Y-19026270D01*
X10427753Y-19026270D02*
X10427753Y-19073889D01*
X10427753Y-19073889D02*
X10418229Y-19092936D01*
X10418229Y-19092936D02*
X10408705Y-19102460D01*
X10408705Y-19102460D02*
X10389658Y-19111984D01*
X10389658Y-19111984D02*
X10342039Y-19111984D01*
X10342039Y-19111984D02*
X10322991Y-19102460D01*
X10322991Y-19102460D02*
X10313467Y-19092936D01*
X10503944Y-18931031D02*
X10513467Y-18921508D01*
X10513467Y-18921508D02*
X10532515Y-18911984D01*
X10532515Y-18911984D02*
X10580134Y-18911984D01*
X10580134Y-18911984D02*
X10599182Y-18921508D01*
X10599182Y-18921508D02*
X10608705Y-18931031D01*
X10608705Y-18931031D02*
X10618229Y-18950079D01*
X10618229Y-18950079D02*
X10618229Y-18969127D01*
X10618229Y-18969127D02*
X10608705Y-18997698D01*
X10608705Y-18997698D02*
X10494420Y-19111984D01*
X10494420Y-19111984D02*
X10618229Y-19111984D01*
X10789658Y-18978650D02*
X10789658Y-19111984D01*
X10742039Y-18902460D02*
X10694420Y-19045317D01*
X10694420Y-19045317D02*
X10818229Y-19045317D01*
X10894420Y-19111984D02*
X10894420Y-18978650D01*
X10894420Y-18997698D02*
X10903944Y-18988174D01*
X10903944Y-18988174D02*
X10922991Y-18978650D01*
X10922991Y-18978650D02*
X10951563Y-18978650D01*
X10951563Y-18978650D02*
X10970610Y-18988174D01*
X10970610Y-18988174D02*
X10980134Y-19007222D01*
X10980134Y-19007222D02*
X10980134Y-19111984D01*
X10980134Y-19007222D02*
X10989658Y-18988174D01*
X10989658Y-18988174D02*
X11008705Y-18978650D01*
X11008705Y-18978650D02*
X11037277Y-18978650D01*
X11037277Y-18978650D02*
X11056325Y-18988174D01*
X11056325Y-18988174D02*
X11065848Y-19007222D01*
X11065848Y-19007222D02*
X11065848Y-19111984D01*
X11161086Y-19111984D02*
X11161086Y-18978650D01*
X11161086Y-18997698D02*
X11170610Y-18988174D01*
X11170610Y-18988174D02*
X11189658Y-18978650D01*
X11189658Y-18978650D02*
X11218229Y-18978650D01*
X11218229Y-18978650D02*
X11237277Y-18988174D01*
X11237277Y-18988174D02*
X11246801Y-19007222D01*
X11246801Y-19007222D02*
X11246801Y-19111984D01*
X11246801Y-19007222D02*
X11256324Y-18988174D01*
X11256324Y-18988174D02*
X11275372Y-18978650D01*
X11275372Y-18978650D02*
X11303943Y-18978650D01*
X11303943Y-18978650D02*
X11322991Y-18988174D01*
X11322991Y-18988174D02*
X11332515Y-19007222D01*
X11332515Y-19007222D02*
X11332515Y-19111984D01*
X11722991Y-18902460D02*
X11551563Y-19159603D01*
X11980134Y-18911984D02*
X11999182Y-18911984D01*
X11999182Y-18911984D02*
X12018229Y-18921508D01*
X12018229Y-18921508D02*
X12027753Y-18931031D01*
X12027753Y-18931031D02*
X12037277Y-18950079D01*
X12037277Y-18950079D02*
X12046801Y-18988174D01*
X12046801Y-18988174D02*
X12046801Y-19035793D01*
X12046801Y-19035793D02*
X12037277Y-19073889D01*
X12037277Y-19073889D02*
X12027753Y-19092936D01*
X12027753Y-19092936D02*
X12018229Y-19102460D01*
X12018229Y-19102460D02*
X11999182Y-19111984D01*
X11999182Y-19111984D02*
X11980134Y-19111984D01*
X11980134Y-19111984D02*
X11961086Y-19102460D01*
X11961086Y-19102460D02*
X11951563Y-19092936D01*
X11951563Y-19092936D02*
X11942039Y-19073889D01*
X11942039Y-19073889D02*
X11932515Y-19035793D01*
X11932515Y-19035793D02*
X11932515Y-18988174D01*
X11932515Y-18988174D02*
X11942039Y-18950079D01*
X11942039Y-18950079D02*
X11951563Y-18931031D01*
X11951563Y-18931031D02*
X11961086Y-18921508D01*
X11961086Y-18921508D02*
X11980134Y-18911984D01*
X12132515Y-19092936D02*
X12142039Y-19102460D01*
X12142039Y-19102460D02*
X12132515Y-19111984D01*
X12132515Y-19111984D02*
X12122991Y-19102460D01*
X12122991Y-19102460D02*
X12132515Y-19092936D01*
X12132515Y-19092936D02*
X12132515Y-19111984D01*
X12265848Y-18911984D02*
X12284896Y-18911984D01*
X12284896Y-18911984D02*
X12303944Y-18921508D01*
X12303944Y-18921508D02*
X12313467Y-18931031D01*
X12313467Y-18931031D02*
X12322991Y-18950079D01*
X12322991Y-18950079D02*
X12332515Y-18988174D01*
X12332515Y-18988174D02*
X12332515Y-19035793D01*
X12332515Y-19035793D02*
X12322991Y-19073889D01*
X12322991Y-19073889D02*
X12313467Y-19092936D01*
X12313467Y-19092936D02*
X12303944Y-19102460D01*
X12303944Y-19102460D02*
X12284896Y-19111984D01*
X12284896Y-19111984D02*
X12265848Y-19111984D01*
X12265848Y-19111984D02*
X12246801Y-19102460D01*
X12246801Y-19102460D02*
X12237277Y-19092936D01*
X12237277Y-19092936D02*
X12227753Y-19073889D01*
X12227753Y-19073889D02*
X12218229Y-19035793D01*
X12218229Y-19035793D02*
X12218229Y-18988174D01*
X12218229Y-18988174D02*
X12227753Y-18950079D01*
X12227753Y-18950079D02*
X12237277Y-18931031D01*
X12237277Y-18931031D02*
X12246801Y-18921508D01*
X12246801Y-18921508D02*
X12265848Y-18911984D01*
X12503944Y-18911984D02*
X12465848Y-18911984D01*
X12465848Y-18911984D02*
X12446801Y-18921508D01*
X12446801Y-18921508D02*
X12437277Y-18931031D01*
X12437277Y-18931031D02*
X12418229Y-18959603D01*
X12418229Y-18959603D02*
X12408706Y-18997698D01*
X12408706Y-18997698D02*
X12408706Y-19073889D01*
X12408706Y-19073889D02*
X12418229Y-19092936D01*
X12418229Y-19092936D02*
X12427753Y-19102460D01*
X12427753Y-19102460D02*
X12446801Y-19111984D01*
X12446801Y-19111984D02*
X12484896Y-19111984D01*
X12484896Y-19111984D02*
X12503944Y-19102460D01*
X12503944Y-19102460D02*
X12513467Y-19092936D01*
X12513467Y-19092936D02*
X12522991Y-19073889D01*
X12522991Y-19073889D02*
X12522991Y-19026270D01*
X12522991Y-19026270D02*
X12513467Y-19007222D01*
X12513467Y-19007222D02*
X12503944Y-18997698D01*
X12503944Y-18997698D02*
X12484896Y-18988174D01*
X12484896Y-18988174D02*
X12446801Y-18988174D01*
X12446801Y-18988174D02*
X12427753Y-18997698D01*
X12427753Y-18997698D02*
X12418229Y-19007222D01*
X12418229Y-19007222D02*
X12408706Y-19026270D01*
X12646801Y-18911984D02*
X12665848Y-18911984D01*
X12665848Y-18911984D02*
X12684896Y-18921508D01*
X12684896Y-18921508D02*
X12694420Y-18931031D01*
X12694420Y-18931031D02*
X12703944Y-18950079D01*
X12703944Y-18950079D02*
X12713467Y-18988174D01*
X12713467Y-18988174D02*
X12713467Y-19035793D01*
X12713467Y-19035793D02*
X12703944Y-19073889D01*
X12703944Y-19073889D02*
X12694420Y-19092936D01*
X12694420Y-19092936D02*
X12684896Y-19102460D01*
X12684896Y-19102460D02*
X12665848Y-19111984D01*
X12665848Y-19111984D02*
X12646801Y-19111984D01*
X12646801Y-19111984D02*
X12627753Y-19102460D01*
X12627753Y-19102460D02*
X12618229Y-19092936D01*
X12618229Y-19092936D02*
X12608706Y-19073889D01*
X12608706Y-19073889D02*
X12599182Y-19035793D01*
X12599182Y-19035793D02*
X12599182Y-18988174D01*
X12599182Y-18988174D02*
X12608706Y-18950079D01*
X12608706Y-18950079D02*
X12618229Y-18931031D01*
X12618229Y-18931031D02*
X12627753Y-18921508D01*
X12627753Y-18921508D02*
X12646801Y-18911984D01*
X12837277Y-18911984D02*
X12856325Y-18911984D01*
X12856325Y-18911984D02*
X12875372Y-18921508D01*
X12875372Y-18921508D02*
X12884896Y-18931031D01*
X12884896Y-18931031D02*
X12894420Y-18950079D01*
X12894420Y-18950079D02*
X12903944Y-18988174D01*
X12903944Y-18988174D02*
X12903944Y-19035793D01*
X12903944Y-19035793D02*
X12894420Y-19073889D01*
X12894420Y-19073889D02*
X12884896Y-19092936D01*
X12884896Y-19092936D02*
X12875372Y-19102460D01*
X12875372Y-19102460D02*
X12856325Y-19111984D01*
X12856325Y-19111984D02*
X12837277Y-19111984D01*
X12837277Y-19111984D02*
X12818229Y-19102460D01*
X12818229Y-19102460D02*
X12808706Y-19092936D01*
X12808706Y-19092936D02*
X12799182Y-19073889D01*
X12799182Y-19073889D02*
X12789658Y-19035793D01*
X12789658Y-19035793D02*
X12789658Y-18988174D01*
X12789658Y-18988174D02*
X12799182Y-18950079D01*
X12799182Y-18950079D02*
X12808706Y-18931031D01*
X12808706Y-18931031D02*
X12818229Y-18921508D01*
X12818229Y-18921508D02*
X12837277Y-18911984D01*
X12980134Y-18911984D02*
X12980134Y-18950079D01*
X13056325Y-18911984D02*
X13056325Y-18950079D01*
X13351563Y-19188174D02*
X13342039Y-19178650D01*
X13342039Y-19178650D02*
X13322991Y-19150079D01*
X13322991Y-19150079D02*
X13313468Y-19131031D01*
X13313468Y-19131031D02*
X13303944Y-19102460D01*
X13303944Y-19102460D02*
X13294420Y-19054841D01*
X13294420Y-19054841D02*
X13294420Y-19016746D01*
X13294420Y-19016746D02*
X13303944Y-18969127D01*
X13303944Y-18969127D02*
X13313468Y-18940555D01*
X13313468Y-18940555D02*
X13322991Y-18921508D01*
X13322991Y-18921508D02*
X13342039Y-18892936D01*
X13342039Y-18892936D02*
X13351563Y-18883412D01*
X13513468Y-18978650D02*
X13513468Y-19111984D01*
X13465848Y-18902460D02*
X13418229Y-19045317D01*
X13418229Y-19045317D02*
X13542039Y-19045317D01*
X13770610Y-19111984D02*
X13770610Y-18911984D01*
X13856325Y-19111984D02*
X13856325Y-19007222D01*
X13856325Y-19007222D02*
X13846801Y-18988174D01*
X13846801Y-18988174D02*
X13827753Y-18978650D01*
X13827753Y-18978650D02*
X13799182Y-18978650D01*
X13799182Y-18978650D02*
X13780134Y-18988174D01*
X13780134Y-18988174D02*
X13770610Y-18997698D01*
X13980134Y-19111984D02*
X13961087Y-19102460D01*
X13961087Y-19102460D02*
X13951563Y-19092936D01*
X13951563Y-19092936D02*
X13942039Y-19073889D01*
X13942039Y-19073889D02*
X13942039Y-19016746D01*
X13942039Y-19016746D02*
X13951563Y-18997698D01*
X13951563Y-18997698D02*
X13961087Y-18988174D01*
X13961087Y-18988174D02*
X13980134Y-18978650D01*
X13980134Y-18978650D02*
X14008706Y-18978650D01*
X14008706Y-18978650D02*
X14027753Y-18988174D01*
X14027753Y-18988174D02*
X14037277Y-18997698D01*
X14037277Y-18997698D02*
X14046801Y-19016746D01*
X14046801Y-19016746D02*
X14046801Y-19073889D01*
X14046801Y-19073889D02*
X14037277Y-19092936D01*
X14037277Y-19092936D02*
X14027753Y-19102460D01*
X14027753Y-19102460D02*
X14008706Y-19111984D01*
X14008706Y-19111984D02*
X13980134Y-19111984D01*
X14161087Y-19111984D02*
X14142039Y-19102460D01*
X14142039Y-19102460D02*
X14132515Y-19083412D01*
X14132515Y-19083412D02*
X14132515Y-18911984D01*
X14313468Y-19102460D02*
X14294420Y-19111984D01*
X14294420Y-19111984D02*
X14256325Y-19111984D01*
X14256325Y-19111984D02*
X14237277Y-19102460D01*
X14237277Y-19102460D02*
X14227753Y-19083412D01*
X14227753Y-19083412D02*
X14227753Y-19007222D01*
X14227753Y-19007222D02*
X14237277Y-18988174D01*
X14237277Y-18988174D02*
X14256325Y-18978650D01*
X14256325Y-18978650D02*
X14294420Y-18978650D01*
X14294420Y-18978650D02*
X14313468Y-18988174D01*
X14313468Y-18988174D02*
X14322991Y-19007222D01*
X14322991Y-19007222D02*
X14322991Y-19026270D01*
X14322991Y-19026270D02*
X14227753Y-19045317D01*
X14399182Y-19102460D02*
X14418230Y-19111984D01*
X14418230Y-19111984D02*
X14456325Y-19111984D01*
X14456325Y-19111984D02*
X14475372Y-19102460D01*
X14475372Y-19102460D02*
X14484896Y-19083412D01*
X14484896Y-19083412D02*
X14484896Y-19073889D01*
X14484896Y-19073889D02*
X14475372Y-19054841D01*
X14475372Y-19054841D02*
X14456325Y-19045317D01*
X14456325Y-19045317D02*
X14427753Y-19045317D01*
X14427753Y-19045317D02*
X14408706Y-19035793D01*
X14408706Y-19035793D02*
X14399182Y-19016746D01*
X14399182Y-19016746D02*
X14399182Y-19007222D01*
X14399182Y-19007222D02*
X14408706Y-18988174D01*
X14408706Y-18988174D02*
X14427753Y-18978650D01*
X14427753Y-18978650D02*
X14456325Y-18978650D01*
X14456325Y-18978650D02*
X14475372Y-18988174D01*
X14551563Y-19188174D02*
X14561087Y-19178650D01*
X14561087Y-19178650D02*
X14580134Y-19150079D01*
X14580134Y-19150079D02*
X14589658Y-19131031D01*
X14589658Y-19131031D02*
X14599182Y-19102460D01*
X14599182Y-19102460D02*
X14608706Y-19054841D01*
X14608706Y-19054841D02*
X14608706Y-19016746D01*
X14608706Y-19016746D02*
X14599182Y-18969127D01*
X14599182Y-18969127D02*
X14589658Y-18940555D01*
X14589658Y-18940555D02*
X14580134Y-18921508D01*
X14580134Y-18921508D02*
X14561087Y-18892936D01*
X14561087Y-18892936D02*
X14551563Y-18883412D01*
X9747211Y-19363611D02*
X9747211Y-19222189D01*
X9605789Y-19222189D01*
X9605789Y-19363611D01*
X9747211Y-19363611D01*
X9776500Y-19292900D02*
G75*
G02*
X9576500Y-19292900I-100000J0D01*
G01*
X9576500Y-19292900D02*
G75*
G02*
X9776500Y-19292900I100000J0D01*
G01*
X10027753Y-19203431D02*
X10037277Y-19193908D01*
X10037277Y-19193908D02*
X10056324Y-19184384D01*
X10056324Y-19184384D02*
X10103944Y-19184384D01*
X10103944Y-19184384D02*
X10122991Y-19193908D01*
X10122991Y-19193908D02*
X10132515Y-19203431D01*
X10132515Y-19203431D02*
X10142039Y-19222479D01*
X10142039Y-19222479D02*
X10142039Y-19241527D01*
X10142039Y-19241527D02*
X10132515Y-19270098D01*
X10132515Y-19270098D02*
X10018229Y-19384384D01*
X10018229Y-19384384D02*
X10142039Y-19384384D01*
X10227753Y-19365336D02*
X10237277Y-19374860D01*
X10237277Y-19374860D02*
X10227753Y-19384384D01*
X10227753Y-19384384D02*
X10218229Y-19374860D01*
X10218229Y-19374860D02*
X10227753Y-19365336D01*
X10227753Y-19365336D02*
X10227753Y-19384384D01*
X10418229Y-19184384D02*
X10322991Y-19184384D01*
X10322991Y-19184384D02*
X10313467Y-19279622D01*
X10313467Y-19279622D02*
X10322991Y-19270098D01*
X10322991Y-19270098D02*
X10342039Y-19260574D01*
X10342039Y-19260574D02*
X10389658Y-19260574D01*
X10389658Y-19260574D02*
X10408705Y-19270098D01*
X10408705Y-19270098D02*
X10418229Y-19279622D01*
X10418229Y-19279622D02*
X10427753Y-19298670D01*
X10427753Y-19298670D02*
X10427753Y-19346289D01*
X10427753Y-19346289D02*
X10418229Y-19365336D01*
X10418229Y-19365336D02*
X10408705Y-19374860D01*
X10408705Y-19374860D02*
X10389658Y-19384384D01*
X10389658Y-19384384D02*
X10342039Y-19384384D01*
X10342039Y-19384384D02*
X10322991Y-19374860D01*
X10322991Y-19374860D02*
X10313467Y-19365336D01*
X10599182Y-19251050D02*
X10599182Y-19384384D01*
X10551563Y-19174860D02*
X10503944Y-19317717D01*
X10503944Y-19317717D02*
X10627753Y-19317717D01*
X10742039Y-19184384D02*
X10761086Y-19184384D01*
X10761086Y-19184384D02*
X10780134Y-19193908D01*
X10780134Y-19193908D02*
X10789658Y-19203431D01*
X10789658Y-19203431D02*
X10799182Y-19222479D01*
X10799182Y-19222479D02*
X10808705Y-19260574D01*
X10808705Y-19260574D02*
X10808705Y-19308193D01*
X10808705Y-19308193D02*
X10799182Y-19346289D01*
X10799182Y-19346289D02*
X10789658Y-19365336D01*
X10789658Y-19365336D02*
X10780134Y-19374860D01*
X10780134Y-19374860D02*
X10761086Y-19384384D01*
X10761086Y-19384384D02*
X10742039Y-19384384D01*
X10742039Y-19384384D02*
X10722991Y-19374860D01*
X10722991Y-19374860D02*
X10713467Y-19365336D01*
X10713467Y-19365336D02*
X10703944Y-19346289D01*
X10703944Y-19346289D02*
X10694420Y-19308193D01*
X10694420Y-19308193D02*
X10694420Y-19260574D01*
X10694420Y-19260574D02*
X10703944Y-19222479D01*
X10703944Y-19222479D02*
X10713467Y-19203431D01*
X10713467Y-19203431D02*
X10722991Y-19193908D01*
X10722991Y-19193908D02*
X10742039Y-19184384D01*
X10894420Y-19384384D02*
X10894420Y-19251050D01*
X10894420Y-19270098D02*
X10903944Y-19260574D01*
X10903944Y-19260574D02*
X10922991Y-19251050D01*
X10922991Y-19251050D02*
X10951563Y-19251050D01*
X10951563Y-19251050D02*
X10970610Y-19260574D01*
X10970610Y-19260574D02*
X10980134Y-19279622D01*
X10980134Y-19279622D02*
X10980134Y-19384384D01*
X10980134Y-19279622D02*
X10989658Y-19260574D01*
X10989658Y-19260574D02*
X11008705Y-19251050D01*
X11008705Y-19251050D02*
X11037277Y-19251050D01*
X11037277Y-19251050D02*
X11056325Y-19260574D01*
X11056325Y-19260574D02*
X11065848Y-19279622D01*
X11065848Y-19279622D02*
X11065848Y-19384384D01*
X11161086Y-19384384D02*
X11161086Y-19251050D01*
X11161086Y-19270098D02*
X11170610Y-19260574D01*
X11170610Y-19260574D02*
X11189658Y-19251050D01*
X11189658Y-19251050D02*
X11218229Y-19251050D01*
X11218229Y-19251050D02*
X11237277Y-19260574D01*
X11237277Y-19260574D02*
X11246801Y-19279622D01*
X11246801Y-19279622D02*
X11246801Y-19384384D01*
X11246801Y-19279622D02*
X11256324Y-19260574D01*
X11256324Y-19260574D02*
X11275372Y-19251050D01*
X11275372Y-19251050D02*
X11303943Y-19251050D01*
X11303943Y-19251050D02*
X11322991Y-19260574D01*
X11322991Y-19260574D02*
X11332515Y-19279622D01*
X11332515Y-19279622D02*
X11332515Y-19384384D01*
X11722991Y-19174860D02*
X11551563Y-19432003D01*
X11980134Y-19184384D02*
X11999182Y-19184384D01*
X11999182Y-19184384D02*
X12018229Y-19193908D01*
X12018229Y-19193908D02*
X12027753Y-19203431D01*
X12027753Y-19203431D02*
X12037277Y-19222479D01*
X12037277Y-19222479D02*
X12046801Y-19260574D01*
X12046801Y-19260574D02*
X12046801Y-19308193D01*
X12046801Y-19308193D02*
X12037277Y-19346289D01*
X12037277Y-19346289D02*
X12027753Y-19365336D01*
X12027753Y-19365336D02*
X12018229Y-19374860D01*
X12018229Y-19374860D02*
X11999182Y-19384384D01*
X11999182Y-19384384D02*
X11980134Y-19384384D01*
X11980134Y-19384384D02*
X11961086Y-19374860D01*
X11961086Y-19374860D02*
X11951563Y-19365336D01*
X11951563Y-19365336D02*
X11942039Y-19346289D01*
X11942039Y-19346289D02*
X11932515Y-19308193D01*
X11932515Y-19308193D02*
X11932515Y-19260574D01*
X11932515Y-19260574D02*
X11942039Y-19222479D01*
X11942039Y-19222479D02*
X11951563Y-19203431D01*
X11951563Y-19203431D02*
X11961086Y-19193908D01*
X11961086Y-19193908D02*
X11980134Y-19184384D01*
X12132515Y-19365336D02*
X12142039Y-19374860D01*
X12142039Y-19374860D02*
X12132515Y-19384384D01*
X12132515Y-19384384D02*
X12122991Y-19374860D01*
X12122991Y-19374860D02*
X12132515Y-19365336D01*
X12132515Y-19365336D02*
X12132515Y-19384384D01*
X12332515Y-19384384D02*
X12218229Y-19384384D01*
X12275372Y-19384384D02*
X12275372Y-19184384D01*
X12275372Y-19184384D02*
X12256325Y-19212955D01*
X12256325Y-19212955D02*
X12237277Y-19232003D01*
X12237277Y-19232003D02*
X12218229Y-19241527D01*
X12456325Y-19184384D02*
X12475372Y-19184384D01*
X12475372Y-19184384D02*
X12494420Y-19193908D01*
X12494420Y-19193908D02*
X12503944Y-19203431D01*
X12503944Y-19203431D02*
X12513467Y-19222479D01*
X12513467Y-19222479D02*
X12522991Y-19260574D01*
X12522991Y-19260574D02*
X12522991Y-19308193D01*
X12522991Y-19308193D02*
X12513467Y-19346289D01*
X12513467Y-19346289D02*
X12503944Y-19365336D01*
X12503944Y-19365336D02*
X12494420Y-19374860D01*
X12494420Y-19374860D02*
X12475372Y-19384384D01*
X12475372Y-19384384D02*
X12456325Y-19384384D01*
X12456325Y-19384384D02*
X12437277Y-19374860D01*
X12437277Y-19374860D02*
X12427753Y-19365336D01*
X12427753Y-19365336D02*
X12418229Y-19346289D01*
X12418229Y-19346289D02*
X12408706Y-19308193D01*
X12408706Y-19308193D02*
X12408706Y-19260574D01*
X12408706Y-19260574D02*
X12418229Y-19222479D01*
X12418229Y-19222479D02*
X12427753Y-19203431D01*
X12427753Y-19203431D02*
X12437277Y-19193908D01*
X12437277Y-19193908D02*
X12456325Y-19184384D01*
X12646801Y-19184384D02*
X12665848Y-19184384D01*
X12665848Y-19184384D02*
X12684896Y-19193908D01*
X12684896Y-19193908D02*
X12694420Y-19203431D01*
X12694420Y-19203431D02*
X12703944Y-19222479D01*
X12703944Y-19222479D02*
X12713467Y-19260574D01*
X12713467Y-19260574D02*
X12713467Y-19308193D01*
X12713467Y-19308193D02*
X12703944Y-19346289D01*
X12703944Y-19346289D02*
X12694420Y-19365336D01*
X12694420Y-19365336D02*
X12684896Y-19374860D01*
X12684896Y-19374860D02*
X12665848Y-19384384D01*
X12665848Y-19384384D02*
X12646801Y-19384384D01*
X12646801Y-19384384D02*
X12627753Y-19374860D01*
X12627753Y-19374860D02*
X12618229Y-19365336D01*
X12618229Y-19365336D02*
X12608706Y-19346289D01*
X12608706Y-19346289D02*
X12599182Y-19308193D01*
X12599182Y-19308193D02*
X12599182Y-19260574D01*
X12599182Y-19260574D02*
X12608706Y-19222479D01*
X12608706Y-19222479D02*
X12618229Y-19203431D01*
X12618229Y-19203431D02*
X12627753Y-19193908D01*
X12627753Y-19193908D02*
X12646801Y-19184384D01*
X12837277Y-19184384D02*
X12856325Y-19184384D01*
X12856325Y-19184384D02*
X12875372Y-19193908D01*
X12875372Y-19193908D02*
X12884896Y-19203431D01*
X12884896Y-19203431D02*
X12894420Y-19222479D01*
X12894420Y-19222479D02*
X12903944Y-19260574D01*
X12903944Y-19260574D02*
X12903944Y-19308193D01*
X12903944Y-19308193D02*
X12894420Y-19346289D01*
X12894420Y-19346289D02*
X12884896Y-19365336D01*
X12884896Y-19365336D02*
X12875372Y-19374860D01*
X12875372Y-19374860D02*
X12856325Y-19384384D01*
X12856325Y-19384384D02*
X12837277Y-19384384D01*
X12837277Y-19384384D02*
X12818229Y-19374860D01*
X12818229Y-19374860D02*
X12808706Y-19365336D01*
X12808706Y-19365336D02*
X12799182Y-19346289D01*
X12799182Y-19346289D02*
X12789658Y-19308193D01*
X12789658Y-19308193D02*
X12789658Y-19260574D01*
X12789658Y-19260574D02*
X12799182Y-19222479D01*
X12799182Y-19222479D02*
X12808706Y-19203431D01*
X12808706Y-19203431D02*
X12818229Y-19193908D01*
X12818229Y-19193908D02*
X12837277Y-19184384D01*
X12980134Y-19184384D02*
X12980134Y-19222479D01*
X13056325Y-19184384D02*
X13056325Y-19222479D01*
X13351563Y-19460574D02*
X13342039Y-19451050D01*
X13342039Y-19451050D02*
X13322991Y-19422479D01*
X13322991Y-19422479D02*
X13313468Y-19403431D01*
X13313468Y-19403431D02*
X13303944Y-19374860D01*
X13303944Y-19374860D02*
X13294420Y-19327241D01*
X13294420Y-19327241D02*
X13294420Y-19289146D01*
X13294420Y-19289146D02*
X13303944Y-19241527D01*
X13303944Y-19241527D02*
X13313468Y-19212955D01*
X13313468Y-19212955D02*
X13322991Y-19193908D01*
X13322991Y-19193908D02*
X13342039Y-19165336D01*
X13342039Y-19165336D02*
X13351563Y-19155812D01*
X13418229Y-19203431D02*
X13427753Y-19193908D01*
X13427753Y-19193908D02*
X13446801Y-19184384D01*
X13446801Y-19184384D02*
X13494420Y-19184384D01*
X13494420Y-19184384D02*
X13513468Y-19193908D01*
X13513468Y-19193908D02*
X13522991Y-19203431D01*
X13522991Y-19203431D02*
X13532515Y-19222479D01*
X13532515Y-19222479D02*
X13532515Y-19241527D01*
X13532515Y-19241527D02*
X13522991Y-19270098D01*
X13522991Y-19270098D02*
X13408706Y-19384384D01*
X13408706Y-19384384D02*
X13532515Y-19384384D01*
X13770610Y-19384384D02*
X13770610Y-19184384D01*
X13856325Y-19384384D02*
X13856325Y-19279622D01*
X13856325Y-19279622D02*
X13846801Y-19260574D01*
X13846801Y-19260574D02*
X13827753Y-19251050D01*
X13827753Y-19251050D02*
X13799182Y-19251050D01*
X13799182Y-19251050D02*
X13780134Y-19260574D01*
X13780134Y-19260574D02*
X13770610Y-19270098D01*
X13980134Y-19384384D02*
X13961087Y-19374860D01*
X13961087Y-19374860D02*
X13951563Y-19365336D01*
X13951563Y-19365336D02*
X13942039Y-19346289D01*
X13942039Y-19346289D02*
X13942039Y-19289146D01*
X13942039Y-19289146D02*
X13951563Y-19270098D01*
X13951563Y-19270098D02*
X13961087Y-19260574D01*
X13961087Y-19260574D02*
X13980134Y-19251050D01*
X13980134Y-19251050D02*
X14008706Y-19251050D01*
X14008706Y-19251050D02*
X14027753Y-19260574D01*
X14027753Y-19260574D02*
X14037277Y-19270098D01*
X14037277Y-19270098D02*
X14046801Y-19289146D01*
X14046801Y-19289146D02*
X14046801Y-19346289D01*
X14046801Y-19346289D02*
X14037277Y-19365336D01*
X14037277Y-19365336D02*
X14027753Y-19374860D01*
X14027753Y-19374860D02*
X14008706Y-19384384D01*
X14008706Y-19384384D02*
X13980134Y-19384384D01*
X14161087Y-19384384D02*
X14142039Y-19374860D01*
X14142039Y-19374860D02*
X14132515Y-19355812D01*
X14132515Y-19355812D02*
X14132515Y-19184384D01*
X14313468Y-19374860D02*
X14294420Y-19384384D01*
X14294420Y-19384384D02*
X14256325Y-19384384D01*
X14256325Y-19384384D02*
X14237277Y-19374860D01*
X14237277Y-19374860D02*
X14227753Y-19355812D01*
X14227753Y-19355812D02*
X14227753Y-19279622D01*
X14227753Y-19279622D02*
X14237277Y-19260574D01*
X14237277Y-19260574D02*
X14256325Y-19251050D01*
X14256325Y-19251050D02*
X14294420Y-19251050D01*
X14294420Y-19251050D02*
X14313468Y-19260574D01*
X14313468Y-19260574D02*
X14322991Y-19279622D01*
X14322991Y-19279622D02*
X14322991Y-19298670D01*
X14322991Y-19298670D02*
X14227753Y-19317717D01*
X14399182Y-19374860D02*
X14418230Y-19384384D01*
X14418230Y-19384384D02*
X14456325Y-19384384D01*
X14456325Y-19384384D02*
X14475372Y-19374860D01*
X14475372Y-19374860D02*
X14484896Y-19355812D01*
X14484896Y-19355812D02*
X14484896Y-19346289D01*
X14484896Y-19346289D02*
X14475372Y-19327241D01*
X14475372Y-19327241D02*
X14456325Y-19317717D01*
X14456325Y-19317717D02*
X14427753Y-19317717D01*
X14427753Y-19317717D02*
X14408706Y-19308193D01*
X14408706Y-19308193D02*
X14399182Y-19289146D01*
X14399182Y-19289146D02*
X14399182Y-19279622D01*
X14399182Y-19279622D02*
X14408706Y-19260574D01*
X14408706Y-19260574D02*
X14427753Y-19251050D01*
X14427753Y-19251050D02*
X14456325Y-19251050D01*
X14456325Y-19251050D02*
X14475372Y-19260574D01*
X14551563Y-19460574D02*
X14561087Y-19451050D01*
X14561087Y-19451050D02*
X14580134Y-19422479D01*
X14580134Y-19422479D02*
X14589658Y-19403431D01*
X14589658Y-19403431D02*
X14599182Y-19374860D01*
X14599182Y-19374860D02*
X14608706Y-19327241D01*
X14608706Y-19327241D02*
X14608706Y-19289146D01*
X14608706Y-19289146D02*
X14599182Y-19241527D01*
X14599182Y-19241527D02*
X14589658Y-19212955D01*
X14589658Y-19212955D02*
X14580134Y-19193908D01*
X14580134Y-19193908D02*
X14561087Y-19165336D01*
X14561087Y-19165336D02*
X14551563Y-19155812D01*
X9676500Y-19712900D02*
X9776500Y-19612900D01*
X9676500Y-19512900D01*
X9576500Y-19612900D01*
X9676500Y-19712900D01*
X9776500Y-19612900D02*
G75*
G02*
X9576500Y-19612900I-100000J0D01*
G01*
X9576500Y-19612900D02*
G75*
G02*
X9776500Y-19612900I100000J0D01*
G01*
X10018229Y-19504384D02*
X10142039Y-19504384D01*
X10142039Y-19504384D02*
X10075372Y-19580574D01*
X10075372Y-19580574D02*
X10103944Y-19580574D01*
X10103944Y-19580574D02*
X10122991Y-19590098D01*
X10122991Y-19590098D02*
X10132515Y-19599622D01*
X10132515Y-19599622D02*
X10142039Y-19618670D01*
X10142039Y-19618670D02*
X10142039Y-19666289D01*
X10142039Y-19666289D02*
X10132515Y-19685336D01*
X10132515Y-19685336D02*
X10122991Y-19694860D01*
X10122991Y-19694860D02*
X10103944Y-19704384D01*
X10103944Y-19704384D02*
X10046801Y-19704384D01*
X10046801Y-19704384D02*
X10027753Y-19694860D01*
X10027753Y-19694860D02*
X10018229Y-19685336D01*
X10227753Y-19685336D02*
X10237277Y-19694860D01*
X10237277Y-19694860D02*
X10227753Y-19704384D01*
X10227753Y-19704384D02*
X10218229Y-19694860D01*
X10218229Y-19694860D02*
X10227753Y-19685336D01*
X10227753Y-19685336D02*
X10227753Y-19704384D01*
X10303944Y-19504384D02*
X10427753Y-19504384D01*
X10427753Y-19504384D02*
X10361086Y-19580574D01*
X10361086Y-19580574D02*
X10389658Y-19580574D01*
X10389658Y-19580574D02*
X10408705Y-19590098D01*
X10408705Y-19590098D02*
X10418229Y-19599622D01*
X10418229Y-19599622D02*
X10427753Y-19618670D01*
X10427753Y-19618670D02*
X10427753Y-19666289D01*
X10427753Y-19666289D02*
X10418229Y-19685336D01*
X10418229Y-19685336D02*
X10408705Y-19694860D01*
X10408705Y-19694860D02*
X10389658Y-19704384D01*
X10389658Y-19704384D02*
X10332515Y-19704384D01*
X10332515Y-19704384D02*
X10313467Y-19694860D01*
X10313467Y-19694860D02*
X10303944Y-19685336D01*
X10608705Y-19504384D02*
X10513467Y-19504384D01*
X10513467Y-19504384D02*
X10503944Y-19599622D01*
X10503944Y-19599622D02*
X10513467Y-19590098D01*
X10513467Y-19590098D02*
X10532515Y-19580574D01*
X10532515Y-19580574D02*
X10580134Y-19580574D01*
X10580134Y-19580574D02*
X10599182Y-19590098D01*
X10599182Y-19590098D02*
X10608705Y-19599622D01*
X10608705Y-19599622D02*
X10618229Y-19618670D01*
X10618229Y-19618670D02*
X10618229Y-19666289D01*
X10618229Y-19666289D02*
X10608705Y-19685336D01*
X10608705Y-19685336D02*
X10599182Y-19694860D01*
X10599182Y-19694860D02*
X10580134Y-19704384D01*
X10580134Y-19704384D02*
X10532515Y-19704384D01*
X10532515Y-19704384D02*
X10513467Y-19694860D01*
X10513467Y-19694860D02*
X10503944Y-19685336D01*
X10684896Y-19504384D02*
X10808705Y-19504384D01*
X10808705Y-19504384D02*
X10742039Y-19580574D01*
X10742039Y-19580574D02*
X10770610Y-19580574D01*
X10770610Y-19580574D02*
X10789658Y-19590098D01*
X10789658Y-19590098D02*
X10799182Y-19599622D01*
X10799182Y-19599622D02*
X10808705Y-19618670D01*
X10808705Y-19618670D02*
X10808705Y-19666289D01*
X10808705Y-19666289D02*
X10799182Y-19685336D01*
X10799182Y-19685336D02*
X10789658Y-19694860D01*
X10789658Y-19694860D02*
X10770610Y-19704384D01*
X10770610Y-19704384D02*
X10713467Y-19704384D01*
X10713467Y-19704384D02*
X10694420Y-19694860D01*
X10694420Y-19694860D02*
X10684896Y-19685336D01*
X10894420Y-19704384D02*
X10894420Y-19571050D01*
X10894420Y-19590098D02*
X10903944Y-19580574D01*
X10903944Y-19580574D02*
X10922991Y-19571050D01*
X10922991Y-19571050D02*
X10951563Y-19571050D01*
X10951563Y-19571050D02*
X10970610Y-19580574D01*
X10970610Y-19580574D02*
X10980134Y-19599622D01*
X10980134Y-19599622D02*
X10980134Y-19704384D01*
X10980134Y-19599622D02*
X10989658Y-19580574D01*
X10989658Y-19580574D02*
X11008705Y-19571050D01*
X11008705Y-19571050D02*
X11037277Y-19571050D01*
X11037277Y-19571050D02*
X11056325Y-19580574D01*
X11056325Y-19580574D02*
X11065848Y-19599622D01*
X11065848Y-19599622D02*
X11065848Y-19704384D01*
X11161086Y-19704384D02*
X11161086Y-19571050D01*
X11161086Y-19590098D02*
X11170610Y-19580574D01*
X11170610Y-19580574D02*
X11189658Y-19571050D01*
X11189658Y-19571050D02*
X11218229Y-19571050D01*
X11218229Y-19571050D02*
X11237277Y-19580574D01*
X11237277Y-19580574D02*
X11246801Y-19599622D01*
X11246801Y-19599622D02*
X11246801Y-19704384D01*
X11246801Y-19599622D02*
X11256324Y-19580574D01*
X11256324Y-19580574D02*
X11275372Y-19571050D01*
X11275372Y-19571050D02*
X11303943Y-19571050D01*
X11303943Y-19571050D02*
X11322991Y-19580574D01*
X11322991Y-19580574D02*
X11332515Y-19599622D01*
X11332515Y-19599622D02*
X11332515Y-19704384D01*
X11722991Y-19494860D02*
X11551563Y-19752003D01*
X11980134Y-19504384D02*
X11999182Y-19504384D01*
X11999182Y-19504384D02*
X12018229Y-19513908D01*
X12018229Y-19513908D02*
X12027753Y-19523431D01*
X12027753Y-19523431D02*
X12037277Y-19542479D01*
X12037277Y-19542479D02*
X12046801Y-19580574D01*
X12046801Y-19580574D02*
X12046801Y-19628193D01*
X12046801Y-19628193D02*
X12037277Y-19666289D01*
X12037277Y-19666289D02*
X12027753Y-19685336D01*
X12027753Y-19685336D02*
X12018229Y-19694860D01*
X12018229Y-19694860D02*
X11999182Y-19704384D01*
X11999182Y-19704384D02*
X11980134Y-19704384D01*
X11980134Y-19704384D02*
X11961086Y-19694860D01*
X11961086Y-19694860D02*
X11951563Y-19685336D01*
X11951563Y-19685336D02*
X11942039Y-19666289D01*
X11942039Y-19666289D02*
X11932515Y-19628193D01*
X11932515Y-19628193D02*
X11932515Y-19580574D01*
X11932515Y-19580574D02*
X11942039Y-19542479D01*
X11942039Y-19542479D02*
X11951563Y-19523431D01*
X11951563Y-19523431D02*
X11961086Y-19513908D01*
X11961086Y-19513908D02*
X11980134Y-19504384D01*
X12132515Y-19685336D02*
X12142039Y-19694860D01*
X12142039Y-19694860D02*
X12132515Y-19704384D01*
X12132515Y-19704384D02*
X12122991Y-19694860D01*
X12122991Y-19694860D02*
X12132515Y-19685336D01*
X12132515Y-19685336D02*
X12132515Y-19704384D01*
X12332515Y-19704384D02*
X12218229Y-19704384D01*
X12275372Y-19704384D02*
X12275372Y-19504384D01*
X12275372Y-19504384D02*
X12256325Y-19532955D01*
X12256325Y-19532955D02*
X12237277Y-19552003D01*
X12237277Y-19552003D02*
X12218229Y-19561527D01*
X12399182Y-19504384D02*
X12522991Y-19504384D01*
X12522991Y-19504384D02*
X12456325Y-19580574D01*
X12456325Y-19580574D02*
X12484896Y-19580574D01*
X12484896Y-19580574D02*
X12503944Y-19590098D01*
X12503944Y-19590098D02*
X12513467Y-19599622D01*
X12513467Y-19599622D02*
X12522991Y-19618670D01*
X12522991Y-19618670D02*
X12522991Y-19666289D01*
X12522991Y-19666289D02*
X12513467Y-19685336D01*
X12513467Y-19685336D02*
X12503944Y-19694860D01*
X12503944Y-19694860D02*
X12484896Y-19704384D01*
X12484896Y-19704384D02*
X12427753Y-19704384D01*
X12427753Y-19704384D02*
X12408706Y-19694860D01*
X12408706Y-19694860D02*
X12399182Y-19685336D01*
X12599182Y-19523431D02*
X12608706Y-19513908D01*
X12608706Y-19513908D02*
X12627753Y-19504384D01*
X12627753Y-19504384D02*
X12675372Y-19504384D01*
X12675372Y-19504384D02*
X12694420Y-19513908D01*
X12694420Y-19513908D02*
X12703944Y-19523431D01*
X12703944Y-19523431D02*
X12713467Y-19542479D01*
X12713467Y-19542479D02*
X12713467Y-19561527D01*
X12713467Y-19561527D02*
X12703944Y-19590098D01*
X12703944Y-19590098D02*
X12589658Y-19704384D01*
X12589658Y-19704384D02*
X12713467Y-19704384D01*
X12837277Y-19504384D02*
X12856325Y-19504384D01*
X12856325Y-19504384D02*
X12875372Y-19513908D01*
X12875372Y-19513908D02*
X12884896Y-19523431D01*
X12884896Y-19523431D02*
X12894420Y-19542479D01*
X12894420Y-19542479D02*
X12903944Y-19580574D01*
X12903944Y-19580574D02*
X12903944Y-19628193D01*
X12903944Y-19628193D02*
X12894420Y-19666289D01*
X12894420Y-19666289D02*
X12884896Y-19685336D01*
X12884896Y-19685336D02*
X12875372Y-19694860D01*
X12875372Y-19694860D02*
X12856325Y-19704384D01*
X12856325Y-19704384D02*
X12837277Y-19704384D01*
X12837277Y-19704384D02*
X12818229Y-19694860D01*
X12818229Y-19694860D02*
X12808706Y-19685336D01*
X12808706Y-19685336D02*
X12799182Y-19666289D01*
X12799182Y-19666289D02*
X12789658Y-19628193D01*
X12789658Y-19628193D02*
X12789658Y-19580574D01*
X12789658Y-19580574D02*
X12799182Y-19542479D01*
X12799182Y-19542479D02*
X12808706Y-19523431D01*
X12808706Y-19523431D02*
X12818229Y-19513908D01*
X12818229Y-19513908D02*
X12837277Y-19504384D01*
X12980134Y-19504384D02*
X12980134Y-19542479D01*
X13056325Y-19504384D02*
X13056325Y-19542479D01*
X13351563Y-19780574D02*
X13342039Y-19771050D01*
X13342039Y-19771050D02*
X13322991Y-19742479D01*
X13322991Y-19742479D02*
X13313468Y-19723431D01*
X13313468Y-19723431D02*
X13303944Y-19694860D01*
X13303944Y-19694860D02*
X13294420Y-19647241D01*
X13294420Y-19647241D02*
X13294420Y-19609146D01*
X13294420Y-19609146D02*
X13303944Y-19561527D01*
X13303944Y-19561527D02*
X13313468Y-19532955D01*
X13313468Y-19532955D02*
X13322991Y-19513908D01*
X13322991Y-19513908D02*
X13342039Y-19485336D01*
X13342039Y-19485336D02*
X13351563Y-19475812D01*
X13418229Y-19523431D02*
X13427753Y-19513908D01*
X13427753Y-19513908D02*
X13446801Y-19504384D01*
X13446801Y-19504384D02*
X13494420Y-19504384D01*
X13494420Y-19504384D02*
X13513468Y-19513908D01*
X13513468Y-19513908D02*
X13522991Y-19523431D01*
X13522991Y-19523431D02*
X13532515Y-19542479D01*
X13532515Y-19542479D02*
X13532515Y-19561527D01*
X13532515Y-19561527D02*
X13522991Y-19590098D01*
X13522991Y-19590098D02*
X13408706Y-19704384D01*
X13408706Y-19704384D02*
X13532515Y-19704384D01*
X13770610Y-19704384D02*
X13770610Y-19504384D01*
X13856325Y-19704384D02*
X13856325Y-19599622D01*
X13856325Y-19599622D02*
X13846801Y-19580574D01*
X13846801Y-19580574D02*
X13827753Y-19571050D01*
X13827753Y-19571050D02*
X13799182Y-19571050D01*
X13799182Y-19571050D02*
X13780134Y-19580574D01*
X13780134Y-19580574D02*
X13770610Y-19590098D01*
X13980134Y-19704384D02*
X13961087Y-19694860D01*
X13961087Y-19694860D02*
X13951563Y-19685336D01*
X13951563Y-19685336D02*
X13942039Y-19666289D01*
X13942039Y-19666289D02*
X13942039Y-19609146D01*
X13942039Y-19609146D02*
X13951563Y-19590098D01*
X13951563Y-19590098D02*
X13961087Y-19580574D01*
X13961087Y-19580574D02*
X13980134Y-19571050D01*
X13980134Y-19571050D02*
X14008706Y-19571050D01*
X14008706Y-19571050D02*
X14027753Y-19580574D01*
X14027753Y-19580574D02*
X14037277Y-19590098D01*
X14037277Y-19590098D02*
X14046801Y-19609146D01*
X14046801Y-19609146D02*
X14046801Y-19666289D01*
X14046801Y-19666289D02*
X14037277Y-19685336D01*
X14037277Y-19685336D02*
X14027753Y-19694860D01*
X14027753Y-19694860D02*
X14008706Y-19704384D01*
X14008706Y-19704384D02*
X13980134Y-19704384D01*
X14161087Y-19704384D02*
X14142039Y-19694860D01*
X14142039Y-19694860D02*
X14132515Y-19675812D01*
X14132515Y-19675812D02*
X14132515Y-19504384D01*
X14313468Y-19694860D02*
X14294420Y-19704384D01*
X14294420Y-19704384D02*
X14256325Y-19704384D01*
X14256325Y-19704384D02*
X14237277Y-19694860D01*
X14237277Y-19694860D02*
X14227753Y-19675812D01*
X14227753Y-19675812D02*
X14227753Y-19599622D01*
X14227753Y-19599622D02*
X14237277Y-19580574D01*
X14237277Y-19580574D02*
X14256325Y-19571050D01*
X14256325Y-19571050D02*
X14294420Y-19571050D01*
X14294420Y-19571050D02*
X14313468Y-19580574D01*
X14313468Y-19580574D02*
X14322991Y-19599622D01*
X14322991Y-19599622D02*
X14322991Y-19618670D01*
X14322991Y-19618670D02*
X14227753Y-19637717D01*
X14399182Y-19694860D02*
X14418230Y-19704384D01*
X14418230Y-19704384D02*
X14456325Y-19704384D01*
X14456325Y-19704384D02*
X14475372Y-19694860D01*
X14475372Y-19694860D02*
X14484896Y-19675812D01*
X14484896Y-19675812D02*
X14484896Y-19666289D01*
X14484896Y-19666289D02*
X14475372Y-19647241D01*
X14475372Y-19647241D02*
X14456325Y-19637717D01*
X14456325Y-19637717D02*
X14427753Y-19637717D01*
X14427753Y-19637717D02*
X14408706Y-19628193D01*
X14408706Y-19628193D02*
X14399182Y-19609146D01*
X14399182Y-19609146D02*
X14399182Y-19599622D01*
X14399182Y-19599622D02*
X14408706Y-19580574D01*
X14408706Y-19580574D02*
X14427753Y-19571050D01*
X14427753Y-19571050D02*
X14456325Y-19571050D01*
X14456325Y-19571050D02*
X14475372Y-19580574D01*
X14551563Y-19780574D02*
X14561087Y-19771050D01*
X14561087Y-19771050D02*
X14580134Y-19742479D01*
X14580134Y-19742479D02*
X14589658Y-19723431D01*
X14589658Y-19723431D02*
X14599182Y-19694860D01*
X14599182Y-19694860D02*
X14608706Y-19647241D01*
X14608706Y-19647241D02*
X14608706Y-19609146D01*
X14608706Y-19609146D02*
X14599182Y-19561527D01*
X14599182Y-19561527D02*
X14589658Y-19532955D01*
X14589658Y-19532955D02*
X14580134Y-19513908D01*
X14580134Y-19513908D02*
X14561087Y-19485336D01*
X14561087Y-19485336D02*
X14551563Y-19475812D01*
X9676500Y-19832900D02*
X9676500Y-20032900D01*
X9576500Y-19932900D02*
X9776500Y-19932900D01*
X9747211Y-20003611D02*
X9747211Y-19862189D01*
X9605789Y-19862189D01*
X9605789Y-20003611D01*
X9747211Y-20003611D01*
X10122991Y-19891050D02*
X10122991Y-20024384D01*
X10075372Y-19814860D02*
X10027753Y-19957717D01*
X10027753Y-19957717D02*
X10151563Y-19957717D01*
X10227753Y-20005336D02*
X10237277Y-20014860D01*
X10237277Y-20014860D02*
X10227753Y-20024384D01*
X10227753Y-20024384D02*
X10218229Y-20014860D01*
X10218229Y-20014860D02*
X10227753Y-20005336D01*
X10227753Y-20005336D02*
X10227753Y-20024384D01*
X10361086Y-19824384D02*
X10380134Y-19824384D01*
X10380134Y-19824384D02*
X10399182Y-19833908D01*
X10399182Y-19833908D02*
X10408705Y-19843431D01*
X10408705Y-19843431D02*
X10418229Y-19862479D01*
X10418229Y-19862479D02*
X10427753Y-19900574D01*
X10427753Y-19900574D02*
X10427753Y-19948193D01*
X10427753Y-19948193D02*
X10418229Y-19986289D01*
X10418229Y-19986289D02*
X10408705Y-20005336D01*
X10408705Y-20005336D02*
X10399182Y-20014860D01*
X10399182Y-20014860D02*
X10380134Y-20024384D01*
X10380134Y-20024384D02*
X10361086Y-20024384D01*
X10361086Y-20024384D02*
X10342039Y-20014860D01*
X10342039Y-20014860D02*
X10332515Y-20005336D01*
X10332515Y-20005336D02*
X10322991Y-19986289D01*
X10322991Y-19986289D02*
X10313467Y-19948193D01*
X10313467Y-19948193D02*
X10313467Y-19900574D01*
X10313467Y-19900574D02*
X10322991Y-19862479D01*
X10322991Y-19862479D02*
X10332515Y-19843431D01*
X10332515Y-19843431D02*
X10342039Y-19833908D01*
X10342039Y-19833908D02*
X10361086Y-19824384D01*
X10599182Y-19824384D02*
X10561086Y-19824384D01*
X10561086Y-19824384D02*
X10542039Y-19833908D01*
X10542039Y-19833908D02*
X10532515Y-19843431D01*
X10532515Y-19843431D02*
X10513467Y-19872003D01*
X10513467Y-19872003D02*
X10503944Y-19910098D01*
X10503944Y-19910098D02*
X10503944Y-19986289D01*
X10503944Y-19986289D02*
X10513467Y-20005336D01*
X10513467Y-20005336D02*
X10522991Y-20014860D01*
X10522991Y-20014860D02*
X10542039Y-20024384D01*
X10542039Y-20024384D02*
X10580134Y-20024384D01*
X10580134Y-20024384D02*
X10599182Y-20014860D01*
X10599182Y-20014860D02*
X10608705Y-20005336D01*
X10608705Y-20005336D02*
X10618229Y-19986289D01*
X10618229Y-19986289D02*
X10618229Y-19938670D01*
X10618229Y-19938670D02*
X10608705Y-19919622D01*
X10608705Y-19919622D02*
X10599182Y-19910098D01*
X10599182Y-19910098D02*
X10580134Y-19900574D01*
X10580134Y-19900574D02*
X10542039Y-19900574D01*
X10542039Y-19900574D02*
X10522991Y-19910098D01*
X10522991Y-19910098D02*
X10513467Y-19919622D01*
X10513467Y-19919622D02*
X10503944Y-19938670D01*
X10789658Y-19891050D02*
X10789658Y-20024384D01*
X10742039Y-19814860D02*
X10694420Y-19957717D01*
X10694420Y-19957717D02*
X10818229Y-19957717D01*
X10894420Y-20024384D02*
X10894420Y-19891050D01*
X10894420Y-19910098D02*
X10903944Y-19900574D01*
X10903944Y-19900574D02*
X10922991Y-19891050D01*
X10922991Y-19891050D02*
X10951563Y-19891050D01*
X10951563Y-19891050D02*
X10970610Y-19900574D01*
X10970610Y-19900574D02*
X10980134Y-19919622D01*
X10980134Y-19919622D02*
X10980134Y-20024384D01*
X10980134Y-19919622D02*
X10989658Y-19900574D01*
X10989658Y-19900574D02*
X11008705Y-19891050D01*
X11008705Y-19891050D02*
X11037277Y-19891050D01*
X11037277Y-19891050D02*
X11056325Y-19900574D01*
X11056325Y-19900574D02*
X11065848Y-19919622D01*
X11065848Y-19919622D02*
X11065848Y-20024384D01*
X11161086Y-20024384D02*
X11161086Y-19891050D01*
X11161086Y-19910098D02*
X11170610Y-19900574D01*
X11170610Y-19900574D02*
X11189658Y-19891050D01*
X11189658Y-19891050D02*
X11218229Y-19891050D01*
X11218229Y-19891050D02*
X11237277Y-19900574D01*
X11237277Y-19900574D02*
X11246801Y-19919622D01*
X11246801Y-19919622D02*
X11246801Y-20024384D01*
X11246801Y-19919622D02*
X11256324Y-19900574D01*
X11256324Y-19900574D02*
X11275372Y-19891050D01*
X11275372Y-19891050D02*
X11303943Y-19891050D01*
X11303943Y-19891050D02*
X11322991Y-19900574D01*
X11322991Y-19900574D02*
X11332515Y-19919622D01*
X11332515Y-19919622D02*
X11332515Y-20024384D01*
X11722991Y-19814860D02*
X11551563Y-20072003D01*
X11980134Y-19824384D02*
X11999182Y-19824384D01*
X11999182Y-19824384D02*
X12018229Y-19833908D01*
X12018229Y-19833908D02*
X12027753Y-19843431D01*
X12027753Y-19843431D02*
X12037277Y-19862479D01*
X12037277Y-19862479D02*
X12046801Y-19900574D01*
X12046801Y-19900574D02*
X12046801Y-19948193D01*
X12046801Y-19948193D02*
X12037277Y-19986289D01*
X12037277Y-19986289D02*
X12027753Y-20005336D01*
X12027753Y-20005336D02*
X12018229Y-20014860D01*
X12018229Y-20014860D02*
X11999182Y-20024384D01*
X11999182Y-20024384D02*
X11980134Y-20024384D01*
X11980134Y-20024384D02*
X11961086Y-20014860D01*
X11961086Y-20014860D02*
X11951563Y-20005336D01*
X11951563Y-20005336D02*
X11942039Y-19986289D01*
X11942039Y-19986289D02*
X11932515Y-19948193D01*
X11932515Y-19948193D02*
X11932515Y-19900574D01*
X11932515Y-19900574D02*
X11942039Y-19862479D01*
X11942039Y-19862479D02*
X11951563Y-19843431D01*
X11951563Y-19843431D02*
X11961086Y-19833908D01*
X11961086Y-19833908D02*
X11980134Y-19824384D01*
X12132515Y-20005336D02*
X12142039Y-20014860D01*
X12142039Y-20014860D02*
X12132515Y-20024384D01*
X12132515Y-20024384D02*
X12122991Y-20014860D01*
X12122991Y-20014860D02*
X12132515Y-20005336D01*
X12132515Y-20005336D02*
X12132515Y-20024384D01*
X12332515Y-20024384D02*
X12218229Y-20024384D01*
X12275372Y-20024384D02*
X12275372Y-19824384D01*
X12275372Y-19824384D02*
X12256325Y-19852955D01*
X12256325Y-19852955D02*
X12237277Y-19872003D01*
X12237277Y-19872003D02*
X12218229Y-19881527D01*
X12503944Y-19824384D02*
X12465848Y-19824384D01*
X12465848Y-19824384D02*
X12446801Y-19833908D01*
X12446801Y-19833908D02*
X12437277Y-19843431D01*
X12437277Y-19843431D02*
X12418229Y-19872003D01*
X12418229Y-19872003D02*
X12408706Y-19910098D01*
X12408706Y-19910098D02*
X12408706Y-19986289D01*
X12408706Y-19986289D02*
X12418229Y-20005336D01*
X12418229Y-20005336D02*
X12427753Y-20014860D01*
X12427753Y-20014860D02*
X12446801Y-20024384D01*
X12446801Y-20024384D02*
X12484896Y-20024384D01*
X12484896Y-20024384D02*
X12503944Y-20014860D01*
X12503944Y-20014860D02*
X12513467Y-20005336D01*
X12513467Y-20005336D02*
X12522991Y-19986289D01*
X12522991Y-19986289D02*
X12522991Y-19938670D01*
X12522991Y-19938670D02*
X12513467Y-19919622D01*
X12513467Y-19919622D02*
X12503944Y-19910098D01*
X12503944Y-19910098D02*
X12484896Y-19900574D01*
X12484896Y-19900574D02*
X12446801Y-19900574D01*
X12446801Y-19900574D02*
X12427753Y-19910098D01*
X12427753Y-19910098D02*
X12418229Y-19919622D01*
X12418229Y-19919622D02*
X12408706Y-19938670D01*
X12646801Y-19824384D02*
X12665848Y-19824384D01*
X12665848Y-19824384D02*
X12684896Y-19833908D01*
X12684896Y-19833908D02*
X12694420Y-19843431D01*
X12694420Y-19843431D02*
X12703944Y-19862479D01*
X12703944Y-19862479D02*
X12713467Y-19900574D01*
X12713467Y-19900574D02*
X12713467Y-19948193D01*
X12713467Y-19948193D02*
X12703944Y-19986289D01*
X12703944Y-19986289D02*
X12694420Y-20005336D01*
X12694420Y-20005336D02*
X12684896Y-20014860D01*
X12684896Y-20014860D02*
X12665848Y-20024384D01*
X12665848Y-20024384D02*
X12646801Y-20024384D01*
X12646801Y-20024384D02*
X12627753Y-20014860D01*
X12627753Y-20014860D02*
X12618229Y-20005336D01*
X12618229Y-20005336D02*
X12608706Y-19986289D01*
X12608706Y-19986289D02*
X12599182Y-19948193D01*
X12599182Y-19948193D02*
X12599182Y-19900574D01*
X12599182Y-19900574D02*
X12608706Y-19862479D01*
X12608706Y-19862479D02*
X12618229Y-19843431D01*
X12618229Y-19843431D02*
X12627753Y-19833908D01*
X12627753Y-19833908D02*
X12646801Y-19824384D01*
X12837277Y-19824384D02*
X12856325Y-19824384D01*
X12856325Y-19824384D02*
X12875372Y-19833908D01*
X12875372Y-19833908D02*
X12884896Y-19843431D01*
X12884896Y-19843431D02*
X12894420Y-19862479D01*
X12894420Y-19862479D02*
X12903944Y-19900574D01*
X12903944Y-19900574D02*
X12903944Y-19948193D01*
X12903944Y-19948193D02*
X12894420Y-19986289D01*
X12894420Y-19986289D02*
X12884896Y-20005336D01*
X12884896Y-20005336D02*
X12875372Y-20014860D01*
X12875372Y-20014860D02*
X12856325Y-20024384D01*
X12856325Y-20024384D02*
X12837277Y-20024384D01*
X12837277Y-20024384D02*
X12818229Y-20014860D01*
X12818229Y-20014860D02*
X12808706Y-20005336D01*
X12808706Y-20005336D02*
X12799182Y-19986289D01*
X12799182Y-19986289D02*
X12789658Y-19948193D01*
X12789658Y-19948193D02*
X12789658Y-19900574D01*
X12789658Y-19900574D02*
X12799182Y-19862479D01*
X12799182Y-19862479D02*
X12808706Y-19843431D01*
X12808706Y-19843431D02*
X12818229Y-19833908D01*
X12818229Y-19833908D02*
X12837277Y-19824384D01*
X12980134Y-19824384D02*
X12980134Y-19862479D01*
X13056325Y-19824384D02*
X13056325Y-19862479D01*
X13351563Y-20100574D02*
X13342039Y-20091050D01*
X13342039Y-20091050D02*
X13322991Y-20062479D01*
X13322991Y-20062479D02*
X13313468Y-20043431D01*
X13313468Y-20043431D02*
X13303944Y-20014860D01*
X13303944Y-20014860D02*
X13294420Y-19967241D01*
X13294420Y-19967241D02*
X13294420Y-19929146D01*
X13294420Y-19929146D02*
X13303944Y-19881527D01*
X13303944Y-19881527D02*
X13313468Y-19852955D01*
X13313468Y-19852955D02*
X13322991Y-19833908D01*
X13322991Y-19833908D02*
X13342039Y-19805336D01*
X13342039Y-19805336D02*
X13351563Y-19795812D01*
X13418229Y-19843431D02*
X13427753Y-19833908D01*
X13427753Y-19833908D02*
X13446801Y-19824384D01*
X13446801Y-19824384D02*
X13494420Y-19824384D01*
X13494420Y-19824384D02*
X13513468Y-19833908D01*
X13513468Y-19833908D02*
X13522991Y-19843431D01*
X13522991Y-19843431D02*
X13532515Y-19862479D01*
X13532515Y-19862479D02*
X13532515Y-19881527D01*
X13532515Y-19881527D02*
X13522991Y-19910098D01*
X13522991Y-19910098D02*
X13408706Y-20024384D01*
X13408706Y-20024384D02*
X13532515Y-20024384D01*
X13770610Y-20024384D02*
X13770610Y-19824384D01*
X13856325Y-20024384D02*
X13856325Y-19919622D01*
X13856325Y-19919622D02*
X13846801Y-19900574D01*
X13846801Y-19900574D02*
X13827753Y-19891050D01*
X13827753Y-19891050D02*
X13799182Y-19891050D01*
X13799182Y-19891050D02*
X13780134Y-19900574D01*
X13780134Y-19900574D02*
X13770610Y-19910098D01*
X13980134Y-20024384D02*
X13961087Y-20014860D01*
X13961087Y-20014860D02*
X13951563Y-20005336D01*
X13951563Y-20005336D02*
X13942039Y-19986289D01*
X13942039Y-19986289D02*
X13942039Y-19929146D01*
X13942039Y-19929146D02*
X13951563Y-19910098D01*
X13951563Y-19910098D02*
X13961087Y-19900574D01*
X13961087Y-19900574D02*
X13980134Y-19891050D01*
X13980134Y-19891050D02*
X14008706Y-19891050D01*
X14008706Y-19891050D02*
X14027753Y-19900574D01*
X14027753Y-19900574D02*
X14037277Y-19910098D01*
X14037277Y-19910098D02*
X14046801Y-19929146D01*
X14046801Y-19929146D02*
X14046801Y-19986289D01*
X14046801Y-19986289D02*
X14037277Y-20005336D01*
X14037277Y-20005336D02*
X14027753Y-20014860D01*
X14027753Y-20014860D02*
X14008706Y-20024384D01*
X14008706Y-20024384D02*
X13980134Y-20024384D01*
X14161087Y-20024384D02*
X14142039Y-20014860D01*
X14142039Y-20014860D02*
X14132515Y-19995812D01*
X14132515Y-19995812D02*
X14132515Y-19824384D01*
X14313468Y-20014860D02*
X14294420Y-20024384D01*
X14294420Y-20024384D02*
X14256325Y-20024384D01*
X14256325Y-20024384D02*
X14237277Y-20014860D01*
X14237277Y-20014860D02*
X14227753Y-19995812D01*
X14227753Y-19995812D02*
X14227753Y-19919622D01*
X14227753Y-19919622D02*
X14237277Y-19900574D01*
X14237277Y-19900574D02*
X14256325Y-19891050D01*
X14256325Y-19891050D02*
X14294420Y-19891050D01*
X14294420Y-19891050D02*
X14313468Y-19900574D01*
X14313468Y-19900574D02*
X14322991Y-19919622D01*
X14322991Y-19919622D02*
X14322991Y-19938670D01*
X14322991Y-19938670D02*
X14227753Y-19957717D01*
X14399182Y-20014860D02*
X14418230Y-20024384D01*
X14418230Y-20024384D02*
X14456325Y-20024384D01*
X14456325Y-20024384D02*
X14475372Y-20014860D01*
X14475372Y-20014860D02*
X14484896Y-19995812D01*
X14484896Y-19995812D02*
X14484896Y-19986289D01*
X14484896Y-19986289D02*
X14475372Y-19967241D01*
X14475372Y-19967241D02*
X14456325Y-19957717D01*
X14456325Y-19957717D02*
X14427753Y-19957717D01*
X14427753Y-19957717D02*
X14408706Y-19948193D01*
X14408706Y-19948193D02*
X14399182Y-19929146D01*
X14399182Y-19929146D02*
X14399182Y-19919622D01*
X14399182Y-19919622D02*
X14408706Y-19900574D01*
X14408706Y-19900574D02*
X14427753Y-19891050D01*
X14427753Y-19891050D02*
X14456325Y-19891050D01*
X14456325Y-19891050D02*
X14475372Y-19900574D01*
X14551563Y-20100574D02*
X14561087Y-20091050D01*
X14561087Y-20091050D02*
X14580134Y-20062479D01*
X14580134Y-20062479D02*
X14589658Y-20043431D01*
X14589658Y-20043431D02*
X14599182Y-20014860D01*
X14599182Y-20014860D02*
X14608706Y-19967241D01*
X14608706Y-19967241D02*
X14608706Y-19929146D01*
X14608706Y-19929146D02*
X14599182Y-19881527D01*
X14599182Y-19881527D02*
X14589658Y-19852955D01*
X14589658Y-19852955D02*
X14580134Y-19833908D01*
X14580134Y-19833908D02*
X14561087Y-19805336D01*
X14561087Y-19805336D02*
X14551563Y-19795812D01*
M02*
